<svg width="280" height="230" viewBox="0 0 280 230" fill="none" xmlns="http://www.w3.org/2000/svg">
<g clip-path="url(#clip0_1523_44)">
<mask id="mask0_1523_44" style="mask-type:luminance" maskUnits="userSpaceOnUse" x="0" y="0" width="280" height="230">
<path d="M0 0H280V230H0V0Z" fill="white"/>
</mask>
<g mask="url(#mask0_1523_44)">
<path d="M161.357 16.455L262.666 115.172L93.372 224.162L68.128 161.662C64.0161 151.455 57.8919 142.18 50.12 134.389L17.361 101.49L161.357 16.455ZM161.576 14.631L15 101.189L49.084 135.421C56.712 143.081 62.7275 152.191 66.775 162.215L92.675 226.347L265 115.412L161.576 14.631Z" fill="#E4DACF"/>
<path d="M137.828 20.232L163.017 4L189.995 31.088L164.809 47.322L137.828 20.232Z" fill="white"/>
<path d="M137.828 20.232L163.017 4L189.995 31.088L164.809 47.322L137.828 20.232Z" stroke="#E4DACF" stroke-linejoin="round"/>
<path d="M138.03 20.232L165.008 47.322V75.2L138.03 48.1V20.232Z" fill="white"/>
<path d="M138.03 20.232L165.008 47.322V75.2L138.03 48.1V20.232Z" stroke="#E4DACF" stroke-linejoin="round"/>
<path d="M164.677 47.324L189.865 31.091V58.964L164.677 75.2V47.324Z" fill="white"/>
<path d="M164.677 47.324L189.865 31.091V58.964L164.677 75.2V47.324Z" stroke="#E4DACF" stroke-linejoin="round"/>
<path d="M227.737 94.209L254.137 77.195V105.069L227.737 122.085V94.209Z" fill="white"/>
<path d="M227.737 94.209L254.137 77.195V105.069L227.737 122.085V94.209Z" stroke="#E4DACF" stroke-linejoin="round"/>
<path d="M206.226 72.65L227.737 94.25V122.123L206.226 100.523V72.65Z" fill="white"/>
<path d="M206.226 72.65L227.737 94.25V122.123L206.226 100.523V72.65Z" stroke="#E4DACF" stroke-linejoin="round"/>
<path d="M227.738 94.546L254.138 77.532L232.627 55.932L206.227 72.946L227.738 94.546Z" fill="white"/>
<path d="M227.738 94.546L254.138 77.532L232.627 55.932L206.227 72.946L227.738 94.546Z" stroke="#E4DACF" stroke-linejoin="round"/>
<path d="M98.775 132.232L131.49 123.641L144.639 154.593L111.929 163.186L98.775 132.232Z" fill="white"/>
<path d="M98.775 132.232L131.49 123.641L144.639 154.593L111.929 163.186L98.775 132.232Z" stroke="#E4DACF" stroke-linejoin="round"/>
<path d="M98.938 131.893L112.092 162.845V191.361L98.938 160.411V131.893Z" fill="white"/>
<path d="M98.938 131.893L112.092 162.845V191.361L98.938 160.411V131.893Z" stroke="#E4DACF" stroke-linejoin="round"/>
<path d="M144.54 154.187L111.825 162.78V191.296L144.54 182.705V154.187Z" fill="white"/>
<path d="M144.54 154.187L111.825 162.78V191.296L144.54 182.705V154.187Z" stroke="#E4DACF" stroke-linejoin="round"/>
<path d="M209.578 211.303C209.849 211.086 210.067 210.81 210.215 210.496C210.363 210.182 210.436 209.838 210.43 209.491C210.441 209.183 210.387 208.876 210.272 208.589C210.158 208.303 209.985 208.043 209.765 207.827C209.545 207.611 209.283 207.442 208.994 207.333C208.706 207.224 208.398 207.175 208.09 207.191C207.655 207.184 207.226 207.291 206.845 207.501C206.464 207.711 206.145 208.016 205.918 208.387L206.158 209.479C206.372 209.158 206.661 208.893 206.999 208.707C207.338 208.521 207.716 208.42 208.102 208.411C208.259 208.404 208.417 208.429 208.564 208.485C208.711 208.541 208.846 208.627 208.958 208.738C209.071 208.848 209.159 208.98 209.219 209.126C209.278 209.273 209.306 209.429 209.302 209.587C209.306 209.756 209.274 209.924 209.209 210.079C209.144 210.235 209.047 210.376 208.925 210.492C208.803 210.609 208.657 210.698 208.498 210.755C208.34 210.812 208.17 210.835 208.002 210.823H207.25V212.047H207.978C208.18 212.02 208.386 212.035 208.582 212.092C208.777 212.148 208.959 212.245 209.116 212.376C209.272 212.507 209.399 212.669 209.489 212.852C209.579 213.035 209.63 213.235 209.638 213.439C209.645 213.639 209.609 213.838 209.532 214.022C209.455 214.207 209.339 214.373 209.192 214.508C209.045 214.644 208.87 214.746 208.68 214.808C208.49 214.87 208.289 214.89 208.09 214.867C207.646 214.866 207.21 214.756 206.818 214.547C206.427 214.338 206.093 214.036 205.846 213.667L205.534 214.699C205.79 215.144 206.165 215.51 206.616 215.755C207.067 216.001 207.577 216.117 208.09 216.091C208.442 216.114 208.795 216.064 209.126 215.942C209.457 215.821 209.759 215.631 210.012 215.386C210.265 215.14 210.464 214.845 210.596 214.518C210.728 214.19 210.79 213.839 210.778 213.487C210.8 213.048 210.699 212.611 210.487 212.225C210.275 211.84 209.961 211.52 209.578 211.303ZM218.122 212.959C218.132 212.554 218.061 212.15 217.914 211.772C217.767 211.394 217.547 211.049 217.266 210.757C216.984 210.464 216.648 210.23 216.276 210.069C215.904 209.907 215.504 209.821 215.098 209.815C214.693 209.821 214.293 209.908 213.921 210.07C213.55 210.232 213.214 210.466 212.933 210.758C212.652 211.05 212.432 211.395 212.285 211.773C212.139 212.151 212.068 212.554 212.078 212.959C212.068 213.364 212.139 213.766 212.286 214.143C212.433 214.52 212.653 214.864 212.934 215.156C213.215 215.447 213.551 215.68 213.922 215.84C214.294 216.001 214.693 216.086 215.098 216.091C215.503 216.086 215.903 216.002 216.275 215.841C216.647 215.681 216.983 215.448 217.265 215.157C217.546 214.866 217.766 214.521 217.914 214.144C218.061 213.767 218.132 213.364 218.122 212.959ZM213.166 212.959C213.154 212.7 213.195 212.441 213.287 212.198C213.38 211.956 213.521 211.735 213.702 211.549C213.883 211.364 214.1 211.217 214.341 211.119C214.581 211.021 214.839 210.973 215.098 210.979C215.358 210.974 215.616 211.023 215.857 211.122C216.097 211.222 216.315 211.369 216.496 211.556C216.677 211.743 216.818 211.965 216.91 212.208C217.002 212.451 217.043 212.711 217.03 212.971C217.043 213.229 217.002 213.487 216.91 213.729C216.817 213.97 216.676 214.19 216.494 214.374C216.312 214.558 216.095 214.702 215.854 214.797C215.614 214.892 215.356 214.937 215.098 214.927C214.839 214.936 214.58 214.891 214.339 214.795C214.098 214.699 213.88 214.554 213.698 214.369C213.516 214.184 213.375 213.963 213.284 213.72C213.192 213.477 213.152 213.218 213.166 212.959ZM225.322 212.959C225.332 212.554 225.261 212.15 225.114 211.772C224.967 211.394 224.747 211.049 224.466 210.757C224.184 210.464 223.848 210.23 223.476 210.069C223.104 209.907 222.704 209.821 222.298 209.815C221.893 209.821 221.493 209.908 221.121 210.07C220.75 210.232 220.414 210.466 220.133 210.758C219.852 211.05 219.632 211.395 219.485 211.773C219.339 212.151 219.268 212.554 219.278 212.959C219.268 213.364 219.339 213.766 219.486 214.143C219.633 214.52 219.853 214.864 220.134 215.156C220.415 215.447 220.751 215.68 221.122 215.84C221.494 216.001 221.893 216.086 222.298 216.091C222.703 216.086 223.103 216.002 223.475 215.841C223.847 215.681 224.183 215.448 224.465 215.157C224.746 214.866 224.966 214.521 225.114 214.144C225.261 213.767 225.332 213.364 225.322 212.959ZM220.366 212.959C220.354 212.7 220.395 212.441 220.487 212.198C220.58 211.956 220.721 211.735 220.902 211.549C221.083 211.364 221.3 211.217 221.541 211.119C221.781 211.021 222.039 210.973 222.298 210.979C222.558 210.974 222.816 211.023 223.057 211.122C223.297 211.222 223.515 211.369 223.696 211.556C223.877 211.743 224.018 211.965 224.11 212.208C224.202 212.451 224.243 212.711 224.23 212.971C224.243 213.229 224.202 213.487 224.11 213.729C224.017 213.97 223.876 214.19 223.694 214.374C223.512 214.558 223.295 214.702 223.054 214.797C222.814 214.892 222.556 214.937 222.298 214.927C222.039 214.936 221.78 214.891 221.539 214.795C221.298 214.699 221.08 214.554 220.898 214.369C220.716 214.184 220.575 213.963 220.484 213.72C220.392 213.477 220.352 213.218 220.366 212.959ZM226.882 209.959V215.947H227.978V211.123H231.05V215.947H232.138V209.959H226.882ZM237.718 214.279C237.539 214.5 237.309 214.675 237.048 214.787C236.786 214.9 236.502 214.948 236.218 214.927C235.282 214.927 234.778 214.603 234.778 214.127C234.778 213.611 235.318 213.327 236.218 213.327C236.866 213.327 237.526 213.495 237.718 213.827V214.279ZM234.318 211.807C234.532 211.541 234.805 211.327 235.115 211.184C235.425 211.04 235.764 210.97 236.106 210.979C236.309 210.951 236.515 210.967 236.711 211.026C236.907 211.085 237.088 211.186 237.241 211.321C237.394 211.457 237.516 211.624 237.599 211.812C237.681 211.999 237.722 212.202 237.718 212.407V212.695C237.242 212.352 236.664 212.179 236.078 212.203C234.746 212.203 233.69 212.903 233.69 214.147C233.69 215.371 234.626 216.091 236.042 216.091C236.359 216.103 236.675 216.05 236.97 215.934C237.266 215.819 237.534 215.643 237.758 215.419V215.947H238.814V212.167C238.828 211.836 238.769 211.505 238.642 211.199C238.515 210.892 238.322 210.618 238.077 210.394C237.833 210.169 237.542 210.002 237.226 209.902C236.909 209.802 236.575 209.772 236.246 209.815C235.818 209.801 235.393 209.888 235.005 210.07C234.617 210.251 234.278 210.522 234.014 210.859L234.318 211.807ZM246.694 212.959C246.704 212.547 246.631 212.137 246.479 211.754C246.328 211.371 246.101 211.022 245.811 210.729C245.522 210.436 245.177 210.204 244.796 210.046C244.415 209.889 244.006 209.811 243.594 209.815C243.248 209.772 242.897 209.822 242.577 209.959C242.256 210.096 241.978 210.315 241.77 210.595V209.959H240.718V218.503H241.81V215.303C242.014 215.585 242.29 215.806 242.608 215.946C242.927 216.085 243.277 216.136 243.622 216.095C244.031 216.096 244.436 216.014 244.813 215.856C245.19 215.698 245.532 215.466 245.818 215.174C246.105 214.882 246.33 214.535 246.48 214.155C246.63 213.775 246.703 213.368 246.694 212.959ZM245.602 212.935C245.618 213.203 245.577 213.471 245.481 213.722C245.385 213.972 245.237 214.2 245.046 214.388C244.855 214.577 244.626 214.723 244.374 214.816C244.122 214.908 243.854 214.946 243.586 214.927C243.225 214.953 242.864 214.872 242.548 214.694C242.232 214.516 241.975 214.249 241.81 213.927V211.975C241.975 211.653 242.232 211.386 242.548 211.208C242.864 211.03 243.225 210.949 243.586 210.975C243.851 210.954 244.118 210.989 244.369 211.079C244.619 211.169 244.848 211.312 245.039 211.498C245.23 211.683 245.379 211.907 245.476 212.155C245.573 212.403 245.616 212.669 245.602 212.935ZM248.254 215.947H249.346V213.307L252.154 215.947H253.778L250.462 212.847L253.486 209.955H251.998L249.346 212.475V209.955H248.254V215.947Z" fill="#C9B08A"/>
<mask id="mask1_1523_44" style="mask-type:luminance" maskUnits="userSpaceOnUse" x="215" y="179" width="30" height="22">
<path d="M215.078 179.297H244.401V200.013H215.078V179.297Z" fill="white"/>
</mask>
<g mask="url(#mask1_1523_44)">
<path fill-rule="evenodd" clip-rule="evenodd" d="M244.403 195.984C243.994 196.174 243.542 196.256 243.092 196.221C242.642 196.186 242.209 196.035 241.834 195.784C239.741 194.73 238.627 193.014 237.416 190.702C237.611 191.572 237.92 192.413 238.335 193.202C238.829 194.011 239.234 194.871 239.543 195.767C239.987 197.228 239.443 199.645 238.098 199.958C237.504 200.058 236.895 200.03 236.312 199.876C236.133 198.776 236.525 198.868 237.112 198.467C238.182 197.74 237.431 196.54 236.648 195.777C236.267 195.406 236 194.977 235.67 194.685C236.182 195.735 236.323 196.928 236.07 198.069C235.522 200.1 234.344 200.154 232.76 199.932C232.601 198.021 234.542 198.884 234.185 197.122C233.782 196.168 233.191 195.305 232.449 194.583C231.118 193.347 231.359 194.099 229.408 194.103C228.192 193.969 226.969 193.902 225.745 193.903C225.735 195.459 226.136 196.217 225.779 197.964C225.366 199.979 224.518 199.983 223.431 199.987L221.178 199.97C221.078 197.87 222.844 198.842 222.312 196.556L220.082 190.556C219.522 189.965 219.017 189.325 218.572 188.643C218.167 187.985 218.197 187.633 217.765 187.043C215.029 188.796 214.596 184.573 215.515 183.706L217.283 181.949C217.807 180.787 217.578 180.364 218.753 179.776C219.756 179.348 220.858 179.209 221.936 179.374C223.014 179.539 224.024 180.002 224.853 180.711C226.019 181.773 226.918 183.095 227.478 184.569C229.178 188.496 231.522 186.146 235.266 187.106C237.612 187.706 237.924 189.191 238.759 190.797C239.459 192.144 240.499 194.143 241.79 194.888C242.531 195.316 244.006 194.866 244.403 195.988M227.669 186.315C226.922 184.503 225.469 181.823 223.986 180.801C222.253 179.607 218.265 179.322 217.94 181.896L219.365 181.616C219.765 182.61 218.813 182.7 220.571 182.873C220.492 183.186 220.337 183.476 220.121 183.716C220.075 183.869 220.091 183.632 220.167 183.985C220.214 184.131 220.244 184.282 220.255 184.435C219.655 184.569 219.197 184.66 219.041 185.168C218.692 186.306 219.258 185.588 218.284 186.3C218.41 188.064 220.377 189.556 221.154 191.216C221.461 191.798 221.68 192.421 221.806 193.067C222.352 192.667 222.159 191.694 222.288 190.65L224.538 190.911C224.616 189.396 224.191 189.243 224.165 188.34C224.993 188.527 225.836 188.64 226.684 188.677C226.471 187.441 225.961 186.584 225.884 185.853C226.488 185.973 227.085 186.128 227.672 186.317M219.495 183.617C219.495 183.117 218.933 183.434 218.825 182.409C217.494 182.409 217.783 182.463 217.061 183.168C216.726 183.493 216.661 183.405 216.298 183.836C216.112 184.07 215.904 184.285 215.678 184.48C215.961 185.664 215.378 185.951 216.378 186.859C216.66 186.855 216.936 186.78 217.181 186.64C217.426 186.5 217.631 186.3 217.778 186.059C218.753 184.676 218.031 185.768 218.567 184.722C218.867 184.132 219.492 184.009 219.488 183.622M238.364 191.227C238.113 190.834 237.893 190.422 237.706 189.995C236.936 188.736 236.478 187.756 234.078 187.501C231.77 187.254 230.567 187.894 228.504 187.017C227.982 186.852 227.436 186.773 226.888 186.782C227.13 187.598 227.247 188.445 227.235 189.296L225.035 189.244L225.017 191.418C224.117 191.589 223.604 191.231 222.917 191.352C222.795 192.062 222.604 192.759 222.345 193.431C221.691 194.698 223.288 196.093 222.893 197.883C222.72 198.486 222.317 198.996 221.772 199.306C223.143 199.752 223.633 198.906 223.924 197.339C224.159 196.078 223.812 194.481 224.249 193.118C225.387 192.779 228.617 194.202 231.983 193.064C232.764 192.801 233.45 192.233 234.175 192.664C235.08 193.196 238.456 195.888 238.197 197.77C238.152 198.134 238.002 198.478 237.765 198.758C237.528 199.038 237.214 199.243 236.862 199.348C238.162 199.603 238.462 199.294 238.978 198.048C240.058 195.423 236.533 193.57 236.935 189.285C237.479 189.524 237.218 189.319 237.565 189.751C237.603 189.799 237.846 190.219 237.886 190.285C238.117 190.558 238.282 190.881 238.368 191.228" fill="#C9B08A"/>
</g>
<path d="M21.6623 80.0138C21.3717 79.4908 21.1887 78.9149 21.1241 78.3201C21.1042 77.6624 21.28 77.0135 21.629 76.4557L22.2037 75.4104C22.4076 75.0683 22.5685 74.7024 22.683 74.3209C22.7341 74.1368 22.7472 73.9442 22.7217 73.7548C22.6961 73.5654 22.6324 73.3832 22.5343 73.2191C22.4423 73.0462 22.3156 72.8941 22.1621 72.7723C22.0087 72.6506 21.8318 72.5617 21.6424 72.5114C21.4503 72.4701 21.2517 72.4678 21.0586 72.5047C20.8656 72.5415 20.6818 72.6168 20.5184 72.726C20.2659 72.8472 20.0556 73.0413 19.9146 73.2832C19.7736 73.5252 19.7084 73.8038 19.7274 74.0832C19.7765 74.4643 19.9067 74.8305 20.109 75.1571L19.2673 75.6628C18.9631 75.1834 18.7818 74.6363 18.7396 74.0701C18.7394 73.63 18.864 73.1988 19.0991 72.8267C19.3342 72.4546 19.67 72.1568 20.0676 71.9679C20.3558 71.7583 20.687 71.6156 21.0373 71.55C21.3876 71.4845 21.748 71.4977 22.0925 71.5888C22.6534 71.7618 23.131 72.1351 23.4343 72.6375C23.5895 72.8868 23.6922 73.165 23.7362 73.4553C23.7802 73.7456 23.7646 74.0417 23.6904 74.3258C23.5287 74.8484 23.3003 75.3479 23.0108 75.8121L22.5887 76.5405C22.416 76.824 22.2734 77.1248 22.1631 77.4379C22.0182 77.8353 22.002 78.2683 22.1169 78.6755L25.717 76.5123L26.1873 77.2949L21.6623 80.0138ZM25.1684 73.7527L27.4827 72.3621L27.9947 73.2141L25.6803 74.6047L25.1684 73.7527ZM27.6975 69.9838L30.5245 74.6888L31.3817 74.1738L31.9134 69.3756L33.8906 72.6663L34.7478 72.1512L31.9207 67.4462L31.0636 67.9613L30.5327 72.7589L28.5555 69.4683L27.6975 69.9838ZM36.012 64.9879L38.839 69.6929L39.6962 69.1779L37.4187 65.3875L39.8334 63.9366L42.1109 67.727L42.968 67.212L40.141 62.507L36.012 64.9879ZM47.8001 61.1132C47.6137 60.785 47.3632 60.4977 47.0635 60.2684C46.7638 60.039 46.421 59.8723 46.0555 59.7782C45.69 59.6841 45.3093 59.6645 44.9361 59.7205C44.5629 59.7766 44.2048 59.9072 43.8831 60.1045C43.5911 60.2342 43.3388 60.4389 43.1517 60.6978C42.9646 60.9567 42.8495 61.2606 42.8182 61.5785L42.5179 61.0788L41.6882 61.5774L45.7219 68.2907L46.5791 67.7757L45.0664 65.2582C45.3597 65.3829 45.681 65.4271 45.997 65.3861C46.313 65.3451 46.6124 65.2204 46.8641 65.025C47.1859 64.8327 47.4659 64.578 47.6879 64.2759C47.9098 63.9739 48.0692 63.6305 48.1565 63.2659C48.2439 62.9014 48.2575 62.5231 48.1966 62.1532C48.1357 61.7834 48.0014 61.4294 47.8018 61.1122L47.8001 61.1132ZM46.9316 61.6094C47.0706 61.8122 47.1647 62.0423 47.2076 62.2844C47.2506 62.5265 47.2413 62.775 47.1804 63.0132C47.1196 63.2515 47.0086 63.474 46.8548 63.6658C46.7011 63.8577 46.5081 64.0145 46.2889 64.1258C46.0172 64.3161 45.6959 64.4228 45.3644 64.4327C45.0329 64.4427 44.7057 64.3554 44.4232 64.1817L43.4997 62.6448C43.479 62.3138 43.5555 61.984 43.7199 61.6959C43.8843 61.4079 44.1294 61.1743 44.4249 61.0238C44.6231 60.8817 44.8492 60.7837 45.0883 60.7361C45.3274 60.6886 45.5739 60.6927 45.8113 60.748C46.0487 60.8034 46.2715 60.9089 46.4648 61.0573C46.6582 61.2058 46.8168 61.3943 46.9316 61.6094ZM53.4574 57.7139C53.2737 57.3907 53.0277 57.107 52.7337 56.8794C52.4397 56.6517 52.1036 56.4846 51.7446 56.3876C51.3856 56.2907 51.011 56.2658 50.6424 56.3145C50.2738 56.3632 49.9185 56.4845 49.597 56.6713C49.2811 56.8674 49.0072 57.1242 48.7912 57.4268C48.5751 57.7295 48.4212 58.0719 48.3383 58.4344C48.2554 58.7968 48.2451 59.1721 48.3081 59.5386C48.3711 59.905 48.5061 60.2553 48.7052 60.5693C48.8885 60.8926 49.1342 61.1761 49.4281 61.4035C49.722 61.6308 50.0583 61.7973 50.4172 61.8934C50.7761 61.9895 51.1506 62.0132 51.5188 61.963C51.887 61.9129 52.2415 61.79 52.5617 61.6015C52.8782 61.4072 53.1529 61.1518 53.3697 60.8502C53.5865 60.5487 53.7412 60.207 53.8247 59.8451C53.9082 59.4833 53.9189 59.1084 53.8562 58.7423C53.7934 58.3762 53.6584 58.0263 53.4591 57.7129L53.4574 57.7139ZM49.5633 60.0538C49.4313 59.8559 49.3415 59.6329 49.2994 59.3989C49.2573 59.1648 49.2638 58.9245 49.3185 58.693C49.3732 58.4616 49.4749 58.2438 49.6174 58.0534C49.7598 57.8629 49.94 57.7038 50.1465 57.5859C50.3485 57.4587 50.5745 57.3745 50.8105 57.3386C51.0465 57.3026 51.2873 57.3157 51.518 57.377C51.7487 57.4382 51.9643 57.5464 52.1513 57.6947C52.3383 57.843 52.4928 58.0283 52.605 58.2389C52.7368 58.4356 52.8263 58.6576 52.8678 58.8907C52.9094 59.1238 52.902 59.363 52.8463 59.5932C52.7906 59.8233 52.6877 60.0393 52.5441 60.2276C52.4005 60.4159 52.2193 60.5723 52.0122 60.6869C51.8128 60.8165 51.5886 60.9032 51.3539 60.9414C51.1192 60.9796 50.8791 60.9685 50.6489 60.9089C50.4187 60.8492 50.2034 60.7423 50.0168 60.5949C49.8302 60.4475 49.6763 60.2629 49.565 60.0527L49.5633 60.0538ZM57.7763 57.2188C56.8711 57.7627 56.0052 57.7312 55.4218 56.9524L59.0219 54.7893C58.9799 54.6722 58.9279 54.5591 58.8664 54.451C58.7081 54.1272 58.4853 53.8392 58.2116 53.6047C57.9379 53.3701 57.6192 53.194 57.2749 53.0872C56.9307 52.9803 56.5682 52.945 56.2098 52.9833C55.8515 53.0217 55.5047 53.1329 55.1909 53.3101C54.8754 53.5022 54.6024 53.7566 54.3887 54.0577C54.1749 54.3589 54.0247 54.7004 53.9475 55.0616C53.8702 55.4227 53.8673 55.7958 53.9392 56.1581C54.011 56.5204 54.1559 56.8642 54.3651 57.1685C54.5426 57.5061 54.789 57.8026 55.0885 58.0387C55.388 58.2749 55.7339 58.4453 56.1035 58.5391C56.4732 58.6328 56.8585 58.6478 57.2343 58.5829C57.6102 58.518 57.9681 58.3749 58.285 58.1626C58.636 57.9804 58.9322 57.7082 59.1433 57.3739C59.3545 57.0396 59.473 56.6551 59.4867 56.2599L58.8582 55.7265C58.709 56.3458 58.3228 56.882 57.7826 57.2197L57.7763 57.2188ZM54.9635 56.0519C54.8565 55.7048 54.8757 55.331 55.0177 54.9967C55.1598 54.6625 55.4154 54.3892 55.7395 54.2252C56.0249 54.0189 56.3775 53.9277 56.7271 53.9698C57.0766 54.0118 57.3976 54.1841 57.6258 54.4521L54.9635 56.0519ZM62.3556 54.472C62.0987 54.6468 61.806 54.7618 61.4988 54.8087C61.1917 54.8556 60.8779 54.8331 60.5806 54.7429L60.7751 55.5791C61.1282 55.7247 61.5118 55.781 61.8918 55.7429C62.2719 55.7048 62.6366 55.5736 62.9538 55.3608C63.9439 54.7659 64.4751 53.6639 63.9539 52.7964C63.8232 52.5321 63.6093 52.318 63.3451 52.187C63.0809 52.0559 62.781 52.0152 62.4914 52.0711C62.6103 51.8677 62.6684 51.6345 62.6589 51.3992C62.6494 51.1638 62.5726 50.9361 62.4378 50.743C61.9562 49.9416 60.9997 49.8233 60.0662 50.3842C59.7501 50.5619 59.4809 50.8125 59.281 51.1152C59.0812 51.4178 58.9566 51.7639 58.9174 52.1244L59.5558 52.6742C59.6229 52.3978 59.7443 52.1375 59.9129 51.9085C60.0815 51.6794 60.2939 51.4861 60.5378 51.3398C61.0187 51.0509 61.445 51.077 61.615 51.3599C61.8303 51.7182 61.6588 52.0522 61.1685 52.3468L60.6311 52.6697L61.1811 53.5852L61.8034 53.2113C62.3692 52.8714 62.8069 52.9164 63.0108 53.2558C63.2148 53.5952 63.0156 54.0754 62.3556 54.472ZM64.956 52.7555L66.259 54.9241L67.0793 54.4312L66.3258 53.1772L70.0116 50.9625L70.7651 52.2166L71.5855 51.7237L70.2824 49.5551L69.4998 50.0253L67.2223 46.2349L64.1022 48.1096L64.2835 48.4114C65.068 49.6193 65.4639 51.0384 65.418 52.4779L64.956 52.7555ZM66.3703 51.9057C66.3272 50.7297 66.0099 49.58 65.4438 48.5483L66.9147 47.6645L68.6426 50.5403L66.3703 51.9057ZM78.5621 43.1557C78.5191 43.6688 78.3503 44.1635 78.0708 44.5959C77.7912 45.0284 77.4095 45.3854 76.9593 45.6354C76.6358 45.8546 76.269 46.0018 75.8837 46.0672C75.4984 46.1326 75.1036 46.1145 74.7259 46.0142C74.3482 45.914 73.9964 45.7339 73.6942 45.4861C73.3921 45.2382 73.1466 44.9285 72.9744 44.5777C72.7447 44.2612 72.5857 43.899 72.5083 43.5157C72.4309 43.1324 72.4368 42.7369 72.5257 42.3561C72.6145 41.9753 72.7843 41.6181 73.0233 41.3086C73.2624 40.9992 73.5652 40.7448 73.9113 40.5626C74.3334 40.2972 74.8135 40.138 75.3105 40.0986C75.8076 40.0592 76.3068 40.1408 76.7654 40.3363L76.5629 39.38C76.043 39.1338 75.468 39.0269 74.8944 39.0698C74.3207 39.1126 73.768 39.3037 73.2904 39.6244C72.8397 39.8953 72.4489 40.2552 72.142 40.6822C71.8351 41.1091 71.6185 41.5942 71.5055 42.1078C71.3925 42.6213 71.3854 43.1525 71.4846 43.6689C71.5839 44.1853 71.7874 44.676 72.0827 45.1111C72.3281 45.5747 72.6651 45.9835 73.0732 46.3129C73.4814 46.6423 73.9523 46.8852 74.4572 47.0271C74.9622 47.1689 75.4907 47.2067 76.0107 47.1381C76.5307 47.0694 77.0313 46.8958 77.4821 46.6278C78.008 46.3547 78.4529 45.9483 78.7723 45.4492C79.0918 44.9502 79.2746 44.376 79.3025 43.7841L78.5621 43.1557ZM78.2854 39.5887L81.112 44.2928L83.0834 43.1082C83.2925 43.0114 83.4798 42.8734 83.6342 42.7024C83.7887 42.5315 83.9071 42.3312 83.9823 42.1135C84.0575 41.8957 84.0881 41.6651 84.0721 41.4353C84.0562 41.2055 83.994 40.9812 83.8894 40.776C83.7738 40.5333 83.5855 40.3327 83.3505 40.202C83.1156 40.0714 82.8458 40.0171 82.5787 40.0469C82.6487 39.8477 82.6705 39.6346 82.6423 39.4252C82.6141 39.2159 82.5366 39.0162 82.4162 38.8426C81.946 38.06 81.0008 37.9606 80.0767 38.5158L78.2854 39.5887ZM81.4314 42.8829L80.8134 41.8543L82.0991 41.0817C82.1653 41.0304 82.2414 40.9935 82.3227 40.9734C82.404 40.9532 82.4885 40.9503 82.571 40.9649C82.6534 40.9794 82.732 41.011 82.8015 41.0577C82.871 41.1043 82.9299 41.165 82.9746 41.2359C83.0189 41.3092 83.0474 41.391 83.0583 41.476C83.0693 41.561 83.0624 41.6473 83.0382 41.7295C83.0139 41.8117 82.9728 41.8879 82.9174 41.9533C82.8621 42.0188 82.7937 42.0719 82.7167 42.1095L81.4314 42.8829ZM80.2813 40.9688L79.6803 39.9685L80.774 39.3113C80.8399 39.2629 80.9154 39.229 80.9954 39.2121C81.0754 39.1952 81.1581 39.1955 81.238 39.2132C81.3178 39.2308 81.393 39.2653 81.4584 39.3144C81.5239 39.3634 81.5781 39.4259 81.6174 39.4976C81.6573 39.5663 81.6826 39.6425 81.6919 39.7215C81.7013 39.8004 81.6943 39.8804 81.6716 39.9566C81.6488 40.0328 81.6108 40.1035 81.5597 40.1644C81.5086 40.2253 81.4456 40.2751 81.3746 40.3108L80.2813 40.9688ZM87.6343 39.283C86.7291 39.8269 85.8632 39.7953 85.2798 39.0166L88.8799 36.8534C88.8351 36.7363 88.7801 36.6234 88.7156 36.5159C88.5573 36.192 88.3344 35.904 88.0607 35.6695C87.787 35.4349 87.4683 35.2588 87.1241 35.152C86.7798 35.0451 86.4174 35.0098 86.059 35.0481C85.7006 35.0865 85.3538 35.1977 85.04 35.375C84.7245 35.567 84.4516 35.8214 84.2378 36.1226C84.024 36.4237 83.8739 36.7653 83.7966 37.1264C83.7193 37.4876 83.7165 37.8607 83.7883 38.2229C83.8601 38.5852 84.005 38.929 84.2143 39.2334C84.3918 39.5712 84.6385 39.8679 84.9382 40.1041C85.238 40.3403 85.5841 40.5108 85.9541 40.6044C86.3241 40.698 86.7097 40.7127 87.0857 40.6475C87.4618 40.5823 87.8199 40.4386 88.1367 40.2259C88.4884 40.0439 88.7853 39.7716 88.9969 39.437C89.2085 39.1023 89.3273 38.7174 89.341 38.3217L88.7124 37.7882C88.563 38.4086 88.1758 38.9454 87.6343 39.283ZM84.8152 38.1151C84.7082 37.7681 84.7274 37.3943 84.8694 37.06C85.0115 36.7257 85.2671 36.4525 85.5912 36.2885C85.8766 36.0822 86.2292 35.991 86.5788 36.033C86.9284 36.0751 87.2493 36.2473 87.4775 36.5154L84.8152 38.1151ZM94.6443 32.9664C94.4579 32.6382 94.2074 32.3509 93.9077 32.1215C93.608 31.8922 93.2652 31.7255 92.8997 31.6314C92.5342 31.5372 92.1535 31.5176 91.7803 31.5737C91.4071 31.6298 91.049 31.7603 90.7273 31.9577C90.4353 32.0873 90.183 32.292 89.9959 32.551C89.8088 32.8099 89.6937 33.1138 89.6624 33.4317L89.3621 32.932L88.5324 33.4305L92.5661 40.1439L93.4233 39.6288L91.9106 37.1113C92.2039 37.2361 92.5251 37.2803 92.8412 37.2393C93.1572 37.1983 93.4566 37.0736 93.7083 36.8782C94.0298 36.6857 94.3096 36.431 94.5313 36.1289C94.7529 35.8269 94.912 35.4836 94.9992 35.1192C95.0864 34.7548 95.0999 34.3766 95.039 34.0069C94.978 33.6373 94.8438 33.2835 94.6443 32.9664ZM93.7758 33.4625C93.9149 33.6655 94.0091 33.8958 94.052 34.1381C94.0949 34.3804 94.0855 34.6291 94.0245 34.8674C93.9635 35.1058 93.8522 35.3284 93.6982 35.5203C93.5441 35.7122 93.3509 35.8689 93.1313 35.98C92.8597 36.1703 92.5383 36.277 92.2068 36.2869C91.8753 36.2969 91.5482 36.2096 91.2656 36.0359L90.3422 34.499C90.3215 34.168 90.398 33.8382 90.5624 33.5501C90.7268 33.2621 90.9719 33.0285 91.2674 32.878C91.4655 32.7359 91.6917 32.6379 91.9308 32.5903C92.1699 32.5428 92.4164 32.5469 92.6538 32.6022C92.8912 32.6576 93.114 32.7631 93.3073 32.9115C93.5007 33.06 93.661 33.2475 93.7758 33.4625ZM96.1191 34.0308L97.4222 36.1994L98.2374 35.7096L97.4839 34.4556L101.17 32.2409L101.923 33.495L102.743 33.0021L101.44 30.8334L100.663 31.3006L98.3855 27.5102L95.2645 29.3854L95.4458 29.6871C96.2303 30.8951 96.6262 32.3141 96.5803 33.7537L96.1191 34.0308ZM97.5335 33.181C97.4904 32.005 97.1731 30.8553 96.607 29.8236L98.0779 28.9398L99.8058 31.8156L97.5335 33.181ZM102.665 31.3427C102.776 31.314 102.883 31.2674 102.98 31.2048C104.054 30.5589 103.918 29.0498 102.561 26.5566L102.434 26.3246L104.046 25.3558L106.323 29.1445L107.18 28.6295L104.353 23.9245L101.073 25.8955L101.245 26.2029C102.98 29.3051 102.803 30.0145 102.031 30.6302L102.665 31.3427ZM111.748 22.6893C111.564 22.366 111.319 22.0824 111.025 21.8547C110.731 21.6271 110.394 21.4599 110.035 21.363C109.676 21.266 109.302 21.2412 108.933 21.2899C108.565 21.3386 108.209 21.4598 107.888 21.6466C107.572 21.8428 107.298 22.0996 107.082 22.4022C106.866 22.7048 106.712 23.0472 106.629 23.4097C106.546 23.7722 106.536 24.1475 106.599 24.5139C106.662 24.8804 106.797 25.2307 106.996 25.5447C107.179 25.8678 107.425 26.1512 107.719 26.3785C108.012 26.6058 108.348 26.7724 108.707 26.8685C109.066 26.9647 109.44 26.9885 109.808 26.9386C110.176 26.8887 110.531 26.7661 110.851 26.5779C111.167 26.3835 111.442 26.1282 111.659 25.8266C111.876 25.5251 112.03 25.1834 112.114 24.8215C112.197 24.4596 112.208 24.0847 112.145 23.7187C112.082 23.3526 111.948 23.0027 111.748 22.6893ZM107.854 25.0291C107.722 24.8312 107.632 24.6083 107.59 24.3742C107.548 24.1401 107.555 23.8999 107.609 23.6684C107.664 23.4369 107.766 23.2192 107.908 23.0287C108.051 22.8382 108.231 22.6791 108.437 22.5612C108.639 22.434 108.865 22.3498 109.101 22.3139C109.337 22.278 109.578 22.291 109.809 22.3523C110.039 22.4136 110.255 22.5218 110.442 22.6701C110.629 22.8184 110.784 23.0036 110.896 23.2143C111.028 23.4111 111.117 23.6333 111.159 23.8666C111.2 24.0999 111.193 24.3392 111.137 24.5695C111.081 24.7998 110.978 25.0159 110.834 25.2042C110.69 25.3925 110.509 25.5488 110.301 25.6633C110.102 25.7929 109.878 25.8796 109.643 25.9178C109.408 25.956 109.168 25.9449 108.938 25.8853C108.708 25.8256 108.493 25.7187 108.306 25.5713C108.119 25.4239 107.965 25.2392 107.854 25.0291ZM111.558 19.5956L114.385 24.3006L116.356 23.116C116.565 23.0191 116.752 22.8811 116.907 22.7102C117.061 22.5393 117.18 22.339 117.255 22.1212C117.33 21.9035 117.361 21.6728 117.345 21.443C117.329 21.2132 117.267 20.989 117.162 20.7838C117.046 20.5411 116.858 20.3405 116.623 20.2098C116.388 20.0791 116.118 20.0249 115.851 20.0547C115.922 19.8554 115.944 19.6422 115.916 19.4327C115.888 19.2231 115.811 19.0232 115.691 18.8493C115.22 18.0668 114.275 17.9674 113.351 18.5226L111.558 19.5956ZM114.704 22.8898L114.086 21.8612L115.371 21.0886C115.437 21.0373 115.514 21.0004 115.595 20.9803C115.676 20.9601 115.761 20.9572 115.843 20.9718C115.926 20.9863 116.004 21.0179 116.074 21.0646C116.143 21.1112 116.202 21.1719 116.247 21.2428C116.291 21.3161 116.32 21.3979 116.33 21.4829C116.341 21.5679 116.335 21.6542 116.31 21.7364C116.286 21.8186 116.245 21.8948 116.19 21.9603C116.134 22.0257 116.066 22.0788 115.989 22.1164L114.704 22.8898ZM113.553 20.9757L112.953 19.9763L114.047 19.3191C114.113 19.2706 114.188 19.2368 114.268 19.2199C114.348 19.203 114.431 19.2033 114.511 19.221C114.59 19.2386 114.666 19.2731 114.731 19.3221C114.797 19.3712 114.851 19.4336 114.89 19.5053C114.93 19.5741 114.955 19.6503 114.965 19.7293C114.974 19.8082 114.967 19.8882 114.944 19.9644C114.921 20.0405 114.883 20.1112 114.832 20.1722C114.781 20.2331 114.718 20.2829 114.647 20.3186L113.553 20.9757ZM121.271 18.3788C121.235 18.6371 121.137 18.8828 120.985 19.0948C120.833 19.3068 120.632 19.4788 120.399 19.5962C119.663 20.0381 119.113 20.0189 118.888 19.6443C118.644 19.2388 118.937 18.755 119.64 18.3327C120.149 18.0268 120.747 17.8467 121.056 18.0205L121.271 18.3788ZM117.434 18.035C117.478 17.7246 117.592 17.4285 117.769 17.1697C117.946 16.9109 118.18 16.6964 118.453 16.543C118.599 16.426 118.769 16.3419 118.951 16.2964C119.132 16.251 119.321 16.2453 119.505 16.2798C119.689 16.3142 119.864 16.388 120.017 16.4961C120.169 16.6041 120.297 16.7439 120.391 16.9059L120.527 17.1322C119.99 17.0871 119.453 17.2244 119.003 17.5217C117.956 18.1506 117.455 19.196 118.044 20.1766C118.622 21.1384 119.698 21.2622 120.81 20.5937C121.064 20.4536 121.285 20.2628 121.462 20.0332C121.638 19.8036 121.765 19.5401 121.835 19.2591L122.085 19.674L122.914 19.1754L121.13 16.2053C120.984 15.9383 120.782 15.7064 120.537 15.5257C120.293 15.3451 120.012 15.2201 119.714 15.1595C119.416 15.099 119.108 15.1043 118.812 15.1751C118.516 15.246 118.24 15.3807 118.001 15.5697C117.659 15.7608 117.366 16.0302 117.147 16.3558C116.928 16.6815 116.789 17.0542 116.741 17.4438L117.434 18.035Z" fill="#C9B08A"/>
<mask id="mask2_1523_44" style="mask-type:luminance" maskUnits="userSpaceOnUse" x="67" y="47" width="71" height="80">
<path d="M67.969 47.157H137.827V126.081H67.969V47.157Z" fill="white"/>
</mask>
<g mask="url(#mask2_1523_44)">
<path d="M68.503 80.032L119.287 47.657L137.327 65.772L86.693 98.403L68.503 80.032Z" fill="white" stroke="#E6DDD3" stroke-linecap="round" stroke-linejoin="round"/>
<path d="M68.503 80.032L86.693 98.403L86.509 125.581L68.469 107.473L68.503 80.032Z" fill="white" stroke="#E6DDD3" stroke-linecap="round" stroke-linejoin="round"/>
<path d="M86.693 98.403L86.509 125.581L137.142 92.951L137.327 65.772L86.693 98.403Z" fill="white" stroke="#E6DDD3" stroke-linecap="round" stroke-linejoin="round"/>
</g>
</g>
<path d="M166.977 106.383L199.004 85.531L183.54 70L151 90.967L166.977 106.383Z" fill="#D6C5AC"/>
<path d="M151.266 90.627L167.244 106.044V134.474L151.266 119.062V90.627Z" fill="#D0BDA1"/>
<path d="M166.908 106.085L198.935 85.233V113.663L166.908 134.515V106.085Z" fill="#C9B08A"/>
</g>
<defs>
<clipPath id="clip0_1523_44">
<rect width="280" height="230" fill="white"/>
</clipPath>
</defs>
</svg>
