<svg width="141" height="88" viewBox="0 0 141 88" fill="none" xmlns="http://www.w3.org/2000/svg">
<g clip-path="url(#clip0_1561_112)">
<mask id="mask0_1561_112" style="mask-type:luminance" maskUnits="userSpaceOnUse" x="0" y="0" width="141" height="88">
<path d="M140.025 0H0V87.031H140.025V0Z" fill="white"/>
</mask>
<g mask="url(#mask0_1561_112)">
<path d="M136.835 1H3.19C1.9805 1 1 1.9805 1 3.19V83.841C1 85.0505 1.9805 86.031 3.19 86.031H136.835C138.045 86.031 139.025 85.0505 139.025 83.841V3.19C139.025 1.9805 138.045 1 136.835 1Z" stroke="#C9B08A" stroke-width="2" stroke-miterlimit="10"/>
<path d="M70.013 80.458H8.556C7.97518 80.458 7.41814 80.2273 7.00744 79.8166C6.59673 79.4059 6.366 78.8488 6.366 78.268V8.76202C6.36627 8.18128 6.59708 7.6244 7.00773 7.21375C7.41838 6.8031 7.97526 6.57229 8.556 6.57202H70.013V80.458Z" stroke="#C9B08A" stroke-width="2" stroke-miterlimit="10"/>
<path d="M131.469 80.458H70.012V6.57202H131.469C132.05 6.57202 132.607 6.80275 133.018 7.21346C133.428 7.62416 133.659 8.1812 133.659 8.76202V78.268C133.659 78.5557 133.603 78.8405 133.493 79.1063C133.383 79.372 133.221 79.6135 133.018 79.8169C132.814 80.0203 132.573 80.1816 132.307 80.2916C132.041 80.4016 131.757 80.4582 131.469 80.458Z" stroke="#C9B08A" stroke-width="2" stroke-miterlimit="10"/>
<path d="M19.27 46.981L15.8 43.515L19.27 40.05" stroke="#C9B08A" stroke-width="2" stroke-miterlimit="10"/>
<path d="M57.109 40.05L60.575 43.516L57.109 46.981" stroke="#C9B08A" stroke-width="2" stroke-miterlimit="10"/>
<path d="M15.805 43.515H60.575" stroke="#C9B08A" stroke-width="2" stroke-miterlimit="10"/>
</g>
</g>
<defs>
<clipPath id="clip0_1561_112">
<rect width="140.025" height="87.031" fill="white"/>
</clipPath>
</defs>
</svg>
