<svg width="79" height="88" viewBox="0 0 79 88" fill="none" xmlns="http://www.w3.org/2000/svg">
<g clip-path="url(#clip0_1561_49)">
<mask id="mask0_1561_49" style="mask-type:luminance" maskUnits="userSpaceOnUse" x="0" y="0" width="79" height="88">
<path d="M78.462 0H0V87.031H78.462V0Z" fill="white"/>
</mask>
<g mask="url(#mask0_1561_49)">
<path d="M75.272 1H3.19C1.9805 1 1 1.9805 1 3.19V83.841C1 85.0505 1.9805 86.031 3.19 86.031H75.272C76.4815 86.031 77.462 85.0505 77.462 83.841V3.19C77.462 1.9805 76.4815 1 75.272 1Z" stroke="#C9B08A" stroke-width="2" stroke-miterlimit="10"/>
<path d="M71.054 80.458H9.6C9.01918 80.458 8.46214 80.2273 8.05144 79.8166C7.64074 79.4059 7.41 78.8488 7.41 78.268V8.76202C7.41027 8.18128 7.64109 7.6244 8.05173 7.21375C8.46238 6.8031 9.01926 6.57229 9.6 6.57202H71.054V80.458Z" stroke="#C9B08A" stroke-width="2" stroke-miterlimit="10"/>
<path d="M29.786 6.573V80.459" stroke="#C9B08A" stroke-width="2" stroke-miterlimit="10"/>
<path d="M46.668 43.336H49.787C51.5082 43.39 53.2156 43.0118 54.753 42.236C56.0316 41.5739 57.0984 40.5659 57.832 39.327C58.5294 38.1268 58.883 36.7578 58.854 35.37C58.8702 34.3711 58.6782 33.3797 58.2901 32.4591C57.902 31.5385 57.3264 30.7089 56.6 30.023C55.7501 29.2574 54.7564 28.6686 53.6766 28.2909C52.5969 27.9132 51.4528 27.7541 50.311 27.823C49.0575 27.7983 47.8099 28.0016 46.629 28.423C45.6561 28.7736 44.7645 29.3179 44.008 30.023C43.355 30.6354 42.8219 31.3642 42.436 32.172C42.0932 32.8747 41.9095 33.6443 41.898 34.426H39.985C39.9983 33.4547 40.2078 32.4962 40.601 31.608C41.0424 30.5937 41.6792 29.6763 42.475 28.908C43.398 28.0253 44.4903 27.3389 45.686 26.89C47.1655 26.3444 48.7345 26.0821 50.311 26.117C52.2626 26.0625 54.1989 26.4761 55.958 27.323C57.4381 28.0505 58.6825 29.1812 59.548 30.585C60.3853 31.9824 60.8248 33.582 60.819 35.211C60.8657 36.8126 60.4668 38.3957 59.667 39.784C58.957 40.9899 57.9611 42.0023 56.767 42.732C55.7331 43.3831 54.579 43.8197 53.373 44.016V44.121C54.8213 44.2356 56.2307 44.6461 57.514 45.327C58.8677 46.0331 60.0214 47.0694 60.868 48.34C61.8015 49.7994 62.2679 51.5087 62.205 53.24C62.2383 54.6446 61.9653 56.0396 61.405 57.328C60.8613 58.5602 60.0568 59.6598 59.047 60.551C57.971 61.4905 56.7196 62.2077 55.365 62.661C53.8281 63.1756 52.2156 63.4281 50.595 63.408C48.5464 63.4669 46.5115 63.0565 44.646 62.208C43.1218 61.5043 41.814 60.4048 40.859 59.024C39.9919 57.7525 39.5223 56.252 39.51 54.713H41.4C41.4093 55.9813 41.8277 57.2126 42.593 58.224C43.4433 59.33 44.562 60.2005 45.843 60.753C47.3663 61.4186 49.016 61.7451 50.678 61.71C52.4532 61.7574 54.214 61.3803 55.814 60.61C57.1801 59.945 58.3277 58.9034 59.1216 57.608C59.9155 56.3125 60.3226 54.8171 60.295 53.298C60.3371 51.7322 59.8839 50.1931 59 48.9C58.0976 47.6378 56.8643 46.6492 55.436 46.043C53.793 45.3445 52.021 45.0007 50.236 45.034H46.668V43.336Z" fill="#C9B08A"/>
</g>
</g>
<defs>
<clipPath id="clip0_1561_49">
<rect width="78.462" height="87.031" fill="white"/>
</clipPath>
</defs>
</svg>
