<svg width="91" height="89" viewBox="0 0 91 89" fill="none" xmlns="http://www.w3.org/2000/svg">
<mask id="mask0_1561_134" style="mask-type:luminance" maskUnits="userSpaceOnUse" x="0" y="0" width="91" height="89">
<path d="M90.071 0.000976562H0V88.031H90.071V0.000976562Z" fill="white"/>
</mask>
<g mask="url(#mask0_1561_134)">
<path d="M31.437 36.72L8.28503 44.155" stroke="#C9B08A" stroke-width="2" stroke-miterlimit="22.926"/>
<path d="M28.075 86.44C28.175 78.54 28.275 70.64 28.409 66.335C28.543 62.03 28.709 61.329 29.883 60.61C31.057 59.891 33.233 59.155 43.015 56.21C52.797 53.265 70.183 48.11 87.571 42.957" stroke="#C9B08A" stroke-width="2" stroke-miterlimit="22.926"/>
<path d="M77.052 35.217C80.278 37.128 83.506 39.035 85.372 40.258C87.238 41.481 87.738 42.016 88.021 46.518C88.304 51.02 88.374 59.49 88.308 63.945C88.242 68.4 88.041 68.833 78.214 72.081C68.387 75.329 48.935 81.388 38.539 84.298C28.143 87.208 26.802 86.979 22.339 84.667C17.876 82.355 10.271 77.967 6.25199 75.411C2.23299 72.855 1.79299 72.112 1.64999 68.985C1.50699 65.858 1.65999 60.34 1.77699 56.035C1.89399 51.73 1.97699 48.648 3.33999 47.708C4.70299 46.768 7.35199 47.975 11.052 50.099C14.752 52.223 19.506 55.273 24.26 58.321" stroke="#C9B08A" stroke-width="2" stroke-miterlimit="22.926"/>
<path d="M65.2759 38.933C66.8905 39.8663 68.5049 40.7997 70.1189 41.733" stroke="#C9B08A" stroke-width="2" stroke-miterlimit="22.926"/>
<path d="M53.2939 42.187L58.6879 45.301" stroke="#C9B08A" stroke-width="2" stroke-miterlimit="22.926"/>
<path d="M40.751 45.406C42.741 46.552 44.73 47.7003 46.718 48.851" stroke="#C9B08A" stroke-width="2" stroke-miterlimit="22.926"/>
<path d="M27.578 48.539C30.0073 49.939 32.4357 51.341 34.863 52.745" stroke="#C9B08A" stroke-width="2" stroke-miterlimit="22.926"/>
<path d="M67.222 23.062C71.607 25.406 75.991 27.749 78.351 29.322C80.711 30.895 81.045 31.697 80.863 32.622C80.681 33.547 79.975 34.58 69.849 37.608C59.723 40.636 40.175 45.657 30.451 47.903C20.727 50.149 20.828 49.61 25.051 44.419C29.274 39.228 37.599 29.389 42.315 23.982C47.031 18.575 48.142 17.603 49.247 16.936C49.8923 16.5252 50.6239 16.2692 51.3846 16.188C52.1453 16.1068 52.9145 16.2026 53.632 16.468C56.6066 17.4468 59.5048 18.6441 62.303 20.05" stroke="#C9B08A" stroke-width="2" stroke-miterlimit="22.926"/>
<path d="M71.699 14.459C76.835 13.042 81.968 11.625 84.891 10.159C87.814 8.693 88.521 7.195 88.476 5.844C88.4287 5.14841 88.2048 4.47639 87.8254 3.89143C87.4461 3.30648 86.9238 2.82792 86.308 2.501C85.5353 2.05339 84.6817 1.76289 83.7964 1.6462C82.911 1.5295 82.0113 1.58891 81.149 1.821C78.8942 2.60746 76.8023 3.80012 74.977 5.34C73.0205 6.75948 71.1709 8.32068 69.443 10.011C68.204 11.317 67.895 12.157 67.208 12.842C66.3339 13.4947 65.5115 14.2138 64.748 14.993C64.0339 16.1458 63.5395 17.421 63.29 18.754C62.89 20.26 62.449 21.941 58.89 24.775C55.331 27.609 48.636 31.593 41.952 35.573" stroke="#C9B08A" stroke-width="2" stroke-miterlimit="22.926"/>
</g>
</svg>
