<svg width="143" height="88" viewBox="0 0 143 88" fill="none" xmlns="http://www.w3.org/2000/svg">
<g clip-path="url(#clip0_1561_17)">
<mask id="mask0_1561_17" style="mask-type:luminance" maskUnits="userSpaceOnUse" x="0" y="0" width="143" height="88">
<path d="M142.758 0H0V87.031H142.758V0Z" fill="white"/>
</mask>
<g mask="url(#mask0_1561_17)">
<path d="M3.18 1H38.82C39.1062 0.999869 39.3897 1.05613 39.6542 1.16558C39.9187 1.27503 40.159 1.43551 40.3614 1.63786C40.5639 1.84021 40.7245 2.08047 40.834 2.3449C40.9436 2.60934 41 2.89277 41 3.179V83.851C41 84.4292 40.7703 84.9837 40.3615 85.3925C39.9527 85.8013 39.3982 86.031 38.82 86.031H3.18C2.60183 86.031 2.04734 85.8013 1.63851 85.3925C1.22968 84.9837 1 84.4292 1 83.851L1 3.18C1 2.60183 1.22968 2.04734 1.63851 1.63851C2.04734 1.22968 2.60183 1 3.18 1Z" stroke="#C9B08A" stroke-width="2" stroke-miterlimit="10"/>
<path d="M40.999 9.09698H1" stroke="#C9B08A" stroke-width="2" stroke-miterlimit="10"/>
<path d="M40.999 55.536H1" stroke="#C9B08A" stroke-width="2" stroke-miterlimit="10"/>
<path d="M40.999 61.805H1" stroke="#C9B08A" stroke-width="2" stroke-miterlimit="10"/>
<path d="M40.999 79.999H1" stroke="#C9B08A" stroke-width="2" stroke-miterlimit="10"/>
<path d="M28.514 80H13.485C13.089 80 12.6969 79.922 12.331 79.7705C11.9652 79.6189 11.6327 79.3968 11.3527 79.1168C11.0727 78.8368 10.8506 78.5043 10.6991 78.1385C10.5475 77.7726 10.4695 77.3805 10.4695 76.9845C10.4695 76.5885 10.5475 76.1964 10.6991 75.8305C10.8506 75.4647 11.0727 75.1322 11.3527 74.8522C11.6327 74.5722 11.9652 74.3501 12.331 74.1985C12.6969 74.047 13.089 73.969 13.485 73.969H28.514C28.91 73.969 29.3021 74.047 29.668 74.1985C30.0339 74.3501 30.3663 74.5722 30.6463 74.8522C30.9263 75.1322 31.1484 75.4647 31.3 75.8305C31.4515 76.1964 31.5295 76.5885 31.5295 76.9845C31.5295 77.3805 31.4515 77.7726 31.3 78.1385C31.1484 78.5043 30.9263 78.8368 30.6463 79.1168C30.3663 79.3968 30.0339 79.6189 29.668 79.7705C29.3021 79.922 28.91 80 28.514 80Z" stroke="#C9B08A" stroke-width="2" stroke-miterlimit="10"/>
<path d="M28.514 73.968H13.485C13.0844 73.9753 12.6863 73.9027 12.3141 73.7545C11.9418 73.6062 11.6029 73.3852 11.317 73.1045C11.0311 72.8238 10.804 72.4889 10.649 72.1194C10.4939 71.7499 10.4141 71.3532 10.4141 70.9525C10.4141 70.5518 10.4939 70.1552 10.649 69.7857C10.804 69.4162 11.0311 69.0813 11.317 68.8006C11.6029 68.5198 11.9418 68.2989 12.3141 68.1506C12.6863 68.0023 13.0844 67.9297 13.485 67.937H28.514C28.9146 67.9297 29.3127 68.0023 29.6849 68.1506C30.0572 68.2989 30.3962 68.5198 30.6821 68.8006C30.9679 69.0813 31.195 69.4162 31.3501 69.7857C31.5051 70.1552 31.5849 70.5518 31.5849 70.9525C31.5849 71.3532 31.5051 71.7499 31.3501 72.1194C31.195 72.4889 30.9679 72.8238 30.6821 73.1045C30.3962 73.3852 30.0572 73.6062 29.6849 73.7545C29.3127 73.9027 28.9146 73.9753 28.514 73.968Z" stroke="#C9B08A" stroke-width="2" stroke-miterlimit="10"/>
<path d="M28.514 54.85H13.485C12.6853 54.85 11.9182 54.5323 11.3527 53.9668C10.7872 53.4012 10.4695 52.6342 10.4695 51.8345C10.4695 51.0347 10.7872 50.2677 11.3527 49.7022C11.9182 49.1367 12.6853 48.819 13.485 48.819H28.514C29.3138 48.819 30.0808 49.1367 30.6463 49.7022C31.2118 50.2677 31.5295 51.0347 31.5295 51.8345C31.5295 52.6342 31.2118 53.4012 30.6463 53.9668C30.0808 54.5323 29.3138 54.85 28.514 54.85Z" stroke="#C9B08A" stroke-width="2" stroke-miterlimit="10"/>
<path d="M28.514 48.819H13.485C13.0844 48.8263 12.6863 48.7537 12.3141 48.6054C11.9418 48.4571 11.6029 48.2362 11.317 47.9554C11.0311 47.6747 10.804 47.3398 10.649 46.9703C10.4939 46.6008 10.4141 46.2042 10.4141 45.8035C10.4141 45.4028 10.4939 45.0061 10.649 44.6366C10.804 44.2671 11.0311 43.9323 11.317 43.6515C11.6029 43.3708 11.9418 43.1498 12.3141 43.0016C12.6863 42.8533 13.0844 42.7807 13.485 42.788H28.514C28.9146 42.7807 29.3127 42.8533 29.6849 43.0016C30.0572 43.1498 30.3962 43.3708 30.6821 43.6515C30.9679 43.9323 31.195 44.2671 31.3501 44.6366C31.5051 45.0061 31.5849 45.4028 31.5849 45.8035C31.5849 46.2042 31.5051 46.6008 31.3501 46.9703C31.195 47.3398 30.9679 47.6747 30.6821 47.9554C30.3962 48.2362 30.0572 48.4571 29.6849 48.6054C29.3127 48.7537 28.9146 48.8263 28.514 48.819Z" stroke="#C9B08A" stroke-width="2" stroke-miterlimit="10"/>
<path d="M30.472 21.235H11.527C11.239 21.235 10.9628 21.1206 10.7591 20.9169C10.5554 20.7132 10.441 20.437 10.441 20.149V17.078L21 12.589L31.559 17.078V20.149C31.559 20.2917 31.5309 20.433 31.4762 20.5648C31.4216 20.6966 31.3415 20.8164 31.2406 20.9173C31.1396 21.0181 31.0198 21.0981 30.8879 21.1526C30.756 21.2071 30.6147 21.2351 30.472 21.235Z" stroke="#C9B08A" stroke-width="2" stroke-miterlimit="10"/>
<path d="M16.714 8.775C16.714 7.63842 17.1655 6.54838 17.9692 5.7447C18.7729 4.94101 19.8629 4.4895 20.9995 4.4895C22.1361 4.4895 23.2261 4.94101 24.0298 5.7447C24.8335 6.54838 25.285 7.63842 25.285 8.775L20.379 13.06" stroke="#C9B08A" stroke-width="2" stroke-miterlimit="10"/>
<path d="M103.939 1H139.579C139.865 0.999869 140.149 1.05613 140.413 1.16558C140.678 1.27503 140.918 1.43551 141.12 1.63786C141.323 1.84021 141.483 2.08047 141.593 2.3449C141.703 2.60934 141.759 2.89277 141.759 3.179V83.851C141.759 84.4292 141.529 84.9837 141.12 85.3925C140.712 85.8013 140.157 86.031 139.579 86.031H103.939C103.361 86.031 102.806 85.8013 102.398 85.3925C101.989 84.9837 101.759 84.4292 101.759 83.851V3.18C101.759 2.60183 101.989 2.04734 102.398 1.63851C102.806 1.22968 103.361 1 103.939 1Z" stroke="#C9B08A" stroke-width="2" stroke-miterlimit="10"/>
<path d="M141.758 9.09698H101.759" stroke="#C9B08A" stroke-width="2" stroke-miterlimit="10"/>
<path d="M141.758 55.536H101.759" stroke="#C9B08A" stroke-width="2" stroke-miterlimit="10"/>
<path d="M141.758 61.805H101.759" stroke="#C9B08A" stroke-width="2" stroke-miterlimit="10"/>
<path d="M141.758 79.999H101.759" stroke="#C9B08A" stroke-width="2" stroke-miterlimit="10"/>
<path d="M129.273 80H114.244C113.848 80 113.456 79.922 113.09 79.7705C112.724 79.6189 112.392 79.3968 112.112 79.1168C111.832 78.8368 111.61 78.5043 111.458 78.1385C111.307 77.7726 111.229 77.3805 111.229 76.9845C111.229 76.5885 111.307 76.1964 111.458 75.8305C111.61 75.4647 111.832 75.1322 112.112 74.8522C112.392 74.5722 112.724 74.3501 113.09 74.1985C113.456 74.047 113.848 73.969 114.244 73.969H129.273C129.669 73.969 130.061 74.047 130.427 74.1985C130.793 74.3501 131.125 74.5722 131.405 74.8522C131.685 75.1322 131.907 75.4647 132.059 75.8305C132.211 76.1964 132.289 76.5885 132.289 76.9845C132.289 77.3805 132.211 77.7726 132.059 78.1385C131.907 78.5043 131.685 78.8368 131.405 79.1168C131.125 79.3968 130.793 79.6189 130.427 79.7705C130.061 79.922 129.669 80 129.273 80Z" stroke="#C9B08A" stroke-width="2" stroke-miterlimit="10"/>
<path d="M129.273 73.968H114.244C113.843 73.9753 113.445 73.9027 113.073 73.7545C112.701 73.6062 112.362 73.3852 112.076 73.1045C111.79 72.8238 111.563 72.4889 111.408 72.1194C111.253 71.7499 111.173 71.3532 111.173 70.9525C111.173 70.5518 111.253 70.1552 111.408 69.7857C111.563 69.4162 111.79 69.0813 112.076 68.8006C112.362 68.5198 112.701 68.2989 113.073 68.1506C113.445 68.0023 113.843 67.9297 114.244 67.937H129.273C129.674 67.9297 130.072 68.0023 130.444 68.1506C130.816 68.2989 131.155 68.5198 131.441 68.8006C131.727 69.0813 131.954 69.4162 132.109 69.7857C132.264 70.1552 132.344 70.5518 132.344 70.9525C132.344 71.3532 132.264 71.7499 132.109 72.1194C131.954 72.4889 131.727 72.8238 131.441 73.1045C131.155 73.3852 130.816 73.6062 130.444 73.7545C130.072 73.9027 129.674 73.9753 129.273 73.968Z" stroke="#C9B08A" stroke-width="2" stroke-miterlimit="10"/>
<path d="M129.273 54.85H114.244C113.444 54.85 112.677 54.5323 112.112 53.9668C111.546 53.4012 111.229 52.6342 111.229 51.8345C111.229 51.0347 111.546 50.2677 112.112 49.7022C112.677 49.1367 113.444 48.819 114.244 48.819H129.273C130.073 48.819 130.84 49.1367 131.405 49.7022C131.971 50.2677 132.289 51.0347 132.289 51.8345C132.289 52.6342 131.971 53.4012 131.405 53.9668C130.84 54.5323 130.073 54.85 129.273 54.85Z" stroke="#C9B08A" stroke-width="2" stroke-miterlimit="10"/>
<path d="M129.273 48.819H114.244C113.843 48.8263 113.445 48.7537 113.073 48.6054C112.701 48.4571 112.362 48.2362 112.076 47.9554C111.79 47.6747 111.563 47.3398 111.408 46.9703C111.253 46.6008 111.173 46.2042 111.173 45.8035C111.173 45.4028 111.253 45.0061 111.408 44.6366C111.563 44.2671 111.79 43.9323 112.076 43.6515C112.362 43.3708 112.701 43.1498 113.073 43.0016C113.445 42.8533 113.843 42.7807 114.244 42.788H129.273C129.674 42.7807 130.072 42.8533 130.444 43.0016C130.816 43.1498 131.155 43.3708 131.441 43.6515C131.727 43.9323 131.954 44.2671 132.109 44.6366C132.264 45.0061 132.344 45.4028 132.344 45.8035C132.344 46.2042 132.264 46.6008 132.109 46.9703C131.954 47.3398 131.727 47.6747 131.441 47.9554C131.155 48.2362 130.816 48.4571 130.444 48.6054C130.072 48.7537 129.674 48.8263 129.273 48.819Z" stroke="#C9B08A" stroke-width="2" stroke-miterlimit="10"/>
<path d="M131.231 21.235H112.286C111.998 21.235 111.722 21.1206 111.518 20.9169C111.314 20.7132 111.2 20.437 111.2 20.149V17.078L121.758 12.589L132.317 17.078V20.149C132.317 20.437 132.203 20.7132 131.999 20.9169C131.795 21.1206 131.519 21.235 131.231 21.235Z" stroke="#C9B08A" stroke-width="2" stroke-miterlimit="10"/>
<path d="M117.473 8.775C117.473 7.63842 117.925 6.54838 118.728 5.7447C119.532 4.94101 120.622 4.4895 121.758 4.4895C122.895 4.4895 123.985 4.94101 124.789 5.7447C125.592 6.54838 126.044 7.63842 126.044 8.775L121.138 13.06" stroke="#C9B08A" stroke-width="2" stroke-miterlimit="10"/>
<path d="M91.115 8.258V50.223C91.115 50.8038 90.8843 51.3609 90.4736 51.7716C90.0629 52.1823 89.5058 52.413 88.925 52.413H53.833C53.2523 52.4127 52.6954 52.1819 52.2847 51.7713C51.8741 51.3606 51.6433 50.8037 51.643 50.223V8.258" stroke="#C9B08A" stroke-width="2" stroke-miterlimit="10"/>
<path d="M55.572 48.936V15.019C55.5979 14.4636 55.843 13.9412 56.2536 13.5663C56.6641 13.1914 57.2066 12.9946 57.762 13.019H85C85.5554 12.9946 86.0979 13.1914 86.5084 13.5663C86.9189 13.9412 87.1641 14.4636 87.19 15.019V48.936" stroke="#C9B08A" stroke-width="2" stroke-miterlimit="10"/>
<path d="M48.592 48.936H94.167" stroke="#C9B08A" stroke-width="2" stroke-miterlimit="10"/>
<path d="M91.471 5.79999H50.123C49.7168 5.79999 49.3273 5.96134 49.0401 6.24855C48.7528 6.53577 48.5915 6.92531 48.5915 7.33149C48.5915 7.73767 48.7528 8.12721 49.0401 8.41442C49.3273 8.70163 49.7168 8.86299 50.123 8.86299H91.471C91.8772 8.86299 92.2667 8.70163 92.5539 8.41442C92.8411 8.12721 93.0025 7.73767 93.0025 7.33149C93.0025 6.92531 92.8411 6.53577 92.5539 6.24855C92.2667 5.96134 91.8772 5.79999 91.471 5.79999Z" stroke="#C9B08A" stroke-width="2" stroke-miterlimit="10"/>
<path d="M71.379 13.023V48.936" stroke="#C9B08A" stroke-width="2" stroke-miterlimit="10"/>
</g>
</g>
<defs>
<clipPath id="clip0_1561_17">
<rect width="142.758" height="87.031" fill="white"/>
</clipPath>
</defs>
</svg>
