<svg width="117" height="88" viewBox="0 0 117 88" fill="none" xmlns="http://www.w3.org/2000/svg">
<g clip-path="url(#clip0_1561_2)">
<mask id="mask0_1561_2" style="mask-type:luminance" maskUnits="userSpaceOnUse" x="0" y="0" width="117" height="88">
<path d="M116.213 0H0V87.031H116.213V0Z" fill="white"/>
</mask>
<g mask="url(#mask0_1561_2)">
<path d="M25.989 63.277H3.714C3.36202 63.2771 3.01346 63.2079 2.68825 63.0733C2.36304 62.9386 2.06754 62.7412 1.81866 62.4923C1.56977 62.2434 1.37237 61.948 1.23773 61.6227C1.1031 61.2975 1.03387 60.949 1.034 60.597V3.713C1.03387 3.36106 1.1031 3.01256 1.23775 2.6874C1.3724 2.36225 1.56982 2.06682 1.81872 1.81801C2.06762 1.5692 2.36312 1.3719 2.68833 1.23737C3.01353 1.10284 3.36206 1.03373 3.714 1.034H112.498C112.85 1.03373 113.198 1.10281 113.523 1.23727C113.849 1.37174 114.144 1.56896 114.393 1.81766C114.642 2.06636 114.839 2.36167 114.974 2.68671C115.109 3.01175 115.178 3.36015 115.178 3.712V60.597C115.178 60.949 115.109 61.2975 114.974 61.6227C114.84 61.948 114.642 62.2434 114.393 62.4923C114.144 62.7412 113.849 62.9386 113.524 63.0733C113.199 63.2079 112.85 63.2771 112.498 63.277H90.223" stroke="#C9B08A" stroke-width="2" stroke-miterlimit="10"/>
<path d="M25.1 59.198H7.379C6.87509 59.198 6.39182 58.9978 6.0355 58.6415C5.67918 58.2852 5.479 57.8019 5.479 57.298V7.01499C5.479 6.51108 5.67918 6.02781 6.0355 5.67149C6.39182 5.31517 6.87509 5.11499 7.379 5.11499H58.106" stroke="#C9B08A" stroke-width="2" stroke-miterlimit="10"/>
<path d="M58.104 5.112H108.836C109.34 5.112 109.823 5.31218 110.18 5.6685C110.536 6.02482 110.736 6.50809 110.736 7.012V57.292C110.736 57.7959 110.536 58.2792 110.18 58.6355C109.823 58.9918 109.34 59.192 108.836 59.192H91.112" stroke="#C9B08A" stroke-width="2" stroke-miterlimit="10"/>
<path d="M91.218 56.323H24.996C23.85 56.323 22.7509 55.8677 21.9406 55.0574C21.1302 54.247 20.675 53.148 20.675 52.002C20.675 50.856 21.1302 49.7569 21.9406 48.9466C22.7509 48.1362 23.85 47.681 24.996 47.681H91.218C92.364 47.681 93.463 48.1362 94.2734 48.9466C95.0837 49.7569 95.539 50.856 95.539 52.002C95.539 53.148 95.0837 54.247 94.2734 55.0574C93.463 55.8677 92.364 56.323 91.218 56.323Z" stroke="#C9B08A" stroke-width="2" stroke-miterlimit="10"/>
<path d="M73.226 21.724C73.226 19.7462 74.0117 17.8495 75.4101 16.4511C76.8086 15.0526 78.7053 14.267 80.683 14.267C82.6607 14.267 84.5575 15.0526 85.9559 16.4511C87.3544 17.8495 88.14 19.7462 88.14 21.724V47.681" stroke="#C9B08A" stroke-width="2" stroke-miterlimit="10"/>
<path d="M65.412 29.977C65.3112 29.9759 65.2117 29.9537 65.1199 29.912C65.0281 29.8702 64.946 29.8097 64.8789 29.7344C64.8118 29.6591 64.7611 29.5707 64.7302 29.4747C64.6992 29.3787 64.6886 29.2773 64.699 29.177C64.8996 27.0547 65.8846 25.0834 67.4613 23.6487C69.0381 22.214 71.0932 21.4189 73.225 21.4189C75.3568 21.4189 77.412 22.214 78.9887 23.6487C80.5655 25.0834 81.5504 27.0547 81.751 29.177C81.7616 29.2774 81.7511 29.3788 81.7202 29.4749C81.6893 29.5709 81.6387 29.6594 81.5715 29.7348C81.5044 29.8101 81.4222 29.8706 81.3304 29.9123C81.2385 29.954 81.1389 29.976 81.038 29.977H65.412Z" stroke="#C9B08A" stroke-width="2" stroke-miterlimit="10"/>
<path d="M82.523 80.599H33.689C32.1731 80.5993 30.709 80.0469 29.571 79.0454C28.433 78.0438 27.6992 76.6617 27.507 75.158L25.101 56.323H91.112L88.707 75.157C88.5146 76.6611 87.7805 78.0434 86.6421 79.0452C85.5038 80.0469 84.0393 80.5993 82.523 80.599Z" stroke="#C9B08A" stroke-width="2" stroke-miterlimit="10"/>
<path d="M45.168 80.599H37.868C37.0986 80.599 36.475 81.2227 36.475 81.992V84.605C36.475 85.3743 37.0986 85.998 37.868 85.998H45.168C45.9373 85.998 46.561 85.3743 46.561 84.605V81.992C46.561 81.2227 45.9373 80.599 45.168 80.599Z" stroke="#C9B08A" stroke-width="2" stroke-miterlimit="10"/>
<path d="M78.345 80.599H71.045C70.2756 80.599 69.652 81.2227 69.652 81.992V84.605C69.652 85.3743 70.2756 85.998 71.045 85.998H78.345C79.1143 85.998 79.738 85.3743 79.738 84.605V81.992C79.738 81.2227 79.1143 80.599 78.345 80.599Z" stroke="#C9B08A" stroke-width="2" stroke-miterlimit="10"/>
<path d="M58.106 5.11298V47.682" stroke="#C9B08A" stroke-width="2" stroke-miterlimit="10"/>
</g>
</g>
<defs>
<clipPath id="clip0_1561_2">
<rect width="116.213" height="87.031" fill="white"/>
</clipPath>
</defs>
</svg>
