<svg xmlns="http://www.w3.org/2000/svg" width="1920" height="968" viewBox="0 0 1920 968">
    <path d="m2352.692-273.023.04.6a21.28 21.28 0 0 0 2.117 8.071 22.173 22.173 0 0 0 5.192 6.688 22.1 22.1 0 0 0 8.042 4.494 35.423 35.423 0 0 0 10.761 1.509 35.052 35.052 0 0 0 10.723-1.508 21.408 21.408 0 0 0 7.927-4.491 22.166 22.166 0 0 0 5.082-6.688 21.707 21.707 0 0 0 2.081-8.075l.04-.6.58.145 21.907 5.477v.39a37.588 37.588 0 0 1-3.79 16.968 40.517 40.517 0 0 1-10.292 13.017 47.675 47.675 0 0 1-15.409 8.462 58.581 58.581 0 0 1-18.848 3.016 57.237 57.237 0 0 1-18.7-3.017 49.843 49.843 0 0 1-15.4-8.457 38 38 0 0 1-10.3-13.028 38.877 38.877 0 0 1-3.637-16.961v-.388l.375-.1zm73.49 6.406-20.574-5.144a22.54 22.54 0 0 1-2.133 7.85 23.152 23.152 0 0 1-5.308 6.991 22.408 22.408 0 0 1-8.293 4.7 36.054 36.054 0 0 1-11.03 1.557 36.408 36.408 0 0 1-11.066-1.556 23.09 23.09 0 0 1-8.4-4.7 23.166 23.166 0 0 1-5.423-6.991 22.125 22.125 0 0 1-2.171-7.85l-19.984 5.14a37.731 37.731 0 0 0 3.537 16.141 37 37 0 0 0 10.032 12.687 48.846 48.846 0 0 0 15.1 8.286 56.24 56.24 0 0 0 18.375 2.963 57.579 57.579 0 0 0 18.527-2.964 46.676 46.676 0 0 0 15.089-8.282 39.517 39.517 0 0 0 10.039-12.7 36.458 36.458 0 0 0 3.683-16.128zm-2002.5 48.146a101.745 101.745 0 0 1 27.343 3.607A110.962 110.962 0 0 1 474.6-205.4a80.331 80.331 0 0 1 18.2 13.39 56.286 56.286 0 0 1 11.16 15.087l.086.18-.062.19-7.184 22.191-.575-.834a88.116 88.116 0 0 0-13.49-15.423 87.29 87.29 0 0 0-16.686-11.78 79.4 79.4 0 0 0-19.573-7.465 95.912 95.912 0 0 0-22.2-2.491 93.641 93.641 0 0 0-17.1 1.524 79.683 79.683 0 0 0-15.6 4.568 75.759 75.759 0 0 0-13.775 7.352 70.591 70.591 0 0 0-11.616 9.872 73.853 73.853 0 0 0-9.355 12.251 83.754 83.754 0 0 0-6.984 14.49 89.868 89.868 0 0 0-4.349 16.54 112.982 112.982 0 0 0-1.451 18.419 112.982 112.982 0 0 0 1.454 18.417 89.869 89.869 0 0 0 4.349 16.54 83.755 83.755 0 0 0 6.984 14.49 73.854 73.854 0 0 0 9.355 12.251 70.594 70.594 0 0 0 11.616 9.872 75.763 75.763 0 0 0 13.775 7.351 79.681 79.681 0 0 0 15.6 4.568 93.641 93.641 0 0 0 17.1 1.524A97.6 97.6 0 0 0 447.521-25a79.756 79.756 0 0 0 20.317-8.022 97.27 97.27 0 0 0 16.918-12.047 82.083 82.083 0 0 0 12.965-14.711l.569-.83 7.258 21.774-.083.18a55.8 55.8 0 0 1-11.765 16.14A84.268 84.268 0 0 1 475.2-8.98 104.562 104.562 0 0 1 451.317.334a109.364 109.364 0 0 1-27.635 3.455 106.536 106.536 0 0 1-20.466-1.953 101.221 101.221 0 0 1-19.344-5.859 100.1 100.1 0 0 1-17.655-9.5 100.541 100.541 0 0 1-15.4-12.884 102.171 102.171 0 0 1-12.807-16.079 116.615 116.615 0 0 1-9.872-19.069 110.108 110.108 0 0 1-6.308-21.739 133.644 133.644 0 0 1-2.1-24.047 133.646 133.646 0 0 1 2.1-24.048 110.108 110.108 0 0 1 6.308-21.739 116.612 116.612 0 0 1 9.872-19.072 102.188 102.188 0 0 1 12.808-16.075 100.556 100.556 0 0 1 15.4-12.883 100.093 100.093 0 0 1 17.655-9.5 101.241 101.241 0 0 1 19.344-5.859 106.56 106.56 0 0 1 20.466-1.954zm79.3 41.8a55.547 55.547 0 0 0-10.882-14.635 79.346 79.346 0 0 0-17.976-13.221 110 110 0 0 0-23.366-9.375 100.758 100.758 0 0 0-27.074-3.569 105.522 105.522 0 0 0-20.273 1.934 100.209 100.209 0 0 0-19.152 5.8 99.05 99.05 0 0 0-17.478 9.408 99.506 99.506 0 0 0-15.247 12.755 101.171 101.171 0 0 0-12.682 15.918 115.565 115.565 0 0 0-9.787 18.9 109.1 109.1 0 0 0-6.25 21.541 132.653 132.653 0 0 0-2.085 23.867 132.655 132.655 0 0 0 2.085 23.867 109.1 109.1 0 0 0 6.25 21.541 115.565 115.565 0 0 0 9.787 18.9 101.156 101.156 0 0 0 12.682 15.918 99.492 99.492 0 0 0 15.246 12.767 99.056 99.056 0 0 0 17.478 9.408A100.212 100.212 0 0 0 403.41.855a105.555 105.555 0 0 0 20.273 1.934 108.357 108.357 0 0 0 27.381-3.422 103.551 103.551 0 0 0 23.656-9.224A83.285 83.285 0 0 0 493-23.231 54.953 54.953 0 0 0 504.473-38.9l-6.5-19.495a83.29 83.29 0 0 1-12.552 14.068 98.285 98.285 0 0 1-17.093 12.172 80.761 80.761 0 0 1-20.571 8.124 98.6 98.6 0 0 1-23.479 2.705A94.647 94.647 0 0 1 407-22.868a80.675 80.675 0 0 1-15.8-4.626 76.771 76.771 0 0 1-13.957-7.449 71.616 71.616 0 0 1-11.781-10.012 74.887 74.887 0 0 1-9.482-12.417 84.807 84.807 0 0 1-7.069-14.663 90.913 90.913 0 0 1-4.4-16.724 113.949 113.949 0 0 1-1.465-18.582 113.95 113.95 0 0 1 1.465-18.583 90.913 90.913 0 0 1 4.4-16.724 84.808 84.808 0 0 1 7.069-14.663 74.891 74.891 0 0 1 9.482-12.417 71.619 71.619 0 0 1 11.781-10.012 76.769 76.769 0 0 1 13.957-7.449 80.671 80.671 0 0 1 15.8-4.626 94.642 94.642 0 0 1 17.284-1.541 96.916 96.916 0 0 1 22.429 2.518 80.414 80.414 0 0 1 19.82 7.56 88.277 88.277 0 0 1 16.877 11.916 88.909 88.909 0 0 1 13.067 14.771zm297.445-41.8a100.931 100.931 0 0 1 20.809 2.141 98.9 98.9 0 0 1 19.759 6.424 111.013 111.013 0 0 1 18.059 10.137 109.194 109.194 0 0 1 15.732 13.291 108.282 108.282 0 0 1 13.067 16.221 117.894 117.894 0 0 1 10.059 18.918 106.951 106.951 0 0 1 6.418 21.139 120.022 120.022 0 0 1 2.14 22.857 120.023 120.023 0 0 1-2.14 22.857 106.942 106.942 0 0 1-6.421 21.141 117.894 117.894 0 0 1-10.059 18.919A108.28 108.28 0 0 1 874.783-28.2a111.063 111.063 0 0 1-15.731 13.328 113.425 113.425 0 0 1-18.058 10.244h-.006a100.156 100.156 0 0 1-19.758 6.314 102.66 102.66 0 0 1-20.807 2.1 100.933 100.933 0 0 1-20.809-2.141 98.907 98.907 0 0 1-19.759-6.424A111.038 111.038 0 0 1 741.8-14.913 109.2 109.2 0 0 1 726.063-28.2 108.271 108.271 0 0 1 713-44.426a117.878 117.878 0 0 1-10.06-18.918 106.934 106.934 0 0 1-6.421-21.141 120.013 120.013 0 0 1-2.14-22.857 120.012 120.012 0 0 1 2.14-22.857 106.942 106.942 0 0 1 6.421-21.141A117.88 117.88 0 0 1 713-170.257a108.269 108.269 0 0 1 13.067-16.221 109.221 109.221 0 0 1 15.733-13.291 111.018 111.018 0 0 1 18.059-10.137 98.9 98.9 0 0 1 19.759-6.424 100.931 100.931 0 0 1 20.805-2.141zM840.581-5.538a112.463 112.463 0 0 0 17.9-10.158A110.1 110.1 0 0 0 874.068-28.9a107.283 107.283 0 0 0 12.946-16.071 116.9 116.9 0 0 0 9.974-18.757 105.94 105.94 0 0 0 6.361-20.943 119 119 0 0 0 2.121-22.666 119 119 0 0 0-2.121-22.666 105.95 105.95 0 0 0-6.361-20.943 116.905 116.905 0 0 0-9.974-18.757 107.287 107.287 0 0 0-12.946-16.071 108.207 108.207 0 0 0-15.588-13.17 110 110 0 0 0-17.9-10.045 97.878 97.878 0 0 0-19.559-6.359 99.952 99.952 0 0 0-20.6-2.119 99.953 99.953 0 0 0-20.6 2.119 97.88 97.88 0 0 0-19.559 6.359 110 110 0 0 0-17.9 10.045 108.2 108.2 0 0 0-15.588 13.17 107.262 107.262 0 0 0-12.946 16.071 116.9 116.9 0 0 0-9.974 18.757 105.95 105.95 0 0 0-6.361 20.943 119 119 0 0 0-2.121 22.666 119 119 0 0 0 2.128 22.662 105.94 105.94 0 0 0 6.361 20.943 116.9 116.9 0 0 0 9.974 18.757A107.258 107.258 0 0 0 726.777-28.9a108.186 108.186 0 0 0 15.588 13.17 110.017 110.017 0 0 0 17.9 10.046A97.878 97.878 0 0 0 779.821.669a99.937 99.937 0 0 0 20.6 2.12 101.655 101.655 0 0 0 20.6-2.083 99.162 99.162 0 0 0 19.56-6.244zm917.539-212.933a101.748 101.748 0 0 1 27.344 3.607 110.973 110.973 0 0 1 23.578 9.462 80.344 80.344 0 0 1 18.2 13.39 56.3 56.3 0 0 1 11.16 15.087l.086.18-.062.19-7.189 22.193-.575-.834a88.114 88.114 0 0 0-13.491-15.423 87.286 87.286 0 0 0-16.686-11.78 79.4 79.4 0 0 0-19.573-7.465 95.91 95.91 0 0 0-22.2-2.491 93.639 93.639 0 0 0-17.1 1.524 79.687 79.687 0 0 0-15.6 4.568 75.768 75.768 0 0 0-13.775 7.352 70.591 70.591 0 0 0-11.616 9.872 73.853 73.853 0 0 0-9.355 12.251 83.762 83.762 0 0 0-6.984 14.49 89.861 89.861 0 0 0-4.349 16.54 112.98 112.98 0 0 0-1.451 18.419 112.977 112.977 0 0 0 1.451 18.419 89.862 89.862 0 0 0 4.349 16.54 83.764 83.764 0 0 0 6.984 14.49 73.854 73.854 0 0 0 9.355 12.251 70.594 70.594 0 0 0 11.616 9.872 75.771 75.771 0 0 0 13.775 7.351 79.685 79.685 0 0 0 15.6 4.568 93.639 93.639 0 0 0 17.1 1.524A97.6 97.6 0 0 0 1781.958-25a79.758 79.758 0 0 0 20.317-8.022 97.258 97.258 0 0 0 16.919-12.047 82.116 82.116 0 0 0 12.965-14.711l.568-.83 7.258 21.774-.084.18a55.8 55.8 0 0 1-11.764 16.143 84.287 84.287 0 0 1-18.5 13.536 104.562 104.562 0 0 1-23.883 9.311 109.36 109.36 0 0 1-27.634 3.455 106.535 106.535 0 0 1-20.466-1.953 101.228 101.228 0 0 1-19.344-5.859 100.1 100.1 0 0 1-17.655-9.5 100.529 100.529 0 0 1-15.4-12.884 102.172 102.172 0 0 1-12.808-16.075 116.607 116.607 0 0 1-9.873-19.069 110.128 110.128 0 0 1-6.308-21.739 133.642 133.642 0 0 1-2.1-24.048 133.64 133.64 0 0 1 2.1-24.048 110.124 110.124 0 0 1 6.308-21.739 116.6 116.6 0 0 1 9.873-19.069 102.189 102.189 0 0 1 12.808-16.075 100.544 100.544 0 0 1 15.4-12.883 100.094 100.094 0 0 1 17.655-9.5 101.24 101.24 0 0 1 19.344-5.859 106.555 106.555 0 0 1 20.466-1.96zm79.3 41.8a55.548 55.548 0 0 0-10.879-14.634 79.348 79.348 0 0 0-17.976-13.221 110 110 0 0 0-23.365-9.375 100.763 100.763 0 0 0-27.075-3.569 105.523 105.523 0 0 0-20.273 1.934 100.2 100.2 0 0 0-19.152 5.8 99.057 99.057 0 0 0-17.478 9.408 99.512 99.512 0 0 0-15.247 12.755 101.2 101.2 0 0 0-12.682 15.918 115.581 115.581 0 0 0-9.787 18.9 109.082 109.082 0 0 0-6.25 21.541 132.611 132.611 0 0 0-2.085 23.867 132.609 132.609 0 0 0 2.085 23.867 109.082 109.082 0 0 0 6.25 21.541 115.583 115.583 0 0 0 9.787 18.9 101.185 101.185 0 0 0 12.682 15.918 99.5 99.5 0 0 0 15.247 12.756 99.063 99.063 0 0 0 17.478 9.408 100.206 100.206 0 0 0 19.152 5.8 105.549 105.549 0 0 0 20.273 1.934 108.354 108.354 0 0 0 27.375-3.41 103.548 103.548 0 0 0 23.656-9.224 83.294 83.294 0 0 0 18.279-13.374A54.961 54.961 0 0 0 1838.91-38.9l-6.5-19.495a83.292 83.292 0 0 1-12.552 14.068 98.263 98.263 0 0 1-17.093 12.172 80.762 80.762 0 0 1-20.571 8.124 98.6 98.6 0 0 1-23.479 2.705 94.648 94.648 0 0 1-17.284-1.541 80.678 80.678 0 0 1-15.8-4.626 76.775 76.775 0 0 1-13.957-7.449 71.611 71.611 0 0 1-11.774-10.013 74.888 74.888 0 0 1-9.482-12.417 84.825 84.825 0 0 1-7.069-14.663 90.887 90.887 0 0 1-4.4-16.724 113.958 113.958 0 0 1-1.464-18.582 113.958 113.958 0 0 1 1.464-18.583 90.887 90.887 0 0 1 4.4-16.724 84.826 84.826 0 0 1 7.069-14.663 74.891 74.891 0 0 1 9.482-12.417 71.614 71.614 0 0 1 11.781-10.012 76.773 76.773 0 0 1 13.957-7.449 80.673 80.673 0 0 1 15.8-4.626 94.643 94.643 0 0 1 17.284-1.541 96.914 96.914 0 0 1 22.429 2.518 80.411 80.411 0 0 1 19.82 7.56 88.286 88.286 0 0 1 16.877 11.916 88.908 88.908 0 0 1 13.067 14.771zM107.738-215.182h24.322V-36.61l121.227-178.572h27.376V.5h-24.322v-177.682L135.113.5h-27.375zm23.322 1h-22.322V-.5h25.847l122.756-179.922V-.5h22.322v-213.682h-25.846L131.06-33.356zm389.6-1h163.354v25.219h-69.667V.5h-24.322v-190.463h-69.368zm162.357 1h-161.36v23.219h69.368V-.5h22.322v-190.463h69.667zm262.522-1h59.7a78.506 78.506 0 0 1 13.654 1.167 69.469 69.469 0 0 1 12.687 3.5 68.164 68.164 0 0 1 11.408 5.611 62.669 62.669 0 0 1 9.833 7.5 58.427 58.427 0 0 1 8.067 9.311 62.756 62.756 0 0 1 6.1 11.039 61.163 61.163 0 0 1 3.844 12.624 74.649 74.649 0 0 1 1.28 14.035 74.77 74.77 0 0 1-1.242 13.809 62.778 62.778 0 0 1-3.73 12.546 64.953 64.953 0 0 1-5.914 11.074 60.086 60.086 0 0 1-7.8 9.422 57.975 57.975 0 0 1-9.614 7.616 63.958 63.958 0 0 1-11.339 5.651 68.886 68.886 0 0 1-12.838 3.5 82.948 82.948 0 0 1-14.1 1.166h-35.677V.5h-24.322zm60 128.57a81.944 81.944 0 0 0 13.93-1.151 67.86 67.86 0 0 0 12.651-3.45 62.961 62.961 0 0 0 11.161-5.562 56.961 56.961 0 0 0 9.447-7.484 59.074 59.074 0 0 0 7.672-9.266 63.951 63.951 0 0 0 5.822-10.9 61.785 61.785 0 0 0 3.67-12.346 73.751 73.751 0 0 0 1.225-13.624 73.645 73.645 0 0 0-1.262-13.846 60.138 60.138 0 0 0-3.781-12.417 61.725 61.725 0 0 0-6.006-10.863 57.428 57.428 0 0 0-7.929-9.152 61.652 61.652 0 0 0-9.676-7.378 67.165 67.165 0 0 0-11.241-5.527 68.506 68.506 0 0 0-12.5-3.451 77.548 77.548 0 0 0-13.48-1.151h-58.7V-.5h22.322v-86.112zm102.954-128.57h24.322V-36.61l121.225-178.572h27.376V.5h-24.322v-177.682L1135.866.5h-27.375zm23.322 1h-22.322V-.5h25.847l122.756-179.922V-.5h22.322v-213.682h-25.848L1131.813-33.356zm193.154-1h24.322v55.815a61.376 61.376 0 0 0 2.813 19.758 33.246 33.246 0 0 0 3.5 7.3 25.942 25.942 0 0 0 4.876 5.6 36.914 36.914 0 0 0 13.941 7.187 71.253 71.253 0 0 0 19.521 2.41 124.592 124.592 0 0 0 20.25-1.488 213.664 213.664 0 0 0 17.821-3.782v-92.8h24.322V.5h-24.322v-96.75a214.22 214.22 0 0 1-20.817 3.607 183.264 183.264 0 0 1-22.337 1.349 93.17 93.17 0 0 1-24.5-3.157 61.963 61.963 0 0 1-10.889-4.07 54.553 54.553 0 0 1-9.47-5.879 45.488 45.488 0 0 1-7.861-7.823 51.552 51.552 0 0 1-6.039-9.85 51.072 51.072 0 0 1-3.851-12 74.56 74.56 0 0 1-1.28-14.224zm23.322 1h-22.322v65.882a73.571 73.571 0 0 0 1.261 14.032A50.066 50.066 0 0 0 1331-122.5a50.538 50.538 0 0 0 5.921 9.659 44.511 44.511 0 0 0 7.687 7.651 53.574 53.574 0 0 0 9.294 5.776 60.981 60.981 0 0 0 10.713 4 92.178 92.178 0 0 0 24.237 3.122 182.266 182.266 0 0 0 22.214-1.342 213.325 213.325 0 0 0 21.328-3.729l.611-.14v97h22.322v-213.679h-22.322v92.582l-.375.1a216.913 216.913 0 0 1-18.281 3.9 125.614 125.614 0 0 1-20.414 1.5 72.237 72.237 0 0 1-19.8-2.449 37.9 37.9 0 0 1-14.315-7.388 30 30 0 0 1-8.669-13.336 62.354 62.354 0 0 1-2.868-20.084zm162.058-1h114.321v25.817h-90v65.976h81.03v25.817h-81.029v72.255h90V.5h-114.324zm113.321 1h-112.323V-.5h112.321v-23.817h-90v-74.255h81.032v-23.817h-81.029v-67.976h90zm254.15-1h24.322v98.5l91.973-98.5h32.462l-.783.841-97.447 104.6L2036.785.5H2001l-.147-.149-98.711-99.9V.5h-24.322zm23.322 1h-22.322V-.5h22.322v-101.48L2001.416-.5h32.984l-107.439-109.224.326-.35 96.99-104.108h-29.729l-93.408 100.036zm164.45-1h24.322V-36.61l121.227-178.572h27.376V.5h-24.322v-177.682L2092.965.5h-27.375zm23.322 1h-22.324V-.5h25.847l122.757-179.922V-.5h22.322v-213.682h-25.846L2088.912-33.356zm203.619-1h24.322V-36.61l121.225-178.572h27.376V.5h-24.322v-177.682L2319.906.5h-27.375zm23.322 1h-22.322V-.5h25.847l122.756-179.922V-.5h22.322v-213.682h-25.848L2315.853-33.356zM800.423-193.355a84.6 84.6 0 0 1 16.844 1.654 77.181 77.181 0 0 1 15.646 4.964 81.254 81.254 0 0 1 14.283 7.594 76.537 76.537 0 0 1 12.189 10.158 79.361 79.361 0 0 1 9.93 12.525 87.518 87.518 0 0 1 7.518 14.7 86.569 86.569 0 0 1 4.737 16.5 99.631 99.631 0 0 1 1.578 17.918 99.626 99.626 0 0 1-1.578 17.918 86.571 86.571 0 0 1-4.737 16.5 87.517 87.517 0 0 1-7.518 14.7 79.377 79.377 0 0 1-9.93 12.525A78.989 78.989 0 0 1 847.236-35.5a83.209 83.209 0 0 1-14.176 7.7 80 80 0 0 1-15.76 4.856 87.054 87.054 0 0 1-16.879 1.616 87.056 87.056 0 0 1-16.879-1.616 80 80 0 0 1-15.756-4.856 83.237 83.237 0 0 1-14.176-7.7 78.983 78.983 0 0 1-12.149-10.2 79.384 79.384 0 0 1-9.93-12.525 87.518 87.518 0 0 1-7.518-14.7 86.566 86.566 0 0 1-4.737-16.5 99.626 99.626 0 0 1-1.578-17.918 99.627 99.627 0 0 1 1.578-17.918 86.565 86.565 0 0 1 4.737-16.5 87.519 87.519 0 0 1 7.518-14.7 79.382 79.382 0 0 1 9.93-12.525 78.988 78.988 0 0 1 12.149-10.193 83.21 83.21 0 0 1 14.176-7.709 79.99 79.99 0 0 1 15.759-4.852 87.035 87.035 0 0 1 16.878-1.615zm0 171.028a86.03 86.03 0 0 0 16.684-1.6 78.981 78.981 0 0 0 15.561-4.791 82.21 82.21 0 0 0 14.005-7.615 77.968 77.968 0 0 0 12-10.064 78.386 78.386 0 0 0 9.8-12.367 86.528 86.528 0 0 0 7.432-14.529 85.594 85.594 0 0 0 4.681-16.307 98.625 98.625 0 0 0 1.562-17.738 98.623 98.623 0 0 0-1.562-17.738 85.591 85.591 0 0 0-4.681-16.312 86.527 86.527 0 0 0-7.432-14.529 78.37 78.37 0 0 0-9.8-12.367 75.526 75.526 0 0 0-12.03-10.025 80.23 80.23 0 0 0-14.114-7.5h-.011a76.172 76.172 0 0 0-15.447-4.9 83.591 83.591 0 0 0-16.644-1.634 86.055 86.055 0 0 0-16.684 1.6 79 79 0 0 0-15.561 4.791 82.23 82.23 0 0 0-14.005 7.615 77.985 77.985 0 0 0-12 10.064 78.37 78.37 0 0 0-9.8 12.367 86.528 86.528 0 0 0-7.432 14.529 85.574 85.574 0 0 0-4.682 16.312 98.634 98.634 0 0 0-1.562 17.738 98.636 98.636 0 0 0 1.558 17.727 85.577 85.577 0 0 0 4.682 16.312 86.53 86.53 0 0 0 7.432 14.529 78.372 78.372 0 0 0 9.8 12.367 77.983 77.983 0 0 0 12 10.064 82.245 82.245 0 0 0 14.005 7.615 78.994 78.994 0 0 0 15.561 4.791 86.029 86.029 0 0 0 16.684 1.595zm168.435-168.038h40.865a37.985 37.985 0 0 1 15.6 3.183 38.163 38.163 0 0 1 12.269 8.635 39.663 39.663 0 0 1 8.025 12.717 41.741 41.741 0 0 1 2.876 15.433 41.741 41.741 0 0 1-2.876 15.433 39.656 39.656 0 0 1-8.025 12.717 38.161 38.161 0 0 1-12.269 8.635 37.985 37.985 0 0 1-15.6 3.183h-40.865zm40.865 78.936a37 37 0 0 0 15.195-3.1 37.17 37.17 0 0 0 11.95-8.408 38.656 38.656 0 0 0 7.822-12.4 40.738 40.738 0 0 0 2.806-15.065 40.738 40.738 0 0 0-2.806-15.065 38.663 38.663 0 0 0-7.822-12.4 37.17 37.17 0 0 0-11.95-8.408 37 37 0 0 0-15.195-3.1h-39.865v77.936zM511.388 97.818h24.322v189.865h115.61V97.818h24.322v189.865h30.5v71.863h-23.427V313.5H511.388zm23.322 1h-22.322V312.5h171.327v46.046h21.425v-69.863h-30.5V98.818h-22.32v189.865H534.71zm213.486-1h114.321v25.817h-90v65.976h81.029v25.817h-81.028v72.255h90V313.5H748.2zm113.321 1H749.2V312.5h112.317v-23.817h-90v-74.255h81.029v-23.817h-81.028v-67.976h90zm45.448-1h24.322v91.793h122.487V97.818h24.326V313.5h-24.322v-98.072H931.287V313.5h-24.322zm23.322 1h-22.322V312.5h22.322v-98.072h124.487V312.5h22.326V98.818h-22.322v91.793H930.287zm179.1-1h163.357v25.219h-69.667V313.5h-24.322V123.037h-69.368zm162.357 1h-161.356v23.219h69.368V312.5h22.322V122.037h69.667zm32.292-1h59.7a78.511 78.511 0 0 1 13.654 1.166 69.5 69.5 0 0 1 12.687 3.5 68.16 68.16 0 0 1 11.408 5.61 62.668 62.668 0 0 1 9.834 7.5 58.428 58.428 0 0 1 8.067 9.311 62.779 62.779 0 0 1 6.1 11.039 61.174 61.174 0 0 1 3.844 12.624 77.494 77.494 0 0 1 .038 27.844 62.777 62.777 0 0 1-3.73 12.546 65 65 0 0 1-5.914 11.074 60.071 60.071 0 0 1-7.8 9.422 57.971 57.971 0 0 1-9.614 7.616 64.01 64.01 0 0 1-11.339 5.651 68.88 68.88 0 0 1-12.838 3.5 82.949 82.949 0 0 1-14.1 1.166h-35.679V313.5h-24.322zm60 128.57a81.939 81.939 0 0 0 13.93-1.151 67.857 67.857 0 0 0 12.651-3.45 62.984 62.984 0 0 0 11.161-5.562 56.986 56.986 0 0 0 9.448-7.484 59.081 59.081 0 0 0 7.672-9.266 63.988 63.988 0 0 0 5.822-10.9 61.785 61.785 0 0 0 3.67-12.346 76.5 76.5 0 0 0-.037-27.47 60.158 60.158 0 0 0-3.781-12.417 61.775 61.775 0 0 0-6.006-10.863 57.4 57.4 0 0 0-7.929-9.152 61.673 61.673 0 0 0-9.676-7.378 67.146 67.146 0 0 0-11.241-5.527 68.457 68.457 0 0 0-12.5-3.451 77.509 77.509 0 0 0-13.48-1.151h-58.7V312.5h22.322v-86.112zm-36.679-103.753h40.865a37.8 37.8 0 0 1 27.871 11.818 39.661 39.661 0 0 1 8.025 12.717 42.852 42.852 0 0 1 0 30.866 39.661 39.661 0 0 1-8.025 12.717 37.8 37.8 0 0 1-27.871 11.818h-40.865zm40.865 78.936a36.8 36.8 0 0 0 27.144-11.5 38.662 38.662 0 0 0 7.822-12.4 41.848 41.848 0 0 0 0-30.13 38.665 38.665 0 0 0-7.822-12.4 36.8 36.8 0 0 0-27.144-11.5h-39.865v77.936zM333.385 407.529a100.933 100.933 0 0 1 20.809 2.141 98.9 98.9 0 0 1 19.76 6.424 111.02 111.02 0 0 1 18.059 10.137 108.53 108.53 0 0 1 28.8 29.513 117.889 117.889 0 0 1 10.059 18.918 106.943 106.943 0 0 1 6.421 21.141 123.153 123.153 0 0 1 0 45.714 106.943 106.943 0 0 1-6.421 21.141 117.9 117.9 0 0 1-10.059 18.917 108.288 108.288 0 0 1-13.069 16.225 111.074 111.074 0 0 1-15.731 13.328 113.445 113.445 0 0 1-18.057 10.249h-.006a100.153 100.153 0 0 1-19.758 6.311 102.661 102.661 0 0 1-20.807 2.1 100.935 100.935 0 0 1-20.809-2.141 98.906 98.906 0 0 1-19.76-6.424 111.042 111.042 0 0 1-18.059-10.137 108.521 108.521 0 0 1-28.8-29.513 117.9 117.9 0 0 1-10.057-18.916 106.932 106.932 0 0 1-6.422-21.141 123.153 123.153 0 0 1 0-45.714 106.932 106.932 0 0 1 6.422-21.141 117.889 117.889 0 0 1 10.059-18.918 108.53 108.53 0 0 1 28.8-29.513 111.02 111.02 0 0 1 18.059-10.137 98.9 98.9 0 0 1 19.76-6.424 100.933 100.933 0 0 1 20.807-2.14zm40.158 212.933a112.433 112.433 0 0 0 17.9-10.158A110.087 110.087 0 0 0 407.03 597.1a107.238 107.238 0 0 0 12.946-16.071 116.858 116.858 0 0 0 9.974-18.756 105.956 105.956 0 0 0 6.361-20.943 122.163 122.163 0 0 0 0-45.332 105.956 105.956 0 0 0-6.361-20.943 116.869 116.869 0 0 0-9.974-18.756 107.513 107.513 0 0 0-28.534-29.241 110 110 0 0 0-17.9-10.045 97.885 97.885 0 0 0-19.559-6.359 101.195 101.195 0 0 0-41.2 0 97.885 97.885 0 0 0-19.559 6.359 109.988 109.988 0 0 0-17.9 10.045 107.519 107.519 0 0 0-28.534 29.241 116.887 116.887 0 0 0-9.973 18.756 105.957 105.957 0 0 0-6.361 20.943 122.163 122.163 0 0 0 0 45.332 105.957 105.957 0 0 0 6.361 20.943 116.857 116.857 0 0 0 9.973 18.756 107.511 107.511 0 0 0 28.534 29.241 110.008 110.008 0 0 0 17.9 10.046 97.875 97.875 0 0 0 19.559 6.359 99.932 99.932 0 0 0 20.6 2.12 101.651 101.651 0 0 0 20.6-2.083 99.155 99.155 0 0 0 19.56-6.25zM732.55 407.529a100.933 100.933 0 0 1 20.809 2.141 98.9 98.9 0 0 1 19.759 6.424 111.035 111.035 0 0 1 18.059 10.137 108.52 108.52 0 0 1 28.8 29.513 117.877 117.877 0 0 1 10.059 18.918 106.947 106.947 0 0 1 6.422 21.141 123.153 123.153 0 0 1 0 45.714 106.948 106.948 0 0 1-6.422 21.141 117.843 117.843 0 0 1-10.059 18.917 108.275 108.275 0 0 1-13.068 16.225 111.067 111.067 0 0 1-15.731 13.328 113.425 113.425 0 0 1-18.057 10.249h-.006a100.152 100.152 0 0 1-19.758 6.311 102.66 102.66 0 0 1-20.807 2.1 100.935 100.935 0 0 1-20.809-2.141 98.908 98.908 0 0 1-19.759-6.424 111.037 111.037 0 0 1-18.059-10.137 108.5 108.5 0 0 1-28.8-29.513 117.863 117.863 0 0 1-10.06-18.917 106.952 106.952 0 0 1-6.421-21.141 123.153 123.153 0 0 1 0-45.714 106.951 106.951 0 0 1 6.421-21.141 117.878 117.878 0 0 1 10.06-18.918 108.51 108.51 0 0 1 28.8-29.513 111.015 111.015 0 0 1 18.059-10.137 98.9 98.9 0 0 1 19.759-6.424 100.933 100.933 0 0 1 20.809-2.139zm40.159 212.933a112.427 112.427 0 0 0 17.9-10.158A110.067 110.067 0 0 0 806.2 597.1a107.261 107.261 0 0 0 12.946-16.071 116.864 116.864 0 0 0 9.974-18.756 105.956 105.956 0 0 0 6.361-20.943 122.157 122.157 0 0 0 0-45.332 105.957 105.957 0 0 0-6.361-20.943 116.851 116.851 0 0 0-9.974-18.756 107.517 107.517 0 0 0-28.533-29.241 110.006 110.006 0 0 0-17.9-10.045 97.885 97.885 0 0 0-19.559-6.359 101.2 101.2 0 0 0-41.2 0 97.885 97.885 0 0 0-19.559 6.359 110 110 0 0 0-17.9 10.045 107.5 107.5 0 0 0-28.534 29.241 116.872 116.872 0 0 0-9.974 18.756 105.948 105.948 0 0 0-6.361 20.943 122.157 122.157 0 0 0 0 45.332 105.948 105.948 0 0 0 6.361 20.943 116.885 116.885 0 0 0 9.974 18.756 107.494 107.494 0 0 0 28.534 29.241 110.022 110.022 0 0 0 17.9 10.046 97.88 97.88 0 0 0 19.559 6.359 99.934 99.934 0 0 0 20.6 2.12 101.651 101.651 0 0 0 20.6-2.083 99.16 99.16 0 0 0 19.554-6.25zM107.738 410.818h103.557v25.817H132.06V626.5h-24.322zm102.557 1H108.738V625.5h22.322V435.635h79.235zm268.2-1h59.7a78.51 78.51 0 0 1 13.654 1.166 69.5 69.5 0 0 1 12.687 3.5 68.16 68.16 0 0 1 11.408 5.61 62.664 62.664 0 0 1 9.834 7.5 58.423 58.423 0 0 1 8.067 9.311 62.771 62.771 0 0 1 6.1 11.039 61.167 61.167 0 0 1 3.844 12.624 77.5 77.5 0 0 1 .038 27.844 62.778 62.778 0 0 1-3.73 12.546 64.954 64.954 0 0 1-5.914 11.074 60.077 60.077 0 0 1-7.8 9.422 57.966 57.966 0 0 1-9.614 7.616 64.014 64.014 0 0 1-11.339 5.651 68.89 68.89 0 0 1-12.838 3.5 82.95 82.95 0 0 1-14.1 1.166H502.82V626.5H478.5zm60 128.57a81.949 81.949 0 0 0 13.93-1.151 67.856 67.856 0 0 0 12.651-3.45 62.972 62.972 0 0 0 11.161-5.562 56.986 56.986 0 0 0 9.448-7.484 59.09 59.09 0 0 0 7.672-9.266 63.97 63.97 0 0 0 5.822-10.9 61.793 61.793 0 0 0 3.67-12.346 76.5 76.5 0 0 0-.037-27.47 60.158 60.158 0 0 0-3.781-12.417 61.773 61.773 0 0 0-6.005-10.863 57.411 57.411 0 0 0-7.929-9.152 61.663 61.663 0 0 0-9.676-7.378 67.143 67.143 0 0 0-11.241-5.527 68.462 68.462 0 0 0-12.5-3.451 77.51 77.51 0 0 0-13.48-1.151h-58.7V625.5h22.32v-86.112zm371.755-128.57h114.022v189.865h30.5v71.863h-23.425V626.5H868.5v46.046h-23.428v-71.863h16.957a506.758 506.758 0 0 0 18.823-35.3 295.807 295.807 0 0 0 15.372-38.8 299.865 299.865 0 0 0 10.3-44.327 340.244 340.244 0 0 0 3.731-52.4zm113.022 1H911.254v18.038a341.221 341.221 0 0 1-3.744 52.552 300.881 300.881 0 0 1-10.333 44.476 296.832 296.832 0 0 1-15.425 38.936 508.186 508.186 0 0 1-19.005 35.616l-.145.247h-16.53v69.863H867.5V625.5h164.852v46.046h21.425v-69.863h-30.5zm134.41-1h24.9l.124.319L1266.4 626.5h-26.19l-.124-.318-20.208-51.708H1119.5l-20.033 52.026h-26.192l.267-.682zm24.218 1h-23.535L1074.741 625.5h24.04l20.033-52.026h101.747l.124.318 20.208 51.708h24.044zm-848.515 20.827a84.605 84.605 0 0 1 16.844 1.654 77.191 77.191 0 0 1 15.646 4.964 81.253 81.253 0 0 1 14.283 7.594 76.517 76.517 0 0 1 12.189 10.158 79.4 79.4 0 0 1 9.93 12.525 87.5 87.5 0 0 1 7.518 14.7 86.563 86.563 0 0 1 4.737 16.5 102.51 102.51 0 0 1 0 35.836 86.561 86.561 0 0 1-4.737 16.5 87.549 87.549 0 0 1-7.518 14.7A78.8 78.8 0 0 1 380.2 590.5a83.237 83.237 0 0 1-14.176 7.708 80 80 0 0 1-15.759 4.852 88.929 88.929 0 0 1-33.757 0 80 80 0 0 1-15.759-4.852 83.228 83.228 0 0 1-14.176-7.708 78.8 78.8 0 0 1-22.079-22.718 87.55 87.55 0 0 1-7.518-14.7 86.578 86.578 0 0 1-4.737-16.5 102.51 102.51 0 0 1 0-35.836 86.58 86.58 0 0 1 4.737-16.5 87.515 87.515 0 0 1 7.518-14.7 78.8 78.8 0 0 1 22.079-22.718 83.207 83.207 0 0 1 14.176-7.709 79.981 79.981 0 0 1 15.759-4.852 87.035 87.035 0 0 1 16.877-1.622zm0 171.028a86.027 86.027 0 0 0 16.684-1.6 78.989 78.989 0 0 0 15.562-4.791 82.248 82.248 0 0 0 14.005-7.615 77.8 77.8 0 0 0 21.8-22.431 86.559 86.559 0 0 0 7.432-14.529 85.585 85.585 0 0 0 4.682-16.312 101.523 101.523 0 0 0 0-35.475 85.582 85.582 0 0 0-4.682-16.312 86.56 86.56 0 0 0-7.432-14.529 78.4 78.4 0 0 0-9.8-12.367 75.524 75.524 0 0 0-12.03-10.025 80.236 80.236 0 0 0-14.114-7.5h-.011a76.173 76.173 0 0 0-15.447-4.9 83.593 83.593 0 0 0-16.644-1.634 86.053 86.053 0 0 0-16.684 1.6 79.02 79.02 0 0 0-15.562 4.791 82.218 82.218 0 0 0-14.005 7.615 77.808 77.808 0 0 0-21.8 22.431 86.561 86.561 0 0 0-7.432 14.529 85.6 85.6 0 0 0-4.681 16.312 101.523 101.523 0 0 0 0 35.475 85.6 85.6 0 0 0 4.681 16.312 86.56 86.56 0 0 0 7.432 14.529 77.8 77.8 0 0 0 21.8 22.431 82.248 82.248 0 0 0 14.005 7.615 78.979 78.979 0 0 0 15.562 4.791 86.027 86.027 0 0 0 16.679 1.589zM732.55 432.645a84.607 84.607 0 0 1 16.844 1.654 77.185 77.185 0 0 1 15.646 4.964 81.249 81.249 0 0 1 14.283 7.594 76.507 76.507 0 0 1 12.189 10.158 79.383 79.383 0 0 1 9.93 12.525 87.514 87.514 0 0 1 7.518 14.7 86.566 86.566 0 0 1 4.737 16.5 102.518 102.518 0 0 1 0 35.836 86.565 86.565 0 0 1-4.737 16.5 87.519 87.519 0 0 1-7.518 14.7 78.8 78.8 0 0 1-22.079 22.724 83.229 83.229 0 0 1-14.176 7.708 80 80 0 0 1-15.759 4.852 88.928 88.928 0 0 1-33.757 0 80 80 0 0 1-15.759-4.852 83.225 83.225 0 0 1-14.176-7.708 78.806 78.806 0 0 1-22.079-22.718 87.507 87.507 0 0 1-7.518-14.7 86.565 86.565 0 0 1-4.737-16.5 102.518 102.518 0 0 1 0-35.836 86.566 86.566 0 0 1 4.737-16.5 87.514 87.514 0 0 1 7.518-14.7 78.805 78.805 0 0 1 22.079-22.718 83.191 83.191 0 0 1 14.176-7.709 79.985 79.985 0 0 1 15.759-4.852 87.031 87.031 0 0 1 16.879-1.622zm0 171.028a86.032 86.032 0 0 0 16.684-1.6 78.986 78.986 0 0 0 15.561-4.791 82.244 82.244 0 0 0 14.005-7.615 77.793 77.793 0 0 0 21.8-22.431 86.528 86.528 0 0 0 7.432-14.529 85.568 85.568 0 0 0 4.682-16.312 101.523 101.523 0 0 0 0-35.475 85.564 85.564 0 0 0-4.682-16.312 86.523 86.523 0 0 0-7.432-14.528 78.381 78.381 0 0 0-9.8-12.367 75.524 75.524 0 0 0-12.03-10.025 80.241 80.241 0 0 0-14.114-7.5h-.011a76.176 76.176 0 0 0-15.447-4.9 83.591 83.591 0 0 0-16.644-1.634 86.057 86.057 0 0 0-16.684 1.6 79 79 0 0 0-15.561 4.791 82.224 82.224 0 0 0-14.005 7.615 77.812 77.812 0 0 0-21.8 22.431 86.53 86.53 0 0 0-7.432 14.529 85.564 85.564 0 0 0-4.682 16.312 101.523 101.523 0 0 0 0 35.475 85.568 85.568 0 0 0 4.682 16.312 86.519 86.519 0 0 0 7.432 14.529 77.8 77.8 0 0 0 21.8 22.431 82.226 82.226 0 0 0 14.005 7.615 78.986 78.986 0 0 0 15.561 4.791 86.032 86.032 0 0 0 16.68 1.588zM501.82 435.635h40.865a37.8 37.8 0 0 1 27.872 11.818 39.661 39.661 0 0 1 8.025 12.717 42.852 42.852 0 0 1 0 30.866 39.661 39.661 0 0 1-8.025 12.717 37.8 37.8 0 0 1-27.872 11.818H501.82zm40.865 78.936a36.8 36.8 0 0 0 27.144-11.5 38.662 38.662 0 0 0 7.822-12.4 41.849 41.849 0 0 0 0-30.13 38.665 38.665 0 0 0-7.822-12.4 36.8 36.8 0 0 0-27.144-11.5H502.82v77.936zm390.884-78.936h67.385v166.048H889.526l.471-.763a244.9 244.9 0 0 0 16.708-33.12 347.072 347.072 0 0 0 14.182-40.9 363.455 363.455 0 0 0 9.555-45.086 287.9 287.9 0 0 0 3.134-45.667zm66.385 1h-65.372a289.2 289.2 0 0 1-3.151 45.32 364.507 364.507 0 0 1-9.581 45.211 348.116 348.116 0 0 1-14.224 41.022 248.221 248.221 0 0 1-16.311 32.494h108.639zm169.732 6.5.467 1.194 41.23 105.332h-83.09l.265-.681zm40.232 105.526-40.228-102.778-39.935 102.774z" transform="translate(-107 272)" style="fill:#8a6438;opacity:0.15"/>
</svg>
