<svg width="67" height="160" viewBox="0 0 67 160" fill="none" xmlns="http://www.w3.org/2000/svg">
<g clip-path="url(#clip0_1514_11)">
<mask id="mask0_1514_11" style="mask-type:luminance" maskUnits="userSpaceOnUse" x="0" y="0" width="67" height="160">
<path d="M0 0H67V160H0V0Z" fill="white"/>
</mask>
<g mask="url(#mask0_1514_11)">
<path d="M64.231 108.952C63.6196 107.493 63.3294 105.919 63.38 104.337C63.6703 101.955 63.4926 99.539 62.857 97.225C62.662 96.598 61.271 93.325 61.023 92.65C59.8002 91.7057 58.2787 91.2323 56.736 91.316C51.811 91.681 48.608 94.188 46.3 98.091C44.112 101.799 42.6 107.827 40.157 110.379C37.384 113.273 30.731 116.025 30.948 115.269C31.21 114.38 34.633 113.49 37.982 110.539C42.318 106.694 41.525 99.465 45.605 95.322C47.067 93.846 50.668 92.21 52.63 91.508C53.414 91.228 53.87 89.108 56.072 89.263C57.9622 89.3893 59.7542 90.1509 61.157 91.424C61.4439 91.6704 61.6774 91.973 61.843 92.313C62.016 92.664 63.008 92.758 63.025 92.713C64.837 89.65 63.198 88.17 62.609 87.823C61.9168 87.5755 61.1906 87.4359 60.456 87.409C59.406 84.888 58.613 82.879 54.756 80.914C52.0628 79.4524 49.0707 78.6266 46.009 78.5C42.337 78.349 40.738 78.985 39.485 79.941C39.385 80.016 34.285 79.385 31.131 80.118C27.5279 80.9607 24.1369 82.536 21.169 84.746C17.085 87.796 13.737 90.97 11.952 95.811C10.477 99.811 10.721 101.088 12.736 104.511C13.857 106.418 10.792 105.365 8.245 105.765C7.83487 105.827 7.4303 105.922 7.035 106.048V0H0V160H7.034V130.066C9.526 131.956 13.095 133.349 15.654 131.197C15.773 131.097 18.542 133.958 21.97 131.313C26.895 127.508 25.54 123.502 26.625 124.849C27.71 126.196 26.536 128.534 26.014 129.77C25.39 131.242 23.064 133.029 23.014 133.455C22.914 134.389 23.152 136.803 22.948 137.714C22.505 139.626 18.922 142.462 18.692 142.658L18.417 142.938C18.3587 142.996 18.3126 143.066 18.2813 143.142C18.2501 143.219 18.2343 143.3 18.235 143.383V144.583C18.2363 144.691 18.2652 144.797 18.319 144.89L26.199 158.751C26.2532 158.845 26.3313 158.924 26.4254 158.978C26.5194 159.033 26.6262 159.062 26.735 159.062L51.863 159.04V155.012C51.863 153.443 46.773 152.265 46.773 152.265C46.4311 150.801 46.5067 149.27 46.991 147.846C48.036 144.289 48.457 143.987 49.343 141.053C49.6341 140.066 49.6647 139.02 49.432 138.017C49.387 137.808 48.457 137.394 48.254 137.332C45.8779 136.731 43.6899 135.545 41.889 133.882C39.573 131.797 38.022 126.676 37.789 125.32C37.7801 125.28 37.7862 125.239 37.806 125.203C37.8261 125.167 37.8588 125.141 37.8976 125.128C37.9365 125.115 37.9787 125.117 38.016 125.134C38.0532 125.151 38.0828 125.181 38.099 125.219C39.2562 128.446 41.469 131.188 44.379 133C46.7434 134.41 49.5043 135.007 52.24 134.7C55.97 134.256 58.353 134.3 59.571 133.811C60.1584 133.554 60.6721 133.154 61.0653 132.647C61.4585 132.141 61.7186 131.544 61.822 130.911C62.0075 129.801 61.784 128.662 61.193 127.705C61.1428 127.601 61.1229 127.485 61.1354 127.37C61.148 127.256 61.1925 127.147 61.264 127.056C61.5637 126.699 61.9109 126.385 62.296 126.122C62.3705 126.067 62.432 125.996 62.4764 125.915C62.5208 125.833 62.5469 125.743 62.553 125.651C62.5669 125.078 62.4996 124.505 62.353 123.951C62.3143 123.785 62.2188 123.637 62.083 123.533C61.5265 123.133 60.8925 122.855 60.2218 122.716C59.551 122.576 58.8586 122.579 58.189 122.724C57.919 122.786 57.516 123.017 57.268 122.901C56.825 122.701 56.307 122.074 56.668 122.128C57.514 122.244 60.211 120.892 61.234 120.879C62.093 120.879 63.05 121.95 63.125 121.323C63.0477 120.85 62.9398 120.382 62.802 119.923C62.66 119.403 62.461 118.59 62.984 118.247C63.5871 118.001 64.2326 117.876 64.884 117.878C65.3941 117.824 65.8734 117.608 66.2515 117.262C66.6296 116.915 66.8863 116.456 66.984 115.953L67.001 115.908C67.143 114.957 64.552 109.982 64.238 108.964M58.019 107.595C57.771 107.777 57.607 107.666 57.434 107.413C57.3667 107.305 57.3187 107.186 57.292 107.062C56.5369 107.125 55.7765 107.072 55.038 106.902C54.201 106.653 53.492 106.133 53.43 105.653C53.43 105.653 51.091 106.418 50.892 106.209C50.693 106 54.763 104.097 55.592 103.96C56.2095 103.826 56.8498 103.84 57.461 104C58.067 104.28 58.732 104.8 58.761 105.467C58.796 106.357 58.176 106.948 58.017 107.596M60.232 102.888V102.906C60.1562 103.007 60.0517 103.083 59.932 103.124C59.29 103.368 57.009 102.424 56.34 102.235C53.74 101.572 50.905 102.915 47.999 104.747C46.941 105.418 50.475 101.102 53.788 100.639C55.033 100.465 57.46 101.417 59.143 102.088C59.413 102.195 60.498 102.461 60.233 102.888M63.44 117.095C63.3879 117.154 63.3174 117.193 63.24 117.207L63.258 117.198C63.1043 117.227 62.9467 117.227 62.793 117.198C62.478 117.163 62.16 117.163 61.845 117.198C61.517 117.238 61.211 117.358 60.888 117.411C60.8454 117.424 60.8003 117.428 60.756 117.422C60.7114 117.416 60.6687 117.4 60.631 117.375C60.6105 117.356 60.5939 117.333 60.582 117.308C60.549 117.173 60.5664 117.031 60.631 116.908C61.038 115.908 62.562 116.041 63.288 116.548C63.3505 116.582 63.4045 116.629 63.4459 116.687C63.4873 116.745 63.515 116.811 63.527 116.881C63.5222 116.96 63.4912 117.035 63.439 117.094" fill="#CEB086"/>
</g>
</g>
<defs>
<clipPath id="clip0_1514_11">
<rect width="67" height="160" fill="white"/>
</clipPath>
</defs>
</svg>
