<svg width="200" height="582" viewBox="0 0 200 582" fill="none" xmlns="http://www.w3.org/2000/svg">
<g clip-path="url(#clip0_1502_39)">
<path d="M180.888 381.179H189.747V582H180.888V381.179Z" fill="#292918"/>
<path d="M189.813 200.82H198.672V381.181H189.813V200.82Z" fill="#CEB086"/>
<path d="M0 381.18H8.859V528.222H0V381.18Z" fill="#292918"/>
<path d="M8.92505 200.82H17.784V381.181H8.92505V200.82Z" fill="#CEB086"/>
<path d="M90.585 381.168H99.444V581.989H90.585V381.168Z" fill="#CEB086"/>
<path d="M180.888 0H189.747V200.821H180.888V0Z" fill="#292918"/>
<path d="M0 0H8.859V200.821H0V0Z" fill="#292918"/>
<path d="M90.585 0H99.444V145.012H90.585V0Z" fill="#CEB086"/>
<path d="M99.264 194.249H108.123V381.181H99.264V194.249Z" fill="#272A18"/>
<path d="M0 545.603H8.859V581.989H0V545.603Z" fill="#292918"/>
<path d="M0.000976562 518.949H3.75998V555.335H0.000976562V518.949Z" fill="#292918"/>
<path d="M90.585 176.617H99.444V194.249H90.585V176.617Z" fill="#CEB086"/>
<mask id="mask0_1502_39" style="mask-type:luminance" maskUnits="userSpaceOnUse" x="0" y="0" width="200" height="582">
<path d="M0 0.223999H200V581.776H0V0.223999Z" fill="white"/>
</mask>
<g mask="url(#mask0_1502_39)">
<path d="M190.343 339.098C174.877 341.181 159.733 345.197 145.267 351.053C144.289 351.446 143.199 351.46 142.211 351.091C141.224 350.722 140.41 349.997 139.929 349.059L130.093 329.617C129.938 329.311 129.865 328.971 129.88 328.629C129.896 328.286 129.999 327.954 130.18 327.663C130.362 327.371 130.616 327.13 130.918 326.964C131.219 326.797 131.558 326.71 131.902 326.711H187.368C188.541 326.708 189.677 327.116 190.58 327.864C191.48 328.608 192.087 329.648 192.293 330.797C192.582 332.391 192.832 333.991 193.043 335.597C193.1 336.004 193.076 336.418 192.971 336.815C192.866 337.212 192.682 337.584 192.431 337.909C192.179 338.236 191.865 338.509 191.507 338.714C191.149 338.919 190.753 339.05 190.344 339.101M198.735 351.229C198.615 348.349 198.415 345.474 198.135 342.605C198.138 342.457 198.126 342.309 198.097 342.163C197.697 338.104 197.169 334.078 196.468 330.063C196.084 327.942 194.963 326.026 193.303 324.651C191.637 323.27 189.541 322.515 187.377 322.517H143.817C140.482 312.417 133.455 298.552 118.65 283.482C116.918 281.725 115.272 280.496 112.796 282.016C110.526 283.416 111.878 285.94 111.878 285.94L130.496 322.518H129.214C128.402 322.518 127.606 322.293 126.914 321.87C126.224 321.448 125.665 320.842 125.299 320.12L107.918 285.766C107.689 285.273 107.284 284.884 106.782 284.677C106.278 284.468 105.715 284.454 105.202 284.639C104.926 284.743 104.675 284.903 104.465 285.11C104.255 285.317 104.09 285.565 103.982 285.839C103.875 286.112 103.827 286.404 103.841 286.697C103.854 286.99 103.929 287.277 104.061 287.539L135.805 350.28C136.374 351.399 136.55 352.676 136.304 353.907C136.059 355.138 135.407 356.251 134.453 357.066C127.566 362.995 112.218 376.508 106.668 384.216C106.469 384.407 106.309 384.635 106.199 384.887C106.089 385.14 106.03 385.412 106.025 385.688C106.02 385.963 106.071 386.237 106.173 386.493C106.275 386.749 106.426 386.983 106.619 387.18C107.01 387.581 107.545 387.812 108.105 387.821C108.666 387.83 109.207 387.617 109.611 387.228C109.785 387.061 127.023 370.573 144.911 362.035C155.647 357.079 166.733 352.917 178.078 349.584C179.688 349.098 181.384 348.97 183.049 349.208C184.714 349.447 186.306 350.047 187.714 350.966C189.117 351.88 190.3 353.092 191.179 354.516C192.059 355.941 192.612 357.542 192.801 359.205C194.18 371.44 195.771 385.816 195.771 385.816C195.795 386.358 196.027 386.87 196.42 387.245C196.815 387.621 197.339 387.831 197.884 387.832H197.965C198.521 387.812 199.047 387.575 199.429 387.17C199.617 386.97 199.765 386.736 199.862 386.479C199.96 386.223 200.005 385.949 199.997 385.675L198.735 351.229Z" fill="#272A18"/>
<path d="M188.822 331.493C182.951 328.863 172.404 327.293 150.99 336.926C150.31 337.238 149.542 337.298 148.822 337.097C148.102 336.895 147.477 336.445 147.057 335.826C146.781 335.417 146.607 334.949 146.548 334.459C146.3 332.407 145.938 330.37 145.462 328.359C145.277 327.906 143.962 326.58 134.6 330.629L141.411 344.007C141.919 344.997 142.779 345.763 143.821 346.154C144.863 346.544 146.014 346.532 147.048 346.12C160.193 340.839 173.994 337.367 188.073 335.799C188.569 335.751 189.036 335.542 189.403 335.204C189.676 334.952 189.882 334.638 190.004 334.287C190.126 333.937 190.16 333.562 190.103 333.195C190.045 332.829 189.898 332.482 189.675 332.186C189.452 331.89 189.159 331.653 188.822 331.497" fill="#272A18"/>
<path d="M12.7031 534.36H9.60311C9.37571 534.359 9.15035 534.403 8.93992 534.489C8.72949 534.575 8.53811 534.702 8.3767 534.862C8.2153 535.023 8.08705 535.213 7.99927 535.423C7.91148 535.633 7.8659 535.858 7.86511 536.085V539.163C7.86697 539.622 8.05109 540.062 8.377 540.385C8.70291 540.709 9.14393 540.89 9.60311 540.888H12.7031C13.1623 540.89 13.6033 540.709 13.9292 540.385C14.2551 540.062 14.4393 539.622 14.4411 539.163V536.087C14.4403 535.86 14.3947 535.635 14.307 535.425C14.2192 535.215 14.0909 535.025 13.9295 534.864C13.7681 534.704 13.5767 534.577 13.3663 534.491C13.1559 534.405 12.9305 534.361 12.7031 534.362" fill="#292918"/>
<path d="M28.6361 534.36H20.3861C19.7935 534.358 19.2243 534.591 18.8037 535.009C18.3831 535.426 18.1454 535.993 18.1431 536.586V538.662C18.1454 539.255 18.3831 539.822 18.8037 540.239C19.2243 540.657 19.7935 540.89 20.3861 540.888H28.6361C28.9294 540.889 29.2201 540.832 29.4916 540.721C29.763 540.61 30.0099 540.446 30.2181 540.239C30.4263 540.033 30.5917 539.787 30.705 539.516C30.8182 539.246 30.877 538.955 30.8781 538.662V536.587C30.877 536.294 30.8182 536.003 30.705 535.733C30.5917 535.462 30.4263 535.216 30.2181 535.01C30.0099 534.803 29.763 534.639 29.4916 534.528C29.2201 534.417 28.9294 534.359 28.6361 534.36Z" fill="#292918"/>
<path d="M82.0771 533.293H57.4911C57.0478 533.291 56.6221 533.466 56.3074 533.778C55.9928 534.09 55.815 534.515 55.8131 534.958V540.284C55.815 540.727 55.9928 541.152 56.3074 541.464C56.6221 541.776 57.0478 541.951 57.4911 541.949H82.0771C82.2966 541.95 82.5142 541.908 82.7173 541.824C82.9205 541.741 83.1053 541.619 83.2611 541.464C83.4169 541.31 83.5408 541.126 83.6255 540.923C83.7103 540.721 83.7543 540.504 83.7551 540.284V534.958C83.7533 534.515 83.5755 534.09 83.2608 533.778C82.9461 533.466 82.5204 533.291 82.0771 533.293Z" fill="#292918"/>
<path d="M45.978 568.153C43.9843 568.155 42.0706 567.369 40.654 565.966C39.9566 565.274 39.4031 564.451 39.0255 563.544C38.6479 562.637 38.4537 561.664 38.454 560.682V560.542C38.446 560.432 38.446 560.322 38.454 560.213C38.5445 558.769 39.0582 557.384 39.931 556.23C39.8232 556.506 39.7343 556.788 39.665 557.076C39.6459 557.168 39.6517 557.264 39.682 557.354C39.7119 557.443 39.7645 557.523 39.8347 557.585C39.9048 557.648 39.9901 557.691 40.082 557.711C40.1747 557.73 40.2709 557.725 40.361 557.696C40.7891 557.521 41.2514 557.445 41.713 557.475C42.44 557.523 43.1277 557.822 43.658 558.322C44.1862 558.82 44.5225 559.487 44.608 560.208C44.6838 560.883 44.5325 561.564 44.178 562.143C43.8223 562.724 43.2844 563.171 42.648 563.415L42.501 563.458C42.379 563.488 42.2679 563.551 42.18 563.641C42.1146 563.707 42.0639 563.787 42.0312 563.874C41.9985 563.962 41.9845 564.055 41.9901 564.148C41.9958 564.241 42.021 564.332 42.064 564.414C42.1071 564.497 42.167 564.57 42.24 564.628C43.0467 565.266 43.9757 565.732 44.9696 565.997C45.9634 566.262 47.0011 566.321 48.0185 566.169C49.0359 566.018 50.0114 565.659 50.8849 565.116C51.7584 564.573 52.5112 563.856 53.097 563.011C52.6022 564.504 51.6494 565.803 50.374 566.723C49.0925 567.647 47.554 568.147 45.974 568.153M45.974 542.636C41.1589 542.633 36.5378 544.533 33.117 547.922C31.0101 550.02 29.4552 552.607 28.591 555.451C27.7269 558.296 27.5804 561.311 28.1646 564.226C28.7489 567.141 30.0456 569.867 31.9392 572.159C33.8328 574.451 36.2644 576.239 39.017 577.363C42.34 578.729 45.9916 579.087 49.5165 578.391C53.0414 577.696 56.2837 575.979 58.839 573.453C60.527 571.784 61.8671 569.796 62.7817 567.606C63.6962 565.415 64.1672 563.064 64.1672 560.69C64.1672 558.317 63.6962 555.966 62.7817 553.775C61.8671 551.585 60.527 549.597 58.839 547.928C55.4175 544.539 50.7957 542.639 45.98 542.642" fill="#292918"/>
<path d="M89.914 542.192C89.9141 542.538 89.8454 542.881 89.7118 543.201C89.5782 543.521 89.3825 543.811 89.136 544.054C88.6363 544.548 87.9616 544.824 87.259 544.823H64.031C63.5701 544.823 63.1181 544.95 62.725 545.191C62.4316 545.369 62.1787 545.607 61.9827 545.888C61.7868 546.17 61.6521 546.49 61.5873 546.827C61.5226 547.164 61.5293 547.511 61.6069 547.845C61.6845 548.18 61.8314 548.494 62.038 548.768C64.9613 552.652 66.3548 557.475 65.9534 562.319C65.552 567.164 63.3837 571.691 59.861 575.041C57.0746 577.708 53.5795 579.516 49.7931 580.249C46.0068 580.983 42.0893 580.611 38.5087 579.177C34.9281 577.744 31.8358 575.311 29.6012 572.167C27.3666 569.024 26.0841 565.304 25.907 561.451C25.7265 556.883 27.1371 552.394 29.898 548.751C30.1011 548.476 30.2447 548.162 30.3197 547.829C30.3947 547.496 30.3994 547.15 30.3336 546.815C30.2677 546.48 30.1327 546.162 29.9372 545.882C29.7417 545.602 29.4899 545.365 29.198 545.188C28.8066 544.949 28.3568 544.822 27.898 544.822H6.62602C6.27756 544.822 5.93242 544.754 5.61002 544.622C5.28914 544.491 4.99731 544.297 4.75125 544.053C4.50519 543.808 4.30972 543.518 4.17602 543.198C4.04272 542.879 3.97472 542.536 3.97602 542.19V533.324C3.97611 532.942 4.05189 532.563 4.19899 532.211C4.34608 531.858 4.56157 531.538 4.83302 531.269C5.38366 530.723 6.12775 530.417 6.90302 530.418H87.089C87.8445 530.417 88.5697 530.715 89.107 531.246C89.3716 531.508 89.5819 531.819 89.7259 532.162C89.8698 532.506 89.9447 532.874 89.946 533.246L89.914 542.192ZM35.154 502.478C34.6536 502.478 34.1736 502.28 33.818 501.928C33.6427 501.755 33.5034 501.548 33.4083 501.32C33.3132 501.093 33.2642 500.849 33.264 500.602V491.734C33.2642 491.487 33.3132 491.243 33.4083 491.016C33.5034 490.788 33.6427 490.581 33.818 490.408C34.1737 490.056 34.6538 489.859 35.154 489.859H59.089C59.5893 489.859 60.0693 490.056 60.425 490.408C60.6003 490.582 60.7395 490.788 60.8346 491.016C60.9296 491.243 60.9787 491.487 60.979 491.734V500.606C60.9787 500.853 60.9296 501.097 60.8346 501.324C60.7395 501.552 60.6003 501.758 60.425 501.932C60.0695 502.284 59.5894 502.482 59.089 502.482L35.154 502.478ZM90.261 529.046C89.7802 528.752 89.3849 528.337 89.1143 527.842C88.8438 527.347 88.7075 526.791 88.719 526.227C88.7177 526.15 88.7013 526.075 88.6705 526.005C88.6398 525.934 88.5954 525.871 88.54 525.818C88.4843 525.765 88.4187 525.724 88.347 525.696C88.2754 525.668 88.1989 525.654 88.122 525.656H75.137C74.9281 525.656 74.7274 525.738 74.578 525.884C74.43 526.03 74.3459 526.229 74.344 526.437V527.693C74.3438 527.901 74.2611 528.1 74.114 528.247C73.9658 528.394 73.7659 528.477 73.557 528.479H55.303C54.957 528.48 54.6153 528.403 54.3035 528.253C53.9917 528.103 53.718 527.884 53.503 527.613C53.2893 527.344 53.14 527.03 53.0663 526.694C52.9926 526.359 52.9966 526.011 53.078 525.677L53.378 524.415C53.6558 523.287 54.2675 522.27 55.133 521.495C56.0001 520.718 57.0797 520.218 58.233 520.06L60.406 519.77C61.123 519.673 61.7809 519.32 62.259 518.777C62.7346 518.236 62.9969 517.54 62.997 516.82V490.463C62.9976 489.666 62.691 488.899 62.141 488.322C61.5897 487.744 60.8389 487.397 60.041 487.352L50.809 486.84C48.3488 486.708 45.8832 486.708 43.423 486.84L33.823 487.378C33.0234 487.422 32.2703 487.768 31.717 488.347C31.1659 488.924 30.8583 489.69 30.858 490.488V516.818C30.8595 517.538 31.1225 518.233 31.598 518.773C32.0758 519.316 32.7327 519.668 33.449 519.767L35.621 520.057C36.7813 520.21 37.869 520.708 38.743 521.486C39.6136 522.261 40.2293 523.281 40.509 524.413L40.809 525.675C40.8902 526.008 40.8943 526.356 40.821 526.691C40.7477 527.026 40.5989 527.34 40.386 527.609C40.1717 527.879 39.8991 528.098 39.5887 528.248C39.2783 528.398 38.9379 528.476 38.593 528.477H32.089C31.9576 528.477 31.8275 528.451 31.706 528.401C31.5844 528.351 31.474 528.278 31.381 528.185C31.2887 528.092 31.2153 527.982 31.165 527.861C31.1149 527.74 31.0894 527.61 31.09 527.479V525.323C31.0893 525.144 31.0353 524.968 30.9349 524.819C30.8345 524.671 30.6922 524.555 30.526 524.487C30.4153 524.441 30.2968 524.418 30.177 524.418H27.421C27.177 524.414 26.9444 524.314 26.773 524.14C26.6022 523.967 26.5069 523.733 26.508 523.49C26.5039 523.252 26.4057 523.026 26.235 522.86C26.0638 522.694 25.8346 522.601 25.596 522.601H22.772C22.5285 522.604 22.2957 522.702 22.124 522.875C21.9533 523.047 21.858 523.28 21.859 523.523C21.8549 523.762 21.7564 523.99 21.585 524.157C21.4126 524.325 21.1815 524.418 20.941 524.418H8.48902C8.24745 524.418 8.01556 524.513 7.84402 524.683C7.75941 524.767 7.69224 524.866 7.64641 524.976C7.60058 525.086 7.57699 525.204 7.57702 525.323V526.623C7.57316 526.868 7.52101 527.11 7.42354 527.335C7.32608 527.56 7.18522 527.764 7.00902 527.934C6.65203 528.28 6.17314 528.471 5.67602 528.467C4.59902 528.477 3.56909 528.91 2.80802 529.672C2.04966 530.431 1.6238 531.461 1.62402 532.534V577.919C1.6242 578.454 1.73033 578.984 1.93629 579.478C2.14225 579.971 2.44397 580.419 2.82402 580.796C3.59528 581.561 4.63777 581.99 5.72402 581.989H88.224C89.3103 581.99 90.3528 581.561 91.124 580.796C91.5041 580.419 91.8058 579.971 92.0118 579.478C92.2177 578.984 92.3239 578.454 92.324 577.919V532.534C92.3167 531.823 92.1226 531.127 91.7612 530.515C91.3998 529.903 90.8838 529.397 90.265 529.047" fill="#292918"/>
<path d="M80.4481 93.746C80.9911 93.746 81.7241 93.686 81.9841 93.983C82.8952 95.0394 83.7648 96.1309 84.5911 97.255C84.6219 97.2941 84.6386 97.3425 84.6386 97.3923C84.6385 97.4421 84.6218 97.4904 84.591 97.5295C84.5602 97.5686 84.5171 97.5962 84.4687 97.6079C84.4203 97.6196 84.3694 97.6147 84.3241 97.594C81.9511 96.554 80.0391 96.112 77.8071 96.721C77.7422 96.7404 77.6832 96.776 77.6358 96.8245C77.5884 96.8729 77.5541 96.9326 77.5361 96.998C77.5187 97.0635 77.5187 97.1324 77.5361 97.198C77.5525 97.2634 77.5852 97.3236 77.6311 97.373C78.0794 97.9114 78.6572 98.327 79.3101 98.581C81.0303 99.2801 82.9131 99.4784 84.7411 99.153C85.4631 99.018 86.3701 100.365 86.9131 101.417C86.9244 101.443 86.9276 101.472 86.9221 101.5C86.9173 101.528 86.9045 101.553 86.8851 101.574C86.8653 101.595 86.84 101.609 86.8121 101.616C86.7842 101.622 86.7551 101.621 86.7281 101.611C84.6014 100.729 82.2683 100.467 79.9991 100.857C79.8768 100.88 79.7648 100.941 79.6784 101.03C79.5921 101.12 79.5357 101.234 79.5171 101.357C79.499 101.479 79.5197 101.604 79.5761 101.714C79.6323 101.825 79.7214 101.915 79.8311 101.973C80.5695 102.324 81.3483 102.583 82.1501 102.744C83.6561 103.116 85.1991 103.317 86.7501 103.344C87.017 103.354 87.2807 103.405 87.5321 103.495C87.8311 103.605 88.1059 103.771 88.3411 103.986C88.5494 104.183 88.7318 104.406 88.8841 104.649C88.9551 104.762 89.0201 104.875 89.0841 104.994C89.1163 105.048 89.1453 105.104 89.1711 105.161C89.1711 105.215 89.2521 105.291 89.2141 105.35C89.1761 105.409 89.1141 105.382 89.0571 105.35L88.8941 105.302L88.5511 105.202L87.4651 104.857C87.0841 104.744 86.6991 104.636 86.3131 104.539C85.9271 104.442 85.5531 104.361 85.1671 104.301C84.8084 104.238 84.4452 104.205 84.0811 104.201C83.748 104.197 83.4159 104.237 83.0931 104.32C80.8881 104.896 81.6321 105.506 82.1931 105.893C83.1651 106.573 85.9071 107.203 89.1501 106.901C89.3648 106.881 89.5803 106.931 89.7631 107.046C90.055 107.263 90.2942 107.544 90.4631 107.866C90.5704 108.053 90.6682 108.246 90.7561 108.443C90.8101 108.556 90.8651 108.669 90.9081 108.782C90.9511 108.895 91.0221 109.029 90.9681 109.127C90.9141 109.225 90.5681 108.976 90.4791 108.933C90.2702 108.821 90.0495 108.733 89.8211 108.669C87.7805 108.054 85.5845 108.217 83.6571 109.127C83.5229 109.191 83.4126 109.296 83.3421 109.427C83.2713 109.557 83.2443 109.707 83.2651 109.854C83.2855 110.001 83.3524 110.138 83.456 110.245C83.5595 110.352 83.6944 110.423 83.8411 110.448L84.1411 110.48C86.1881 110.561 88.2411 110.528 90.2891 110.631C90.537 110.649 90.7782 110.72 90.997 110.838C91.2158 110.955 91.4074 111.118 91.5591 111.315L91.6021 111.402C90.1361 111.402 88.6641 111.428 87.3121 111.477C86.9175 111.5 86.534 111.616 86.1929 111.816C85.8519 112.015 85.563 112.293 85.3501 112.626C85.1382 112.957 85.0085 113.335 84.9718 113.726C84.9351 114.118 84.9925 114.513 85.1391 114.878C86.7141 118.937 89.4241 125.658 90.8141 128.671C90.9877 129.041 91.2673 129.35 91.6175 129.56C91.9676 129.77 92.3723 129.872 92.7801 129.851L94.6051 129.759C96.1066 129.692 97.5211 129.036 98.5421 127.933C99.0453 127.39 99.4362 126.752 99.6926 126.057C99.949 125.363 100.066 124.624 100.036 123.884C99.8427 120.302 99.4622 116.732 98.8961 113.19C98.7981 112.663 98.5098 112.191 98.0861 111.864C97.6607 111.535 97.1299 111.372 96.5931 111.406H93.5141C93.3571 110.689 93.3571 110.006 93.7911 109.713C95.3029 108.684 96.7736 107.596 98.2001 106.452C98.5023 106.187 98.7755 105.891 99.0151 105.568C99.0982 105.462 99.1491 105.335 99.1617 105.201C99.1743 105.067 99.1481 104.932 99.0861 104.813C99.0232 104.693 98.9273 104.594 98.8098 104.527C98.6923 104.461 98.5581 104.429 98.4231 104.436C97.271 104.496 96.1574 104.871 95.2031 105.519C94.6366 105.907 94.1142 106.355 93.6451 106.856C93.4061 107.109 93.1781 107.367 92.9551 107.632L92.6241 108.032C92.5431 108.14 92.4241 108.377 92.2661 108.361C92.1081 108.345 92.0271 108.043 91.9661 107.919C91.8994 107.765 91.843 107.607 91.7971 107.445C91.7144 107.182 91.7301 106.898 91.8411 106.645C92.0051 106.357 92.2313 106.108 92.5031 105.918C93.4114 105.218 94.2487 104.431 95.0031 103.568C95.8031 102.603 96.4631 101.525 97.1751 100.485C97.2175 100.422 97.2421 100.348 97.2465 100.272C97.2509 100.196 97.2349 100.12 97.2001 100.052C97.1653 99.984 97.1132 99.9264 97.0491 99.885C96.9846 99.8439 96.9105 99.8201 96.8341 99.816C93.4561 99.698 91.7021 102.425 90.9201 104.974C90.9115 105.006 90.8938 105.034 90.8691 105.056C90.8448 105.078 90.8147 105.093 90.7823 105.099C90.7499 105.104 90.7165 105.101 90.6861 105.088C90.6557 105.075 90.6293 105.055 90.6101 105.028C89.3781 103.411 89.1221 103.022 90.4751 101.254C91.1223 100.499 91.6919 99.681 92.1751 98.812C92.4892 98.2859 92.6753 97.6932 92.7181 97.082C92.7234 96.9943 92.7087 96.9067 92.6751 96.8256C92.6415 96.7445 92.5899 96.6721 92.5241 96.614C92.4581 96.5554 92.3798 96.5125 92.295 96.4882C92.2102 96.464 92.1211 96.4591 92.0341 96.474C89.8611 96.889 89.0141 98.302 88.7751 101.439C88.7718 101.488 88.7532 101.534 88.7221 101.572C88.6911 101.61 88.6487 101.637 88.6011 101.65C88.5536 101.663 88.5032 101.661 88.4569 101.644C88.4105 101.628 88.3704 101.597 88.3421 101.557C87.3322 100.205 86.8584 98.5267 87.0121 96.846C87.4241 94.96 87.9511 93.941 87.5981 91.855C87.3701 90.507 87.0551 89.995 86.5981 89.699C86.4423 89.6257 86.2691 89.5977 86.0981 89.618C85.9282 89.638 85.7673 89.7056 85.6341 89.813C85.2886 90.2368 85.118 90.7766 85.1571 91.322C85.1571 92.708 85.3141 94.322 85.4391 95.785C85.4451 95.8369 85.433 95.8892 85.4047 95.9332C85.3764 95.9771 85.3338 96.0099 85.2841 96.026C85.2349 96.0432 85.1813 96.0432 85.1321 96.026C85.0826 96.0073 85.0412 95.972 85.0151 95.926C83.5761 93.834 81.8591 92.864 82.1641 90.374C82.2887 88.9404 81.8601 87.5135 80.9661 86.386C80.8432 86.2409 80.6747 86.1418 80.4881 86.105C80.4007 86.0869 80.3097 86.0997 80.2307 86.1413C80.1518 86.1829 80.0897 86.2507 80.0551 86.333C80.0323 86.3869 80.0224 86.4455 80.0261 86.504C79.8995 87.9317 80.1466 89.3677 80.7431 90.671C80.7604 90.7115 80.7632 90.7567 80.7512 90.7991C80.7392 90.8415 80.7131 90.8785 80.6771 90.904C80.6409 90.9293 80.5973 90.942 80.5531 90.94C80.5091 90.938 80.4672 90.9211 80.4341 90.892L80.1461 90.644L79.5461 90.105C79.3561 89.938 79.1661 89.766 78.9701 89.605L78.7091 89.379L78.5901 89.279C78.5725 89.2574 78.5503 89.2399 78.5251 89.228C78.4998 89.2158 78.4722 89.2093 78.4441 89.209C78.3791 89.209 78.3511 89.263 78.3251 89.317C78.2801 89.4165 78.2648 89.5269 78.2811 89.635C78.298 89.7426 78.3451 89.8432 78.4171 89.925C79.0801 90.653 80.0461 91.543 80.6761 92.244C80.6901 92.2616 80.6977 92.2835 80.6977 92.306C80.6977 92.3285 80.6901 92.3503 80.6761 92.368C80.6611 92.3853 80.6407 92.3969 80.6181 92.401C80.5954 92.4047 80.5721 92.4004 80.5521 92.389C78.1031 91.052 76.9351 92.071 75.4201 92.006C75.3625 92.0035 75.3056 92.0188 75.2571 92.05C75.2086 92.0813 75.1711 92.1272 75.1501 92.181C75.129 92.2341 75.1255 92.2927 75.1401 92.348C75.1542 92.4037 75.1858 92.4534 75.2301 92.49C76.6801 93.768 78.5591 93.735 80.4441 93.741" fill="#292918"/>
<path d="M53.4621 161.667C53.2479 162.009 53.0661 162.37 52.9191 162.745C52.7399 163.216 52.4587 163.641 52.0956 163.991C51.7325 164.34 51.2966 164.605 50.8191 164.766C50.496 164.87 50.1585 164.923 49.8191 164.922H41.2801C41.1247 160.889 40.0867 156.939 38.2391 153.35C37.6858 152.283 36.865 151.379 35.8571 150.725C34.3322 149.732 32.4808 149.372 30.6951 149.721C28.9094 150.071 27.3298 151.101 26.2911 152.595L17.7911 164.922C17.5475 164.922 17.3084 164.857 17.0989 164.733C16.8894 164.608 16.7174 164.43 16.6011 164.216C16.4837 164.004 16.4268 163.764 16.4365 163.521C16.4462 163.279 16.5222 163.044 16.6561 162.842L23.3411 152.757L36.3411 133.143C36.4644 132.956 36.6334 132.804 36.8321 132.7C37.1327 132.543 37.4821 132.507 37.8083 132.6C38.1345 132.693 38.4125 132.908 38.5851 133.2L53.4701 158.309C53.778 158.815 53.9399 159.397 53.938 159.99C53.936 160.582 53.7703 161.163 53.4591 161.667M130.07 165.236C129.832 158.025 126.812 151.186 121.643 146.152C117.872 142.463 113.142 139.906 107.991 138.77C102.839 137.634 97.4727 137.966 92.5001 139.726L82.7241 115.675L81.3501 112.296C80.92 111.234 80.1812 110.325 79.2291 109.687C78.2742 109.047 77.1506 108.705 76.0011 108.706H68.5011C66.8187 108.714 65.204 109.369 63.9921 110.536C62.7859 111.698 62.0794 113.284 62.0221 114.958C62.0157 115.111 62.0402 115.263 62.0942 115.406C62.1481 115.549 62.2304 115.68 62.3361 115.79C62.4422 115.901 62.5696 115.989 62.7106 116.05C62.8517 116.111 63.0035 116.143 63.1571 116.144C63.4447 116.144 63.7208 116.031 63.9251 115.828C64.0257 115.728 64.1056 115.61 64.1601 115.479C64.2147 115.348 64.2429 115.208 64.2431 115.066C64.2663 113.951 64.7267 112.89 65.5251 112.112C66.3282 111.33 67.4042 110.891 68.5251 110.889H76.0251C76.735 110.887 77.4295 111.096 78.0196 111.491C78.6098 111.885 79.0689 112.447 79.3381 113.104L80.3751 115.669L82.4661 120.812L84.3131 125.372C84.4229 125.685 84.4676 126.017 84.4446 126.348C84.4215 126.679 84.3312 127.001 84.1791 127.296C84.0251 127.592 83.8128 127.853 83.555 128.065C83.2972 128.276 82.9992 128.433 82.6791 128.526C75.3421 130.726 72.2141 139.36 69.4121 147.1C68.8691 148.636 68.3261 150.167 67.6951 151.687C67.2289 153.053 66.6419 154.376 65.9411 155.638C64.5831 157.767 61.3361 158.629 58.9731 158.638H58.4301C57.8414 158.694 57.2487 158.586 56.7181 158.325C56.1892 158.065 55.7437 157.661 55.4321 157.161L35.1391 122.988C35.0023 122.744 34.9333 122.468 34.9391 122.188C34.944 122.056 34.9659 121.926 35.0041 121.8C35.0207 121.735 35.0424 121.672 35.0691 121.611C35.1903 121.33 35.3908 121.091 35.6461 120.922C35.902 120.753 36.2013 120.661 36.5081 120.657C38.3081 120.657 40.1081 120.533 41.8901 120.598C42.3746 120.669 42.8689 120.633 43.338 120.493C43.8071 120.352 44.2397 120.11 44.6051 119.784C44.7787 119.605 44.9047 119.385 44.9712 119.145C45.0378 118.905 45.0429 118.652 44.9861 118.409C44.7031 117.364 43.4761 117.209 42.4711 117.202L34.5421 117.083L24.0751 116.926C23.3857 116.835 22.6868 116.998 22.1091 117.385C21.2561 118.134 21.5661 119.616 21.6091 120.548C21.6366 121.144 21.8242 121.721 22.1521 122.219C23.1621 123.739 24.7521 123.237 26.0681 122.725C27.3841 122.213 30.8371 119.987 31.8411 121.556L35.5561 127.948C35.7753 128.327 35.8845 128.76 35.8712 129.198C35.858 129.635 35.7228 130.061 35.4811 130.426L27.7701 142.08C22.8222 139.117 17.0847 137.741 11.3311 138.14C7.38719 138.406 3.54511 139.509 0.0600586 141.374V190.644C4.09711 192.754 8.58189 193.863 13.137 193.878C17.692 193.893 22.1841 192.814 26.2351 190.731C30.238 188.665 33.6834 185.664 36.2791 181.982C36.9067 181.096 37.3447 180.091 37.5654 179.028C37.7861 177.965 37.7848 176.869 37.5616 175.806C37.3384 174.744 36.8982 173.739 36.2684 172.855C35.6387 171.971 34.833 171.227 33.9021 170.669C32.6524 169.916 31.2209 169.519 29.7621 169.52H19.5251C19.1789 170.382 18.568 171.113 17.7804 171.605C16.9927 172.098 16.0689 172.329 15.1421 172.263C9.34206 172.263 9.44206 166.663 9.44206 166.663V166.517C9.43938 166.566 9.43938 166.614 9.44206 166.663C9.45286 166.79 9.48009 166.915 9.52306 167.035C9.65753 167.484 9.87494 167.905 10.1641 168.274C10.2842 168.436 10.418 168.588 10.5641 168.727L10.6191 168.769C10.7552 168.893 10.9003 169.006 11.0531 169.109C11.2889 169.266 11.5403 169.398 11.8031 169.503C12.2525 169.681 12.7316 169.772 13.2151 169.772C13.4159 169.769 13.6164 169.753 13.8151 169.723L14.0001 169.685C14.1325 169.67 14.2622 169.637 14.3851 169.585L14.5851 169.51L14.9161 169.37L15.1161 169.27C15.2251 169.211 15.3221 169.141 15.4161 169.076L15.5841 168.958C15.6931 168.871 15.7961 168.78 15.8941 168.688L16.0081 168.581C16.1376 168.446 16.2572 168.302 16.3661 168.15C16.3862 168.118 16.4043 168.084 16.4201 168.05C16.4929 167.948 16.5597 167.842 16.6201 167.732C16.7228 167.531 16.8775 167.361 17.0681 167.24C17.2594 167.118 17.4795 167.049 17.7061 167.04H50.8281C51.3805 167.047 51.9228 167.189 52.4076 167.454C52.8923 167.719 53.3049 168.099 53.6091 168.56C54.3224 169.602 55.3253 170.413 56.4941 170.892C57.6629 171.371 58.9464 171.497 60.1861 171.255C61.4749 171.021 62.6602 170.395 63.5801 169.463C64.4243 168.594 65.0058 167.504 65.2576 166.318C65.5093 165.133 65.4211 163.9 65.0031 162.763C64.9824 162.703 64.957 162.646 64.9271 162.59C64.7487 162.256 64.6804 161.873 64.7319 161.498C64.7835 161.123 64.9522 160.773 65.2141 160.499C67.9791 157.664 69.7331 152.824 71.5521 147.799C74.3601 140.037 77.2521 132.043 83.9681 130.48C84.5773 130.348 85.2134 130.429 85.7701 130.71C86.3267 130.99 86.7701 131.454 87.0261 132.022C87.2431 132.561 87.4331 133.022 87.5691 133.305L90.4471 140.398L90.4801 140.473L99.1701 161.926C99.2801 162.212 99.3134 162.521 99.2667 162.824C99.22 163.127 99.095 163.412 98.9041 163.651L98.8611 163.716C98.7819 163.828 98.7075 163.943 98.6381 164.061C98.6381 164.093 98.6001 164.126 98.5841 164.161C98.5016 164.31 98.4307 164.464 98.3721 164.624L98.3391 164.732C98.2956 164.863 98.2593 164.997 98.2301 165.132L98.1971 165.278C98.1658 165.456 98.1461 165.636 98.1381 165.817C98.1333 166.075 98.1531 166.333 98.1971 166.588C98.2406 166.836 98.3117 167.078 98.4091 167.31C98.4786 167.485 98.5604 167.654 98.6541 167.817C98.8371 168.125 99.0597 168.408 99.3161 168.658L99.3491 168.696C99.4851 168.82 99.6311 168.938 99.7831 169.051C100.245 169.379 100.774 169.602 101.331 169.703C101.452 169.698 101.572 169.708 101.69 169.735C101.763 169.752 101.84 169.752 101.913 169.735C102.51 169.746 103.101 169.619 103.64 169.363C103.813 169.279 103.98 169.184 104.14 169.077C104.232 169.017 104.321 168.952 104.406 168.883C104.602 168.719 104.784 168.539 104.949 168.344L105.014 168.398C105.014 168.398 101.714 172.554 97.7261 170.091C93.2071 167.299 96.8681 162.038 96.8681 162.038L92.4911 151.382C91.9696 150.107 91.1156 148.995 90.0181 148.162C89.1949 147.537 88.2554 147.082 87.2544 146.823C86.2534 146.565 85.211 146.509 84.188 146.658C83.1651 146.807 82.182 147.158 81.2963 147.691C80.4105 148.224 79.6398 148.928 79.0291 149.762C75.2119 155.085 73.4082 161.59 73.9393 168.119C74.4703 174.648 77.3017 180.776 81.9291 185.412C87.1727 190.724 94.3083 193.74 101.772 193.8C109.236 193.86 116.419 190.958 121.747 185.731C124.464 183.066 126.605 179.871 128.037 176.345C129.469 172.819 130.161 169.036 130.071 165.231" fill="#292918"/>
</g>
</g>
<defs>
<clipPath id="clip0_1502_39">
<rect width="200" height="582" fill="white"/>
</clipPath>
</defs>
</svg>
