<svg width="57" height="160" viewBox="0 0 57 160" fill="none" xmlns="http://www.w3.org/2000/svg">
<g clip-path="url(#clip0_1514_27)">
<mask id="mask0_1514_27" style="mask-type:luminance" maskUnits="userSpaceOnUse" x="0" y="0" width="57" height="160">
<path d="M0 0H57V160H0V0Z" fill="white"/>
</mask>
<g mask="url(#mask0_1514_27)">
<path d="M28.282 99.562C28.3296 100.608 28.6025 101.631 29.0823 102.562C29.562 103.493 30.2371 104.309 31.0614 104.955C31.8857 105.601 32.8398 106.061 33.8584 106.304C34.877 106.546 35.936 106.566 36.963 106.362C38.6531 105.906 40.4219 105.821 42.148 106.113C43.8741 106.404 45.5166 107.066 46.963 108.052C49.527 109.706 51.841 109.012 53.711 106.612C54.5703 105.527 55.449 104.443 56.347 103.358C57.287 102.238 57.247 101.282 56.002 100.406C49.3107 95.7473 42.625 91.0807 35.945 86.406C35.166 85.864 34.383 85.313 33.564 84.828C32.808 84.4352 32.2 83.8076 31.8312 83.0396C31.4624 82.2715 31.3529 81.4046 31.519 80.569C31.6301 79.695 31.6676 78.8133 31.631 77.933C31.6 76.826 31.582 76.199 29.957 76.955C21.526 80.867 13.471 85.495 9.057 94.071C8.25457 95.615 7.60127 97.2319 7.106 98.9V0H0V160H7.106V111.35C7.37042 112.194 7.686 113.022 8.051 113.828C9.73844 117.317 11.6473 120.695 13.766 123.941C14.2204 124.484 14.4936 125.155 14.5474 125.86C14.6012 126.566 14.4329 127.271 14.066 127.876C12.9429 129.797 12.5312 132.052 12.903 134.246C13.1311 135.142 13.5609 135.975 14.1597 136.68C14.7584 137.385 15.5103 137.944 16.358 138.314C18.0728 139.148 19.8735 139.791 21.728 140.234C25.3743 141.031 29.0829 141.51 32.812 141.665C32.8383 141.665 32.8644 141.67 32.8888 141.68C32.9131 141.69 32.9353 141.704 32.954 141.723C32.9726 141.742 32.9873 141.764 32.9974 141.788C33.0075 141.812 33.0127 141.838 33.0127 141.865C33.0127 141.891 33.0075 141.917 32.9974 141.941C32.9873 141.965 32.9726 141.987 32.954 142.006C32.9353 142.025 32.9131 142.039 32.8888 142.049C32.8644 142.059 32.8383 142.064 32.812 142.064C27.124 142.042 21.412 142.011 15.753 141.992H12.145C11.5911 141.992 11.0595 142.21 10.666 142.6C10.4718 142.792 10.3174 143.021 10.2119 143.273C10.1063 143.525 10.0517 143.796 10.051 144.069V157.792C10.0518 158.065 10.1065 158.335 10.2121 158.587C10.3176 158.839 10.4719 159.068 10.666 159.26C11.0595 159.65 11.5911 159.868 12.145 159.868H52.445C52.9985 159.868 53.5297 159.65 53.923 159.26C54.1168 159.068 54.2706 158.839 54.3756 158.587C54.4806 158.335 54.5348 158.065 54.535 157.792V144.071C54.5349 143.798 54.4807 143.528 54.3757 143.276C54.2707 143.024 54.1168 142.795 53.923 142.603C53.5297 142.213 52.9985 141.995 52.445 141.995H47.972C47.972 141.995 49.077 141.204 49.695 140.662C53.633 137.262 53.619 129.917 50.563 126.362C46.088 121.143 40.863 114.688 36.078 109.526C35.264 108.637 33.63 108.304 32.332 108.148C26.681 107.415 25.62 102 27.477 98.333C27.6936 97.9592 27.9296 97.5971 28.184 97.248V97.479C28.215 98.179 28.265 98.866 28.284 99.564M38.865 92.358C38.8773 92.3288 38.8965 92.3031 38.921 92.283C38.9436 92.2625 38.9707 92.2474 39 92.239C39.0312 92.2314 39.0638 92.2314 39.095 92.239C40.205 92.613 40.943 92.822 42.071 93.097C42.271 93.146 42.518 93.177 42.608 93.363C42.6538 93.4924 42.6538 93.6336 42.608 93.763C42.496 94.177 42.371 94.581 42.228 94.985C42.2016 95.1116 42.1478 95.2309 42.0704 95.3346C41.993 95.4382 41.8939 95.5237 41.78 95.585C41.48 95.692 41.167 95.461 40.939 95.238C40.402 94.714 38.992 93.362 38.844 92.45C38.8415 92.4182 38.8467 92.3864 38.859 92.357M19.247 88.293C10.297 104.03 14.772 115.121 22.881 123.857C15.381 119.371 6.825 103.812 19.247 88.293Z" fill="#292918"/>
</g>
</g>
<defs>
<clipPath id="clip0_1514_27">
<rect width="57" height="160" fill="white"/>
</clipPath>
</defs>
</svg>
