<svg data-name="Сгруппировать 232" xmlns="http://www.w3.org/2000/svg" width="271.258" height="137.036" viewBox="0 0 271.258 137.036">
    <defs>
        <clipPath id="ar71fs8aca">
            <path data-name="Прямоугольник 388" style="fill:#272817" d="M0 0h271.258v137.036H0z"/>
        </clipPath>
    </defs>
    <g data-name="Сгруппировать 231" style="clip-path:url(#ar71fs8aca)">
        <path data-name="Контур 726" d="M0 .659c4.165 0 8.331-.091 12.493.007 7.143.167 12.038 3.9 13.868 10.785 2 7.53 2.074 15.1-.769 22.456-2.183 5.651-6.691 8.352-12.606 8.62-4.319.2-8.656.039-12.986.04zm6.543 20.928h-.008c0 4.639.027 9.279-.021 13.918-.011.977.306 1.293 1.251 1.23 1.614-.108 3.241-.058 4.846-.229 3.414-.365 6.007-2 7.094-5.353a27.519 27.519 0 0 0 1.272-5.993 31.973 31.973 0 0 0-.793-11.88c-1.153-3.98-3.691-6.35-7.94-6.647-1.532-.106-3.074-.073-4.607-.168-.842-.052-1.122.211-1.115 1.083.041 4.68.02 9.359.02 14.039" transform="translate(0 -.015)" style="fill:#272817"/>
        <path data-name="Контур 727" d="M80.924 138.571c.425-2.071.863-4.14 1.275-6.214q3.411-17.2 6.793-34.4c.17-.871.627-.977 1.354-.972 3.362.024 6.725.06 10.085 0 .953-.018 1.246.34 1.413 1.187q2.441 12.395 4.942 24.78 1.516 7.523 3.1 15.034c.162.77.034 1.159-.835 1.144-1.5-.025-3-.021-4.494-.009-.739.006-1.056-.318-1.183-1.059q-.926-5.359-1.976-10.7a1.18 1.18 0 0 0-.868-.717 316.377 316.377 0 0 0-10.447-.023c-.28 0-.724.58-.8.947-.678 3.4-1.325 6.806-1.9 10.223-.162.963-.451 1.369-1.53 1.346a286.191 286.191 0 0 0-10.845 0c-.934.016-1.27-.364-1.5-1.176q-2.281-8.019-4.652-16.014a1.311 1.311 0 0 0-.975-.717c-2.387-.065-4.778-.007-7.167-.059-.874-.019-1.081.284-1.07 1.124.068 5.247.068 10.494.124 15.742.008.778-.239 1.1-1.039 1.084-1.376-.034-2.757-.072-4.129.017-1.021.065-1.315-.268-1.309-1.28.043-7.267.033-14.533.033-21.8 0-5.933.013-11.868-.032-17.8-.008-1 .255-1.305 1.3-1.287 4.171.076 8.344 0 12.515.075a13.777 13.777 0 0 1 9.129 3.057c2.937 2.534 3.769 5.91 3.686 9.6a11 11 0 0 1-4.537 9.2 1.282 1.282 0 0 0-.423 1.093c1.733 5.912 3.516 11.81 5.3 17.71a8.059 8.059 0 0 0 .378.872h.295m-21.184-35.724v12.376c2.03 0 3.966.033 5.9-.013a20.1 20.1 0 0 0 3.249-.295c3.013-.571 4.554-2.548 4.587-5.75.033-3.165-1.484-5.395-4.49-5.808s-6.1-.357-9.245-.511m30.807 17.8c3.087 0 5.988.024 8.889-.015.872-.012.585-.713.5-1.186-.893-4.832-1.824-9.656-2.688-14.492-.184-1.035-.538-1.636-1.695-1.429a2.666 2.666 0 0 1-.727 0c-.781-.077-1.137.2-1.259 1.043-.271 1.871-.688 3.721-1.04 5.581-.643 3.4-1.282 6.794-1.979 10.5" transform="translate(-1.301 -2.368)" style="fill:#272817"/>
        <path data-name="Контур 728" d="M113.669 139.113V97.032h3.926c2.43-.007 4.861.022 7.29-.043a1.213 1.213 0 0 1 1.462 1.153c1.88 8.827 3.8 17.645 5.716 26.466q.755 3.486 1.513 6.97c.137.63.369 1.291 1.154.985a1.482 1.482 0 0 0 .631-1.162q.059-16.047.038-32.095c0-2.323-.033-2.32 2.372-2.3.851.007 1.707.056 2.55-.022.988-.091 1.242.3 1.238 1.245q-.057 14.594-.045 29.187c0 3.472-.007 6.943.031 10.415.009.892-.2 1.326-1.219 1.308q-5.04-.088-10.083-.021c-.895.012-1.279-.255-1.471-1.149q-3.537-16.49-7.142-32.969c-.051-.236-.04-.552-.188-.687a9.171 9.171 0 0 0-1.152-.779c-.189.34-.529.675-.542 1.022-.06 1.532-.025 3.067-.025 4.6v28.34c0 1.634 0 1.627-1.689 1.615-1.443-.01-2.887 0-4.36 0" transform="translate(-2.776 -2.368)" style="fill:#272817"/>
        <path data-name="Контур 729" d="M212.478 97.046h5.947v41.931a8.1 8.1 0 0 1-.956.12c-3.442.012-6.884 0-10.326.026-.842.008-1.192-.294-1.373-1.136q-3.568-16.666-7.2-33.319c-.131-.6-.224-1.23-1.087-1.158-.964.08-.727.819-.727 1.371q-.015 16.529.008 33.057c0 .856-.235 1.253-1.185 1.2-1.291-.076-2.59-.043-3.885 0-.81.024-1.136-.217-1.134-1.1q.045-19.919.013-39.838c0-.895.252-1.207 1.169-1.194 3.32.043 6.643.06 9.962-.011 1.046-.021 1.455.266 1.68 1.323 2.337 10.954 4.736 21.894 7.121 32.837.068.315.064.716.259.915a1.744 1.744 0 0 0 1.041.509c.183.012.555-.443.571-.7.066-1.127.036-2.258.036-3.389q-.012-15.09-.012-30.162c0-.4.048-.79.08-1.282" transform="translate(-4.654 -2.368)" style="fill:#272817"/>
        <path data-name="Контур 730" d="M23.462 117.956c0-6.579.014-13.159-.015-19.738 0-.919.227-1.267 1.232-1.251 4.13.069 8.262 0 12.391.069a14.346 14.346 0 0 1 8.647 2.695c4.736 3.535 5.213 12.427.159 15.738-.334.218-.744.5-.85.832a2.759 2.759 0 0 0 .105 1.332c.034.152.286.276.459.374 7.308 4.1 6.305 15.4-1.126 19.293a16.142 16.142 0 0 1-7.474 1.791c-4.171.043-8.341 0-12.512.048-.95.011-1.033-.462-1.032-1.2q.02-9.989.008-19.979h.007m6.421 15.306c3.008-.133 5.964-.075 8.867-.44 3.436-.431 5.29-2.789 5.284-6.15s-1.858-5.7-5.31-6.136a71.18 71.18 0 0 0-8.232-.264c-.2 0-.579.583-.582.9-.04 3.907-.026 7.816-.026 12.091m-.032-19.068c2.567 0 4.907.01 7.249-.009a7.3 7.3 0 0 0 1.314-.19c2.912-.559 4.46-2.323 4.5-5.114.045-3.121-1.372-5.166-4.362-5.571a67.331 67.331 0 0 0-7.971-.3 1.012 1.012 0 0 0-.7.7c-.046 3.453-.031 6.905-.031 10.487" transform="translate(-.573 -2.368)" style="fill:#272817"/>
        <path data-name="Контур 731" d="M172.291 24.925c-.02.409-.055.8-.054 1.193.008 5.127 0 10.252.052 15.378.009.852-.214 1.141-1.079 1.105a49.399 49.399 0 0 0-4.251.011c-.891.038-1.085-.343-1.084-1.149q.035-18.951.029-37.9c0-3.025.008-3.02 3-3 3.966.033 7.939-.075 11.9.121 4.137.206 7.75 1.658 10.043 5.385a12.883 12.883 0 0 1-2.682 16.131 1.417 1.417 0 0 0-.522 1.829c1.84 5.923 3.593 11.873 5.371 17.815a4.332 4.332 0 0 1 .077.589 6.165 6.165 0 0 1-.925.153c-1.539.013-3.078-.029-4.615.016a1.27 1.27 0 0 1-1.461-1.085q-2.255-7.9-4.609-15.773c-.127-.423-.657-1.027-1.008-1.033-2.548-.049-5.1.033-7.648.082a2.809 2.809 0 0 0-.534.129m-.009-5.977c3.046-.135 6-.109 8.912-.436 2.958-.332 4.53-2.2 4.839-5.168.3-2.871-.889-5.246-3.3-6.113-3.392-1.221-6.923-.622-10.455-.713z" transform="translate(-4.051 -.014)" style="fill:#272817"/>
        <path data-name="Контур 732" d="M153.466 96.884c2.664.145 5.361.078 7.985.479 5.6.856 9.247 4.177 11.038 9.493a37.086 37.086 0 0 1 1.312 16.15 29.083 29.083 0 0 1-1.459 6.584c-2.211 6.151-6.834 9.314-13.649 9.488-3.641.094-7.287 0-10.929.045-1.018.014-1.288-.351-1.286-1.342q.042-19.794-.006-39.588c0-.891.253-1.23 1.158-1.211 1.942.042 3.886.013 5.829.013 0-.037.006-.074.008-.111m-.456 21.172h-.023c0 4.683.016 9.366-.015 14.048-.006.8.265 1.089 1.049 1.059 1.457-.055 2.919.008 4.371-.1 3.976-.289 6.891-2.136 7.995-6.08a31.118 31.118 0 0 0 1.118-6.647c.224-4.191.213-8.395-1.557-12.366a7.4 7.4 0 0 0-5.912-4.652c-1.951-.283-3.952-.213-5.925-.368-.856-.067-1.128.172-1.12 1.055.041 4.683.02 9.366.02 14.048" transform="translate(-3.577 -2.366)" style="fill:#272817"/>
        <path data-name="Контур 733" d="M73.427 25.594v-5.8c.4-.036.828-.105 1.254-.106 4.576-.012 9.152-.028 13.727.015.318 0 .908.474.907.726-.012 4.389.223 8.795-1.016 13.1-1.7 5.9-5.513 9.379-10.833 9.759q-10.819.773-14.754-8a28.791 28.791 0 0 1-2.3-10.086c-.362-5.72-.149-11.394 2.088-16.781C64.682 3.16 68.569.269 74.409.03a15.234 15.234 0 0 1 7.562 1.2c3.2 1.572 4.9 4.366 5.986 7.586.983 2.9.937 2.792-2.092 2.954-2.271.122-3.775-.155-4.709-2.7-1.538-4.2-9.084-4.222-11.659-.335a15.038 15.038 0 0 0-2.268 6.565 40.292 40.292 0 0 0 .615 15.5c.8 3.019 2.3 5.639 5.711 6.213a11.614 11.614 0 0 0 4.661-.224c3.056-.777 3.888-3.4 4.368-6.1.238-1.341.2-2.731.333-4.094.085-.846-.314-1.023-1.059-1.017-2.753.025-5.505.01-8.431.01" transform="translate(-1.472)" style="fill:#272817"/>
        <path data-name="Контур 734" d="M235.9 122v-5.789h15.843c.06.081.144.142.145.206.1 5.084.286 10.178-1.492 15.075-1.41 3.88-3.883 6.944-8.059 7.6a29.287 29.287 0 0 1-9.389-.2c-3.17-.546-5.288-2.971-6.878-5.713a24.562 24.562 0 0 1-2.972-10.751c-.387-5.334-.34-10.654 1.332-15.818 1.629-5.032 4.6-8.842 10.051-9.971 4.528-.938 8.9-.579 12.523 2.752 2.319 2.135 3.376 4.975 4.118 7.939.053.212-.406.785-.644.8a46.038 46.038 0 0 1-4.854-.021 1.576 1.576 0 0 1-1.029-.91c-1.669-4.355-5.794-6.091-10-4.121a7.435 7.435 0 0 0-3.681 4.316c-1.441 3.65-1.527 7.49-1.5 11.325a28.266 28.266 0 0 0 1.326 9.542c1.624 4.5 5.043 6.285 9.683 5.132a5.109 5.109 0 0 0 4.055-3.755c.543-2.173.742-4.432 1.086-6.655.117-.752-.321-.854-.945-.851-2.389.011-4.778-.01-7.168-.03-.479 0-.956-.06-1.547-.1" transform="translate(-5.443 -2.349)" style="fill:#272817"/>
        <path data-name="Контур 735" d="M117.719 59.752c-1.992 0-3.89.029-5.783-.033-.268-.009-.655-.415-.763-.716a7.5 7.5 0 0 0-10.741-4c-2.948 1.583-3.606 6.538-.05 8.34 2.446 1.24 4.992 2.29 7.515 3.374a26.693 26.693 0 0 1 7.238 4.118 8.692 8.692 0 0 1 2.905 4.775 14.356 14.356 0 0 1-.427 8.227 10.954 10.954 0 0 1-8.837 7.406 19.33 19.33 0 0 1-9.95-.556c-5.411-1.886-7.758-6.316-8.458-11.138-.1-.67.21-.874.81-.871 1.579.007 3.162-.052 4.735.047a1.466 1.466 0 0 1 1.021.878 8.3 8.3 0 0 0 12.292 4.753c3.356-2.044 4-7.96-.35-10.1-2.5-1.23-5.109-2.225-7.644-3.384a74.123 74.123 0 0 1-4.985-2.483c-3.8-2.095-5.064-5.534-4.74-9.607.521-6.532 4.658-10.466 11.245-10.66a24.017 24.017 0 0 1 6.489.581 11.642 11.642 0 0 1 8.478 11.055" transform="translate(-2.206 -1.175)" style="fill:#272817"/>
        <path data-name="Контур 736" d="M141.172 90.911c.482-2.47.909-4.714 1.357-6.953 2.221-11.106 4.487-22.2 6.633-33.324.359-1.858.26-1.841 2.318-1.836 3.079.007 6.158.032 9.235-.006.879-.011 1.282.236 1.464 1.158q3.654 18.506 7.382 37c.2.988.386 1.978.615 2.958.168.72.009 1.05-.818 1.016a69.304 69.304 0 0 0-4.373-.034c-.8.018-1.093-.278-1.231-1.078-.583-3.375-1.279-6.731-1.871-10.105-.165-.941-.446-1.361-1.533-1.333-3.157.083-6.318.042-9.477-.007a1.141 1.141 0 0 0-1.362 1.128c-.584 3.416-1.258 6.818-1.834 10.237-.15.893-.488 1.24-1.418 1.2-1.646-.068-3.3-.02-5.088-.02m19.235-18.6c-.033-.312-.042-.51-.077-.7-.928-4.991-1.878-9.977-2.771-14.974-.148-.831-.349-1.431-1.33-1.262-.889.153-2.1-.6-2.373 1.165-.509 3.342-1.234 6.651-1.862 9.976-.362 1.917-.71 3.836-1.073 5.8z" transform="translate(-3.448 -1.192)" style="fill:#272817"/>
        <path data-name="Контур 737" d="M90.32 42.586c.5-2.568.955-4.892 1.418-7.213q3.3-16.533 6.607-33.066c.356-1.787.339-1.75 2.2-1.745 2.832.008 5.665-.052 8.5-.075 2.011-.018 1.99-.008 2.386 1.975q2.662 13.331 5.349 26.658 1.254 6.218 2.557 12.427c.169.809-.078 1.1-.921 1.06-1.374-.059-2.756-.081-4.128 0-.984.056-1.319-.331-1.48-1.26-.589-3.415-1.291-6.809-1.884-10.222-.136-.778-.457-.983-1.194-.978q-4.918.04-9.838-.013c-.845-.01-1.089.353-1.222 1.119-.594 3.414-1.277 6.811-1.863 10.227-.144.842-.444 1.165-1.325 1.129-1.646-.066-3.3-.019-5.157-.019m9.765-18.722c.188.142.252.233.316.233 2.83.03 5.661.063 8.491.068.77 0 .62-.5.521-1.02-.9-4.708-1.811-9.414-2.642-14.134-.41-2.322-.446-1.828-2.245-1.9-.927-.038-1.346.193-1.514 1.2-.544 3.256-1.219 6.49-1.837 9.732-.375 1.965-.737 3.932-1.091 5.826" transform="translate(-2.206 -.012)" style="fill:#272817"/>
        <path data-name="Контур 738" d="M221.879 42.588c.307-1.735.563-3.347.881-4.946q3.578-18.018 7.153-36.037c.167-.848.578-1.046 1.31-1.049 3.4-.014 6.8-.026 10.2-.069.927-.012 1.26.495 1.417 1.3q1.553 7.886 3.13 15.767 2.134 10.666 4.285 21.33c.191.947.365 1.9.569 2.843.138.637-.1.9-.745.9-1.538-.022-3.078-.061-4.614-.022-.744.019-.982-.339-1.1-.976-.639-3.488-1.333-6.966-1.921-10.462-.145-.861-.519-1.022-1.282-1.017q-4.858.037-9.717-.014c-.8-.009-1.122.26-1.261 1.071-.592 3.455-1.284 6.892-1.887 10.345-.138.791-.446 1.087-1.262 1.059-1.646-.055-3.3-.016-5.151-.016m9.644-18.414c3.119 0 6.017.013 8.915-.009.823-.006.559-.6.473-1.055-.875-4.663-1.765-9.324-2.627-13.989-.448-2.429-.16-1.91-2.371-2.008-.826-.037-1.22.181-1.373 1.071-.486 2.853-1.076 5.688-1.617 8.531-.457 2.4-.9 4.8-1.4 7.457" transform="translate(-5.419 -.012)" style="fill:#272817"/>
        <path data-name="Контур 739" d="M36.755.549v2.516q0 12.715.009 25.43a16.38 16.38 0 0 0 .26 2.889c.81 4.422 3.938 6.525 8.52 5.772 3.222-.529 5.139-2.782 5.5-6.58.15-1.6.21-3.222.214-4.834.017-7.992 0-15.985 0-23.977 0-.352.041-.705.075-1.26 1.895 0 3.71-.035 5.521.039.266.011.69.515.732.831a18.657 18.657 0 0 1 .027 2.417c-.008 8.476.022 16.954-.054 25.429a23 23 0 0 1-.695 5.136 10.888 10.888 0 0 1-10.214 8.872 27.049 27.049 0 0 1-6.159-.159c-5.347-.733-8.369-4.058-9.515-9.154a23.819 23.819 0 0 1-.561-5.037c-.059-9.082-.028-18.164-.052-27.246 0-.8.154-1.159 1.082-1.11 1.695.09 3.4.025 5.309.025" transform="translate(-.742 -.012)" style="fill:#272817"/>
        <path data-name="Контур 740" d="M203.92 84.957h17.118V90.8H197.4V48.878c.409-.023.836-.069 1.263-.069 7.049 0 14.1.022 21.144-.025 1.106-.008 1.411.34 1.335 1.387-.088 1.2-.036 2.421-.016 3.632.013.784-.338 1.043-1.116 1.036-5.06-.048-10.123-.045-15.183-.1-.869-.009-1.1.322-1.09 1.141.033 3.027.035 6.055-.019 9.082-.016.861.269 1.126 1.107 1.117 3.4-.039 6.8.011 10.207-.057 1.136-.022 1.631.249 1.51 1.483a20.133 20.133 0 0 0 .023 3.386c.064.918-.28 1.2-1.176 1.192-3.523-.043-7.047-.02-10.57-.051-.673-.007-1.067.1-1.061.9.025 3.794.014 7.589.021 11.384a3.841 3.841 0 0 0 .14.637" transform="translate(-4.821 -1.191)" style="fill:#272817"/>
        <path data-name="Контур 741" d="M65.036 90.725v-2.978Q65.027 68.8 65 49.86c0-.831.3-1.061 1.045-1.06q10.868.01 21.738 0c.685 0 1.057.2 1.037.968a87.181 87.181 0 0 0 .006 3.994c.018.856-.394 1.1-1.2 1.092-5.018-.047-10.037-.058-15.055-.086-.545 0-1.12-.057-1.122.721-.009 3.461 0 6.923 0 10.512.517.025.943.065 1.37.066 3.36 0 6.721.024 10.08-.018.979-.013 1.4.236 1.294 1.306A27.061 27.061 0 0 0 84.2 70.5c.028 1.561.031 1.566-1.49 1.564q-5.283-.006-10.566-.019c-.158 0-.315.026-.593.051v12.831h6.492c3.2 0 6.4.027 9.594-.031.917-.017 1.215.249 1.167 1.157-.068 1.288-.035 2.581 0 3.872.018.737-.292.983-1.018.98-7.166-.028-14.33-.03-21.5-.049-.389 0-.779-.08-1.248-.131" transform="translate(-1.587 -1.192)" style="fill:#272817"/>
        <path data-name="Контур 742" d="M196.414.53h8.5c4.611-.011 9.222 0 13.832-.067 1.017-.015 1.4.3 1.368 1.29-.041 1.25-.036 2.5 0 3.752.026.819-.337 1.011-1.1 1-4.978-.034-9.959 0-14.938-.057-1.045-.012-1.42.224-1.389 1.336.082 2.984.035 5.972.044 8.957 0 .315.035.63.063 1.111h2.793c2.915 0 5.83.028 8.745-.019.866-.014 1.256.181 1.2 1.13-.074 1.287-.047 2.582-.01 3.872.021.743-.274.981-1 .972-3.561-.045-7.124-.018-10.685-.093-.892-.02-1.135.293-1.132 1.1q.019 5.447-.023 10.893c-.008.832.38 1.025 1.115 1.022 5.019-.021 10.04.006 15.059-.05.945-.011 1.333.211 1.282 1.19-.064 1.248-.02 2.5-.035 3.752-.006.576-.132 1-.888.992q-11.173-.048-22.347-.057a2.97 2.97 0 0 1-.449-.083z" transform="translate(-4.797 -.011)" style="fill:#272817"/>
        <path data-name="Контур 743" d="M128.3 90.893V54.788c-2.917 0-5.738-.078-8.552.036-1.207.049-1.6-.3-1.543-1.454a21.855 21.855 0 0 0-.022-3.266c-.1-1.053.3-1.318 1.3-1.312 6.6.035 13.2.023 19.805.026h5.531c0 1.882.023 3.677-.04 5.47-.006.161-.579.426-.893.431-2.631.041-5.264.066-7.9.02-.952-.017-1.238.288-1.235 1.241.033 11.222.015 22.444.046 33.667 0 .936-.237 1.305-1.225 1.265-1.695-.069-3.394-.02-5.271-.02" transform="translate(-2.886 -1.192)" style="fill:#272817"/>
        <path data-name="Контур 744" d="M184.43 54.854v1.4c0 11.133-.016 22.267.023 33.4 0 1.054-.345 1.3-1.316 1.257-1.644-.068-3.294-.019-5.075-.019v-3.556q.007-15.731.036-31.461c0-.818-.281-1.079-1.03-1.077-2.589.01-5.18-.065-7.766.031-1.094.041-1.459-.254-1.385-1.329a20.2 20.2 0 0 0-.006-3.384c-.118-1.154.393-1.343 1.387-1.331 3.318.045 6.637.019 9.955.021 4.654 0 9.309.031 13.962 0 1.054-.008 1.562.217 1.43 1.415a21.3 21.3 0 0 0 0 3.384c.049.965-.345 1.255-1.29 1.226-2.547-.077-5.1-.072-7.646-.088-.394 0-.787.064-1.285.108" transform="translate(-4.1 -1.191)" style="fill:#272817"/>
        <path data-name="Контур 745" d="M258.99.542v2.495q0 15.377.012 30.755c0 2.9.021 2.911 2.973 2.92 4.737.016 9.475.041 14.212.008.968-.007 1.295.305 1.233 1.259a26.172 26.172 0 0 0 0 3.388c.062.963-.291 1.257-1.242 1.244-3.6-.048-7.208-.03-10.811-.028-3.888 0-7.775-.023-11.661.05-1.108.02-1.027-.587-1.027-1.3q0-18.768-.012-37.534c0-.687.025-1.376-.034-2.057-.075-.862.176-1.254 1.136-1.216 1.689.069 3.382.02 5.222.02" transform="translate(-6.169 -.013)" style="fill:#272817"/>
        <path data-name="Контур 746" d="M178.442 138.909V97c1.95 0 3.876-.027 5.8.039.215.007.561.534.585.84.07.881 0 1.772 0 2.658q-.006 18.026-.008 36.053c0 2.51 0 2.513-2.591 2.51q-1.7 0-3.4-.029a1.354 1.354 0 0 1-.385-.161" transform="translate(-4.358 -2.369)" style="fill:#272817"/>
        <path data-name="Контур 747" d="M135.812 37.62a15.857 15.857 0 0 1-16.189-15.928 16.136 16.136 0 1 1 32.271-.324 15.78 15.78 0 0 1-16.082 16.252m13.216-16.079a13.2 13.2 0 0 0-13.086-13.513c-7.641-.034-13.388 5.783-13.4 13.56a13.243 13.243 0 1 0 26.484-.046" transform="translate(-2.921 -.131)" style="fill:#272817"/>
        <path data-name="Контур 748" d="M143.282 30.052a11.127 11.127 0 0 1-2.179-.035 1.72 1.72 0 0 1-1.108-.81 57.503 57.503 0 0 1-1.7-4.775 1.19 1.19 0 0 0-1.385-1A24.58 24.58 0 0 1 134 23.4c-.935-.062-1.179.332-1.133 1.211.076 1.449.007 2.9.065 4.354.031.765-.177 1.157-1.007 1.08a5.656 5.656 0 0 1-1.322-.059c-.311-.113-.729-.522-.732-.8-.047-4.921-.039-9.842-.036-14.762 0-.531-.018-1.071.8-1.054 2.588.055 5.181 0 7.765.13 3.452.179 5.4 2.642 4.695 6.012a6.054 6.054 0 0 1-1.537 2.63 1.466 1.466 0 0 0-.428 1.779c.739 1.944 1.387 3.924 2.156 6.131m-7.615-9.211c.687 0 1.376.031 2.059-.007a2.451 2.451 0 0 0 2.492-2.165 2.28 2.28 0 0 0-2.223-2.519c-1.275-.16-2.58-.057-3.867-.151-.974-.071-1.341.3-1.218 1.245a6.774 6.774 0 0 1 .009.845c0 2.754 0 2.754 2.748 2.752" transform="translate(-3.171 -.326)" style="fill:#272817"/>
    </g>
</svg>
