<svg width="320" height="93" viewBox="0 0 320 93" fill="none" xmlns="http://www.w3.org/2000/svg">
<g clip-path="url(#clip0_1537_2)">
<path d="M228.392 0.144531H224.648V91.6965H228.392V0.144531Z" fill="#CEB086"/>
<path d="M275.926 0.00585938H271.875V67.2449H275.926V0.00585938Z" fill="#292918"/>
<path d="M184.326 0H180.582V91.837H184.326V0Z" fill="#272A18"/>
<path d="M320 0H315.949V91.831H320V0Z" fill="#CEB086"/>
<path d="M95.1799 0H91.1289V91.837H95.1799V0Z" fill="#292918"/>
<path d="M3.956 0H0V89.68H3.956V0Z" fill="#292918"/>
<path d="M46.999 0H43.043V64.758H46.999V0Z" fill="#CEB086"/>
<path d="M275.926 75.1934H271.875V91.8314H275.926V75.1934Z" fill="#292918"/>
<path d="M273.594 63.0039H271.875V79.6419H273.594V63.0039Z" fill="#292918"/>
<path d="M46.999 83.9648H43.043V91.8388H46.999V83.9648Z" fill="#CEB086"/>
<path d="M278.04 68.6914H276.54C276.317 68.6909 276.103 68.7788 275.945 68.936C275.787 69.0931 275.698 69.3065 275.697 69.5294V71.0294C275.698 71.2523 275.787 71.4657 275.945 71.6229C276.103 71.78 276.317 71.868 276.54 71.8674H278.04C278.263 71.868 278.477 71.78 278.635 71.6229C278.793 71.4657 278.882 71.2523 278.883 71.0294V69.5294C278.882 69.3065 278.793 69.0931 278.635 68.936C278.477 68.7788 278.263 68.6909 278.04 68.6914Z" fill="#292918"/>
<path d="M285.771 68.6914H281.771C281.628 68.6909 281.487 68.7185 281.355 68.7726C281.223 68.8267 281.103 68.9062 281.002 69.0067C280.901 69.1072 280.82 69.2267 280.765 69.3582C280.711 69.4898 280.682 69.6309 280.682 69.7734V70.7824C280.682 70.925 280.711 71.0661 280.765 71.1976C280.82 71.3292 280.901 71.4486 281.002 71.5491C281.103 71.6496 281.223 71.7292 281.355 71.7833C281.487 71.8374 281.628 71.8649 281.771 71.8644H285.771C285.913 71.8648 286.054 71.8371 286.186 71.783C286.318 71.7288 286.438 71.6492 286.539 71.5488C286.64 71.4483 286.72 71.3289 286.775 71.1974C286.83 71.0659 286.858 70.9249 286.859 70.7824V69.7734C286.858 69.631 286.83 69.4899 286.775 69.3584C286.72 69.2269 286.64 69.1076 286.539 69.0071C286.438 68.9066 286.318 68.827 286.186 68.7728C286.054 68.7187 285.913 68.691 285.771 68.6914Z" fill="#292918"/>
<path d="M311.704 68.1758H299.773C299.558 68.1753 299.351 68.2602 299.199 68.4119C299.046 68.5636 298.96 68.7696 298.959 68.9848V71.5728C298.96 71.7879 299.046 71.9941 299.199 72.1458C299.351 72.2974 299.558 72.3823 299.773 72.3818H311.704C311.919 72.3823 312.126 72.2974 312.278 72.1458C312.431 71.9941 312.517 71.7879 312.518 71.5728V68.9848C312.517 68.7696 312.431 68.5636 312.278 68.4119C312.126 68.2602 311.919 68.1753 311.704 68.1758Z" fill="#292918"/>
<path d="M294.187 85.1168C293.219 85.1177 292.29 84.7354 291.603 84.0537C291.264 83.7174 290.995 83.3173 290.812 82.8766C290.628 82.4358 290.534 81.9631 290.534 81.4857V81.4177C290.53 81.3645 290.53 81.311 290.534 81.2578C290.578 80.5564 290.827 79.8835 291.251 79.3228C291.198 79.4567 291.155 79.594 291.122 79.7338C291.112 79.7787 291.115 79.8252 291.13 79.8687C291.152 79.9345 291.199 79.9889 291.262 80.02C291.324 80.051 291.396 80.0563 291.462 80.0347C291.669 79.9497 291.894 79.9131 292.118 79.9277C292.471 79.9508 292.804 80.0962 293.062 80.3387C293.318 80.5807 293.482 80.9054 293.523 81.2557C293.559 81.5842 293.486 81.9156 293.314 82.1978C293.141 82.4799 292.88 82.6969 292.572 82.8148L292.501 82.8358C292.442 82.8501 292.388 82.8806 292.345 82.9239C292.303 82.9672 292.273 83.0215 292.26 83.0808C292.246 83.1399 292.25 83.2015 292.27 83.2586C292.291 83.3157 292.326 83.366 292.374 83.4038C292.765 83.7137 293.216 83.9401 293.698 84.0689C294.18 84.1976 294.684 84.2261 295.178 84.1525C295.672 84.079 296.145 83.9049 296.569 83.6411C296.993 83.3772 297.358 83.0293 297.642 82.6187C297.4 83.3449 296.937 83.977 296.317 84.4256C295.697 84.8742 294.952 85.1167 294.187 85.1187M294.187 72.7188C291.849 72.7169 289.606 73.6397 287.946 75.2858C286.922 76.3052 286.167 77.562 285.747 78.9441C285.327 80.3262 285.256 81.7908 285.539 83.2072C285.823 84.6236 286.452 85.9479 287.372 87.0621C288.291 88.1762 289.472 89.0456 290.809 89.5927C292.421 90.2565 294.194 90.4303 295.905 90.0924C297.615 89.7545 299.189 88.9198 300.428 87.6928C301.246 86.8811 301.896 85.9153 302.34 84.8511C302.783 83.787 303.011 82.6456 303.011 81.4927C303.011 80.3399 302.783 79.1985 302.34 78.1343C301.896 77.0702 301.246 76.1044 300.428 75.2927C298.768 73.6466 296.525 72.7235 294.188 72.7247" fill="#292918"/>
<path d="M315.507 72.4999C315.506 72.7542 315.43 73.0024 315.287 73.213C315.145 73.4235 314.943 73.5867 314.707 73.682C314.551 73.7473 314.383 73.7814 314.214 73.782H302.947C302.724 73.7817 302.504 73.8435 302.314 73.9603C302.123 74.0772 301.969 74.2446 301.868 74.444C301.768 74.6427 301.725 74.8657 301.745 75.0875C301.765 75.3093 301.846 75.5211 301.98 75.699C303.398 77.586 304.075 79.9279 303.881 82.2805C303.687 84.633 302.636 86.8326 300.928 88.462C299.576 89.7565 297.879 90.6342 296.041 90.9901C294.203 91.346 292.302 91.1651 290.564 90.469C288.826 89.7729 287.325 88.591 286.241 87.0647C285.157 85.5384 284.536 83.7321 284.451 81.8619C284.364 79.6428 285.048 77.462 286.388 75.691C286.486 75.5572 286.555 75.4044 286.591 75.2425C286.627 75.0806 286.629 74.9129 286.597 74.7502C286.565 74.5874 286.5 74.4331 286.405 74.2969C286.31 74.1608 286.189 74.0457 286.047 73.959C285.857 73.8425 285.638 73.7808 285.415 73.781H275.09C274.921 73.78 274.753 73.7461 274.597 73.681C274.441 73.6175 274.298 73.5237 274.178 73.4049C274.058 73.2862 273.962 73.1448 273.897 72.989C273.831 72.8339 273.797 72.6673 273.797 72.499V68.191C273.797 68.0051 273.834 67.821 273.905 67.6494C273.976 67.4777 274.081 67.3219 274.213 67.191C274.479 66.9268 274.838 66.778 275.213 66.777H314.123C314.489 66.7761 314.841 66.9198 315.102 67.1769C315.231 67.3044 315.333 67.4559 315.403 67.6229C315.472 67.7898 315.509 67.969 315.509 68.15L315.507 72.4999ZM288.934 53.2C288.691 53.2003 288.458 53.1043 288.285 52.933C288.2 52.8487 288.132 52.7484 288.086 52.6379C288.04 52.5274 288.016 52.4087 288.016 52.2889V47.978C288.016 47.8582 288.04 47.7396 288.086 47.6291C288.132 47.5186 288.2 47.4183 288.285 47.334C288.458 47.1626 288.691 47.0665 288.934 47.067H300.549C300.792 47.0666 301.026 47.1626 301.198 47.334C301.283 47.4183 301.351 47.5186 301.397 47.6291C301.443 47.7396 301.467 47.8582 301.467 47.978V52.2889C301.467 52.4087 301.443 52.5273 301.397 52.6378C301.351 52.7483 301.283 52.8487 301.198 52.933C301.026 53.1042 300.792 53.2002 300.549 53.2H288.934ZM315.676 66.11C315.443 65.9669 315.25 65.7651 315.119 65.5247C314.988 65.2844 314.922 65.0139 314.927 64.74C314.927 64.7026 314.919 64.6656 314.904 64.6312C314.889 64.5969 314.867 64.5659 314.84 64.54C314.813 64.514 314.781 64.4936 314.746 64.48C314.711 64.4662 314.674 64.4593 314.637 64.46H308.337C308.236 64.4594 308.138 64.4991 308.066 64.5704C307.994 64.6416 307.953 64.7386 307.952 64.84V65.45C307.952 65.5509 307.912 65.6477 307.84 65.7189C307.768 65.7906 307.671 65.8312 307.57 65.832H298.712C298.544 65.8323 298.379 65.7946 298.228 65.7217C298.077 65.6488 297.944 65.5425 297.84 65.411C297.737 65.28 297.664 65.1273 297.629 64.9642C297.593 64.8012 297.595 64.6322 297.634 64.47L297.782 63.8569C297.918 63.3086 298.215 62.8138 298.636 62.4365C299.056 62.0592 299.58 61.8169 300.14 61.741L301.194 61.6C301.542 61.553 301.862 61.3819 302.094 61.118C302.325 60.8549 302.452 60.5169 302.452 60.1669V47.363C302.453 46.9758 302.304 46.6033 302.037 46.3229C301.769 46.0415 301.404 45.8731 301.016 45.852L296.536 45.603C295.342 45.5386 294.146 45.5386 292.952 45.603L288.292 45.865C287.904 45.8864 287.539 46.0547 287.27 46.3359C287.003 46.6162 286.853 46.9886 286.853 47.376V60.171C286.854 60.5207 286.981 60.8582 287.212 61.121C287.444 61.385 287.764 61.5565 288.112 61.604L289.166 61.7449C289.728 61.8183 290.256 62.0594 290.679 62.4369C291.102 62.8144 291.401 63.3107 291.538 63.861L291.686 64.4739C291.725 64.6359 291.727 64.8048 291.692 64.9676C291.656 65.1304 291.584 65.283 291.481 65.4139C291.377 65.5452 291.245 65.6514 291.094 65.7245C290.944 65.7976 290.779 65.8356 290.611 65.8359H287.445C287.381 65.8359 287.318 65.8233 287.259 65.799C287.2 65.7763 287.147 65.7423 287.101 65.699C287.058 65.6535 287.024 65.6002 287.001 65.5419C286.977 65.4833 286.965 65.4204 286.965 65.3569V64.309C286.965 64.2219 286.939 64.1369 286.89 64.0646C286.841 63.9924 286.773 63.9361 286.692 63.903C286.639 63.8807 286.581 63.8691 286.523 63.869H285.181C285.062 63.867 284.949 63.8185 284.866 63.734C284.783 63.6497 284.737 63.5361 284.738 63.418C284.736 63.3026 284.689 63.1926 284.606 63.1119C284.523 63.0312 284.412 62.986 284.296 62.986H282.928C282.81 62.9871 282.697 63.0349 282.613 63.119C282.53 63.2029 282.484 63.3162 282.485 63.434C282.483 63.5501 282.435 63.6608 282.352 63.742C282.269 63.8234 282.157 63.8689 282.04 63.869H275.994C275.877 63.8688 275.764 63.9153 275.681 63.998C275.64 64.0387 275.607 64.0871 275.585 64.1404C275.563 64.1938 275.551 64.2511 275.551 64.309V64.9399C275.547 65.1803 275.449 65.4095 275.276 65.577C275.103 65.7451 274.87 65.8381 274.629 65.8359C274.106 65.841 273.606 66.0515 273.237 66.4219C272.869 66.7907 272.663 67.2902 272.662 67.811V89.865C272.662 90.1253 272.714 90.383 272.814 90.6233C272.914 90.8636 273.06 91.0817 273.245 91.265C273.62 91.6358 274.125 91.8438 274.652 91.8439H314.685C315.212 91.8438 315.718 91.6358 316.092 91.265C316.277 91.0817 316.424 90.8636 316.524 90.6233C316.624 90.383 316.675 90.1253 316.675 89.865V67.806C316.672 67.4607 316.577 67.1225 316.402 66.8251C316.226 66.5278 315.976 66.2818 315.675 66.1119" fill="#292918"/>
<path d="M38.1235 44.4812C38.3805 44.4812 38.7235 44.4532 38.8515 44.5932C39.2125 45.0132 39.6675 45.5702 40.0875 46.1462C40.1002 46.1595 40.109 46.1759 40.1129 46.1937C40.1169 46.2116 40.1159 46.2302 40.11 46.2475C40.1041 46.2649 40.0936 46.2802 40.0796 46.292C40.0656 46.3038 40.0486 46.3115 40.0305 46.3142C40.0074 46.3198 39.9831 46.3173 39.9615 46.3072C39.0184 45.7933 37.9187 45.6459 36.8735 45.8932C36.8426 45.9022 36.8145 45.919 36.7919 45.9419C36.7693 45.9648 36.753 45.9932 36.7445 46.0242C36.7363 46.0554 36.7363 46.0881 36.7445 46.1192C36.7522 46.1503 36.7677 46.1789 36.7895 46.2022C37.0031 46.4582 37.2785 46.6554 37.5895 46.7752C38.4047 47.1069 39.2972 47.2009 40.1635 47.0462C40.5055 46.9822 40.9355 47.6212 41.1925 48.1202C41.1964 48.133 41.1964 48.1465 41.1925 48.1592C41.1901 48.1724 41.1839 48.1846 41.1745 48.1942C41.1654 48.204 41.1536 48.211 41.1405 48.2142C41.1275 48.2182 41.1136 48.2182 41.1005 48.2142C40.0928 47.7955 38.987 47.6713 37.9115 47.8562C37.854 47.8674 37.8014 47.8962 37.7608 47.9385C37.7203 47.9808 37.6938 48.0346 37.685 48.0925C37.6763 48.1505 37.6856 48.2097 37.7119 48.2621C37.7381 48.3145 37.7799 48.3575 37.8315 48.3852C38.1817 48.5521 38.5512 48.675 38.9315 48.7512C39.6452 48.9276 40.3765 49.0228 41.1115 49.0352C41.2382 49.0401 41.3633 49.0643 41.4825 49.1072C41.6241 49.1593 41.7542 49.2384 41.8655 49.3402C41.9641 49.434 42.0505 49.5398 42.1225 49.6552C42.1565 49.7092 42.1865 49.7622 42.2155 49.8192C42.2307 49.8448 42.2444 49.8712 42.2565 49.8982C42.2565 49.9242 42.2955 49.9602 42.2775 49.9872C42.2595 50.0142 42.2285 50.0022 42.2025 49.9872L42.1255 49.9642L41.9635 49.9162L41.4495 49.7522C41.2695 49.6982 41.0865 49.6522 40.9035 49.6012C40.7205 49.5502 40.5435 49.5172 40.3605 49.4882C40.1904 49.4589 40.0182 49.4435 39.8455 49.4422C39.6877 49.4408 39.5304 49.4599 39.3775 49.4992C38.3325 49.7722 38.6855 50.0622 38.9505 50.2462C39.9805 50.7234 41.1274 50.8899 42.2505 50.7252C42.3525 50.7155 42.4548 50.7397 42.5415 50.7942C42.68 50.8974 42.7934 51.0303 42.8735 51.1832C42.9244 51.2722 42.9708 51.3636 43.0125 51.4572C43.0385 51.5112 43.0645 51.5642 43.0845 51.6182C43.1045 51.6722 43.1385 51.7352 43.1125 51.7822C43.0865 51.8292 42.9215 51.7102 42.8805 51.6902C42.7815 51.6372 42.6768 51.5953 42.5685 51.5652C41.6016 51.2735 40.5608 51.3509 39.6475 51.7822C39.584 51.8129 39.5318 51.863 39.4985 51.9252C39.4657 51.9864 39.4531 52.0564 39.4625 52.1252C39.4723 52.1951 39.504 52.26 39.5531 52.3107C39.6021 52.3614 39.666 52.3952 39.7355 52.4072L39.8775 52.4222C40.8475 52.4602 41.8205 52.4452 42.7905 52.4942C42.9077 52.5033 43.0217 52.5369 43.1251 52.5929C43.2285 52.6489 43.3189 52.726 43.3905 52.8192L43.4115 52.8602C42.7165 52.8602 42.0195 52.8732 41.3785 52.8962C41.1915 52.9072 41.0097 52.9624 40.8481 53.0571C40.6865 53.1518 40.5495 53.2834 40.4485 53.4412C40.3481 53.5986 40.2866 53.7777 40.2692 53.9636C40.2518 54.1496 40.279 54.3369 40.3485 54.5102C41.0945 56.4362 42.3785 59.6262 43.0375 61.0562C43.1197 61.2316 43.2522 61.3785 43.4182 61.4782C43.5842 61.5779 43.7761 61.626 43.9695 61.6162L44.8345 61.5722C45.5463 61.5406 46.2169 61.2294 46.7005 60.7062C46.9391 60.4482 47.1245 60.1455 47.2459 59.8157C47.3674 59.4859 47.4227 59.1354 47.4085 58.7842C47.317 57.0843 47.1367 55.3903 46.8685 53.7092C46.822 53.4596 46.6854 53.2357 46.4845 53.0802C46.2828 52.9241 46.0311 52.8469 45.7765 52.8632H44.3175C44.2425 52.5232 44.2425 52.1982 44.4485 52.0632C45.0765 51.6412 45.9485 50.9912 46.5385 50.5162C46.6817 50.3903 46.8111 50.2495 46.9245 50.0962C46.954 50.0585 46.9749 50.0148 46.9859 49.9682C46.9968 49.9216 46.9976 49.8732 46.9881 49.8262C46.9786 49.7793 46.9591 49.735 46.9308 49.6964C46.9026 49.6577 46.8663 49.6256 46.8245 49.6022C46.7687 49.5702 46.7048 49.5549 46.6405 49.5582C46.0944 49.5868 45.5666 49.7646 45.1145 50.0722C44.8458 50.2563 44.598 50.4692 44.3755 50.7072C44.2625 50.8272 44.1535 50.9502 44.0485 51.0752L43.8915 51.2642C43.8525 51.3152 43.7915 51.4282 43.7215 51.4202C43.6515 51.4122 43.6085 51.2692 43.5795 51.2102C43.548 51.1371 43.5212 51.0619 43.4995 50.9852C43.46 50.8599 43.4675 50.7245 43.5205 50.6042C43.5983 50.4674 43.7056 50.3495 43.8345 50.2592C44.2658 49.9274 44.6634 49.5539 45.0215 49.1442C45.4025 48.6862 45.7135 48.1752 46.0505 47.6812C46.0711 47.6512 46.083 47.6162 46.0852 47.5799C46.0873 47.5436 46.0794 47.5074 46.0625 47.4752C46.0459 47.4431 46.021 47.4158 45.9905 47.3962C45.9605 47.3769 45.9261 47.3656 45.8905 47.3632C44.2905 47.3072 43.4585 48.6012 43.0905 49.8112C43.0875 49.8225 43.082 49.833 43.0746 49.842C43.0671 49.851 43.0578 49.8583 43.0473 49.8634C43.0368 49.8685 43.0253 49.8713 43.0136 49.8717C43.0019 49.872 42.9903 49.8698 42.9795 49.8652C42.9652 49.8594 42.9527 49.8497 42.9435 49.8372C42.3595 49.0702 42.2385 48.8852 42.8795 48.0462C43.1864 47.6879 43.4564 47.2996 43.6855 46.8872C43.8343 46.6375 43.9223 46.3563 43.9425 46.0662C43.9451 46.0247 43.9381 45.9831 43.9222 45.9446C43.9062 45.9061 43.8817 45.8718 43.8505 45.8442C43.8194 45.8164 43.7823 45.7959 43.7422 45.7843C43.702 45.7727 43.6598 45.7703 43.6185 45.7772C42.5885 45.9772 42.1875 46.6442 42.0745 48.1332C42.073 48.1563 42.0642 48.1783 42.0495 48.1962C42.0347 48.2144 42.0143 48.2274 41.9915 48.2332C41.969 48.2395 41.9451 48.2387 41.923 48.2308C41.901 48.2229 41.882 48.2084 41.8685 48.1892C41.3899 47.5471 41.1655 46.7508 41.2385 45.9532C41.5143 45.196 41.6095 44.3848 41.5165 43.5842C41.4085 42.9442 41.2595 42.7012 41.0435 42.5612C40.9701 42.5264 40.8883 42.5129 40.8075 42.5222C40.727 42.5315 40.6507 42.5634 40.5875 42.6142C40.4238 42.8154 40.343 43.0715 40.3615 43.3302C40.3615 43.9882 40.4365 44.7522 40.4955 45.4482C40.4984 45.4727 40.4927 45.4975 40.4794 45.5183C40.466 45.539 40.446 45.5546 40.4225 45.5622C40.3992 45.5704 40.3738 45.5704 40.3505 45.5622C40.3275 45.5537 40.308 45.5374 40.2955 45.5162C39.6135 44.5232 38.7955 44.0632 38.9445 42.8812C39.0027 42.2032 38.8003 41.5284 38.3785 40.9942C38.32 40.9256 38.24 40.8787 38.1515 40.8612C38.1101 40.8526 38.067 40.8587 38.0296 40.8784C37.9922 40.8981 37.9628 40.9302 37.9465 40.9692C37.9357 40.9948 37.9309 41.0225 37.9325 41.0502C37.8727 41.7276 37.9899 42.4088 38.2725 43.0272C38.2805 43.0464 38.2818 43.0677 38.2762 43.0876C38.2706 43.1076 38.2583 43.1251 38.2415 43.1372C38.2244 43.1494 38.2036 43.1554 38.1825 43.1542C38.1615 43.1533 38.1413 43.1452 38.1255 43.1312L37.9885 43.0132L37.7055 42.7572C37.6155 42.6782 37.5255 42.5962 37.4325 42.5192L37.3085 42.4122L37.2515 42.3662C37.2431 42.356 37.2325 42.3478 37.2205 42.3422C37.2084 42.3364 37.195 42.3333 37.1815 42.3332C37.1505 42.3332 37.1375 42.3592 37.1245 42.3842C37.1032 42.4315 37.096 42.484 37.1039 42.5352C37.1117 42.5865 37.1341 42.6344 37.1685 42.6732C37.4825 43.0182 37.9405 43.4412 38.2395 43.7732C38.2466 43.7814 38.2506 43.7919 38.2506 43.8027C38.2506 43.8136 38.2466 43.824 38.2395 43.8322C38.2326 43.8404 38.2231 43.8461 38.2125 43.8482C38.2018 43.8499 38.1909 43.8478 38.1815 43.8422C37.0205 43.2072 36.4675 43.6912 35.7495 43.6602C35.7223 43.6591 35.6954 43.6665 35.6725 43.6812C35.6494 43.696 35.6316 43.7177 35.6215 43.7432C35.6131 43.7689 35.6131 43.7966 35.6215 43.8222C35.6282 43.8489 35.6433 43.8728 35.6645 43.8902C36.3851 44.3899 37.2667 44.6015 38.1355 44.4832" fill="#292918"/>
<path d="M25.3373 76.7139C25.2359 76.8762 25.1499 77.0477 25.0803 77.2259C24.9956 77.4492 24.8626 77.651 24.6907 77.8168C24.5189 77.9826 24.3125 78.1083 24.0863 78.1849C23.9326 78.2346 23.7719 78.2596 23.6103 78.2589H19.5613C19.4879 76.345 18.996 74.4704 18.1203 72.7669C17.8567 72.2609 17.4669 71.8315 16.9886 71.5203C16.5103 71.2091 15.9598 71.0266 15.3903 70.9906C14.8209 70.9546 14.2517 71.0662 13.7381 71.3147C13.2244 71.5632 12.7836 71.9401 12.4583 72.4089L8.43034 78.2589C8.31488 78.2591 8.20152 78.228 8.10224 78.1691C8.00297 78.1101 7.92146 78.0254 7.86634 77.9239C7.81074 77.8232 7.78377 77.7092 7.78835 77.5943C7.79294 77.4794 7.8289 77.3679 7.89234 77.2719L11.0603 72.4859L17.2193 63.1779C17.2778 63.0891 17.3579 63.0167 17.4521 62.9673C17.5463 62.918 17.6515 62.8934 17.7578 62.8959C17.8641 62.8984 17.968 62.9279 18.0597 62.9816C18.1515 63.0353 18.2281 63.1115 18.2823 63.203L25.3373 75.1209C25.4834 75.3613 25.5602 75.6374 25.5593 75.9186C25.5585 76.1999 25.4799 76.4755 25.3323 76.7149M61.6323 78.4079C61.5198 74.9871 60.0891 71.7422 57.6393 69.3519C55.8547 67.6029 53.6152 66.3895 51.1753 65.8498C48.7355 65.3101 46.1932 65.4657 43.8373 66.2989L39.2043 54.8859L38.5533 53.2859C38.3482 52.7823 37.9973 52.3515 37.5456 52.0486C37.094 51.7457 36.5622 51.5846 36.0183 51.5859H32.4613C31.6637 51.5899 30.8984 51.9012 30.3243 52.4549C29.7521 53.0071 29.4171 53.7602 29.3903 54.5549C29.3873 54.6274 29.399 54.6998 29.4246 54.7676C29.4502 54.8355 29.4892 54.8975 29.5393 54.9499C29.5896 55.0026 29.65 55.0446 29.7168 55.0734C29.7836 55.1023 29.8556 55.1174 29.9283 55.1179C30.0647 55.118 30.1956 55.0641 30.2923 54.9679C30.3402 54.9206 30.3781 54.8642 30.404 54.802C30.43 54.7399 30.4433 54.6733 30.4433 54.606C30.4549 54.0777 30.6732 53.575 31.0513 53.2059C31.4312 52.8351 31.9405 52.6268 32.4713 52.6249H36.0253C36.3619 52.624 36.6911 52.7235 36.9708 52.9107C37.2505 53.098 37.468 53.3644 37.5953 53.6759L38.0863 54.8929L39.0773 57.3329L39.9523 59.4969C40.0308 59.7208 40.0385 59.9634 39.9745 60.1918C39.9104 60.4202 39.7777 60.6235 39.5943 60.7739C39.4724 60.8747 39.3312 60.9495 39.1793 60.994C35.7023 62.038 34.2203 66.1349 32.8923 69.8079C32.6343 70.5369 32.3773 71.2629 32.0793 71.9849C31.8585 72.6334 31.5804 73.2608 31.2483 73.8599C30.8435 74.3333 30.3355 74.7076 29.7635 74.9541C29.1914 75.2006 28.5705 75.3128 27.9483 75.2819H27.6913C27.4128 75.3095 27.132 75.2585 26.8809 75.1348C26.6298 75.0111 26.4183 74.8196 26.2703 74.5819L16.6513 58.3589C16.5869 58.2425 16.5548 58.111 16.5583 57.9779C16.5608 57.9155 16.5712 57.8537 16.5893 57.7939C16.5973 57.7635 16.6077 57.7338 16.6203 57.7049C16.6776 57.5717 16.7725 57.4581 16.8933 57.3779C17.0147 57.2974 17.1567 57.2537 17.3023 57.2519C18.1543 57.2519 19.0023 57.1929 19.8533 57.2239C20.083 57.2579 20.3174 57.2409 20.5398 57.1742C20.7622 57.1075 20.9672 56.9927 21.1403 56.8379C21.2227 56.7529 21.2823 56.6485 21.3138 56.5344C21.3452 56.4203 21.3475 56.3002 21.3203 56.1849C21.1863 55.6849 20.6043 55.6169 20.1283 55.6119L16.3703 55.5549L11.4083 55.4829C11.0815 55.4397 10.7501 55.5172 10.4763 55.7009C10.0763 56.0559 10.2193 56.7599 10.2393 57.2009C10.2523 57.4835 10.3411 57.7575 10.4963 57.994C10.9753 58.715 11.7293 58.4769 12.3523 58.2339C12.9753 57.9909 14.6123 56.9339 15.0883 57.6789L16.8493 60.7129C16.9528 60.8927 17.0043 61.0977 16.9979 61.305C16.9916 61.5124 16.9277 61.7139 16.8133 61.8869L13.1583 67.4169C10.8143 66.0109 8.09521 65.3581 5.36834 65.5469C3.49905 65.6741 1.67831 66.1981 0.0273438 67.0839V90.466C1.93955 91.4663 4.06427 91.9923 6.22234 91.9994C8.38041 92.0065 10.5086 91.4947 12.4273 90.5069C14.3249 89.526 15.9578 88.1017 17.1873 86.3549C17.485 85.9347 17.6926 85.4574 17.7972 84.9532C17.9019 84.4489 17.9013 83.9285 17.7955 83.4245C17.6897 82.9205 17.481 82.4438 17.1824 82.0241C16.8838 81.6045 16.5018 81.2511 16.0603 80.9859C15.4682 80.6288 14.7898 80.4404 14.0983 80.4409H9.25134C9.08732 80.8496 8.79784 81.1956 8.42459 81.4292C8.05134 81.6629 7.61358 81.772 7.17434 81.7409C6.81892 81.758 6.46382 81.7012 6.1314 81.5743C5.79898 81.4474 5.49643 81.253 5.24281 81.0034C4.98919 80.7538 4.78998 80.4544 4.65772 80.1241C4.52547 79.7937 4.46303 79.4396 4.47434 79.0839V79.0149C4.47308 79.0379 4.47308 79.061 4.47434 79.0839C4.4797 79.144 4.49281 79.2032 4.51334 79.2599C4.5759 79.4729 4.67764 79.6723 4.81334 79.8479C4.86976 79.9248 4.93266 79.9968 5.00134 80.063L5.02734 80.0829C5.09198 80.1416 5.16083 80.1954 5.23334 80.2439C5.34498 80.3183 5.46393 80.3809 5.58834 80.4309C5.80125 80.5155 6.02826 80.5589 6.25734 80.5589C6.35209 80.5577 6.44664 80.55 6.54034 80.5359L6.62834 80.5179C6.69124 80.5115 6.75287 80.496 6.81134 80.4719L6.91134 80.4359L7.06834 80.3689L7.16134 80.3199C7.21334 80.2919 7.26134 80.2589 7.30534 80.2279L7.38534 80.1719C7.43734 80.1309 7.48534 80.0879 7.53234 80.0439L7.58634 79.9929C7.64767 79.9304 7.70448 79.8636 7.75634 79.7929C7.76599 79.7782 7.77467 79.7628 7.78234 79.7469C7.81627 79.6985 7.84732 79.648 7.87534 79.5959C7.92385 79.5004 7.99705 79.4196 8.08734 79.3619C8.17737 79.3049 8.28083 79.2724 8.38734 79.2679H24.0873C24.3493 79.271 24.6064 79.3384 24.8362 79.4641C25.066 79.5898 25.2615 79.7701 25.4053 79.9889C25.743 80.4835 26.2182 80.8682 26.7722 81.0955C27.3262 81.3228 27.9346 81.3828 28.5223 81.2679C29.1336 81.1569 29.6956 80.8597 30.1313 80.4169C30.5657 79.9757 30.8519 79.4102 30.9503 78.7989C31.0407 78.2753 30.9911 77.7372 30.8063 77.2389C30.7966 77.2107 30.7845 77.1833 30.7703 77.1569C30.686 76.9982 30.6538 76.817 30.6782 76.639C30.7026 76.4609 30.7824 76.2951 30.9063 76.1649C32.2163 74.8189 33.0473 72.5229 33.9063 70.1389C35.2373 66.4549 36.6063 62.6619 39.7903 61.9199C40.0792 61.8574 40.3808 61.8959 40.6446 62.0292C40.9083 62.1624 41.1183 62.3823 41.2393 62.6519C41.3393 62.9079 41.4323 63.1279 41.4963 63.2609L42.8603 66.6269L42.8753 66.6629L46.9933 76.8379C47.0455 76.9736 47.0614 77.1205 47.0393 77.2642C47.0172 77.4079 46.9579 77.5432 46.8673 77.6569L46.8463 77.688C46.8073 77.742 46.7743 77.7949 46.7403 77.8519C46.7403 77.8669 46.7223 77.8829 46.7143 77.9009C46.6754 77.9716 46.642 78.0452 46.6143 78.1209L46.5993 78.1719C46.5786 78.235 46.5612 78.2991 46.5473 78.3639L46.5323 78.4329C46.5175 78.5176 46.5082 78.6031 46.5043 78.6889C46.5021 78.8116 46.5115 78.9341 46.5323 79.0549C46.5528 79.1726 46.5863 79.2877 46.6323 79.3979C46.6652 79.4809 46.704 79.5615 46.7483 79.6389C46.8351 79.7854 46.9407 79.9199 47.0623 80.0389L47.0773 80.0569C47.1413 80.1159 47.2113 80.1719 47.2833 80.2259C47.502 80.3817 47.7523 80.4875 48.0163 80.5359C48.0734 80.5334 48.1306 80.5384 48.1863 80.5509C48.2212 80.5589 48.2575 80.5589 48.2923 80.5509C48.5753 80.5566 48.8557 80.4963 49.1113 80.3749C49.1934 80.3351 49.2726 80.2897 49.3483 80.2389C49.392 80.2106 49.434 80.1799 49.4743 80.1469C49.5672 80.0692 49.6532 79.9835 49.7313 79.8909L49.7623 79.9169C49.7623 79.9169 48.2003 81.8889 46.3083 80.7169C44.1673 79.3919 45.9013 76.8949 45.9013 76.8949L43.8273 71.8379C43.5793 71.2325 43.1739 70.7043 42.6531 70.3082C42.1323 69.912 41.5151 69.6623 40.8653 69.5849C40.215 69.5061 39.5555 69.6022 38.9547 69.8632C38.3538 70.1243 37.8335 70.5408 37.4473 71.0699C35.6386 73.597 34.7842 76.6835 35.0362 79.781C35.2881 82.8785 36.63 85.7864 38.8233 87.9879C41.3066 90.5085 44.6889 91.9401 48.2271 91.9685C51.7653 91.9968 55.17 90.6194 57.6933 88.1389C58.9817 86.8731 59.9965 85.3564 60.6751 83.6826C61.3536 82.0088 61.6815 80.2135 61.6383 78.4079" fill="#292918"/>
<path d="M139.723 0H135.672V91.797H139.723V0Z" fill="#CEB086"/>
<path d="M190.833 91.5965L188.341 87.7415C188.245 87.5934 188.114 87.4716 187.959 87.3872C187.804 87.3029 187.63 87.2586 187.454 87.2585H186.954C186.784 87.2585 186.619 87.2041 186.482 87.1034C186.346 87.0026 186.246 86.8607 186.196 86.6985L186.037 86.1805C185.982 86.0022 185.878 85.843 185.737 85.7215C184.819 84.9305 180.77 82.0945 168.937 81.0215C164.737 80.603 160.495 80.9417 156.415 82.0215C156.365 82.0394 156.309 82.0367 156.261 82.0139C156.213 81.9911 156.176 81.9502 156.158 81.9C156.14 81.8499 156.143 81.7947 156.166 81.7466C156.189 81.6985 156.23 81.6614 156.28 81.6435C171.401 74.5995 181.716 76.7165 184.72 77.6115C184.798 77.6345 184.881 77.6346 184.958 77.6118C185.036 77.5891 185.106 77.5444 185.16 77.483C185.213 77.4217 185.248 77.3464 185.259 77.266C185.271 77.1856 185.259 77.1035 185.226 77.0295L183.161 72.4295C183.108 72.313 183.024 72.2134 182.918 72.1419C182.812 72.0704 182.689 72.0297 182.561 72.0245C181.699 71.9979 180.836 71.9902 179.974 72.0015C178.974 72.0149 177.974 72.0552 176.974 72.1225C176.02 72.1892 175.068 72.2795 174.12 72.3935C173.214 72.5049 172.311 72.6405 171.412 72.8005C170.552 72.9539 169.697 73.1299 168.847 73.3285C168.034 73.5192 167.227 73.7315 166.425 73.9655C165.658 74.1889 164.898 74.4322 164.144 74.6955C163.422 74.9475 162.708 75.2179 162.001 75.5065C161.325 75.7819 160.659 76.0739 160.001 76.3825C159.37 76.6765 158.747 76.9859 158.132 77.3105C157.546 77.6192 156.967 77.9412 156.397 78.2765C155.855 78.5945 155.322 78.9245 154.797 79.2665C154.299 79.5892 153.809 79.9225 153.327 80.2665C152.873 80.5892 152.427 80.9209 151.987 81.2615C151.577 81.5795 151.173 81.9052 150.775 82.2385C150.246 82.7386 149.678 83.1945 149.075 83.6015C148.9 83.6765 148.557 83.6015 148.582 83.4105C149.05 82.6263 149.586 81.8839 150.182 81.1915C150.806 80.4215 151.448 79.6659 152.108 78.9245C152.738 78.2172 153.383 77.5242 154.044 76.8455C154.674 76.1982 155.319 75.5649 155.979 74.9455C156.607 74.3569 157.247 73.7819 157.901 73.2205C158.522 72.6872 159.155 72.1672 159.801 71.6605C160.411 71.1799 161.032 70.7132 161.664 70.2605C162.264 69.8305 162.87 69.4125 163.482 69.0065C164.061 68.6239 164.648 68.2529 165.242 67.8935C165.799 67.5562 166.363 67.2295 166.934 66.9135C167.467 66.6189 168.005 66.3339 168.547 66.0585C169.05 65.8039 169.558 65.5582 170.07 65.3215C170.54 65.1042 171.013 64.8949 171.491 64.6935C171.924 64.5109 172.36 64.3352 172.8 64.1665C173.193 64.0159 173.588 63.8715 173.985 63.7335C174.333 63.6122 174.684 63.4962 175.036 63.3855C175.336 63.2909 175.638 63.2009 175.941 63.1155C176.189 63.0449 176.438 62.9782 176.689 62.9155C176.881 62.8669 177.073 62.8205 177.266 62.7765C177.323 62.7637 177.375 62.735 177.417 62.6937C177.458 62.6525 177.487 62.6004 177.5 62.5434C177.513 62.4864 177.51 62.4269 177.49 62.3717C177.471 62.3165 177.436 62.2679 177.391 62.2315L175.523 60.7465C175.427 60.6702 175.315 60.6176 175.195 60.593C175.075 60.5683 174.951 60.5722 174.833 60.6045C174.346 60.7379 173.863 60.8825 173.382 61.0385C172.645 61.2759 171.915 61.5359 171.194 61.8185C170.488 62.0952 169.79 62.3932 169.102 62.7125C168.426 63.0252 167.76 63.3585 167.102 63.7125C166.457 64.0572 165.824 64.4192 165.202 64.7985C164.588 65.1712 163.985 65.5595 163.392 65.9635C162.808 66.3602 162.235 66.7709 161.673 67.1955C161.12 67.6122 160.578 68.0412 160.046 68.4825C159.514 68.9239 159.001 69.3675 158.509 69.8135C158.017 70.2575 157.535 70.7115 157.062 71.1755C156.6 71.6282 156.148 72.0892 155.705 72.5585C155.273 73.0145 154.849 73.4785 154.435 73.9505C154.035 74.4065 153.64 74.8695 153.252 75.3395C152.88 75.7915 152.513 76.2495 152.152 76.7135C151.703 77.3273 151.212 77.9096 150.684 78.4565C150.574 78.5806 150.432 78.6716 150.274 78.7195C150.226 78.7271 150.177 78.7251 150.13 78.7134C150.083 78.7017 150.039 78.6807 150 78.6516C149.961 78.6225 149.929 78.5858 149.905 78.5439C149.88 78.502 149.865 78.4556 149.859 78.4075C149.919 78.148 150.034 77.9043 150.196 77.6925C150.385 77.3925 150.575 77.1025 150.769 76.8105C151.081 76.3439 151.401 75.8809 151.73 75.4215C152.073 74.9435 152.425 74.4719 152.786 74.0065C153.161 73.5225 153.546 73.0455 153.941 72.5755C154.35 72.0882 154.769 71.6095 155.198 71.1395C155.642 70.6529 156.096 70.1755 156.56 69.7075C157.04 69.2242 157.53 68.7519 158.032 68.2905C158.549 67.8139 159.077 67.3495 159.616 66.8975C160.172 66.4309 160.738 65.9782 161.316 65.5395C161.912 65.0869 162.518 64.6492 163.136 64.2265C163.772 63.7905 164.42 63.3712 165.078 62.9685C165.757 62.5532 166.447 62.1555 167.147 61.7755C167.869 61.3835 168.603 61.0109 169.347 60.6575C170.115 60.2925 171.941 59.5575 172.728 59.2335C172.772 59.216 172.81 59.1858 172.837 59.1467C172.864 59.1076 172.879 59.0613 172.88 59.0137C172.881 58.9661 172.868 58.9193 172.842 58.8792C172.816 58.8392 172.779 58.8076 172.736 58.7885L170.631 57.8555C170.555 57.822 170.474 57.8053 170.391 57.8067C170.309 57.8081 170.228 57.8275 170.154 57.8635C167.936 58.9325 149.918 68.0265 145.741 86.0895C145.734 86.1168 145.718 86.1408 145.695 86.1567C145.672 86.1726 145.644 86.1793 145.616 86.1754C145.588 86.1715 145.563 86.1573 145.545 86.1357C145.527 86.1141 145.518 86.0865 145.52 86.0585C145.859 78.6305 142.725 74.1715 139.344 71.5355V82.9965C140.273 83.7515 141.136 84.4565 141.903 85.0845C141.929 85.105 141.946 85.1342 141.952 85.1667C141.957 85.1992 141.951 85.2327 141.933 85.2607C141.916 85.2887 141.889 85.3092 141.857 85.3184C141.825 85.3276 141.791 85.3248 141.762 85.3105C140.974 84.9466 140.166 84.6255 139.344 84.3485V90.1275L141.409 89.9905C141.983 89.9628 142.534 89.7596 142.989 89.4085C143.638 89.0149 144.402 88.8538 145.155 88.9515C145.83 88.9166 146.504 89.0436 147.12 89.3219C147.737 89.6002 148.277 90.0218 148.698 90.5515C148.86 90.7726 149.07 90.954 149.313 91.0822C149.555 91.2103 149.824 91.2819 150.098 91.2915L190.228 92.6995C190.358 92.7043 190.486 92.6733 190.599 92.61C190.713 92.5467 190.807 92.4536 190.871 92.3407C190.935 92.2278 190.967 92.0994 190.963 91.9697C190.959 91.8399 190.92 91.7136 190.85 91.6045M172.188 86.6665C166.82 86.5792 161.453 86.4509 156.088 86.2815C155.729 86.2705 155.694 85.8635 156.049 85.8225C161.442 85.2041 166.894 85.3128 172.259 86.1455C172.665 86.2065 172.602 86.6735 172.188 86.6665Z" fill="#CEB086"/>
</g>
<defs>
<clipPath id="clip0_1537_2">
<rect width="320" height="92.692" fill="white"/>
</clipPath>
</defs>
</svg>
