<svg width="76" height="160" viewBox="0 0 76 160" fill="none" xmlns="http://www.w3.org/2000/svg">
<g clip-path="url(#clip0_1514_17)">
<mask id="mask0_1514_17" style="mask-type:luminance" maskUnits="userSpaceOnUse" x="0" y="0" width="76" height="160">
<path d="M0 0H76V160H0V0Z" fill="white"/>
</mask>
<g mask="url(#mask0_1514_17)">
<path d="M10.457 120.718H7.905C7.7176 120.717 7.53194 120.754 7.3586 120.825C7.18527 120.896 7.02766 121.001 6.89478 121.133C6.7619 121.265 6.65635 121.422 6.58415 121.595C6.51195 121.768 6.47452 121.954 6.474 122.141V124.679C6.47452 124.866 6.51195 125.052 6.58415 125.225C6.65635 125.398 6.7619 125.555 6.89478 125.687C7.02766 125.819 7.18527 125.924 7.3586 125.995C7.53194 126.066 7.7176 126.103 7.905 126.102H10.458C10.6454 126.103 10.8311 126.066 11.0044 125.995C11.1777 125.924 11.3353 125.819 11.4682 125.687C11.6011 125.555 11.7066 125.398 11.7788 125.225C11.851 125.052 11.8885 124.866 11.889 124.679V122.141C11.8885 121.954 11.851 121.768 11.7788 121.595C11.7066 121.422 11.6011 121.265 11.4682 121.133C11.3353 121.001 11.1777 120.896 11.0044 120.825C10.8311 120.754 10.6454 120.717 10.458 120.718" fill="#CEB086"/>
<path d="M17.629 120.718H22.729C23.4427 120.718 24.1272 121.002 24.6318 121.506C25.1365 122.011 25.42 122.695 25.42 123.409C25.4201 123.763 25.3506 124.113 25.2155 124.439C25.0803 124.766 24.8821 125.063 24.6323 125.313C24.3824 125.563 24.0857 125.761 23.7591 125.897C23.4326 126.032 23.0825 126.102 22.729 126.102H17.629C17.2755 126.102 16.9253 126.033 16.5987 125.897C16.272 125.762 15.9752 125.564 15.7252 125.314C15.4752 125.064 15.2769 124.767 15.1417 124.44C15.0064 124.114 14.9369 123.764 14.937 123.41C14.937 122.696 15.2206 122.011 15.7255 121.506C16.2303 121.002 16.915 120.718 17.629 120.718Z" fill="#CEB086"/>
<path d="M67.568 119.838H47.328C46.9627 119.837 46.6121 119.981 46.3531 120.239C46.0941 120.497 45.9481 120.847 45.947 121.212V125.605C45.9481 125.97 46.0941 126.32 46.3531 126.578C46.6121 126.836 46.9627 126.98 47.328 126.979H67.568C67.7489 126.98 67.9282 126.944 68.0955 126.876C68.2628 126.807 68.415 126.706 68.5432 126.578C68.6715 126.451 68.7733 126.299 68.843 126.132C68.9126 125.965 68.9486 125.786 68.949 125.605V121.212C68.9486 121.031 68.9126 120.852 68.843 120.685C68.7733 120.518 68.6715 120.366 68.5432 120.239C68.415 120.111 68.2628 120.01 68.0955 119.941C67.9282 119.873 67.7489 119.837 67.568 119.838Z" fill="#CEB086"/>
<path d="M37.851 127.546C33.8849 127.543 30.0788 129.11 27.264 131.904C25.5276 133.634 24.2461 135.767 23.5337 138.113C22.8213 140.459 22.7001 142.944 23.1809 145.348C23.6617 147.752 24.7296 149.999 26.2894 151.89C27.8492 153.782 29.8526 155.258 32.121 156.187C34.857 157.313 37.8644 157.608 40.7669 157.033C43.6694 156.459 46.3381 155.041 48.439 152.958C49.8289 151.58 50.9321 149.94 51.6849 148.133C52.4378 146.327 52.8254 144.389 52.8254 142.432C52.8254 140.474 52.4378 138.536 51.6849 136.73C50.9321 134.923 49.8289 133.283 48.439 131.905C45.6244 129.111 41.8188 127.544 37.853 127.546M41.472 147.413C40.2809 148.274 38.8227 148.684 37.3574 148.57C35.8922 148.455 34.5151 147.824 33.472 146.789C32.8969 146.219 32.4403 145.54 32.1285 144.793C31.8167 144.046 31.6557 143.244 31.655 142.434V142.319C31.6484 142.228 31.6484 142.138 31.655 142.047C31.7294 140.856 32.1523 139.714 32.871 138.762C32.7821 138.99 32.709 139.224 32.652 139.462C32.6363 139.538 32.6411 139.617 32.666 139.691C32.6909 139.765 32.7347 139.831 32.793 139.883C32.8517 139.934 32.9228 139.968 32.999 139.983C33.0755 139.999 33.1547 139.994 33.229 139.97C33.5813 139.826 33.962 139.763 34.342 139.788C34.9405 139.828 35.5063 140.076 35.942 140.488C36.3768 140.899 36.6536 141.449 36.724 142.043C36.7857 142.6 36.6607 143.162 36.3686 143.641C36.0765 144.12 35.6338 144.488 35.11 144.688L34.989 144.723C34.8891 144.748 34.798 144.8 34.7259 144.873C34.6538 144.947 34.6037 145.039 34.581 145.139C34.5588 145.239 34.5652 145.344 34.5995 145.441C34.6338 145.538 34.6946 145.623 34.775 145.687C35.4389 146.213 36.2036 146.597 37.0219 146.816C37.8402 147.034 38.6947 147.083 39.5324 146.958C40.3702 146.833 41.1734 146.537 41.8923 146.089C42.6112 145.642 43.2305 145.051 43.712 144.354C43.3051 145.585 42.5206 146.656 41.47 147.416" fill="#CEB086"/>
<path d="M75.538 117.548C75.2399 117.043 74.8148 116.625 74.305 116.335C73.9088 116.092 73.5832 115.75 73.3604 115.342C73.1376 114.934 73.0254 114.475 73.035 114.01C73.0338 113.947 73.0201 113.885 72.9947 113.827C72.9693 113.769 72.9327 113.717 72.887 113.673C72.841 113.63 72.787 113.596 72.728 113.573C72.6688 113.55 72.6056 113.539 72.542 113.54H61.854C61.682 113.539 61.5166 113.607 61.3942 113.728C61.2718 113.848 61.2023 114.013 61.201 114.185V115.221C61.2007 115.393 61.1324 115.558 61.011 115.679C60.8895 115.801 60.7249 115.869 60.553 115.87H45.527C45.2425 115.871 44.9617 115.807 44.7055 115.683C44.4493 115.559 44.2245 115.379 44.048 115.156C43.8716 114.934 43.7483 114.674 43.6876 114.397C43.627 114.119 43.6305 113.832 43.698 113.556L43.948 112.515C44.1781 111.584 44.6825 110.744 45.3957 110.104C46.1089 109.464 46.9981 109.052 47.948 108.923L49.737 108.683C50.3273 108.602 50.8688 108.312 51.262 107.864C51.6537 107.418 51.8697 106.844 51.87 106.25V84.512C51.872 83.8556 51.6213 83.2236 51.17 82.747C50.7155 82.269 50.0956 81.9828 49.437 81.947L41.837 81.525C39.8118 81.4159 37.7822 81.4159 35.757 81.525L27.857 81.969C27.1983 82.0053 26.5781 82.2914 26.123 82.769C25.6693 83.2451 25.4162 83.8774 25.416 84.535V106.252C25.417 106.846 25.6334 107.419 26.025 107.865C26.418 108.313 26.959 108.604 27.549 108.685L29.337 108.925C30.2912 109.05 31.1856 109.459 31.9035 110.1C32.6214 110.741 33.1293 111.583 33.361 112.517L33.611 113.558C33.6785 113.834 33.6822 114.121 33.6217 114.398C33.5612 114.676 33.4382 114.936 33.262 115.158C33.0858 115.381 32.8615 115.561 32.6059 115.685C32.3503 115.809 32.0701 115.874 31.786 115.874H26.414C26.3055 115.874 26.1982 115.853 26.098 115.811C25.9981 115.77 25.9073 115.709 25.831 115.633C25.7549 115.556 25.6944 115.466 25.653 115.366C25.612 115.266 25.5913 115.159 25.592 115.051V113.273C25.5916 113.125 25.5473 112.98 25.4647 112.858C25.3821 112.735 25.2649 112.639 25.128 112.583C25.037 112.545 24.9395 112.526 24.841 112.526H22.573C22.3719 112.523 22.1801 112.44 22.039 112.297C21.8984 112.154 21.82 111.961 21.821 111.761C21.8174 111.565 21.7366 111.378 21.596 111.241C21.4553 111.104 21.2665 111.027 21.07 111.027H18.747C18.5462 111.029 18.3544 111.11 18.213 111.253C18.0725 111.395 17.9941 111.587 17.995 111.787C17.9915 111.984 17.9103 112.172 17.769 112.31C17.6273 112.448 17.4371 112.526 17.239 112.526H7.1V0H0V160H72.624C73.5183 160.001 74.3765 159.647 75.011 159.017C75.3242 158.706 75.5728 158.337 75.7425 157.929C75.9122 157.522 75.9997 157.085 76 156.644V119.211C75.9943 118.626 75.835 118.052 75.538 117.548ZM28.94 94.422C28.5277 94.4221 28.1322 94.2588 27.84 93.968C27.6955 93.8248 27.5809 93.6544 27.5026 93.4666C27.4244 93.2788 27.384 93.0774 27.384 92.874V85.557C27.3841 85.3536 27.4244 85.1522 27.5027 84.9644C27.581 84.7767 27.6956 84.6063 27.84 84.463C28.1323 84.1724 28.5278 84.0096 28.94 84.01H48.64C49.0521 84.0097 49.4476 84.1725 49.74 84.463C49.8844 84.6063 49.999 84.7767 50.0772 84.9645C50.1555 85.1522 50.1959 85.3536 50.196 85.557V92.875C50.1959 93.0784 50.1556 93.2798 50.0773 93.4676C49.999 93.6553 49.8844 93.8257 49.74 93.969C49.4477 94.2597 49.0523 94.423 48.64 94.423L28.94 94.422ZM74.019 127.177C74.0182 127.608 73.8895 128.028 73.6491 128.385C73.4087 128.743 73.0676 129.02 72.669 129.183C72.4038 129.292 72.1197 129.348 71.833 129.347H52.711C52.3319 129.347 51.9602 129.451 51.6371 129.65C51.3141 129.848 51.0523 130.132 50.881 130.47C50.7103 130.807 50.6375 131.186 50.6709 131.563C50.7043 131.939 50.8426 132.299 51.07 132.601C53.477 135.806 54.6242 139.782 54.2939 143.776C53.9635 147.77 52.1787 151.504 49.278 154.27C46.9831 156.467 44.104 157.956 40.985 158.559C37.8661 159.162 34.6393 158.855 31.6908 157.672C28.7422 156.49 26.1966 154.483 24.3585 151.892C22.5204 149.301 21.4676 146.236 21.326 143.062C21.1774 139.296 22.3386 135.594 24.612 132.588C24.8344 132.284 24.9682 131.924 24.9984 131.548C25.0286 131.173 24.9541 130.796 24.7831 130.46C24.6122 130.125 24.3515 129.843 24.03 129.646C23.7085 129.45 23.3388 129.346 22.962 129.347H5.455C5.16831 129.347 4.88432 129.292 4.619 129.183C4.35465 129.075 4.11428 128.915 3.91164 128.714C3.70899 128.512 3.54804 128.273 3.438 128.009C3.3282 127.746 3.2721 127.463 3.273 127.178V119.865C3.27294 119.55 3.3352 119.238 3.45619 118.947C3.57719 118.656 3.75453 118.392 3.978 118.17C4.43022 117.722 5.04121 117.47 5.678 117.47H71.69C72.3112 117.468 72.9078 117.713 73.3488 118.15C73.7898 118.588 74.0391 119.183 74.042 119.804L74.019 127.177Z" fill="#CEB086"/>
</g>
</g>
<defs>
<clipPath id="clip0_1514_17">
<rect width="76" height="160" fill="white"/>
</clipPath>
</defs>
</svg>
