<svg data-name="Сгруппировать 268" xmlns="http://www.w3.org/2000/svg" width="127.067" height="137.036" viewBox="0 0 127.067 137.036">
    <defs>
        <clipPath id="1el04thk0a">
            <path data-name="Прямоугольник 397" style="fill:none" d="M0 0h127.067v137.036H0z"/>
        </clipPath>
    </defs>
    <g data-name="Сгруппировать 267" style="clip-path:url(#1el04thk0a)">
        <path data-name="Контур 766" d="M140.156 133.563h-11.611c-.036-.746-.094-1.485-.107-2.224a856.282 856.282 0 0 1-.114-8.327c0-.566-.033-.975-.776-.971-4.794.023-9.59.022-14.384.032a3.6 3.6 0 0 0-.512.109v11.369h-11.885v-4.368l-.012-69.114c0-10.6-.126-21.2 0-31.8.065-5.282.244-10.62 2.084-15.671 1.6-4.4 4.057-8.265 8.385-10.457a18.553 18.553 0 0 1 5.7-1.881c5.737-.8 11.155.126 15.749 3.972 2.829 2.369 4.35 5.6 5.595 8.977a35.3 35.3 0 0 1 1.968 12.316q.038 47.541.017 95.082c0 3.93-.021 7.86-.036 11.79 0 .353-.036.7-.061 1.163m-11.712-25.16V42.262c0-6.09-.077-12.18-.143-18.271a11.981 11.981 0 0 0-1.512-6.011 7.007 7.007 0 0 0-6.394-3.753c-2.993.055-5.413 1.458-6.4 4.434a20.155 20.155 0 0 0-1.212 5.981c-.128 10.272-.074 20.547-.083 30.82q-.02 26.009-.053 52.016c0 .8.222 1.048 1.039 1.039 4.542-.048 9.084-.039 13.626-.053.283 0 .567-.031 1.142-.064" transform="translate(-13.187)" style="fill:#161615"/>
        <path data-name="Контур 767" d="M39.393 68.558v41.221a42.994 42.994 0 0 1-2.177 15c-3.341 9.094-10.634 12.755-18.914 12.207-10.283-.677-14.748-7.486-16.773-14.313C.108 117.881 0 112.945 0 108q.016-19.909.015-39.816c0-11.5-.03-23.005-.005-34.508.01-4.182-.071-8.38.26-12.542C.7 15.769 1.975 10.58 5.488 6.275 8.947 2.038 13.554.2 18.962.042c8.985-.269 15.81 4.651 18.559 13.213 1.619 5.038 1.838 10.189 1.852 15.38.035 13.308.011 26.615.011 39.923zm-11.933-.2h.024V24.774a14.726 14.726 0 0 0-1.258-6.2 7.309 7.309 0 0 0-8.066-4.2 7.179 7.179 0 0 0-5.769 6.616 93.451 93.451 0 0 0-.556 10.66q-.078 39.259-.048 78.519a21.74 21.74 0 0 0 1.2 7.862 7.351 7.351 0 0 0 7.053 4.735 6.816 6.816 0 0 0 6.475-4.99 20.144 20.144 0 0 0 .909-5.51c.072-14.636.04-29.273.04-43.909" transform="translate(0 -.004)" style="fill:#161615"/>
        <path data-name="Контур 768" d="M76.114 134.081H60.948c.509-.889.95-1.7 1.428-2.485a63.742 63.742 0 0 0 7.7-20.853c1.937-9.6.411-18.725-3.082-27.721-2.344-6.034-4.568-12.13-6.479-18.312a69.138 69.138 0 0 1-2.576-27.16A84.356 84.356 0 0 1 67 7.541a22.588 22.588 0 0 1 1.4-2.674 2.128 2.128 0 0 1 1.381-.946c4.615-.05 9.23 0 13.845.023.095 0 .189.087.378.18-.512.634-1.016 1.228-1.486 1.848a63.966 63.966 0 0 0-10.383 20.863 70.455 70.455 0 0 0-2.25 26.765c.488 5.192 2.3 10.077 4.167 14.934 2.229 5.81 4.572 11.6 6.346 17.553a58.068 58.068 0 0 1 1.868 24.295 102.537 102.537 0 0 1-5.644 22.139c-.185.5-.333 1.021-.507 1.557" transform="translate(-7.542 -.511)" style="fill:#161615"/>
    </g>
</svg>
