<svg width="42" height="63" viewBox="0 0 42 63" fill="none" xmlns="http://www.w3.org/2000/svg">
<g clip-path="url(#clip0_1533_7)">
<path d="M23 0H19C8.50659 0 0 8.50659 0 19V34C0 44.4934 8.50659 53 19 53H23C33.4934 53 42 44.4934 42 34V19C42 8.50659 33.4934 0 23 0Z" fill="#272817"/>
<path d="M12.875 31.5199H19.094H22.594L23.694 37.5999H17.361L18.184 33.2669L16.935 32.7969L15.9 37.5969H12.875V31.5199ZM20.604 20.5199L22.426 30.5969H18.69L20.604 20.5199ZM12.875 15.3969H19.68L20.145 17.9689L17.411 30.5969H12.875V15.3969ZM22.085 15.3969H29.124V37.5969H26.1L22.085 15.3969ZM12 38.5029H30V14.4969H12V38.5029Z" fill="#F7F3E8"/>
<path d="M21.5 63L14 50H29L21.5 63Z" fill="#272817"/>
</g>
<defs>
<clipPath id="clip0_1533_7">
<rect width="42" height="63" fill="white"/>
</clipPath>
</defs>
</svg>
