<svg version="1.1" xmlns="http://www.w3.org/2000/svg" xmlns:xlink="http://www.w3.org/1999/xlink">

    <symbol viewBox="0 0 1700 378" id="title">
        <path d="M363.952 0h-20.635L278.71 150.731l59.9 164.089h34.255l-66.842-184.431zM56.482 0l7.812 41.205-39.1 172.047H2.9L0 225.807h22.344L2.114 314.82h21.134l17.736-89.013h58.307l16.878 89.016h34.4L90.876 0zm-13 213.252 27.378-137.4 26.05 137.4zm193.36 101.568H271.1V0h-34.258zM909 1.874v211.5h-21.093v12.313H909v89.133h86.979v-12.31H943.25v-76.823h45.07v-12.313h-45.07V12.318h52.725V.005H909zM1665.751.005V0h-4.417c-51.192 0-80.534 46.585-80.534 108.827 0 47.282 13.942 88.281 43.925 104.055l-54.6 101.939h34.4l53.042-99.453c-33.061-7.442-45.14-57.869-45.14-106.541 0-52.3 13.875-96.509 48.9-96.509h4.411v302.5H1700V.005zm-214.059.137-77.213 268.731V.005h-34.255V314.82h34.255v-.608l.209.061 77-267.986V314.82h34.255V.005h-34.255zM1231.084.005h-4.91l-55.764 228.606L1120.8.595h-40.277v314.82h12.764V36.886l59.072 277.935h12.547l2.5-11.866L1231.084 37.7v277.12h34.255V.005h-34.255zm-436.9 12.313V.005H672.657v12.313h24.373v90.168s-2.595 68.094-9.738 119.823-21.119 80.2-21.119 80.2h-25.624V378h39.58v-63.18h101.239V378h29.585v-75.493h-16.767zm-34.253 290.189h-71.582s7.882-18.13 16.085-60.162c8.14-41.727 10.774-117.6 10.774-117.6V12.318h44.724zM496.8 0l7.815 41.205-39.1 172.047h-22.299l-2.9 12.555h22.341l-20.23 89.013h21.134l17.739-89.013h58.309l16.875 89.016h34.4L531.19 0zm-13 213.252 27.378-137.4 26.049 137.4z" />
    </symbol>

    <symbol viewBox="0 0 36 46.005" id="logo">
        <path d="M1.751 32.623h19.434l2.2 11.652H10.722l1.645-8.3-2.5-.9-2.077 9.199H1.751zm15.458-21.09 3.643 19.322H13.38zm-15.458-9.8h13.61l.93 4.928-5.469 24.195H1.75zm18.42 0h14.078v42.541h-6.057zM0 46.006h36V0H0z" />
    </symbol>

    <symbol viewBox="0 0 16 8" id="btn-arrow">
        <path transform="translate(0 2.11)" stroke-miterlimit="10" d="M0 0h12.47" />
        <path d="M10.517.177 12.47 2.13l-1.953 1.953" stroke-miterlimit="10" />
    </symbol>

    <symbol viewBox="0 0 40 60" id="icon-harp">
        <path d="M39.069 21.5a2.75 2.75 0 0 0-1.18-1.663 2.8 2.8 0 0 0-2.011-.405 43.426 43.426 0 0 0-5.5 1.189c-5.45 1.445-8.129.4-10.99-4.405-2.445-4.1-4.957-8.184-7.762-12.051A12.975 12.975 0 0 0 7.931.836 5.137 5.137 0 0 0 .066 4.352a3.333 3.333 0 0 0 3.027 4.16 4.34 4.34 0 0 0 .49-.018c2.288-.2 4.3-.272 6.107.593 2.774 1.32 4.245 4.677 5.574 7.228 1.424 2.734 2.895 5.682 5.484 7.527a6.972 6.972 0 0 0 4.377 1.393c1.619-.067 3.108-.66 5.127-.66a5.643 5.643 0 0 1 3.527.987c1.187 1.039.943 4-.1 5.242-.586.7-1.381 1.528-2.183 2.349a.4.4 0 0 1-.612-.055.388.388 0 0 1-.066-.22v-5.242a.373.373 0 0 0-.087-.24.38.38 0 0 0-.221-.13 8.928 8.928 0 0 0-.635-.085.383.383 0 0 0-.291.1.375.375 0 0 0-.125.278v7.063a1.472 1.472 0 0 1-.407 1.017l-1.731 1.641a.412.412 0 0 1-.631-.077.4.4 0 0 1-.063-.228v-9.11a.394.394 0 0 0-.038-.17.4.4 0 0 0-.108-.138.4.4 0 0 0-.332-.083l-.669.125a.4.4 0 0 0-.239.135.4.4 0 0 0-.094.256v10.625a1.666 1.666 0 0 1-.524 1.222l-1.772 1.683a.434.434 0 0 1-.654-.073.427.427 0 0 1-.073-.233V28.122a.679.679 0 0 0-.13-.4.69.69 0 0 0-.345-.25q-.25-.082-.49-.183a.469.469 0 0 0-.435.047.46.46 0 0 0-.2.384v15.269a1.731 1.731 0 0 1-.539 1.256l-1.6 1.528a.431.431 0 0 1-.22.109.433.433 0 0 1-.435-.182.427.427 0 0 1-.073-.233V24.96a.911.911 0 0 0-.207-.565 15.983 15.983 0 0 1-.968-1.3.338.338 0 0 0-.552-.014.33.33 0 0 0-.065.2v24.134a1.722 1.722 0 0 1-.54 1.25l-.777.736-.879.834a.511.511 0 0 1-.775-.086.5.5 0 0 1-.085-.277V16.923a1.975 1.975 0 0 0-.268-.99 17.155 17.155 0 0 0-.94-1.479.35.35 0 0 0-.175-.132.353.353 0 0 0-.4.123.347.347 0 0 0-.068.207v37.269a2.067 2.067 0 0 1-.647 1.5l-1.489 1.415a.709.709 0 0 1-1.076-.12.7.7 0 0 1-.118-.384V11.617a.4.4 0 0 0-.086-.248.407.407 0 0 0-.222-.143 8.014 8.014 0 0 0-1.085-.208.417.417 0 0 0-.173.015.409.409 0 0 0-.292.391V57.27a1.218 1.218 0 0 0 .466.987 2.945 2.945 0 0 0 1.252.471c3.3.586 6.557 1.424 9.865 1.98a2.628 2.628 0 0 0 2.158-.9C26 49.294 32.534 38.8 38.709 28.1c1.005-1.72.9-4.714.361-6.6" />
    </symbol>

    <symbol viewBox="0 0 33 14" id="icon-book">
        <path d="M32.81 13.05L31.91 11.66C31.84 11.55 31.72 11.49 31.59 11.49H31.41C31.28 11.49 31.17 11.41 31.14 11.29L31.08 11.1C31.06 11.04 31.02 10.98 30.97 10.93C30.64 10.64 29.17 9.61999 24.9 9.22999C23.11 9.06999 21.6 9.25999 20.37 9.58999C20.28 9.60999 20.24 9.48999 20.32 9.44999C25.78 6.89999 29.51 7.67 30.6 7.99C30.73 8.03 30.84 7.89999 30.78 7.77999L30.03 6.11999C29.99 6.02999 29.91 5.97999 29.81 5.96999C29.5 5.95999 29.19 5.96 28.88 5.96C28.52 5.96 28.16 5.97999 27.8 5.99999C27.46 6.01999 27.11 6.06 26.77 6.1C26.44 6.14 26.12 6.18999 25.79 6.24999C25.48 6.30999 25.17 6.37 24.86 6.44C24.57 6.51 24.27 6.58999 23.98 6.66999C23.7 6.74999 23.43 6.83999 23.16 6.92999C22.9 7.01999 22.64 7.11999 22.39 7.21999C22.15 7.31999 21.9 7.42999 21.67 7.53999C21.44 7.64999 21.22 7.76 20.99 7.88C20.78 7.99 20.57 8.10999 20.36 8.22999C20.16 8.33999 19.97 8.45999 19.78 8.58999C19.6 8.70999 19.42 8.82999 19.25 8.94999C19.09 9.06999 18.92 9.18999 18.77 9.30999C18.62 9.41999 18.48 9.54 18.33 9.66C18.16 9.8 17.85 10.1 17.71 10.15C17.65 10.18 17.52 10.15 17.53 10.08C17.54 9.98 18.01 9.38999 18.11 9.27999C18.34 8.99999 18.57 8.73 18.81 8.46C19.04 8.2 19.27 7.95 19.51 7.71C19.74 7.48 19.97 7.25 20.21 7.02C20.44 6.81 20.67 6.59999 20.9 6.39999C21.12 6.20999 21.35 6.01999 21.59 5.83999C21.81 5.66999 22.04 5.5 22.26 5.33C22.48 5.17 22.69 5.02 22.92 4.88C23.13 4.74 23.34 4.60999 23.56 4.47999C23.76 4.35999 23.97 4.24 24.17 4.13C24.36 4.02 24.56 3.92 24.75 3.82C24.93 3.73 25.12 3.64 25.3 3.55C25.47 3.47 25.64 3.4 25.81 3.32C25.97 3.25 26.12 3.19 26.28 3.13C26.42 3.08 26.56 3.01999 26.71 2.96999C26.84 2.92999 26.96 2.87999 27.09 2.83999C27.2 2.80999 27.31 2.77 27.42 2.74C27.51 2.71 27.6 2.68999 27.69 2.66999C27.76 2.64999 27.83 2.63999 27.9 2.61999C27.99 2.59999 28.02 2.47999 27.94 2.41999L27.26 1.88C27.19 1.82 27.1 1.8 27.01 1.83C26.83 1.88 26.66 1.93 26.49 1.99C26.22 2.08 25.96 2.17 25.7 2.27C25.44 2.37 25.19 2.47999 24.94 2.58999C24.7 2.69999 24.46 2.81999 24.22 2.94999C23.99 3.06999 23.76 3.20999 23.53 3.33999C23.31 3.46999 23.09 3.61999 22.88 3.75999C22.67 3.89999 22.46 4.05 22.26 4.21C22.06 4.36 21.86 4.51999 21.67 4.67999C21.48 4.83999 21.3 5 21.11 5.16C20.93 5.32 20.76 5.47999 20.59 5.64999C20.42 5.80999 20.26 5.97999 20.1 6.14999C19.94 6.30999 19.79 6.47999 19.64 6.64999C19.49 6.80999 19.35 6.97999 19.21 7.14999C19.08 7.30999 18.94 7.47999 18.81 7.64999C18.65 7.85999 18.47 8.09999 18.28 8.27999C18.23 8.32999 18.18 8.35999 18.13 8.36999C18.06 8.37999 17.98 8.31999 17.98 8.25999C17.98 8.18999 18.05 8.07999 18.1 7.99999C18.17 7.88999 18.24 7.78999 18.31 7.67999C18.42 7.50999 18.54 7.33999 18.66 7.17999C18.78 7.00999 18.91 6.83999 19.04 6.66999C19.18 6.48999 19.31 6.31999 19.46 6.14999C19.61 5.96999 19.76 5.8 19.91 5.63C20.07 5.45 20.23 5.27999 20.4 5.10999C20.57 4.93999 20.75 4.76 20.93 4.6C21.12 4.43 21.31 4.26 21.5 4.1C21.7 3.93 21.91 3.76999 22.11 3.60999C22.33 3.44999 22.54 3.28999 22.77 3.13999C23 2.97999 23.23 2.83 23.47 2.69C23.72 2.54 23.96 2.39999 24.22 2.25999C24.48 2.11999 24.75 1.97999 25.01 1.85999C25.29 1.72999 25.95 1.46 26.23 1.35C26.3 1.32 26.3 1.22 26.23 1.19L25.47 0.849999C25.41 0.829999 25.35 0.829999 25.3 0.849999C24.5 1.23 18.06 4.49 16.5 10.94C14.94 4.48 8.49999 1.23 7.69999 0.849999C7.64999 0.819999 7.57999 0.819999 7.52999 0.849999L6.77 1.19C6.7 1.22 6.7 1.32 6.77 1.35C7.05 1.47 7.71 1.72999 7.99 1.85999C8.26 1.98999 8.51999 2.11999 8.77999 2.25999C9.02999 2.39999 9.27999 2.54 9.52999 2.69C9.76999 2.84 9.99999 2.98999 10.23 3.13999C10.45 3.28999 10.67 3.44999 10.89 3.60999C11.1 3.76999 11.3 3.93 11.5 4.1C11.69 4.26 11.89 4.43 12.07 4.6C12.25 4.77 12.43 4.93999 12.6 5.10999C12.77 5.27999 12.93 5.45 13.09 5.63C13.24 5.8 13.4 5.96999 13.54 6.14999C13.68 6.31999 13.82 6.48999 13.96 6.66999C14.09 6.83999 14.22 7.00999 14.34 7.17999C14.46 7.34999 14.57 7.50999 14.69 7.67999C14.76 7.78999 14.83 7.88999 14.9 7.99999C14.95 8.07999 15.02 8.18999 15.02 8.25999C15.02 8.32999 14.94 8.38999 14.87 8.36999C14.82 8.35999 14.77 8.31999 14.72 8.27999C14.53 8.09999 14.35 7.85999 14.19 7.64999C14.06 7.47999 13.93 7.31999 13.79 7.14999C13.65 6.97999 13.51 6.80999 13.36 6.64999C13.21 6.47999 13.06 6.30999 12.9 6.14999C12.74 5.97999 12.58 5.80999 12.41 5.64999C12.24 5.47999 12.06 5.32 11.89 5.16C11.71 5 11.52 4.83999 11.33 4.67999C11.14 4.51999 10.94 4.37 10.74 4.21C10.54 4.06 10.33 3.90999 10.12 3.75999C9.90999 3.60999 9.69 3.46999 9.47 3.33999C9.24 3.19999 9.00999 3.06999 8.77999 2.94999C8.53999 2.81999 8.29999 2.69999 8.05999 2.58999C7.80999 2.46999 7.56 2.37 7.3 2.27C7.04 2.17 6.77999 2.07 6.50999 1.99C6.33999 1.93 6.16 1.88 5.99 1.83C5.9 1.81 5.81 1.83 5.74 1.88L5.05999 2.41999C4.98999 2.47999 5.01 2.59999 5.1 2.61999C5.17 2.63999 5.23999 2.64999 5.30999 2.66999C5.39999 2.68999 5.49 2.72 5.58 2.74C5.69 2.77 5.8 2.79999 5.91 2.83999C6.04 2.87999 6.15999 2.91999 6.28999 2.96999C6.42999 3.01999 6.58 3.07 6.72 3.13C6.88 3.19 7.04 3.25 7.19 3.32C7.36 3.39 7.52999 3.47 7.69999 3.55C7.87999 3.64 8.07 3.72 8.25 3.82C8.45 3.92 8.64 4.02 8.83 4.13C9.04 4.24 9.24 4.35999 9.44 4.47999C9.65 4.60999 9.87 4.74 10.08 4.88C10.3 5.03 10.52 5.18 10.74 5.33C10.97 5.49 11.19 5.65999 11.41 5.83999C11.64 6.01999 11.87 6.20999 12.1 6.39999C12.34 6.59999 12.57 6.81 12.79 7.02C13.03 7.24 13.26 7.47 13.49 7.71C13.73 7.96 13.96 8.21 14.19 8.46C14.43 8.73 14.66 8.99999 14.89 9.27999C14.98 9.39999 15.45 9.98 15.47 10.08C15.48 10.15 15.36 10.18 15.29 10.15C15.16 10.09 14.84 9.8 14.67 9.66C14.53 9.54 14.38 9.41999 14.23 9.30999C14.07 9.18999 13.91 9.06999 13.75 8.94999C13.58 8.82999 13.4 8.70999 13.22 8.58999C13.03 8.46999 12.84 8.34999 12.64 8.22999C12.43 8.10999 12.22 7.99 12.01 7.88C11.79 7.76 11.56 7.64999 11.33 7.53999C11.09 7.42999 10.85 7.31999 10.61 7.21999C10.35 7.11999 10.1 7.01999 9.83999 6.92999C9.56999 6.82999 9.29 6.74999 9.02 6.66999C8.73 6.58999 8.44 6.51 8.14 6.44C7.83 6.37 7.52 6.29999 7.21 6.24999C6.89 6.18999 6.55999 6.14 6.22999 6.1C5.88999 6.06 5.53999 6.02999 5.19999 5.99999C4.83999 5.97999 4.47999 5.96 4.11999 5.96C3.80999 5.96 3.5 5.95999 3.19 5.96999C3.1 5.96999 3.01 6.02999 2.97 6.11999L2.22 7.77999C2.17 7.89999 2.27999 8.03 2.39999 7.99C3.48999 7.67 7.20999 6.89999 12.68 9.44999C12.76 9.48999 12.72 9.60999 12.63 9.58999C11.4 9.25999 9.89 9.06999 8.1 9.22999C3.82 9.61999 2.36 10.64 2.03 10.93C1.98 10.97 1.93999 11.03 1.91999 11.1L1.86 11.29C1.82 11.41 1.70999 11.49 1.58999 11.49H1.41C1.28 11.49 1.15999 11.56 1.08999 11.66L0.189999 13.05C0.0799989 13.22 0.21 13.45 0.41 13.45L14.91 12.94C15.11 12.93 15.3 12.83 15.42 12.67C15.57 12.46 15.89 12.18 16.46 12.11C17.04 12.18 17.35 12.46 17.5 12.67C17.62 12.83 17.81 12.93 18.01 12.94L32.51 13.45C32.79 13.45 32.92 13.22 32.81 13.05ZM12.46 11.09C10.52 11.15 8.58 11.2 6.64 11.23C6.49 11.23 6.47 11.06 6.61 11.04C8.56 10.75 10.51 10.69 12.47 10.92C12.61 10.94 12.59 11.09 12.46 11.09ZM26.42 11.23C24.48 11.2 22.54 11.15 20.6 11.09C20.47 11.09 20.46 10.94 20.59 10.92C22.55 10.69 24.5 10.74 26.45 11.04C26.59 11.06 26.57 11.23 26.42 11.23Z" />
    </symbol>

    <symbol viewBox="0 0 40 40" id="icon-calendar">
        <path d="M32.334 37H7.40104C6.65488 37.0073 5.91474 36.8658 5.22394 36.5837C4.53313 36.3016 3.90553 35.8845 3.37784 35.3569C2.85015 34.8293 2.43298 34.2018 2.15073 33.511C1.86848 32.8203 1.72682 32.0802 1.73404 31.334V10.934C1.72669 10.1878 1.86825 9.44754 2.15044 8.75666C2.43263 8.06579 2.84978 7.43814 3.37748 6.91044C3.90518 6.38274 4.53283 5.96559 5.2237 5.6834C5.91458 5.40121 6.65479 5.25965 7.40104 5.267H32.334C33.0803 5.25965 33.8205 5.40121 34.5114 5.6834C35.2022 5.96559 35.8299 6.38274 36.3576 6.91044C36.8853 7.43814 37.3024 8.06579 37.5846 8.75666C37.8668 9.44754 38.0084 10.1878 38.001 10.934V31.334C38.0083 32.0802 37.8666 32.8203 37.5843 33.511C37.3021 34.2018 36.8849 34.8293 36.3572 35.3569C35.8295 35.8845 35.2019 36.3016 34.5111 36.5837C33.8203 36.8658 33.0802 37.0073 32.334 37ZM7.40104 7.534C6.50617 7.55581 5.65398 7.92103 5.02103 8.55399C4.38807 9.18694 4.02285 10.0391 4.00104 10.934V31.334C4.02285 32.2289 4.38807 33.0811 5.02103 33.714C5.65398 34.347 6.50617 34.7122 7.40104 34.734H32.334C33.2289 34.7122 34.0811 34.347 34.714 33.714C35.347 33.0811 35.7122 32.2289 35.734 31.334V10.934C35.7122 10.0391 35.347 9.18694 34.714 8.55399C34.0811 7.92103 33.2289 7.55581 32.334 7.534H7.40104Z" />
        <path d="M13.067 9.80001C12.9159 9.80905 12.7645 9.78593 12.623 9.73219C12.4814 9.67844 12.3529 9.5953 12.2458 9.48823C12.1388 9.38117 12.0556 9.25261 12.0019 9.11106C11.9481 8.9695 11.925 8.81816 11.934 8.66701V4.13301C11.934 3.83239 12.0535 3.54408 12.266 3.33151C12.4786 3.11893 12.7669 2.99951 13.0675 2.99951C13.3682 2.99951 13.6565 3.11893 13.869 3.33151C14.0816 3.54408 14.201 3.83239 14.201 4.13301V8.66601C14.2102 8.81733 14.1872 8.96887 14.1335 9.11062C14.0797 9.25237 13.9965 9.3811 13.8893 9.48829C13.7821 9.59549 13.6534 9.67871 13.5116 9.73244C13.3699 9.78618 13.2184 9.80921 13.067 9.80001Z" />
        <path d="M26.667 9.80001C26.5159 9.80905 26.3645 9.78593 26.223 9.73219C26.0814 9.67844 25.9529 9.5953 25.8458 9.48823C25.7387 9.38117 25.6556 9.25261 25.6018 9.11106C25.5481 8.9695 25.525 8.81816 25.534 8.66701V4.13301C25.534 3.83239 25.6534 3.54408 25.866 3.33151C26.0786 3.11893 26.3669 2.99951 26.6675 2.99951C26.9681 2.99951 27.2564 3.11893 27.469 3.33151C27.6816 3.54408 27.801 3.83239 27.801 4.13301V8.66601C27.8102 8.81733 27.7872 8.96887 27.7334 9.11062C27.6797 9.25237 27.5965 9.3811 27.4893 9.48829C27.3821 9.59549 27.2534 9.67871 27.1116 9.73244C26.9699 9.78618 26.8183 9.80921 26.667 9.80001Z" />
        <path d="M35.734 16.6H3.99996C3.69933 16.6 3.41102 16.4806 3.19845 16.268C2.98588 16.0554 2.86646 15.7671 2.86646 15.4665C2.86646 15.1659 2.98588 14.8776 3.19845 14.665C3.41102 14.4524 3.69933 14.333 3.99996 14.333H35.734C36.0346 14.333 36.3229 14.4524 36.5355 14.665C36.748 14.8776 36.8675 15.1659 36.8675 15.4665C36.8675 15.7671 36.748 16.0554 36.5355 16.268C36.3229 16.4806 36.0346 16.6 35.734 16.6Z" />
        <path d="M9.66796 31.3329C9.36996 31.3413 9.07371 31.2848 8.7997 31.1674C8.52568 31.05 8.28045 30.8745 8.08096 30.6529C7.66915 30.224 7.42745 29.66 7.40096 29.0659C7.3926 28.768 7.44907 28.4717 7.56648 28.1977C7.68389 27.9237 7.85943 27.6784 8.08096 27.4789C8.28559 27.2641 8.53172 27.0931 8.80444 26.9762C9.07715 26.8593 9.37076 26.7991 9.66746 26.7991C9.96416 26.7991 10.2578 26.8593 10.5305 26.9762C10.8032 27.0931 11.0493 27.2641 11.254 27.4789C11.4688 27.6836 11.6398 27.9297 11.7567 28.2024C11.8736 28.4751 11.9338 28.7687 11.9338 29.0654C11.9338 29.3621 11.8736 29.6558 11.7567 29.9285C11.6398 30.2012 11.4688 30.4473 11.254 30.6519C11.0547 30.8735 10.8096 31.0492 10.5358 31.1668C10.262 31.2843 9.96586 31.341 9.66796 31.3329Z" />
        <path d="M9.66796 24.533C9.07143 24.5185 8.50332 24.2752 8.0813 23.8534C7.65927 23.4315 7.41567 22.8635 7.40096 22.267C7.3926 21.969 7.44907 21.6728 7.56648 21.3987C7.68389 21.1247 7.85943 20.8795 8.08096 20.68C8.28559 20.4652 8.53172 20.2941 8.80444 20.1772C9.07715 20.0604 9.37076 20.0001 9.66746 20.0001C9.96416 20.0001 10.2578 20.0604 10.5305 20.1772C10.8032 20.2941 11.0493 20.4652 11.254 20.68C11.4688 20.8846 11.6398 21.1308 11.7567 21.4035C11.8736 21.6762 11.9338 21.9698 11.9338 22.2665C11.9338 22.5632 11.8736 22.8568 11.7567 23.1295C11.6398 23.4022 11.4688 23.6484 11.254 23.853C11.0546 24.0744 10.8095 24.2499 10.5357 24.3673C10.2618 24.4847 9.96578 24.5412 9.66796 24.533Z" />
        <path d="M16.468 31.333C16.1701 31.3414 15.8738 31.2849 15.5998 31.1675C15.3258 31.0501 15.0805 30.8746 14.881 30.653C14.6662 30.4484 14.4952 30.2023 14.3783 29.9296C14.2614 29.6569 14.2012 29.3632 14.2012 29.0665C14.2012 28.7698 14.2614 28.4762 14.3783 28.2035C14.4952 27.9308 14.6662 27.6847 14.881 27.48C15.0857 27.2652 15.3318 27.0942 15.6045 26.9773C15.8772 26.8604 16.1708 26.8002 16.4675 26.8002C16.7642 26.8002 17.0579 26.8604 17.3306 26.9773C17.6033 27.0942 17.8494 27.2652 18.054 27.48C18.2689 27.6847 18.4399 27.9308 18.5568 28.2035C18.6737 28.4762 18.7339 28.7698 18.7339 29.0665C18.7339 29.3632 18.6737 29.6569 18.5568 29.9296C18.4399 30.2023 18.2689 30.4484 18.054 30.653C17.8547 30.8744 17.6096 31.0499 17.3358 31.1673C17.0619 31.2847 16.7659 31.3413 16.468 31.333Z" />
        <path d="M16.468 24.533C16.1701 24.5414 15.8738 24.4849 15.5998 24.3675C15.3258 24.2501 15.0805 24.0745 14.881 23.853C14.6662 23.6484 14.4952 23.4022 14.3783 23.1295C14.2614 22.8568 14.2012 22.5632 14.2012 22.2665C14.2012 21.9698 14.2614 21.6762 14.3783 21.4035C14.4952 21.1308 14.6662 20.8846 14.881 20.68C15.0857 20.4652 15.3318 20.2941 15.6045 20.1772C15.8772 20.0604 16.1708 20.0001 16.4675 20.0001C16.7642 20.0001 17.0579 20.0604 17.3306 20.1772C17.6033 20.2941 17.8494 20.4652 18.054 20.68C18.2689 20.8846 18.4399 21.1308 18.5568 21.4035C18.6737 21.6762 18.7339 21.9698 18.7339 22.2665C18.7339 22.5632 18.6737 22.8568 18.5568 23.1295C18.4399 23.4022 18.2689 23.6484 18.054 23.853C17.8547 24.0744 17.6096 24.2499 17.3358 24.3673C17.0619 24.4847 16.7659 24.5412 16.468 24.533Z" />
        <path d="M23.268 31.333C22.97 31.3414 22.6737 31.2849 22.3997 31.1675C22.1257 31.0501 21.8805 30.8746 21.681 30.653C21.4661 30.4484 21.2951 30.2023 21.1782 29.9296C21.0614 29.6569 21.0011 29.3632 21.0011 29.0665C21.0011 28.7698 21.0614 28.4762 21.1782 28.2035C21.2951 27.9308 21.4661 27.6847 21.681 27.48C21.8856 27.2652 22.1317 27.0942 22.4045 26.9773C22.6772 26.8604 22.9708 26.8002 23.2675 26.8002C23.5642 26.8002 23.8578 26.8604 24.1305 26.9773C24.4032 27.0942 24.6493 27.2652 24.854 27.48C25.0688 27.6847 25.2399 27.9308 25.3567 28.2035C25.4736 28.4762 25.5338 28.7698 25.5338 29.0665C25.5338 29.3632 25.4736 29.6569 25.3567 29.9296C25.2399 30.2023 25.0688 30.4484 24.854 30.653C24.6546 30.8744 24.4095 31.0499 24.1357 31.1673C23.8619 31.2847 23.5658 31.3413 23.268 31.333Z" />
        <path d="M23.268 24.533C22.97 24.5414 22.6737 24.4849 22.3997 24.3675C22.1257 24.2501 21.8805 24.0745 21.681 23.853C21.4661 23.6484 21.2951 23.4022 21.1782 23.1295C21.0614 22.8568 21.0011 22.5632 21.0011 22.2665C21.0011 21.9698 21.0614 21.6762 21.1782 21.4035C21.2951 21.1308 21.4661 20.8846 21.681 20.68C21.8856 20.4652 22.1317 20.2941 22.4045 20.1772C22.6772 20.0604 22.9708 20.0001 23.2675 20.0001C23.5642 20.0001 23.8578 20.0604 24.1305 20.1772C24.4032 20.2941 24.6493 20.4652 24.854 20.68C25.2658 21.1089 25.5075 21.673 25.534 22.267C25.5195 22.8637 25.276 23.4319 24.854 23.854C24.4319 24.276 23.8637 24.5195 23.267 24.534L23.268 24.533Z" />
        <path d="M30.068 31.3329C29.77 31.3413 29.4737 31.2848 29.1997 31.1674C28.9257 31.05 28.6805 30.8745 28.481 30.6529C28.0692 30.224 27.8275 29.66 27.801 29.0659C27.7926 28.768 27.8491 28.4717 27.9665 28.1977C28.0839 27.9237 28.2595 27.6784 28.481 27.4789C28.6856 27.2641 28.9317 27.0931 29.2045 26.9762C29.4772 26.8593 29.7708 26.7991 30.0675 26.7991C30.3642 26.7991 30.6578 26.8593 30.9305 26.9762C31.2032 27.0931 31.4493 27.2641 31.654 27.4789C31.8688 27.6836 32.0399 27.9297 32.1567 28.2024C32.2736 28.4751 32.3339 28.7687 32.3339 29.0654C32.3339 29.3621 32.2736 29.6558 32.1567 29.9285C32.0399 30.2012 31.8688 30.4473 31.654 30.6519C31.4547 30.8735 31.2097 31.0492 30.9358 31.1668C30.662 31.2843 30.3659 31.341 30.068 31.3329Z" />
        <path d="M30.068 24.533C29.77 24.5414 29.4738 24.4849 29.1998 24.3675C28.9257 24.2501 28.6805 24.0745 28.481 23.853C28.2662 23.6484 28.0951 23.4022 27.9783 23.1295C27.8614 22.8568 27.8011 22.5632 27.8011 22.2665C27.8011 21.9698 27.8614 21.6762 27.9783 21.4035C28.0951 21.1308 28.2662 20.8846 28.481 20.68C28.6857 20.4652 28.9318 20.2941 29.2045 20.1772C29.4772 20.0604 29.7708 20.0001 30.0675 20.0001C30.3642 20.0001 30.6578 20.0604 30.9305 20.1772C31.2033 20.2941 31.4494 20.4652 31.654 20.68C32.0658 21.1089 32.3075 21.673 32.334 22.267C32.3196 22.8637 32.0761 23.4319 31.654 23.854C31.232 24.276 30.6637 24.5195 30.067 24.534L30.068 24.533Z" />
    </symbol>

    <symbol viewBox="0 0 40 40" id="icon-address">
        <path d="M19.964 36.524C19.4666 36.5038 18.9828 36.3562 18.5589 36.0953C18.1349 35.8344 17.7851 35.4689 17.543 35.034L9.724 21.624C6.372 15.851 8.04801 8.21502 13.635 4.86202C15.541 3.68835 17.7261 3.0455 19.964 3.00002C22.0979 2.97486 24.198 3.53431 26.0366 4.61772C27.8751 5.70112 29.3821 7.26715 30.394 9.14602C31.446 10.9559 32.0002 13.0121 32.0002 15.1055C32.0002 17.199 31.446 19.2551 30.394 21.065V21.251L22.385 35.22C22.1046 35.6045 21.7415 35.9212 21.3225 36.1469C20.9036 36.3725 20.4393 36.5014 19.964 36.524ZM19.964 4.86302C18.067 4.8953 16.2091 5.40793 14.564 6.35302C12.2883 7.82802 10.6819 10.1368 10.0899 12.7833C9.4979 15.4299 9.96757 18.203 11.398 20.507L19.22 34.107C19.267 34.2682 19.365 34.4099 19.4993 34.5106C19.6337 34.6114 19.7971 34.6659 19.965 34.6659C20.1329 34.6659 20.2963 34.6114 20.4307 34.5106C20.565 34.4099 20.663 34.2682 20.71 34.107L28.718 20.325V20.139C29.6203 18.5974 30.0998 16.8449 30.108 15.0586C30.1162 13.2723 29.6528 11.5155 28.7647 9.96566C27.8766 8.41578 26.5952 7.12773 25.0499 6.23162C23.5047 5.3355 21.7503 4.86406 19.964 4.86302Z" />
        <path d="M19.963 19.546C19.073 19.546 18.203 19.2821 17.4629 18.7876C16.7229 18.2932 16.1462 17.5904 15.8056 16.7681C15.465 15.9458 15.3758 15.041 15.5495 14.1681C15.7231 13.2952 16.1517 12.4934 16.781 11.864C17.4104 11.2347 18.2122 10.8061 19.0851 10.6325C19.958 10.4589 20.8628 10.548 21.6851 10.8886C22.5074 11.2292 23.2102 11.8059 23.7046 12.546C24.1991 13.286 24.463 14.156 24.463 15.046C24.4689 15.6386 24.3565 16.2264 24.1325 16.775C23.9084 17.3237 23.5771 17.8221 23.1581 18.2411C22.7391 18.6602 22.2406 18.9914 21.692 19.2155C21.1434 19.4395 20.5556 19.5519 19.963 19.546ZM19.963 12.346C19.429 12.346 18.907 12.5044 18.463 12.8011C18.019 13.0977 17.6729 13.5194 17.4685 14.0128C17.2642 14.5061 17.2107 15.049 17.3149 15.5728C17.4191 16.0965 17.6762 16.5776 18.0538 16.9552C18.4314 17.3328 18.9125 17.59 19.4363 17.6941C19.96 17.7983 20.5029 17.7449 20.9963 17.5405C21.4896 17.3361 21.9113 16.9901 22.208 16.5461C22.5047 16.1021 22.663 15.58 22.663 15.046C22.6458 14.3354 22.3558 13.6586 21.8531 13.1559C21.3504 12.6533 20.6737 12.3633 19.963 12.346Z" />
    </symbol>

    <symbol viewBox="0 0 80 80" id="features-1">
        <path d="M59.333 31.139C59.1673 30.4539 58.7449 29.8586 58.153 29.476C57.558 29.0915 56.8394 28.9467 56.142 29.071C54.2849 29.348 52.4477 29.7452 50.642 30.26C45.192 31.705 42.513 30.66 39.652 25.855C37.207 21.755 34.695 17.671 31.89 13.804C30.8845 12.4665 29.6298 11.336 28.195 10.475C27.4763 10.0101 26.6528 9.73211 25.7994 9.66635C24.946 9.60059 24.0897 9.74912 23.3083 10.0985C22.5268 10.4478 21.8451 10.9868 21.325 11.6666C20.8048 12.3464 20.4628 13.1454 20.33 13.991C20.2071 14.4671 20.1911 14.9646 20.2831 15.4476C20.3751 15.9307 20.5728 16.3874 20.8622 16.7851C21.1515 17.1827 21.5252 17.5114 21.9566 17.7475C22.3879 17.9837 22.8661 18.1215 23.357 18.151C23.5205 18.1542 23.6841 18.1482 23.847 18.133C26.135 17.933 28.147 17.861 29.954 18.726C32.728 20.046 34.199 23.403 35.528 25.954C36.952 28.688 38.423 31.636 41.012 33.481C42.2718 34.4264 43.8145 34.9174 45.389 34.874C47.008 34.807 48.497 34.214 50.516 34.214C51.7687 34.1417 53.0098 34.489 54.043 35.201C55.23 36.24 54.986 39.201 53.943 40.443C53.357 41.143 52.562 41.971 51.76 42.792C51.7186 42.8335 51.6685 42.8654 51.6134 42.8854C51.5583 42.9054 51.4995 42.913 51.4411 42.9078C51.3827 42.9025 51.3262 42.8845 51.2756 42.855C51.2249 42.8255 51.1814 42.7852 51.148 42.737C51.1043 42.672 51.0813 42.5953 51.082 42.517V37.275C51.0821 37.1873 51.0513 37.1023 50.995 37.035C50.9386 36.9674 50.8605 36.9214 50.774 36.905C50.561 36.868 50.348 36.841 50.139 36.82C50.0862 36.8156 50.0331 36.8223 49.983 36.8395C49.9329 36.8567 49.8869 36.8841 49.848 36.92C49.8089 36.955 49.7775 36.9978 49.756 37.0457C49.7344 37.0936 49.7232 37.1455 49.723 37.198V44.261C49.7232 44.6397 49.5774 45.004 49.316 45.278L47.585 46.919C47.5409 46.9608 47.4882 46.9924 47.4305 47.0115C47.3728 47.0305 47.3116 47.0366 47.2513 47.0292C47.191 47.0219 47.1331 47.0013 47.0817 46.9689C47.0303 46.9365 46.9867 46.8932 46.954 46.842C46.9105 46.7741 46.8885 46.6946 46.891 46.614V37.504C46.8912 37.4452 46.8782 37.3871 46.853 37.334C46.8276 37.2806 46.7907 37.2335 46.745 37.196C46.6992 37.1585 46.6457 37.1316 46.5883 37.1172C46.5309 37.1029 46.471 37.1014 46.413 37.113L45.744 37.238C45.6509 37.2534 45.5662 37.3012 45.505 37.373C45.4446 37.4447 45.4114 37.5353 45.411 37.629V48.254C45.4122 48.4827 45.3663 48.7093 45.2762 48.9195C45.186 49.1298 45.0535 49.3192 44.887 49.476L43.115 51.159C43.0692 51.2016 43.0148 51.2337 42.9555 51.2533C42.8962 51.2729 42.8333 51.2795 42.7712 51.2726C42.7091 51.2656 42.6493 51.2454 42.5957 51.2132C42.5422 51.181 42.4962 51.1376 42.461 51.086C42.4145 51.0171 42.3891 50.9361 42.388 50.853V37.761C42.3881 37.6173 42.3426 37.4772 42.258 37.361C42.1722 37.2434 42.0515 37.1559 41.913 37.111C41.7463 37.0563 41.583 36.9953 41.423 36.928C41.3521 36.8999 41.2755 36.8895 41.1997 36.8977C41.1239 36.9059 41.0512 36.9324 40.988 36.975C40.9257 37.0177 40.8749 37.075 40.84 37.142C40.8051 37.209 40.7873 37.2835 40.788 37.359V52.628C40.7881 52.863 40.7404 53.0955 40.6477 53.3114C40.555 53.5274 40.4194 53.7222 40.249 53.884L38.649 55.412C38.5878 55.4689 38.5113 55.5068 38.429 55.521C38.3467 55.5359 38.2617 55.5267 38.1845 55.4944C38.1073 55.4621 38.0412 55.4081 37.994 55.339C37.9475 55.2701 37.9221 55.1891 37.921 55.106V34.599C37.918 34.3927 37.845 34.1935 37.714 34.034C37.3695 33.6173 37.0465 33.1834 36.746 32.734C36.7159 32.689 36.6755 32.6519 36.6281 32.6258C36.5807 32.5997 36.5277 32.5854 36.4736 32.584C36.4195 32.5827 36.3659 32.5943 36.3172 32.618C36.2686 32.6416 36.2263 32.6766 36.194 32.72C36.1511 32.7778 36.1283 32.848 36.129 32.92V57.054C36.1287 57.2881 36.0806 57.5197 35.9878 57.7346C35.8949 57.9496 35.7592 58.1433 35.589 58.304L34.812 59.04L33.933 59.874C33.8791 59.925 33.8147 59.9636 33.7443 59.9872C33.674 60.0108 33.5993 60.0188 33.5256 60.0106C33.4518 60.0024 33.3807 59.9782 33.3172 59.9398C33.2538 59.9014 33.1994 59.8496 33.158 59.788C33.1029 59.7061 33.0734 59.6097 33.073 59.511V26.562C33.0724 26.2142 32.9799 25.8726 32.805 25.572C32.5171 25.0633 32.2033 24.5697 31.865 24.093C31.8223 24.0314 31.761 23.9851 31.69 23.961C31.6189 23.9362 31.5418 23.9347 31.4698 23.9568C31.3978 23.979 31.3348 24.0235 31.29 24.084C31.2457 24.1439 31.2218 24.2165 31.222 24.291V61.56C31.2217 61.8409 31.1642 62.1187 31.053 62.3766C30.9417 62.6345 30.7791 62.867 30.575 63.06L29.086 64.475C29.0111 64.5458 28.9217 64.5995 28.824 64.6322C28.7263 64.665 28.6226 64.676 28.5202 64.6646C28.4177 64.6532 28.319 64.6195 28.2309 64.5661C28.1428 64.5126 28.0674 64.4406 28.01 64.355C27.934 64.2413 27.893 64.1078 27.892 63.971V21.256C27.892 21.166 27.8617 21.0786 27.806 21.008C27.7499 20.937 27.6718 20.8867 27.584 20.865C27.2275 20.7708 26.865 20.7013 26.499 20.657C26.4409 20.6498 26.382 20.6549 26.326 20.672C26.2418 20.6971 26.1679 20.7488 26.1153 20.8192C26.0627 20.8896 26.0342 20.9751 26.034 21.063V66.909C26.0295 67.0984 26.0693 67.2863 26.1502 67.4576C26.2311 67.629 26.3509 67.7791 26.5 67.896C26.8757 68.147 27.3041 68.3081 27.752 68.367C31.052 68.953 34.309 69.791 37.617 70.347C38.0218 70.3737 38.4272 70.3064 38.8016 70.1502C39.176 69.9941 39.5091 69.7534 39.775 69.447C46.264 58.933 52.798 48.439 58.973 37.739C59.978 36.019 59.872 33.025 59.333 31.139Z" />
    </symbol>

    <symbol viewBox="0 0 80 80" id="features-2">
        <path d="M30.082 35.165C30.1417 35.0751 30.2231 35.0017 30.3188 34.9518C30.4145 34.9019 30.5213 34.877 30.6292 34.8796C30.7371 34.8822 30.8426 34.9122 30.9358 34.9666C31.029 35.0211 31.1068 35.0983 31.162 35.191L38.334 47.378C38.486 47.6251 38.5665 47.9095 38.5665 48.1995C38.5665 48.4896 38.486 48.774 38.334 49.021C38.231 49.1871 38.1433 49.3621 38.072 49.544C37.9861 49.772 37.8508 49.9782 37.6758 50.1478C37.5009 50.3174 37.2906 50.4462 37.06 50.525C36.9049 50.5764 36.7425 50.6027 36.579 50.603H32.465C32.3905 48.6459 31.8906 46.7284 31 44.984C30.7342 44.4674 30.3389 44.0285 29.8528 43.7103C29.3666 43.3921 28.8062 43.2054 28.2264 43.1685C27.6465 43.1316 27.067 43.2458 26.5444 43.4999C26.0219 43.7539 25.5742 44.1392 25.245 44.618L21.145 50.603C21.0569 50.6023 20.9698 50.5839 20.8889 50.5488C20.8081 50.5138 20.7351 50.4629 20.6742 50.3991C20.6134 50.3353 20.5661 50.2599 20.5349 50.1774C20.5038 50.095 20.4896 50.0071 20.493 49.919C20.4981 49.8009 20.5355 49.6864 20.601 49.588L23.818 44.694L30.082 35.165ZM75.238 50.743C75.1765 48.6059 74.6102 46.5136 73.5855 44.6371C72.5607 42.7607 71.1066 41.1532 69.3419 39.9461C67.5772 38.739 65.552 37.9666 63.4317 37.6918C61.3114 37.417 59.1561 37.6477 57.142 38.365L52.434 26.697L51.775 25.057C51.5677 24.5429 51.2113 24.1026 50.7517 23.7927C50.2922 23.4828 49.7504 23.3175 49.196 23.318H45.583C44.7719 23.3222 43.9938 23.6403 43.4119 24.2055C42.8301 24.7708 42.4897 25.5393 42.462 26.35C42.4588 26.4242 42.4705 26.4982 42.4965 26.5678C42.5224 26.6373 42.5621 26.7009 42.6131 26.7549C42.6642 26.8088 42.7255 26.8519 42.7935 26.8816C42.8615 26.9114 42.9348 26.9272 43.009 26.928C43.0777 26.928 43.1457 26.9145 43.2092 26.8882C43.2726 26.8619 43.3303 26.8234 43.3789 26.7748C43.4274 26.7263 43.4659 26.6686 43.4922 26.6052C43.5185 26.5417 43.532 26.4737 43.532 26.405C43.543 25.8647 43.7646 25.35 44.1496 24.9708C44.5347 24.5916 45.0526 24.3778 45.593 24.375H49.208C49.5505 24.3751 49.8851 24.4774 50.1689 24.669C50.4528 24.8605 50.6729 25.1325 50.801 25.45L51.301 26.695L52.308 29.195L53.197 31.405C53.2505 31.5568 53.2725 31.7179 53.2616 31.8785C53.2507 32.0391 53.2072 32.1957 53.1337 32.3389C53.0603 32.4821 52.9584 32.6088 52.8343 32.7113C52.7102 32.8138 52.5665 32.8899 52.412 32.935C48.878 34.005 47.371 38.193 46.022 41.949C45.76 42.694 45.499 43.44 45.195 44.175C44.9702 44.8386 44.6874 45.481 44.35 46.095C43.9401 46.5789 43.4239 46.9617 42.8419 47.2135C42.2598 47.4654 41.6274 47.5795 40.994 47.547H40.732C40.4488 47.574 40.1636 47.5214 39.9085 47.3953C39.6535 47.2692 39.4386 47.0745 39.288 46.833L29.514 30.244C29.4652 30.1569 29.4345 30.0608 29.4237 29.9614C29.4128 29.8621 29.4221 29.7617 29.451 29.666C29.4588 29.6355 29.4692 29.6057 29.482 29.577C29.5408 29.44 29.6384 29.3231 29.7628 29.2408C29.8872 29.1585 30.0329 29.1145 30.182 29.114C31.045 29.114 31.911 29.054 32.772 29.083C33.0055 29.1187 33.244 29.1021 33.4702 29.0343C33.6964 28.9665 33.9047 28.8492 34.08 28.691C34.1636 28.6038 34.2241 28.4972 34.2561 28.3807C34.288 28.2643 34.2904 28.1417 34.263 28.024C34.127 27.501 33.536 27.443 33.052 27.435L29.233 27.38L24.161 27.315C23.8288 27.2695 23.4914 27.3486 23.214 27.537C22.803 27.901 22.952 28.617 22.976 29.072C22.9833 29.359 23.0691 29.6384 23.224 29.88C23.711 30.618 24.477 30.38 25.11 30.128C25.743 29.876 27.41 28.797 27.891 29.56L29.68 32.66C29.7849 32.8441 29.8369 33.0535 29.8304 33.2652C29.8239 33.477 29.759 33.6828 29.643 33.86L25.929 39.513C23.668 38.148 21.0573 37.4736 18.418 37.5726C15.7788 37.6716 13.226 38.5398 11.0736 40.0704C8.92115 41.6009 7.26297 43.7272 6.30292 46.1877C5.34288 48.6481 5.12283 51.3355 5.66984 53.9194C6.21684 56.5033 7.50705 58.8709 9.38181 60.7313C11.2566 62.5916 13.6341 63.8635 16.2221 64.3905C18.8102 64.9176 21.4958 64.6768 23.9488 63.6978C26.4017 62.7187 28.5151 61.0442 30.029 58.88C30.4332 58.3052 30.6718 57.6304 30.7187 56.9293C30.7657 56.2282 30.6192 55.5277 30.2952 54.9041C29.9713 54.2805 29.4823 53.7579 28.8816 53.3932C28.281 53.0285 27.5917 52.8358 26.889 52.836H21.955C21.7893 53.2526 21.4956 53.6058 21.1162 53.8447C20.7368 54.0835 20.2913 54.1957 19.844 54.165C19.4819 54.1809 19.1204 54.1218 18.7822 53.9914C18.444 53.861 18.1365 53.662 17.8788 53.4071C17.6211 53.1522 17.419 52.8467 17.2849 52.5099C17.1509 52.1731 17.088 51.8123 17.1 51.45C17.109 51.5102 17.1221 51.5696 17.139 51.628C17.2052 51.8449 17.3099 52.0482 17.448 52.228C17.5053 52.3057 17.5692 52.3783 17.639 52.445C17.6465 52.4534 17.6553 52.4604 17.665 52.466C18.0069 52.7777 18.4524 52.9513 18.915 52.953C19.0115 52.953 19.1079 52.945 19.203 52.929C19.2332 52.9256 19.2629 52.9195 19.292 52.911C19.355 52.8994 19.4171 52.8837 19.478 52.864L19.578 52.83C19.6327 52.8094 19.686 52.7857 19.738 52.759L19.832 52.709C19.884 52.68 19.932 52.649 19.981 52.615L20.062 52.557C20.112 52.515 20.162 52.473 20.208 52.426L20.263 52.374C20.3257 52.3087 20.3835 52.2388 20.436 52.165C20.4457 52.1509 20.4543 52.1362 20.462 52.121C20.496 52.071 20.527 52.021 20.556 51.967C20.605 51.8693 20.6794 51.7865 20.7714 51.7276C20.8635 51.6686 20.9698 51.6356 21.079 51.632H37.032C37.2984 51.6352 37.5599 51.7039 37.7935 51.832C38.027 51.9602 38.2254 52.144 38.371 52.367C38.712 52.8724 39.1944 53.266 39.7578 53.4987C40.3213 53.7313 40.9409 53.7927 41.539 53.675C42.1615 53.5628 42.7336 53.2594 43.1757 52.8071C43.6178 52.3547 43.908 51.7759 44.006 51.151C44.0967 50.6186 44.046 50.0717 43.859 49.565C43.8496 49.5358 43.8372 49.5077 43.822 49.481C43.7362 49.3185 43.7034 49.1332 43.7284 48.9512C43.7533 48.7691 43.8347 48.5994 43.961 48.466C45.292 47.09 46.137 44.739 47.014 42.303C48.366 38.536 49.763 34.657 52.994 33.896C53.2885 33.8324 53.5959 33.8724 53.8643 34.0093C54.1326 34.1461 54.3455 34.3714 54.467 34.647C54.574 34.909 54.667 35.134 54.729 35.267L56.115 38.712L56.131 38.749L60.316 49.149C60.3689 49.2877 60.3849 49.4377 60.3625 49.5844C60.34 49.7311 60.2799 49.8695 60.188 49.986L60.167 50.02C60.1308 50.0739 60.0974 50.1296 60.067 50.187C60.0565 50.2021 60.0468 50.2178 60.038 50.234C60 50.3068 59.9665 50.382 59.938 50.459L59.922 50.514C59.9003 50.5795 59.8829 50.6463 59.87 50.714L59.854 50.782C59.8401 50.8688 59.8315 50.9563 59.828 51.044C59.8233 51.1693 59.8321 51.2946 59.854 51.418C59.8742 51.539 59.9077 51.6574 59.954 51.771C59.9881 51.8545 60.0275 51.9357 60.072 52.014C60.1589 52.1642 60.2663 52.3015 60.391 52.422L60.407 52.44C60.4725 52.5026 60.5423 52.5605 60.616 52.613C60.8376 52.773 61.0922 52.8813 61.361 52.93C61.4183 52.9394 61.4761 52.9448 61.534 52.946H61.641C61.9286 52.9517 62.2135 52.8901 62.473 52.766C62.5571 52.7264 62.6377 52.6799 62.714 52.627C62.7584 52.5981 62.8012 52.5667 62.842 52.533C62.9381 52.4548 63.0259 52.3671 63.104 52.271L63.135 52.297C63.135 52.297 61.547 54.316 59.625 53.118C57.449 51.766 59.212 49.21 59.212 49.21L57.104 44.041C56.8543 43.4226 56.4433 42.8824 55.9138 42.4768C55.3844 42.0712 54.7559 41.815 54.0937 41.7348C53.4316 41.6546 52.7601 41.7535 52.1491 42.021C51.5382 42.2886 51.0102 42.7151 50.62 43.256C49.3779 45.009 48.57 47.0321 48.2629 49.1585C47.9558 51.2849 48.1582 53.4538 48.8535 55.4866C49.5488 57.5195 50.7171 59.3581 52.2621 60.851C53.8072 62.3439 55.6848 63.4484 57.7403 64.0735C59.7958 64.6986 61.9704 64.8265 64.085 64.4466C66.1996 64.0667 68.1937 63.1898 69.9031 61.8883C71.6124 60.5867 72.9881 58.8977 73.9169 56.9604C74.8456 55.023 75.3008 52.8928 75.245 50.745" />
        <path d="M51.3381 16.05C51.6001 16.05 51.955 16.021 52.078 16.168C52.444 16.594 52.907 17.168 53.334 17.756C53.348 17.7748 53.3554 17.7976 53.3551 17.821C53.3546 17.8446 53.3465 17.8674 53.332 17.886C53.3173 17.9044 53.2969 17.9174 53.274 17.923C53.252 17.9306 53.2281 17.9306 53.2061 17.923C52.2481 17.3987 51.1298 17.2476 50.067 17.499C50.0201 17.5147 49.9807 17.5471 49.9563 17.5902C49.9319 17.6332 49.9243 17.6837 49.935 17.732C49.9428 17.7641 49.9586 17.7937 49.981 17.818C50.1962 18.0781 50.4744 18.2788 50.789 18.401C51.6167 18.7411 52.5242 18.8382 53.405 18.681C53.755 18.616 54.19 19.27 54.451 19.781C54.4551 19.7941 54.4551 19.808 54.451 19.821C54.4487 19.8345 54.4424 19.847 54.433 19.857C54.4237 19.867 54.4116 19.8741 54.3983 19.8773C54.3849 19.8805 54.3709 19.8797 54.358 19.875C53.3344 19.4476 52.21 19.3213 51.117 19.511C51.0581 19.5224 51.0042 19.5517 50.9626 19.595C50.921 19.6384 50.894 19.6935 50.8851 19.7529C50.8762 19.8122 50.8859 19.8729 50.913 19.9265C50.94 19.98 50.983 20.0239 51.0361 20.052C51.3926 20.2197 51.7674 20.3452 52.153 20.426C52.8788 20.6071 53.6231 20.7037 54.371 20.714C54.6547 20.723 54.9258 20.8334 55.1351 21.025C55.2354 21.1211 55.3234 21.2292 55.397 21.347C55.431 21.402 55.4621 21.459 55.4911 21.514L55.533 21.595C55.533 21.621 55.572 21.66 55.554 21.687C55.536 21.714 55.5041 21.703 55.4781 21.687L55.4001 21.663L55.235 21.613L54.712 21.448C54.529 21.393 54.343 21.338 54.157 21.291C53.971 21.244 53.7911 21.205 53.6051 21.176C53.4321 21.1482 53.2572 21.1335 53.082 21.132C52.9217 21.1305 52.7618 21.149 52.606 21.187C51.544 21.47 51.9061 21.765 52.1721 21.953C53.2181 22.4373 54.3823 22.6072 55.5231 22.442C55.6279 22.429 55.734 22.4531 55.823 22.51C55.9642 22.6161 56.0795 22.7529 56.16 22.91C56.2126 23.0004 56.2597 23.0939 56.3011 23.19C56.3271 23.245 56.3531 23.297 56.3741 23.355C56.3951 23.413 56.429 23.473 56.403 23.522C56.377 23.571 56.209 23.449 56.168 23.422C56.0676 23.3688 55.9616 23.3265 55.852 23.296C54.8694 22.9964 53.8102 23.0756 52.8831 23.518C52.8183 23.5493 52.7651 23.6003 52.7312 23.6637C52.6972 23.7271 52.6843 23.7997 52.6942 23.8709C52.7041 23.9422 52.7363 24.0084 52.7862 24.0602C52.8362 24.112 52.9012 24.1466 52.972 24.159C53.0196 24.1672 53.0678 24.1715 53.1161 24.172C54.1021 24.211 55.0911 24.196 56.0771 24.248C56.1967 24.257 56.3132 24.2912 56.4187 24.3484C56.5241 24.4056 56.6163 24.4846 56.6891 24.58C56.6975 24.5932 56.7046 24.6073 56.7101 24.622C56.0041 24.622 55.2971 24.635 54.6441 24.656C54.4538 24.6682 54.2692 24.7251 54.1052 24.8223C53.9412 24.9195 53.8025 25.054 53.7005 25.2151C53.5985 25.3761 53.536 25.559 53.5182 25.7488C53.5004 25.9385 53.5278 26.1298 53.5981 26.307C54.3571 28.277 55.6621 31.539 56.3311 33.001C56.4132 33.1805 56.5475 33.3311 56.7163 33.4333C56.8852 33.5355 57.0809 33.5845 57.278 33.574L58.157 33.53C58.8812 33.4976 59.563 33.1796 60.0533 32.6456C60.5435 32.1117 60.8023 31.4053 60.7731 30.681C60.6814 28.9426 60.4981 27.2102 60.224 25.491C60.1798 25.2347 60.0417 25.004 59.8367 24.844C59.6317 24.6839 59.3744 24.6058 59.1151 24.625H57.632C57.556 24.274 57.556 23.945 57.765 23.801C58.403 23.369 59.2931 22.701 59.8891 22.232C60.0358 22.1057 60.1673 21.9627 60.2811 21.806C60.3211 21.7548 60.3456 21.6932 60.3516 21.6285C60.3577 21.5638 60.3451 21.4987 60.3153 21.4409C60.2856 21.3831 60.2398 21.3351 60.1836 21.3025C60.1274 21.2699 60.063 21.2541 59.998 21.257C59.4408 21.2821 58.902 21.4645 58.444 21.783C58.1701 21.9704 57.9182 22.1881 57.6931 22.432C57.5781 22.552 57.4681 22.678 57.3611 22.806L57.201 23.006C57.162 23.056 57.101 23.173 57.028 23.166C56.955 23.159 56.913 23.012 56.884 22.949C56.8516 22.8744 56.8246 22.7975 56.8031 22.719C56.7628 22.5918 56.7702 22.4542 56.824 22.332C56.9018 22.1914 57.011 22.0706 57.1431 21.979C57.5822 21.6393 57.9862 21.2564 58.349 20.836C58.7226 20.3538 59.0717 19.8532 59.395 19.336C59.4157 19.3053 59.4278 19.2696 59.4299 19.2327C59.432 19.1957 59.4241 19.1589 59.407 19.126C59.3901 19.0934 59.3648 19.0658 59.3337 19.0461C59.3026 19.0264 59.2668 19.0154 59.2301 19.014C57.6031 18.956 56.7611 20.277 56.3811 21.514C56.3758 21.5285 56.3669 21.5412 56.3551 21.551C56.3431 21.5611 56.3285 21.5677 56.313 21.57C56.2983 21.5739 56.2828 21.5739 56.268 21.57C56.2538 21.5644 56.2414 21.5551 56.2321 21.543C55.6381 20.758 55.5151 20.57 56.1671 19.712C56.4795 19.3458 56.7539 18.9488 56.9861 18.527C57.1385 18.2727 57.2283 17.9858 57.248 17.69C57.2559 17.6398 57.2504 17.5884 57.2321 17.541C57.2182 17.5055 57.1974 17.473 57.1708 17.4457C57.1442 17.4183 57.1124 17.3966 57.0772 17.3818C57.042 17.3669 57.0043 17.3593 56.9661 17.3594C56.9279 17.3594 56.8902 17.3671 56.8551 17.382C55.8091 17.582 55.4011 18.269 55.2861 19.794C55.2854 19.818 55.277 19.8412 55.2621 19.86C55.2474 19.8789 55.227 19.8926 55.204 19.8991C55.1809 19.9056 55.1564 19.9045 55.134 19.896C55.1082 19.8864 55.0868 19.8675 55.074 19.843C54.5873 19.1853 54.3586 18.372 54.431 17.557C54.7113 16.7824 54.8082 15.9534 54.714 15.135C54.604 14.481 54.452 14.23 54.233 14.089C54.1587 14.0537 54.0759 14.0399 53.9941 14.0491C53.9123 14.0583 53.8347 14.0901 53.77 14.141C53.6035 14.3471 53.5213 14.6087 53.5401 14.873C53.5401 15.545 53.6161 16.327 53.6761 17.039C53.6758 17.0622 53.6685 17.0847 53.655 17.1035C53.6416 17.1224 53.6227 17.1367 53.6009 17.1444C53.579 17.1522 53.5554 17.153 53.533 17.1469C53.5107 17.1407 53.4908 17.1279 53.476 17.11C52.783 16.092 51.9561 15.622 52.1031 14.41C52.1621 13.7171 51.9567 13.0276 51.528 12.48C51.469 12.41 51.3879 12.362 51.298 12.344C51.2699 12.3389 51.241 12.3401 51.2135 12.3478C51.186 12.3554 51.1605 12.3691 51.1391 12.388C51.1178 12.4071 51.1011 12.4307 51.0901 12.457C51.078 12.484 51.0725 12.5135 51.074 12.543C51.0131 13.2345 51.1319 13.93 51.4191 14.562C51.4289 14.5818 51.4314 14.6045 51.4261 14.626C51.4206 14.6479 51.4076 14.667 51.3892 14.6801C51.3709 14.6931 51.3485 14.6991 51.326 14.697C51.304 14.6959 51.2831 14.6871 51.267 14.672L51.1281 14.552L50.8401 14.29L50.563 14.044L50.4371 13.937L50.379 13.89C50.358 13.872 50.34 13.851 50.308 13.853C50.276 13.855 50.264 13.879 50.25 13.905C50.2273 13.9539 50.2193 14.0083 50.2272 14.0616C50.235 14.1149 50.2582 14.1648 50.2941 14.205C50.6131 14.561 51.079 14.99 51.382 15.33C51.3892 15.3384 51.3931 15.349 51.393 15.36C51.3931 15.371 51.3892 15.3817 51.382 15.39C51.3749 15.3985 51.3649 15.4042 51.3539 15.406C51.3429 15.4079 51.3316 15.4057 51.3221 15.4C50.1421 14.751 49.5801 15.248 48.8501 15.214C48.8222 15.2138 48.795 15.2222 48.772 15.238C48.7492 15.2537 48.7317 15.276 48.722 15.302C48.7119 15.3278 48.7102 15.3562 48.7171 15.383C48.7235 15.4101 48.7382 15.4346 48.759 15.453C49.5176 15.9546 50.4309 16.1675 51.3331 16.053" />
    </symbol>

    <symbol viewBox="0 0 80 80" id="features-3">
        <path d="M67.454 50.24C67.388 48.56 67.261 46.877 67.107 45.196C67.108 45.1104 67.0996 45.0249 67.082 44.941C66.855 42.568 66.546 40.213 66.135 37.861C65.9125 36.6223 65.2615 35.5013 64.2958 34.6942C63.3302 33.8871 62.1115 33.4452 60.853 33.446H35.547C33.614 27.546 29.529 19.429 20.921 10.608C19.914 9.57805 18.961 8.85905 17.519 9.74605C17.1576 9.99249 16.9021 10.3659 16.8034 10.792C16.7046 11.2181 16.7698 11.6658 16.986 12.046L27.809 33.446H27.058C26.5863 33.4462 26.1239 33.3154 25.7222 33.0682C25.3205 32.821 24.9954 32.4672 24.783 32.046L14.685 11.964C14.5496 11.6787 14.3138 11.4534 14.0226 11.3312C13.7314 11.2091 13.4053 11.1987 13.107 11.302C12.9458 11.3626 12.7993 11.4565 12.6768 11.5774C12.5544 11.6984 12.4588 11.8438 12.3962 12.0041C12.3337 12.1645 12.3056 12.3362 12.3138 12.5082C12.3221 12.6801 12.3664 12.8484 12.444 13.002L30.889 49.695C31.2176 50.3495 31.3185 51.0949 31.1756 51.8131C31.0327 52.5313 30.6541 53.1813 30.1 53.66C26.1 57.127 17.182 65.03 13.956 69.537C13.7805 69.7075 13.6598 69.9264 13.6096 70.1658C13.5594 70.4052 13.5818 70.6542 13.674 70.8808C13.7661 71.1074 13.9239 71.3013 14.127 71.4376C14.3301 71.574 14.5693 71.6465 14.814 71.646C15.1336 71.6476 15.4409 71.5229 15.669 71.299C15.769 71.199 25.789 61.562 36.18 56.566C42.4158 53.6691 48.8565 51.2355 55.45 49.285C56.3852 49.0006 57.3716 48.9256 58.3391 49.0654C59.3066 49.2051 60.2314 49.5561 61.048 50.0935C61.8645 50.6308 62.5528 51.3414 63.0638 52.1747C63.5749 53.008 63.8962 53.9436 64.005 54.915C64.805 62.07 65.734 70.474 65.734 70.474C65.7456 70.7908 65.8797 71.0907 66.108 71.3106C66.3363 71.5305 66.641 71.6533 66.958 71.653H67.009C67.3321 71.6408 67.6374 71.5014 67.8584 71.2653C68.0793 71.0292 68.1982 70.7153 68.189 70.392L67.454 50.24ZM64.114 41.812C64.0205 42.1627 63.8239 42.4773 63.5498 42.7152C63.2756 42.953 62.9364 43.1031 62.576 43.146C53.5862 44.3696 44.7865 46.7214 36.385 50.146C35.8157 50.3753 35.181 50.3823 34.6068 50.1656C34.0326 49.9489 33.5608 49.5243 33.285 48.976L27.568 37.606C27.4779 37.4271 27.4353 37.228 27.444 37.0278C27.4528 36.8277 27.5126 36.6331 27.6179 36.4626C27.7232 36.2922 27.8704 36.1515 28.0455 36.0541C28.2205 35.9567 28.4176 35.9057 28.618 35.906H60.853C61.5354 35.9036 62.1968 36.142 62.7208 36.5791C63.2449 37.0163 63.5979 37.6243 63.718 38.296C63.88 39.2294 64.0253 40.1644 64.154 41.101C64.1871 41.3392 64.1725 41.5816 64.111 41.814" />
        <path d="M61.696 38.6851C58.285 37.1471 52.154 36.2291 39.712 41.8661C39.4497 41.9858 39.163 42.042 38.8749 42.0301C38.5869 42.0181 38.3057 41.9385 38.0543 41.7975C37.8028 41.6565 37.5882 41.4582 37.4277 41.2187C37.2673 40.9792 37.1656 40.7052 37.131 40.4191C36.9925 39.2454 36.7892 38.0803 36.522 36.929C36.522 36.909 36.512 36.8871 36.507 36.8671C36.407 36.6071 35.67 35.8011 30.207 38.1861L34.164 46.01C34.4561 46.5888 34.9548 47.037 35.5613 47.2658C36.1679 47.4947 36.8383 47.4876 37.44 47.246C45.0737 44.1588 53.093 42.1278 61.276 41.2091C61.566 41.1814 61.8389 41.0588 62.0521 40.8603C62.2653 40.6617 62.4071 40.3983 62.4553 40.1109C62.5035 39.8236 62.4555 39.5284 62.3187 39.2711C62.182 39.0138 61.9641 38.8088 61.699 38.6881" />
    </symbol>

    <symbol viewBox="0 0 80 80" id="features-4">
        <path d="M70.1428 67.475C69.7737 67.1632 69.3015 67.0005 68.8188 67.019C68.3647 67.105 67.9059 67.1638 67.4448 67.195C67.3775 67.1949 67.3105 67.1879 67.2448 67.174C66.9626 67.074 66.713 66.8991 66.5228 66.668C66.1105 66.0555 65.9277 65.3171 66.0068 64.583C66.0548 55.366 66.0278 53.811 66.0368 44.59C66.0368 40.924 65.9508 37.252 66.1368 33.59C66.4039 29.5379 65.5934 25.4873 63.7878 21.85C63.7384 21.7529 63.6677 21.6683 63.5809 21.6026C63.4941 21.5369 63.3935 21.4917 63.2867 21.4705C63.1799 21.4493 63.0697 21.4527 62.9644 21.4803C62.8591 21.5079 62.7614 21.5591 62.6788 21.63C61.2954 22.8015 59.5726 23.498 57.7638 23.617C57.6553 23.6255 57.5496 23.6555 57.4529 23.7052C57.3561 23.7549 57.2702 23.8233 57.2 23.9065C57.1299 23.9896 57.0769 24.0859 57.0443 24.1897C57.0116 24.2934 56.9999 24.4026 57.0098 24.511C57.2722 26.8991 56.6027 29.2964 55.1408 31.203C54.0258 32.665 53.3188 33.029 51.9408 32.728C47.3108 31.721 42.4008 29.735 37.7798 28.678C33.5428 27.707 30.4728 27.162 25.6798 30.703C25.5019 30.7767 25.3096 30.8089 25.1174 30.7971C24.9252 30.7854 24.7383 30.7299 24.5708 30.635C20.9548 28.848 18.3788 25.742 17.8708 23.446C16.8538 18.791 18.4368 17.156 20.9328 16.697L21.0728 16.676C21.1616 16.6666 21.2435 16.6237 21.3018 16.5561C21.3601 16.4884 21.3905 16.4011 21.3866 16.3119C21.3828 16.2227 21.3451 16.1382 21.2812 16.0758C21.2173 16.0134 21.1321 15.9777 21.0428 15.976H21.0008C18.9438 15.876 15.7008 17.587 16.2728 22.722C16.6488 26.144 18.6368 28.777 21.9368 31.359C22.0986 31.4823 22.2329 31.6381 22.331 31.8163C22.4291 31.9945 22.489 32.1912 22.5067 32.3939C22.5244 32.5966 22.4995 32.8007 22.4338 32.9933C22.368 33.1858 22.2628 33.3625 22.1248 33.512C20.0193 35.8575 18.6918 38.7975 18.3248 41.928C18.0248 43.992 17.8598 44.403 17.5708 46.47C17.1768 49.279 17.4708 50.211 15.7098 51.97C13.3248 54.353 13.6648 54.12 11.0178 56.458C10.6651 56.691 10.3779 57.0105 10.1838 57.386C9.98965 57.7615 9.89496 58.1805 9.90876 58.603C10.4188 61.352 9.45876 64.967 10.0848 67.689C10.1708 68.067 10.6578 68.612 10.9788 68.63C12.3708 68.708 13.7698 68.687 15.1528 68.678C15.5288 68.678 15.9008 68.729 16.0678 68.61C16.2348 68.491 16.1958 68.333 16.0028 67.955C15.9392 67.8252 15.8577 67.7051 15.7608 67.598C15.4814 67.3059 15.1324 67.0896 14.7466 66.9692C14.3607 66.8489 13.9506 66.8285 13.5548 66.91C13.1548 66.97 12.7548 67.002 12.4998 66.58C11.6798 65.219 12.3998 58.819 13.2598 57.961C15.3108 55.912 18.3278 55.143 20.7398 53.634C24.0198 51.585 26.5398 48.705 27.1888 44.801C27.4718 43.095 27.3888 41.331 27.8118 39.658C28.6678 36.319 31.7558 34.994 34.6448 37.058C37.7128 39.25 40.7328 41.525 43.8218 43.676C45.9539 45.1778 48.4584 46.0634 51.0606 46.2357C53.6628 46.4081 56.2622 45.8605 58.5738 44.653C59.2478 44.301 60.1808 43.253 60.9978 43.64C61.3978 43.831 61.4478 44.798 61.5138 45.317C61.6031 46.017 61.7031 46.717 61.8138 47.417C62.1448 49.695 62.5558 51.962 62.9648 54.231C63.4568 56.962 63.8918 59.702 64.2378 62.457C64.5508 64.974 64.5628 65.194 65.0488 67.684C65.2008 68.476 66.0688 68.613 66.4048 68.637C67.1448 68.691 67.8958 68.703 68.6258 68.703H69.7638C70.0744 68.7253 70.3862 68.7253 70.6968 68.703C70.7217 68.699 70.7442 68.6858 70.7598 68.666C70.775 68.646 70.7821 68.621 70.7798 68.596C70.7072 68.1603 70.4809 67.765 70.1418 67.482" />
        <path d="M45.3828 68.279C44.9118 67.442 44.2138 66.498 42.8698 66.989C42.3698 67.171 42.2408 67.248 41.7998 67.049C41.61 66.9619 41.43 66.8549 41.2628 66.73C39.8337 65.6594 38.5693 64.3852 37.5098 62.948C36.8808 62.117 35.0528 60.458 35.6738 59.565C36.6458 58.165 38.6228 55.923 39.6838 54.595C40.089 54.0312 40.3785 53.3928 40.5355 52.7165C40.6926 52.0403 40.7141 51.3396 40.5988 50.655C40.2672 48.6291 39.6204 46.6676 38.6818 44.842C37.8073 43.1065 36.5984 41.5609 35.1248 40.294C33.7768 39.129 30.9148 38.078 29.3048 39.326C27.7758 40.514 28.6878 42.826 29.2838 44.249C30.3928 46.941 32.3308 48.827 34.3518 50.929C34.9248 51.5166 35.3095 52.2619 35.4567 53.0694C35.6038 53.8769 35.5067 54.71 35.1778 55.462C34.4999 56.623 33.7595 57.7463 32.9598 58.827C32.1788 60.146 32.5538 61.117 33.6698 62.127C35.8342 63.911 37.8302 65.89 39.6328 68.039C39.9226 68.4262 40.3486 68.6889 40.8248 68.774C42.0768 68.854 43.3498 68.706 44.6018 68.774C44.7328 68.783 44.8488 68.807 45.0108 68.822C45.1728 68.837 45.3688 68.813 45.4428 68.67C45.466 68.6046 45.4727 68.5345 45.4622 68.4659C45.4517 68.3974 45.4244 68.3324 45.3828 68.277" />
        <path d="M59.6478 45.009C59.2748 45.134 56.9918 46.033 56.4578 46.275C56.2212 46.4172 56.0166 46.6067 55.8566 46.8316C55.6966 47.0565 55.5846 47.3119 55.5278 47.582C55.0088 50.843 52.2988 60.353 51.7568 65.508C51.6568 66.491 52.6458 68.763 53.6028 68.763H57.4158C58.3338 68.79 58.5368 68.87 58.4388 68.463C58.377 68.2744 58.2746 68.1016 58.1388 67.957C57.74 67.4815 57.2411 67.1001 56.6778 66.84C56.3952 66.713 56.0878 66.6512 55.7781 66.659C55.4685 66.6667 55.1646 66.744 54.8888 66.885C54.5888 67.049 54.2478 67.335 53.9288 67.185C53.7888 67.119 52.8288 66.848 53.2138 64.764C53.3859 64.0274 53.604 63.3023 53.8668 62.593C54.2601 61.3643 54.6934 60.1543 55.1668 58.963C55.9868 56.899 56.9318 54.886 57.7758 52.831C58.2468 51.669 59.0638 49.585 59.4638 48.394C59.7638 47.501 60.0418 46.607 60.3398 45.714C60.4102 45.5603 60.4177 45.3852 60.3608 45.226C60.3038 45.119 60.1258 44.851 59.6458 45.012" />
        <path d="M44.3598 12.512C44.5318 13.0209 44.8131 13.4861 45.1838 13.875C45.5548 14.2641 46.0063 14.5675 46.5068 14.764C48.0238 15.401 49.5718 15.973 51.0648 16.655C53.2023 17.5878 54.9592 19.2198 56.0468 21.283C56.1388 21.465 56.2228 21.652 56.3028 21.843C56.3708 22.0059 56.4891 22.1428 56.6403 22.2338C56.7916 22.3248 56.968 22.3652 57.1438 22.349C58.9326 22.2156 60.6297 21.505 61.9798 20.324C62.1486 20.1799 62.2577 19.978 62.2858 19.7578C62.3139 19.5376 62.259 19.3149 62.1318 19.133C61.9978 18.933 61.8608 18.743 61.7178 18.552C61.0448 17.6551 60.315 16.8023 59.5328 15.999C59.1988 15.656 57.9468 14.599 57.9528 14.135C57.9528 13.78 58.4208 13.706 58.7068 13.644C59.3534 13.5066 60.0275 13.5904 60.6208 13.882C60.6673 13.908 60.7203 13.92 60.7735 13.9167C60.8266 13.9133 60.8777 13.8947 60.9206 13.863C60.9634 13.8313 60.9962 13.788 61.0151 13.7381C61.0339 13.6883 61.038 13.6341 61.0268 13.582C60.9446 13.2302 60.7296 12.9239 60.4268 12.727C59.8297 12.3042 59.1121 12.0857 58.3808 12.104C57.3708 12.149 56.3808 12.36 55.3808 12.476C54.5147 12.4898 53.6584 12.2925 52.8858 11.901C52.6838 11.7911 52.4597 11.7279 52.23 11.7162C52.0003 11.7044 51.771 11.7443 51.5588 11.833C51.0187 12.0502 50.4469 12.1779 49.8658 12.211C49.4398 12.211 47.5318 11.749 47.0448 11.645L45.8508 11.383C45.4679 11.2751 45.0753 11.2051 44.6788 11.174C44.5608 11.1669 44.443 11.1892 44.3358 11.239C44.0978 11.367 44.1598 11.647 44.1988 11.868C44.2377 12.0857 44.2915 12.3006 44.3598 12.511M53.3428 13.041C53.3675 13.0546 53.3875 13.0755 53.3998 13.101C53.4087 13.1198 53.4132 13.1404 53.4128 13.1613C53.4124 13.1821 53.4071 13.2026 53.3974 13.221C53.3877 13.2395 53.3738 13.2554 53.3568 13.2676C53.3399 13.2797 53.3204 13.2877 53.2998 13.291C52.755 13.3356 52.2075 13.3356 51.6628 13.291C51.6453 13.2893 51.6283 13.2842 51.6128 13.276C51.5972 13.2678 51.5834 13.2567 51.5722 13.2431C51.5611 13.2295 51.5527 13.2138 51.5478 13.197C51.5441 13.1798 51.5441 13.1621 51.5478 13.145C51.7978 12.073 52.6808 12.68 53.3478 13.045" />
    </symbol>

    <symbol viewBox="0 0 40 60" id="icon-pleasure">
        <path d="M18.723 37.51C18.6887 37.51 18.6547 37.5033 18.6231 37.4901C18.5914 37.477 18.5626 37.4578 18.5384 37.4336C18.5142 37.4093 18.4949 37.3805 18.4818 37.3489C18.4687 37.3172 18.462 37.2833 18.462 37.249V37.194C18.4622 37.1249 18.4898 37.0586 18.5387 37.0097C18.5876 36.9608 18.6538 36.9333 18.723 36.933H20.891L20.63 37.533L18.723 37.51ZM18.033 8.179C17.186 12.213 12.244 34.777 11.854 36.758C11.525 38.438 14.242 38.445 14.242 38.445H12.115C11.8722 38.4447 11.6326 38.3902 11.4137 38.2854C11.1947 38.1806 11.0019 38.0283 10.8493 37.8395C10.6968 37.6507 10.5883 37.4302 10.5318 37.1942C10.4753 36.9581 10.4723 36.7124 10.523 36.475L16.799 7.221C16.8778 6.85552 17.0797 6.52817 17.3709 6.29372C17.6622 6.05927 18.0251 5.93193 18.399 5.933H21.474C21.8464 5.93311 22.2075 6.06109 22.497 6.29553C22.7864 6.52998 22.9865 6.85668 23.064 7.221L23.164 7.686C23.164 7.686 18.248 7.177 18.036 8.18M18.726 33.955H21.161C21.2302 33.955 21.2966 33.9825 21.3455 34.0314C21.3945 34.0804 21.422 34.1468 21.422 34.216V34.274C21.422 34.3432 21.3945 34.4096 21.3455 34.4586C21.2966 34.5075 21.2302 34.535 21.161 34.535H18.723C18.6537 34.535 18.5873 34.5075 18.5384 34.4586C18.4895 34.4096 18.462 34.3432 18.462 34.274V34.216C18.462 34.1468 18.4895 34.0804 18.5384 34.0314C18.5873 33.9825 18.6537 33.955 18.723 33.955M18.723 31.001H21.158C21.2272 31.001 21.2936 31.0285 21.3425 31.0774C21.3915 31.1264 21.419 31.1928 21.419 31.262V31.317C21.419 31.3862 21.3915 31.4526 21.3425 31.5016C21.2936 31.5505 21.2272 31.578 21.158 31.578H18.723C18.6538 31.5777 18.5876 31.5502 18.5387 31.5013C18.4898 31.4524 18.4622 31.3861 18.462 31.317V31.258C18.462 31.1888 18.4895 31.1224 18.5384 31.0734C18.5873 31.0245 18.6537 30.997 18.723 30.997M18.723 28.04H21.158C21.2272 28.04 21.2936 28.0675 21.3425 28.1164C21.3915 28.1654 21.419 28.2318 21.419 28.301V28.358C21.419 28.4272 21.3915 28.4936 21.3425 28.5426C21.2936 28.5915 21.2272 28.619 21.158 28.619H18.723C18.6541 28.6185 18.5882 28.5907 18.5397 28.5419C18.4912 28.493 18.464 28.4269 18.464 28.358V28.319C18.4615 28.2832 18.4664 28.2474 18.4784 28.2136C18.4904 28.1798 18.5092 28.1489 18.5337 28.1227C18.5582 28.0965 18.5878 28.0757 18.6207 28.0614C18.6536 28.0472 18.6891 28.0399 18.725 28.04M18.725 25.085H21.16C21.2292 25.085 21.2956 25.1125 21.3445 25.1614C21.3935 25.2104 21.421 25.2768 21.421 25.346V25.401C21.421 25.4702 21.3935 25.5366 21.3445 25.5856C21.2956 25.6345 21.2292 25.662 21.16 25.662H18.723C18.6537 25.662 18.5873 25.6345 18.5384 25.5856C18.4895 25.5366 18.462 25.4702 18.462 25.401V25.346C18.462 25.2768 18.4895 25.2104 18.5384 25.1614C18.5873 25.1125 18.6537 25.085 18.723 25.085M18.723 22.128H21.158C21.2272 22.128 21.2936 22.1555 21.3425 22.2044C21.3915 22.2534 21.419 22.3198 21.419 22.389V22.446C21.419 22.5152 21.3915 22.5816 21.3425 22.6306C21.2936 22.6795 21.2272 22.707 21.158 22.707H18.723C18.6537 22.707 18.5873 22.6795 18.5384 22.6306C18.4895 22.5816 18.462 22.5152 18.462 22.446V22.389C18.4622 22.3199 18.4898 22.2536 18.5387 22.2047C18.5876 22.1558 18.6538 22.1283 18.723 22.128ZM18.464 16.549V16.491C18.464 16.4218 18.4915 16.3554 18.5404 16.3064C18.5893 16.2575 18.6557 16.23 18.725 16.23H21.16C21.2292 16.23 21.2956 16.2575 21.3445 16.3064C21.3935 16.3554 21.421 16.4218 21.421 16.491V16.549C21.421 16.6182 21.3935 16.6846 21.3445 16.7336C21.2956 16.7825 21.2292 16.81 21.16 16.81H18.723C18.6888 16.8109 18.6549 16.8051 18.623 16.793C18.5901 16.7805 18.5602 16.7615 18.535 16.737C18.5095 16.7125 18.4893 16.6832 18.4756 16.6507C18.4618 16.6182 18.4548 16.5833 18.455 16.548L18.464 16.549ZM18.725 19.177H21.16C21.2292 19.177 21.2956 19.2045 21.3445 19.2534C21.3935 19.3024 21.421 19.3688 21.421 19.438V19.493C21.421 19.5622 21.3935 19.6286 21.3445 19.6776C21.2956 19.7265 21.2292 19.754 21.16 19.754H18.723C18.6537 19.754 18.5873 19.7265 18.5384 19.6776C18.4895 19.6286 18.462 19.5622 18.462 19.493V19.441C18.462 19.3718 18.4895 19.3054 18.5384 19.2564C18.5873 19.2075 18.6537 19.18 18.723 19.18L18.725 19.177ZM31.464 16.695C31.6004 16.7511 31.7535 16.7511 31.89 16.695L33.074 16.243C33.1427 16.2173 33.2056 16.1782 33.259 16.1279C33.3124 16.0776 33.3552 16.0171 33.385 15.95L34.785 12.831C34.8149 12.7643 34.8313 12.6923 34.8332 12.6192C34.8352 12.5461 34.8227 12.4733 34.7963 12.4051C34.77 12.3368 34.7305 12.2745 34.68 12.2216C34.6294 12.1687 34.5689 12.1264 34.502 12.097L33.477 11.637L34.167 10.099C34.2231 9.96067 34.2234 9.80594 34.1677 9.66742C34.112 9.52889 34.0047 9.41741 33.8684 9.35646C33.7321 9.29551 33.5775 9.28986 33.4371 9.34071C33.2968 9.39155 33.1816 9.49491 33.116 9.629L32.426 11.168L31.414 10.713C31.2786 10.6529 31.125 10.6488 30.9867 10.7017C30.8485 10.7545 30.7367 10.86 30.676 10.995L29.276 14.111C29.2158 14.2465 29.2112 14.4001 29.263 14.539L29.715 15.722C29.7676 15.8604 29.873 15.9722 30.008 16.033L30.208 16.119L27.8 21.49L24.364 5.958C24.2772 5.56544 24.102 5.19784 23.8518 4.88315C23.6016 4.56847 23.2829 4.31499 22.92 4.142L20.494 2.983C20.3222 2.90103 20.1343 2.85849 19.944 2.85849C19.7536 2.85849 19.5657 2.90103 19.394 2.983L16.964 4.141C16.6018 4.31494 16.2839 4.56888 16.0343 4.88364C15.7847 5.19841 15.6098 5.56577 15.523 5.958L5.22195 52.473C5.1193 52.9356 5.15224 53.4179 5.31684 53.8622C5.48144 54.3066 5.77071 54.694 6.14995 54.978C6.41634 55.1879 6.63059 55.4566 6.77595 55.763C6.92161 56.0692 6.9945 56.405 6.98895 56.744V56.944C6.98304 57.2747 7.09984 57.596 7.31684 57.8456C7.53383 58.0953 7.83562 58.2558 8.16395 58.296C8.34579 58.3136 8.52931 58.2929 8.70265 58.2352C8.876 58.1775 9.03533 58.0842 9.17035 57.9611C9.30538 57.838 9.41311 57.688 9.48659 57.5208C9.56007 57.3535 9.59767 57.1727 9.59695 56.99V56.933C9.59709 56.7406 9.63515 56.5501 9.70897 56.3724C9.78279 56.1947 9.89091 56.0333 10.0272 55.8974C10.1634 55.7615 10.3251 55.6538 10.503 55.5805C10.6809 55.5072 10.8715 55.4696 11.064 55.47H28.818C29.2064 55.4697 29.5791 55.6237 29.8542 55.898C30.1292 56.1723 30.2842 56.5445 30.285 56.933C30.2789 57.2645 30.3961 57.5865 30.614 57.8365C30.8318 58.0865 31.1347 58.2467 31.464 58.286C31.6458 58.3036 31.8293 58.2829 32.0027 58.2252C32.176 58.1675 32.3353 58.0742 32.4704 57.9511C32.6054 57.828 32.7131 57.678 32.7866 57.5108C32.8601 57.3435 32.8977 57.1627 32.897 56.98V56.536C32.9022 56.2106 32.9792 55.8905 33.1225 55.5983C33.2658 55.3062 33.4719 55.0493 33.726 54.846C34.1019 54.5359 34.3843 54.1275 34.5418 53.6663C34.6993 53.2051 34.7257 52.7093 34.618 52.234L28.637 25.258L22.722 38.448H21.472L31.272 16.601L31.464 16.695Z" />
    </symbol>

    <symbol viewBox="0 0 18 18" id="filter-reset">
        <path d="M17.469 9C17.469 10.6752 16.9722 12.3129 16.0415 13.7058C15.1107 15.0987 13.7878 16.1843 12.2401 16.8254C10.6923 17.4664 8.98926 17.6341 7.34621 17.3072C5.70317 16.9803 4.19396 16.1735 3.00945 14.9888C1.82494 13.8042 1.01833 12.2949 0.691622 10.6518C0.364918 9.00872 0.532795 7.30565 1.17402 5.75798C1.81525 4.2103 2.90103 2.88754 4.29404 1.95696C5.68706 1.02639 7.32474 0.529801 9 0.529999C10.1122 0.529999 11.2136 0.749089 12.2412 1.17476C13.2687 1.60043 14.2024 2.22434 14.9888 3.01086C15.7753 3.79739 16.3991 4.73112 16.8246 5.75875C17.2502 6.78637 17.4691 7.88775 17.469 9Z" stroke-miterlimit="10" />
        <path d="M6.771 6.771L11.228 11.228" stroke-miterlimit="10" />
        <path d="M6.771 11.228L11.228 6.771" stroke-miterlimit="10" />
    </symbol>

    <symbol viewBox="0 0 32 32" id="detail-add">
        <path d="M16 31.5C24.5604 31.5 31.5 24.5604 31.5 16C31.5 7.43959 24.5604 0.5 16 0.5C7.43959 0.5 0.5 7.43959 0.5 16C0.5 24.5604 7.43959 31.5 16 31.5Z" />
        <path d="M10.413 14.864L14.904 19.451L21.674 12.428" stroke-linejoin="round" />
    </symbol>

    <symbol viewBox="0 0 40 40" id="detail-whatsapp">
        <path d="M-1.41601e-05 39.993C0.260986 39.204 0.499986 38.469 0.746986 37.739C1.39032 35.8723 2.03699 34.0037 2.68699 32.133C2.92099 31.458 3.17199 30.787 3.36799 30.1C3.4258 29.8647 3.39778 29.6165 3.28899 29.4C2.44625 27.8528 1.79896 26.2068 1.36199 24.5C0.934663 22.8716 0.726824 21.1934 0.743986 19.51C0.767538 17.8007 1.01532 16.1018 1.48099 14.457C1.88472 13.0035 2.45061 11.6 3.16799 10.273C3.62847 9.4166 4.15859 8.59952 4.75299 7.83C5.47267 6.90758 6.25024 6.03182 7.08099 5.208C8.33759 3.97282 9.77426 2.93536 11.342 2.131C12.6704 1.43201 14.0768 0.892592 15.532 0.524002C16.8075 0.194874 18.1178 0.0189668 19.435 1.7269e-06C20.7651 -0.0162775 22.0948 0.0572228 23.415 0.220002C25.307 0.477818 27.1482 1.02487 28.874 1.842C31.658 3.11984 34.0924 5.05071 35.9705 7.47063C37.8487 9.89054 39.115 12.728 39.662 15.742C39.8252 16.7043 39.9281 17.6759 39.97 18.651C40.1168 21.4468 39.6385 24.2402 38.57 26.828C37.8226 28.7518 36.7473 30.5315 35.392 32.088C34.655 32.9391 33.8693 33.7467 33.039 34.507C31.8127 35.5843 30.4459 36.4903 28.976 37.2C27.3954 37.9938 25.7077 38.5533 23.966 38.861C22.3011 39.1655 20.6026 39.2425 18.917 39.09C17.3461 38.9672 15.7956 38.656 14.299 38.163C13.7785 37.9499 13.2713 37.7058 12.78 37.432C12.1253 37.0044 11.3619 36.773 10.58 36.765C9.83072 36.8516 9.09307 37.0192 8.37999 37.265C6.77999 37.8 5.20499 38.414 3.60799 38.965C2.52099 39.338 1.41399 39.655 0.312986 39.993C0.208329 40.005 0.102643 40.005 -0.00201416 39.993M5.29099 34.909C5.91199 34.724 6.43199 34.579 6.94499 34.416C8.32599 33.98 9.70299 33.533 11.086 33.102C11.2081 33.0783 11.3346 33.0978 11.444 33.157C11.825 33.346 12.194 33.557 12.572 33.757C14.7425 34.8795 17.1375 35.4997 19.58 35.572C21.0794 35.6171 22.5779 35.4573 24.034 35.097C25.407 34.7682 26.7309 34.2609 27.972 33.588C29.7078 32.672 31.2657 31.4528 32.572 29.988C33.3785 29.0788 34.0877 28.0878 34.688 27.031C35.8588 24.9566 36.5107 22.6298 36.588 20.249C36.6636 18.3899 36.4198 16.5316 35.867 14.755C35.0369 12.0134 33.4867 9.54469 31.378 7.606C30.3931 6.69622 29.301 5.90976 28.126 5.264C26.6818 4.46708 25.1172 3.91111 23.494 3.618C22.0018 3.33522 20.4774 3.26185 18.965 3.4C17.4759 3.53594 16.0116 3.87023 14.611 4.394C12.8521 5.07069 11.231 6.06184 9.82699 7.319C9.1168 7.97808 8.45695 8.6894 7.85299 9.447C6.80307 10.7216 5.96657 12.1579 5.37599 13.7C4.80903 15.1291 4.43638 16.6278 4.26799 18.156C4.07649 19.8474 4.15276 21.5584 4.49399 23.226C4.87495 25.1652 5.63848 27.0091 6.73999 28.65C6.9014 28.8614 7.00168 29.1131 7.0299 29.3776C7.05811 29.6421 7.01317 29.9093 6.89999 30.15C6.32699 31.689 5.84199 33.262 5.29299 34.906" stroke="none" />
        <path d="M15.619 17.855C16.0516 18.7896 16.5999 19.6661 17.251 20.464C18.1486 21.5917 19.2305 22.5594 20.451 23.326C21.103 23.726 21.799 24.057 22.46 24.446C22.5633 24.516 22.6896 24.5432 22.8125 24.5219C22.9354 24.5006 23.0453 24.4326 23.119 24.332C23.7857 23.6393 24.4457 22.9373 25.099 22.226C25.1703 22.1186 25.2791 22.0417 25.404 22.0101C25.529 21.9785 25.6612 21.9945 25.775 22.055C27.3593 22.6801 28.8753 23.4662 30.299 24.401C30.3928 24.4537 30.4697 24.5319 30.5207 24.6267C30.5717 24.7214 30.5947 24.8287 30.587 24.936C30.5987 25.9159 30.2698 26.8694 29.6564 27.6337C29.043 28.3979 28.1832 28.9254 27.224 29.126C25.5595 29.5265 23.8088 29.3572 22.252 28.645C20.3089 27.8492 18.5164 26.7266 16.952 25.326C16.102 24.571 15.252 23.806 14.479 22.974C13.0253 21.4686 11.8504 19.7171 11.009 17.801C10.5524 16.6806 10.3993 15.4595 10.565 14.261C10.6454 13.2332 10.9898 12.2436 11.565 11.388C11.8932 10.8809 12.3613 10.4797 12.9127 10.2331C13.4641 9.98637 14.0752 9.90473 14.672 9.998C14.729 10.005 14.785 10.017 14.842 10.02C15.0467 10.0072 15.2502 10.0598 15.4231 10.1702C15.596 10.2805 15.7294 10.4429 15.804 10.634C16.3669 11.7413 16.7985 12.9105 17.09 14.118C17.2315 14.6179 17.2543 15.1439 17.1565 15.6542C17.0588 16.1644 16.8432 16.6448 16.527 17.057C16.2449 17.3462 15.9395 17.6117 15.614 17.851" stroke="none" />
    </symbol>

    <symbol viewBox="0 0 40 40" id="detail-telegram">
        <path d="M20 38.35C30.1344 38.35 38.35 30.1344 38.35 20C38.35 9.86557 30.1344 1.64999 20 1.64999C9.8656 1.64999 1.65002 9.86557 1.65002 20C1.65002 30.1344 9.8656 38.35 20 38.35Z" fill="none" stroke-width="3.3" />
        <path d="M16.753 28.369C16.766 28.162 16.777 27.969 16.792 27.779C16.8787 26.6457 16.9657 25.5123 17.053 24.379C17.072 24.131 17.079 23.879 17.117 23.638C17.139 23.5339 17.1932 23.4394 17.272 23.368C18.434 22.306 19.604 21.249 20.767 20.193C22.109 18.969 23.4483 17.7413 24.785 16.51C25.185 16.14 25.585 15.762 25.979 15.388C26.045 15.325 26.131 15.25 26.065 15.163C26.0368 15.1315 26.0023 15.1063 25.9637 15.0891C25.9251 15.0718 25.8833 15.0629 25.841 15.063C25.718 15.0721 25.5987 15.109 25.492 15.171C24.819 15.581 24.15 16 23.482 16.419C22.1033 17.2857 20.7253 18.1523 19.348 19.019C17.748 20.025 16.148 21.03 14.548 22.034C14.4791 22.0769 14.3965 22.0919 14.317 22.076C12.827 21.6227 11.339 21.1657 9.85301 20.705C9.66286 20.6501 9.47702 20.5813 9.29701 20.499C9.22585 20.4766 9.16174 20.436 9.11099 20.3814C9.06023 20.3267 9.02458 20.2597 9.00753 20.1871C8.99048 20.1145 8.99263 20.0387 9.01375 19.9671C9.03487 19.8955 9.07425 19.8307 9.12801 19.779C9.26035 19.6187 9.4267 19.49 9.61501 19.402C10.232 19.133 10.86 18.888 11.488 18.645C13.3647 17.919 15.242 17.1957 17.12 16.475C19.1493 15.6923 21.1783 14.9087 23.207 14.124C24.6537 13.564 26.0997 13.0027 27.545 12.44C27.836 12.327 28.128 12.217 28.422 12.114C28.5736 12.0489 28.7401 12.026 28.9037 12.0478C29.0672 12.0695 29.2219 12.1352 29.3512 12.2376C29.4806 12.3401 29.5798 12.4757 29.6384 12.63C29.697 12.7842 29.7127 12.9515 29.684 13.114C29.631 13.566 29.524 14.014 29.432 14.458C29.0987 16.0747 28.761 17.6907 28.419 19.306C28.125 20.693 27.819 22.077 27.526 23.464C27.25 24.764 26.98 26.064 26.705 27.364C26.622 27.757 26.534 28.149 26.433 28.537C26.3864 28.7094 26.3193 28.8756 26.233 29.032C26.1604 29.199 26.0271 29.3322 25.86 29.4046C25.6929 29.477 25.5045 29.4832 25.333 29.422C25.0862 29.3495 24.8529 29.2373 24.642 29.09C23.777 28.473 22.926 27.837 22.072 27.206C21.4253 26.728 20.7803 26.248 20.137 25.766C20.1219 25.7488 20.103 25.7354 20.0819 25.7266C20.0607 25.7179 20.0379 25.7142 20.0151 25.7158C19.9922 25.7173 19.9701 25.7241 19.9503 25.7356C19.9305 25.7471 19.9137 25.7629 19.901 25.782C19.201 26.466 18.501 27.144 17.794 27.824C17.5547 28.0791 17.2466 28.2594 16.907 28.343C16.86 28.353 16.807 28.357 16.749 28.366" stroke="none" />
    </symbol>

    <symbol viewBox="0 0 24 24" id="detail-share">
        <path d="M9 3V5H4V19H20V10H22V20C22 20.2652 21.8946 20.5196 21.7071 20.7071C21.5196 20.8946 21.2652 21 21 21H3C2.73478 21 2.48043 20.8946 2.29289 20.7071C2.10536 20.5196 2 20.2652 2 20V4C2 3.73478 2.10536 3.48043 2.29289 3.29289C2.48043 3.10536 2.73478 3 3 3H9ZM18.95 5L16 2.05L17.414 0.636L22.754 5.976C22.8378 6.05991 22.8949 6.16677 22.918 6.28309C22.9411 6.39941 22.9292 6.51997 22.8838 6.62954C22.8385 6.73911 22.7616 6.83278 22.6631 6.89871C22.5645 6.96465 22.4486 6.9999 22.33 7H14C13.4696 7 12.9609 7.21071 12.5858 7.58579C12.2107 7.96086 12 8.46957 12 9V15H10V9C10 7.93913 10.4214 6.92172 11.1716 6.17157C11.9217 5.42143 12.9391 5 14 5H18.95Z" />
    </symbol>

    <symbol viewBox="0 0 24 24" id="detail-download">
        <path d="M13 13V18.585L14.828 16.757L16.243 18.172L12 22.414L7.75702 18.172L9.17202 16.757L11 18.585V13H13ZM12 2C13.7171 1.99986 15.3743 2.63082 16.6564 3.77287C17.9386 4.91491 18.7563 6.48838 18.954 8.194C20.1983 8.53339 21.2838 9.29926 22.0206 10.3578C22.7575 11.4163 23.099 12.7001 22.9853 13.9848C22.8717 15.2696 22.3102 16.4735 21.3989 17.3862C20.4876 18.2989 19.2846 18.8623 18 18.978V16.964C18.4558 16.8933 18.8932 16.7331 19.2869 16.4928C19.6806 16.2525 20.023 15.9367 20.2942 15.5636C20.5655 15.1905 20.7603 14.7675 20.8675 14.3189C20.9747 13.8702 20.9922 13.4048 20.9189 12.9494C20.8456 12.494 20.6831 12.0575 20.4405 11.6652C20.198 11.2728 19.8803 10.9322 19.5057 10.6631C19.1311 10.3939 18.707 10.2014 18.2578 10.0967C17.8085 9.99204 17.343 9.97717 16.888 10.053C17.0446 9.32389 17.0362 8.56897 16.8632 7.84355C16.6903 7.11813 16.3573 6.44058 15.8886 5.86053C15.4199 5.28047 14.8274 4.81261 14.1545 4.49119C13.4816 4.16978 12.7453 4.00297 11.9995 4.00297C11.2538 4.00297 10.5175 4.16978 9.84454 4.49119C9.17162 4.81261 8.57911 5.28047 8.11042 5.86053C7.64173 6.44058 7.30872 7.11813 7.1358 7.84355C6.96287 8.56897 6.9544 9.32389 7.11102 10.053C6.19867 9.88167 5.25563 10.0798 4.48936 10.6038C3.72309 11.1277 3.19635 11.9347 3.02502 12.847C2.85369 13.7593 3.0518 14.7024 3.57578 15.4687C4.09975 16.2349 4.90667 16.7617 5.81902 16.933L5.99902 16.963V18.977C4.71506 18.8606 3.51282 18.2968 2.60225 17.3841C1.69168 16.4714 1.13065 15.2679 1.01715 13.9837C0.903653 12.6995 1.24489 11.4162 1.98128 10.358C2.71766 9.29974 3.80239 8.53383 5.04602 8.194C5.24372 6.48838 6.06142 4.91491 7.3436 3.77287C8.62577 2.63082 10.283 1.99986 12 2Z" />
    </symbol>

    <symbol viewBox="0 0 30 22" id="detail-furniture">
        <path d="M0 7.5C0.025 7.353 0.042 7.2 0.077 7.06C0.173292 6.62005 0.371351 6.20879 0.655288 5.85921C0.939226 5.50963 1.30114 5.23145 1.712 5.047C1.73622 5.03808 1.75662 5.02106 1.76974 4.99883C1.78286 4.9766 1.7879 4.95052 1.784 4.925C1.7661 4.33551 1.86079 3.74801 2.063 3.194C2.38119 2.3278 2.94525 1.57329 3.686 1.023C4.34242 0.522382 5.11337 0.193449 5.929 0.066C6.16554 0.025034 6.40496 0.00296429 6.645 0C12.137 0 17.6287 0 23.12 0C24.194 0.00321842 25.2367 0.362266 26.085 1.021C26.7185 1.49196 27.2241 2.11381 27.556 2.83C27.7804 3.30574 27.916 3.8185 27.956 4.343C27.97 4.536 27.973 4.73 27.974 4.923C27.9717 4.95001 27.9785 4.97701 27.9934 4.99968C28.0083 5.02234 28.0303 5.03936 28.056 5.048C28.4671 5.23724 28.8286 5.51953 29.1119 5.87255C29.3951 6.22556 29.5923 6.63962 29.688 7.082C29.7984 7.52622 29.7974 7.9908 29.6853 8.43457C29.5731 8.87834 29.3532 9.28758 29.045 9.626C28.7647 9.95028 28.4169 10.2093 28.026 10.385C27.967 10.412 27.976 10.454 27.976 10.499C27.976 11.537 27.976 12.5747 27.976 13.612C27.976 14.053 27.976 14.494 27.976 14.934C27.9702 15.8194 27.676 16.6788 27.138 17.382C26.8898 17.7159 26.5909 18.0087 26.252 18.25C26.2309 18.2651 26.2144 18.2856 26.2042 18.3094C26.194 18.3332 26.1904 18.3593 26.194 18.385C26.194 19.185 26.194 19.985 26.194 20.785C26.201 20.8719 26.189 20.9592 26.1588 21.041C26.1286 21.1227 26.081 21.1969 26.0192 21.2584C25.9574 21.3199 25.883 21.3672 25.8011 21.397C25.7192 21.4268 25.6318 21.4384 25.545 21.431H23.28C23.1917 21.4387 23.1028 21.4271 23.0195 21.3969C22.9362 21.3667 22.8605 21.3187 22.7977 21.2562C22.7348 21.1938 22.6864 21.1184 22.6557 21.0352C22.625 20.9521 22.6128 20.8633 22.62 20.775C22.62 20.2377 22.62 19.7 22.62 19.162V19.055H7.145V19.155C7.145 19.705 7.145 20.255 7.145 20.805C7.14824 20.8878 7.13432 20.9703 7.10409 21.0474C7.07387 21.1246 7.028 21.1946 6.96938 21.2531C6.91077 21.3116 6.84067 21.3574 6.7635 21.3875C6.68633 21.4176 6.60376 21.4314 6.521 21.428H4.2C4.11538 21.4332 4.03061 21.4205 3.95128 21.3905C3.87195 21.3606 3.79986 21.3142 3.73977 21.2544C3.67967 21.1946 3.63294 21.1227 3.60264 21.0435C3.57235 20.9644 3.55918 20.8796 3.564 20.795C3.564 19.995 3.564 19.1917 3.564 18.385C3.56607 18.3549 3.56001 18.3249 3.54646 18.298C3.53292 18.271 3.51238 18.2483 3.487 18.232C2.67109 17.6407 2.10151 16.7696 1.887 15.785C1.82334 15.5057 1.78981 15.2204 1.787 14.934C1.777 13.459 1.782 11.983 1.787 10.508C1.79109 10.4752 1.78418 10.442 1.76735 10.4136C1.75051 10.3852 1.72471 10.3632 1.694 10.351C1.26971 10.1491 0.899105 9.84991 0.612374 9.47768C0.325644 9.10545 0.130897 8.67075 0.044 8.209C0.024 8.109 0.014 8.009 0 7.915V7.5ZM5.959 10.71H13.053C13.6098 10.7013 14.1512 10.8925 14.579 11.249C14.686 11.337 14.785 11.436 14.888 11.53C14.898 11.522 14.905 11.516 14.911 11.51C15.1453 11.2497 15.4333 11.0434 15.7551 10.9053C16.077 10.7672 16.4249 10.7005 16.775 10.71C19.0817 10.714 21.3883 10.714 23.695 10.71H23.818V10.585C23.818 9.638 23.818 8.691 23.818 7.744C23.8191 7.58835 23.8338 7.43309 23.862 7.28C23.9557 6.74713 24.187 6.24799 24.533 5.832C24.9323 5.33379 25.4879 4.98467 26.11 4.841C26.327 4.791 26.551 4.773 26.781 4.741C26.7823 4.7277 26.7823 4.7143 26.781 4.701C26.769 4.549 26.765 4.395 26.742 4.245C26.6085 3.34886 26.1261 2.54186 25.4 2C24.7087 1.46566 23.8556 1.18342 22.982 1.2C17.5873 1.2 12.1927 1.2 6.798 1.2C6.47982 1.1957 6.16225 1.22927 5.852 1.3C4.9322 1.5026 4.12286 2.04514 3.586 2.819C3.26932 3.27273 3.06817 3.7969 3 4.346C2.982 4.483 2.982 4.622 2.974 4.753C3.132 4.771 3.274 4.782 3.41 4.803C4.12671 4.91317 4.77944 5.27871 5.24787 5.83223C5.71631 6.38575 5.96887 7.08994 5.959 7.815C5.959 8.74033 5.959 9.66567 5.959 10.591V10.713M14.886 17.857C17.8427 17.857 20.7993 17.857 23.756 17.857C23.912 17.8604 24.0681 17.8524 24.223 17.833C24.9801 17.734 25.6685 17.3428 26.141 16.743C26.5378 16.2564 26.7631 15.6526 26.782 15.025C26.792 14.76 26.787 14.494 26.787 14.225C26.787 12.846 26.787 11.468 26.787 10.09C26.7807 9.94291 26.8259 9.79824 26.9148 9.68089C27.0037 9.56353 27.1307 9.48082 27.274 9.447C27.5536 9.37584 27.8098 9.23277 28.017 9.032C28.2052 8.85442 28.3525 8.63806 28.4489 8.39791C28.5452 8.15776 28.5882 7.89955 28.5749 7.64115C28.5615 7.38274 28.4922 7.13032 28.3717 6.90134C28.2512 6.67236 28.0824 6.4723 27.877 6.315C27.6893 6.17187 27.4746 6.06804 27.2459 6.00971C27.0171 5.95137 26.779 5.93973 26.5456 5.97548C26.3123 6.01123 26.0886 6.09363 25.8878 6.21777C25.687 6.34191 25.5133 6.50524 25.377 6.698C25.1317 7.04723 25.0035 7.46529 25.011 7.892C25.011 9.79267 25.011 11.6927 25.011 13.592C25.0147 13.745 25.0016 13.8979 24.972 14.048C24.8878 14.4599 24.6613 14.8291 24.3322 15.0908C24.003 15.3524 23.5923 15.4899 23.172 15.479H6.592C6.50451 15.48 6.41704 15.4759 6.33 15.467C5.90119 15.4111 5.50685 15.2026 5.21911 14.8798C4.93137 14.557 4.76946 14.1414 4.763 13.709C4.763 11.7397 4.763 9.77033 4.763 7.801C4.76294 7.67026 4.75156 7.53978 4.729 7.411C4.68199 7.14084 4.57275 6.88533 4.40992 6.66469C4.2471 6.44405 4.03515 6.26434 3.79086 6.13977C3.54657 6.0152 3.27665 5.94919 3.00244 5.94698C2.72823 5.94476 2.45727 6.00639 2.211 6.127C1.85689 6.28709 1.56665 6.56124 1.38665 6.90566C1.20665 7.25007 1.14727 7.64488 1.218 8.027C1.26239 8.36371 1.40661 8.67941 1.63208 8.93339C1.85755 9.18738 2.15393 9.36801 2.483 9.452C2.63162 9.48156 2.76438 9.56427 2.85641 9.68465C2.94845 9.80503 2.99345 9.95483 2.983 10.106C2.983 11.7373 2.983 13.369 2.983 15.001C2.98455 15.1414 2.99894 15.2813 3.026 15.419C3.14682 16.1137 3.51477 16.7413 4.062 17.186C4.55343 17.61 5.17896 17.8466 5.828 17.854C8.847 17.864 11.866 17.854 14.886 17.854M23.818 11.907H16.758C16.6614 11.9072 16.5649 11.9132 16.469 11.925C16.2103 11.9654 15.9728 12.0921 15.7952 12.2845C15.6177 12.477 15.5104 12.7239 15.491 12.985C15.479 13.403 15.486 13.822 15.485 14.241C15.4869 14.2573 15.4902 14.2733 15.495 14.289H23.195C23.3482 14.298 23.4988 14.2459 23.6137 14.1442C23.7286 14.0424 23.7985 13.8992 23.808 13.746C23.823 13.531 23.818 13.315 23.819 13.1C23.819 12.706 23.819 12.313 23.819 11.906M5.965 11.906C5.965 11.936 5.965 11.954 5.965 11.972C5.965 12.5467 5.965 13.1217 5.965 13.697C5.96408 13.7793 5.98046 13.8608 6.01309 13.9364C6.04572 14.0119 6.09386 14.0797 6.1544 14.1355C6.21494 14.1912 6.28651 14.2336 6.36448 14.2598C6.44246 14.2861 6.52508 14.2957 6.607 14.288H14.192C14.225 14.288 14.258 14.288 14.281 14.288C14.281 13.836 14.305 13.394 14.275 12.957C14.2491 12.6696 14.1161 12.4024 13.9023 12.2086C13.6885 12.0148 13.4096 11.9086 13.121 11.911C10.765 11.911 8.40867 11.911 6.052 11.911H5.963M5.942 20.238V19.085L4.77 18.908V20.236L5.942 20.238ZM24.995 20.238V18.909L23.822 19.084V20.236L24.995 20.238Z" />
    </symbol>

    <symbol viewBox="0 0 40 60" id="icon-business">
        <path d="M18.723 37.51C18.6887 37.51 18.6547 37.5033 18.6231 37.4901C18.5914 37.477 18.5626 37.4578 18.5384 37.4336C18.5142 37.4093 18.4949 37.3805 18.4818 37.3489C18.4687 37.3172 18.462 37.2833 18.462 37.249V37.194C18.4622 37.1249 18.4898 37.0586 18.5387 37.0097C18.5876 36.9608 18.6538 36.9333 18.723 36.933H20.891L20.63 37.533L18.723 37.51ZM18.033 8.179C17.186 12.213 12.244 34.777 11.854 36.758C11.525 38.438 14.242 38.445 14.242 38.445H12.115C11.8722 38.4447 11.6326 38.3902 11.4137 38.2854C11.1947 38.1806 11.0019 38.0283 10.8493 37.8395C10.6968 37.6507 10.5883 37.4302 10.5318 37.1942C10.4753 36.9581 10.4723 36.7124 10.523 36.475L16.799 7.221C16.8778 6.85552 17.0797 6.52817 17.3709 6.29372C17.6622 6.05927 18.0251 5.93193 18.399 5.933H21.474C21.8464 5.93311 22.2075 6.06109 22.497 6.29553C22.7864 6.52998 22.9865 6.85668 23.064 7.221L23.164 7.686C23.164 7.686 18.248 7.177 18.036 8.18M18.726 33.955H21.161C21.2302 33.955 21.2966 33.9825 21.3455 34.0314C21.3945 34.0804 21.422 34.1468 21.422 34.216V34.274C21.422 34.3432 21.3945 34.4096 21.3455 34.4586C21.2966 34.5075 21.2302 34.535 21.161 34.535H18.723C18.6537 34.535 18.5873 34.5075 18.5384 34.4586C18.4895 34.4096 18.462 34.3432 18.462 34.274V34.216C18.462 34.1468 18.4895 34.0804 18.5384 34.0314C18.5873 33.9825 18.6537 33.955 18.723 33.955M18.723 31.001H21.158C21.2272 31.001 21.2936 31.0285 21.3425 31.0774C21.3915 31.1264 21.419 31.1928 21.419 31.262V31.317C21.419 31.3862 21.3915 31.4526 21.3425 31.5016C21.2936 31.5505 21.2272 31.578 21.158 31.578H18.723C18.6538 31.5777 18.5876 31.5502 18.5387 31.5013C18.4898 31.4524 18.4622 31.3861 18.462 31.317V31.258C18.462 31.1888 18.4895 31.1224 18.5384 31.0734C18.5873 31.0245 18.6537 30.997 18.723 30.997M18.723 28.04H21.158C21.2272 28.04 21.2936 28.0675 21.3425 28.1164C21.3915 28.1654 21.419 28.2318 21.419 28.301V28.358C21.419 28.4272 21.3915 28.4936 21.3425 28.5426C21.2936 28.5915 21.2272 28.619 21.158 28.619H18.723C18.6541 28.6185 18.5882 28.5907 18.5397 28.5419C18.4912 28.493 18.464 28.4269 18.464 28.358V28.319C18.4615 28.2832 18.4664 28.2474 18.4784 28.2136C18.4904 28.1798 18.5092 28.1489 18.5337 28.1227C18.5582 28.0965 18.5878 28.0757 18.6207 28.0614C18.6536 28.0472 18.6891 28.0399 18.725 28.04M18.725 25.085H21.16C21.2292 25.085 21.2956 25.1125 21.3445 25.1614C21.3935 25.2104 21.421 25.2768 21.421 25.346V25.401C21.421 25.4702 21.3935 25.5366 21.3445 25.5856C21.2956 25.6345 21.2292 25.662 21.16 25.662H18.723C18.6537 25.662 18.5873 25.6345 18.5384 25.5856C18.4895 25.5366 18.462 25.4702 18.462 25.401V25.346C18.462 25.2768 18.4895 25.2104 18.5384 25.1614C18.5873 25.1125 18.6537 25.085 18.723 25.085M18.723 22.128H21.158C21.2272 22.128 21.2936 22.1555 21.3425 22.2044C21.3915 22.2534 21.419 22.3198 21.419 22.389V22.446C21.419 22.5152 21.3915 22.5816 21.3425 22.6306C21.2936 22.6795 21.2272 22.707 21.158 22.707H18.723C18.6537 22.707 18.5873 22.6795 18.5384 22.6306C18.4895 22.5816 18.462 22.5152 18.462 22.446V22.389C18.4622 22.3199 18.4898 22.2536 18.5387 22.2047C18.5876 22.1558 18.6538 22.1283 18.723 22.128ZM18.464 16.549V16.491C18.464 16.4218 18.4915 16.3554 18.5404 16.3064C18.5893 16.2575 18.6557 16.23 18.725 16.23H21.16C21.2292 16.23 21.2956 16.2575 21.3445 16.3064C21.3935 16.3554 21.421 16.4218 21.421 16.491V16.549C21.421 16.6182 21.3935 16.6846 21.3445 16.7336C21.2956 16.7825 21.2292 16.81 21.16 16.81H18.723C18.6888 16.8109 18.6549 16.8051 18.623 16.793C18.5901 16.7805 18.5602 16.7615 18.535 16.737C18.5095 16.7125 18.4893 16.6832 18.4756 16.6507C18.4618 16.6182 18.4548 16.5833 18.455 16.548L18.464 16.549ZM18.725 19.177H21.16C21.2292 19.177 21.2956 19.2045 21.3445 19.2534C21.3935 19.3024 21.421 19.3688 21.421 19.438V19.493C21.421 19.5622 21.3935 19.6286 21.3445 19.6776C21.2956 19.7265 21.2292 19.754 21.16 19.754H18.723C18.6537 19.754 18.5873 19.7265 18.5384 19.6776C18.4895 19.6286 18.462 19.5622 18.462 19.493V19.441C18.462 19.3718 18.4895 19.3054 18.5384 19.2564C18.5873 19.2075 18.6537 19.18 18.723 19.18L18.725 19.177ZM31.464 16.695C31.6004 16.7511 31.7535 16.7511 31.89 16.695L33.074 16.243C33.1427 16.2173 33.2056 16.1782 33.259 16.1279C33.3124 16.0776 33.3552 16.0171 33.385 15.95L34.785 12.831C34.8149 12.7643 34.8313 12.6923 34.8332 12.6192C34.8352 12.5461 34.8227 12.4733 34.7963 12.4051C34.77 12.3368 34.7305 12.2745 34.68 12.2216C34.6294 12.1687 34.5689 12.1264 34.502 12.097L33.477 11.637L34.167 10.099C34.2231 9.96067 34.2234 9.80594 34.1677 9.66742C34.112 9.52889 34.0047 9.41741 33.8684 9.35646C33.7321 9.29551 33.5775 9.28986 33.4371 9.34071C33.2968 9.39155 33.1816 9.49491 33.116 9.629L32.426 11.168L31.414 10.713C31.2786 10.6529 31.125 10.6488 30.9867 10.7017C30.8485 10.7545 30.7367 10.86 30.676 10.995L29.276 14.111C29.2158 14.2465 29.2112 14.4001 29.263 14.539L29.715 15.722C29.7676 15.8604 29.873 15.9722 30.008 16.033L30.208 16.119L27.8 21.49L24.364 5.958C24.2772 5.56544 24.102 5.19784 23.8518 4.88315C23.6016 4.56847 23.2829 4.31499 22.92 4.142L20.494 2.983C20.3222 2.90103 20.1343 2.85849 19.944 2.85849C19.7536 2.85849 19.5657 2.90103 19.394 2.983L16.964 4.141C16.6018 4.31494 16.2839 4.56888 16.0343 4.88364C15.7847 5.19841 15.6098 5.56577 15.523 5.958L5.22195 52.473C5.1193 52.9356 5.15224 53.4179 5.31684 53.8622C5.48144 54.3066 5.77071 54.694 6.14995 54.978C6.41634 55.1879 6.63059 55.4566 6.77595 55.763C6.92161 56.0692 6.9945 56.405 6.98895 56.744V56.944C6.98304 57.2747 7.09984 57.596 7.31684 57.8456C7.53383 58.0953 7.83562 58.2558 8.16395 58.296C8.34579 58.3136 8.52931 58.2929 8.70265 58.2352C8.876 58.1775 9.03533 58.0842 9.17035 57.9611C9.30538 57.838 9.41311 57.688 9.48659 57.5208C9.56007 57.3535 9.59767 57.1727 9.59695 56.99V56.933C9.59709 56.7406 9.63515 56.5501 9.70897 56.3724C9.78279 56.1947 9.89091 56.0333 10.0272 55.8974C10.1634 55.7615 10.3251 55.6538 10.503 55.5805C10.6809 55.5072 10.8715 55.4696 11.064 55.47H28.818C29.2064 55.4697 29.5791 55.6237 29.8542 55.898C30.1292 56.1723 30.2842 56.5445 30.285 56.933C30.2789 57.2645 30.3961 57.5865 30.614 57.8365C30.8318 58.0865 31.1347 58.2467 31.464 58.286C31.6458 58.3036 31.8293 58.2829 32.0027 58.2252C32.176 58.1675 32.3353 58.0742 32.4704 57.9511C32.6054 57.828 32.7131 57.678 32.7866 57.5108C32.8601 57.3435 32.8977 57.1627 32.897 56.98V56.536C32.9022 56.2106 32.9792 55.8905 33.1225 55.5983C33.2658 55.3062 33.4719 55.0493 33.726 54.846C34.1019 54.5359 34.3843 54.1275 34.5418 53.6663C34.6993 53.2051 34.7257 52.7093 34.618 52.234L28.637 25.258L22.722 38.448H21.472L31.272 16.601L31.464 16.695Z" />
    </symbol>

</svg>