<svg width="554" height="615" viewBox="0 0 554 615" fill="none" xmlns="http://www.w3.org/2000/svg">
<path d="M225.282 305.816H225.238L222.752 307.158L222.378 305.684L225.502 304.012H227.152V318.312H225.282V305.816Z" fill="#3E3E3D"/>
<path d="M241.892 311.009C241.892 315.872 240.066 318.556 236.919 318.556C234.125 318.556 232.21 315.938 232.167 311.207C232.167 306.388 234.257 303.77 237.161 303.77C240.154 303.77 241.892 306.454 241.892 311.009ZM234.125 311.229C234.125 314.948 235.269 317.06 237.025 317.06C238.984 317.06 239.93 314.75 239.93 311.097C239.93 307.577 239.05 305.266 237.025 305.266C235.353 305.266 234.125 307.334 234.125 311.229Z" fill="#3E3E3D"/>
<path d="M245.037 315.388C245.245 315.386 245.451 315.426 245.643 315.505C245.835 315.585 246.009 315.702 246.155 315.85C246.3 315.998 246.415 316.174 246.491 316.367C246.568 316.56 246.604 316.767 246.599 316.974C246.596 317.285 246.502 317.589 246.327 317.846C246.152 318.103 245.905 318.303 245.616 318.419C245.328 318.536 245.012 318.565 244.707 318.502C244.403 318.439 244.124 318.287 243.905 318.065C243.687 317.843 243.539 317.562 243.481 317.257C243.423 316.951 243.456 316.635 243.577 316.349C243.698 316.062 243.902 315.818 244.161 315.647C244.421 315.476 244.726 315.386 245.037 315.388Z" fill="#3E3E3D"/>
<path d="M254.916 318.314V314.397H248.271V313.143L254.652 304.012H256.742V312.901H258.742V314.401H256.742V318.318L254.916 318.314ZM254.916 312.901V308.127C254.916 307.379 254.938 306.631 254.982 305.882H254.916C254.476 306.718 254.124 307.335 253.728 307.995L250.228 312.857V312.901H254.916Z" fill="#3E3E3D"/>
<path d="M269.744 311.009C269.744 315.872 267.918 318.556 264.771 318.556C261.977 318.556 260.062 315.938 260.019 311.207C260.019 306.388 262.109 303.77 265.013 303.77C268.006 303.77 269.744 306.454 269.744 311.009ZM261.977 311.229C261.977 314.948 263.121 317.06 264.877 317.06C266.836 317.06 267.777 314.75 267.777 311.097C267.777 307.577 266.896 305.266 264.877 305.266C263.205 305.266 261.977 307.334 261.977 311.229Z" fill="#3E3E3D"/>
<path d="M86.086 451.841H86.042L83.556 453.184L83.181 451.709L86.306 450.037H87.956V464.337H86.086V451.841Z" fill="#3E3E3D"/>
<path d="M102.696 457.034C102.696 461.897 100.87 464.581 97.7229 464.581C94.9289 464.581 93.0139 461.963 92.9709 457.232C92.9709 452.413 95.061 449.795 97.965 449.795C100.958 449.795 102.696 452.48 102.696 457.034ZM94.9289 457.254C94.9289 460.973 96.0729 463.085 97.8289 463.085C99.7879 463.085 100.734 460.775 100.734 457.122C100.734 453.602 99.8539 451.291 97.8289 451.291C96.1569 451.291 94.9289 453.359 94.9289 457.254Z" fill="#3E3E3D"/>
<path d="M105.841 461.412C106.049 461.41 106.255 461.45 106.447 461.529C106.639 461.608 106.813 461.725 106.959 461.873C107.104 462.021 107.219 462.197 107.295 462.39C107.372 462.583 107.408 462.79 107.403 462.997C107.401 463.308 107.306 463.612 107.131 463.869C106.957 464.126 106.709 464.326 106.421 464.443C106.133 464.56 105.816 464.589 105.512 464.526C105.207 464.463 104.928 464.311 104.71 464.089C104.491 463.868 104.344 463.586 104.285 463.281C104.227 462.975 104.26 462.659 104.381 462.373C104.502 462.086 104.705 461.842 104.965 461.671C105.225 461.5 105.53 461.41 105.841 461.412Z" fill="#3E3E3D"/>
<path d="M111.231 462.974C111.753 463.003 112.276 462.981 112.793 462.908C113.914 462.78 114.963 462.294 115.786 461.522C116.835 460.518 117.504 459.181 117.678 457.738H117.611C117.2 458.234 116.681 458.629 116.093 458.892C115.506 459.155 114.865 459.279 114.222 459.255C113.653 459.265 113.087 459.157 112.561 458.938C112.036 458.719 111.561 458.394 111.167 457.983C110.772 457.572 110.467 457.084 110.27 456.55C110.073 456.015 109.989 455.446 110.022 454.877C109.997 454.22 110.105 453.564 110.34 452.95C110.574 452.335 110.929 451.774 111.385 451.299C111.841 450.825 112.388 450.447 112.993 450.189C113.597 449.93 114.248 449.796 114.906 449.794C117.833 449.794 119.637 452.149 119.637 455.845C119.702 457.069 119.517 458.294 119.094 459.444C118.67 460.594 118.017 461.645 117.173 462.534C116.034 463.611 114.573 464.284 113.014 464.449C112.425 464.544 111.828 464.581 111.232 464.558L111.231 462.974ZM111.931 454.767C111.891 455.152 111.932 455.54 112.052 455.908C112.173 456.275 112.369 456.613 112.628 456.899C112.888 457.186 113.205 457.414 113.558 457.57C113.912 457.726 114.294 457.805 114.681 457.803C115.241 457.822 115.795 457.693 116.29 457.43C116.784 457.166 117.201 456.778 117.498 456.303C117.623 456.083 117.684 455.831 117.674 455.577C117.674 453.135 116.774 451.264 114.725 451.264C113.097 451.264 111.931 452.716 111.931 454.764" fill="#3E3E3D"/>
<path d="M125.597 451.841H125.553L123.067 453.184L122.693 451.709L125.817 450.037H127.467V464.337H125.597V451.841Z" fill="#3E3E3D"/>
<path d="M451.345 181.576H451.301L448.811 182.918L448.437 181.444L451.562 179.771H453.212V194.071H451.341L451.345 181.576Z" fill="#3E3E3D"/>
<path d="M466.592 181.136C466.105 181.124 465.619 181.16 465.14 181.246C463.863 181.408 462.678 181.995 461.776 182.913C460.873 183.831 460.307 185.027 460.168 186.306H460.211C460.618 185.774 461.145 185.345 461.749 185.054C462.354 184.764 463.018 184.62 463.688 184.634C466.218 184.634 468 186.482 468 189.255C468.036 189.905 467.94 190.556 467.717 191.167C467.493 191.779 467.148 192.339 466.701 192.812C466.254 193.286 465.716 193.663 465.118 193.922C464.521 194.181 463.877 194.315 463.226 194.316C460.188 194.316 458.187 191.939 458.187 188.216C458.142 187.035 458.333 185.857 458.748 184.75C459.163 183.643 459.795 182.63 460.606 181.77C461.856 180.579 463.466 179.835 465.184 179.657C465.65 179.586 466.121 179.549 466.592 179.548V181.136ZM466.043 189.388C466.043 187.342 464.876 186.109 463.094 186.109C462.511 186.117 461.941 186.286 461.447 186.596C460.953 186.907 460.554 187.347 460.294 187.869C460.161 188.128 460.092 188.415 460.094 188.706C460.116 191.06 461.217 192.82 463.263 192.82C464.913 192.82 466.036 191.434 466.036 189.388" fill="#3E3E3D"/>
<path d="M470.618 191.147C470.826 191.145 471.032 191.184 471.224 191.263C471.416 191.342 471.59 191.459 471.736 191.607C471.881 191.755 471.996 191.931 472.072 192.124C472.149 192.317 472.185 192.523 472.18 192.731C472.178 193.042 472.084 193.346 471.909 193.604C471.734 193.862 471.487 194.062 471.199 194.179C470.91 194.296 470.593 194.325 470.288 194.263C469.983 194.2 469.704 194.048 469.485 193.826C469.267 193.604 469.119 193.323 469.06 193.017C469.002 192.711 469.035 192.395 469.156 192.108C469.277 191.821 469.481 191.577 469.741 191.406C470.002 191.235 470.307 191.145 470.618 191.147Z" fill="#3E3E3D"/>
<path d="M476.011 192.709C476.533 192.738 477.056 192.716 477.573 192.643C478.694 192.514 479.743 192.029 480.566 191.257C481.616 190.253 482.285 188.915 482.458 187.472H482.392C481.981 187.968 481.462 188.363 480.875 188.627C480.287 188.89 479.647 189.015 479.004 188.991C478.434 189.001 477.869 188.893 477.343 188.674C476.818 188.455 476.343 188.129 475.949 187.718C475.554 187.307 475.249 186.819 475.052 186.285C474.855 185.75 474.771 185.181 474.804 184.612C474.779 183.955 474.887 183.299 475.122 182.685C475.356 182.07 475.712 181.509 476.167 181.034C476.623 180.56 477.17 180.182 477.775 179.924C478.379 179.665 479.03 179.531 479.688 179.529C482.614 179.529 484.418 181.883 484.418 185.58C484.484 186.804 484.299 188.029 483.875 189.179C483.451 190.329 482.797 191.381 481.953 192.269C480.814 193.346 479.353 194.019 477.795 194.183C477.206 194.279 476.609 194.316 476.013 194.294L476.011 192.709ZM476.711 184.502C476.671 184.887 476.712 185.275 476.832 185.643C476.953 186.01 477.149 186.348 477.408 186.634C477.668 186.921 477.985 187.149 478.338 187.305C478.692 187.461 479.075 187.54 479.461 187.538C480.02 187.556 480.575 187.427 481.069 187.164C481.563 186.901 481.979 186.513 482.276 186.038C482.402 185.818 482.463 185.566 482.453 185.312C482.453 182.87 481.553 180.999 479.504 180.999C477.876 180.999 476.711 182.452 476.711 184.499" fill="#3E3E3D"/>
<path d="M492.155 194.074V190.157H485.511V188.903L491.892 179.771H493.983V188.661H495.983V190.161H493.983V194.078L492.155 194.074ZM492.155 188.661V183.888C492.155 183.14 492.177 182.392 492.221 181.644H492.155C491.716 182.48 491.363 183.096 490.968 183.756L487.468 188.619V188.663L492.155 188.661Z" fill="#3E3E3D"/>
<path d="M57.3699 223.239H57.3259L54.8399 224.581L54.4659 223.107L57.5899 221.435H59.2399V235.735H57.3699V223.239Z" fill="#3E3E3D"/>
<path d="M64.4529 235.737V234.549L65.9709 233.074C69.6239 229.598 71.2959 227.75 71.2959 225.593C71.3377 225.214 71.2934 224.83 71.1663 224.471C71.0391 224.111 70.8324 223.785 70.5616 223.516C70.2909 223.248 69.9629 223.044 69.6023 222.92C69.2417 222.795 68.8577 222.754 68.4789 222.799C67.3578 222.841 66.2854 223.268 65.4429 224.009L64.8269 222.645C65.9598 221.709 67.3831 221.195 68.8529 221.193C69.4219 221.142 69.9952 221.213 70.5346 221.401C71.0741 221.589 71.5673 221.89 71.9815 222.283C72.3958 222.677 72.7215 223.154 72.9371 223.683C73.1527 224.212 73.2532 224.78 73.2319 225.351C73.2319 227.992 71.3179 230.126 68.3039 233.03L67.1819 234.088V234.132H73.5819V235.738L64.4529 235.737Z" fill="#3E3E3D"/>
<path d="M78.048 232.811C78.2556 232.809 78.4616 232.848 78.6536 232.927C78.8456 233.006 79.0197 233.123 79.1655 233.271C79.3113 233.419 79.4259 233.595 79.5022 233.788C79.5786 233.981 79.6152 234.188 79.61 234.395C79.6078 234.706 79.5134 235.01 79.3387 235.267C79.1641 235.525 78.917 235.724 78.6288 235.842C78.3405 235.959 78.024 235.988 77.7193 235.925C77.4146 235.862 77.1354 235.71 76.917 235.489C76.6985 235.267 76.5507 234.986 76.4921 234.68C76.4335 234.375 76.4669 234.059 76.588 233.772C76.709 233.485 76.9123 233.241 77.1722 233.07C77.4321 232.899 77.7369 232.809 78.048 232.811Z" fill="#3E3E3D"/>
<path d="M88.852 223.063H83.395L82.845 226.737C83.2315 226.687 83.6212 226.665 84.011 226.671C85.0896 226.636 86.1567 226.902 87.092 227.441C87.734 227.805 88.2641 228.338 88.6248 228.982C88.9855 229.626 89.163 230.356 89.138 231.094C89.138 233.894 86.916 235.979 83.813 235.979C82.5682 236.005 81.3387 235.701 80.249 235.099L80.733 233.625C81.6771 234.143 82.7362 234.415 83.813 234.417C84.2408 234.448 84.6704 234.392 85.0755 234.251C85.4805 234.11 85.8523 233.887 86.1679 233.596C86.4835 233.306 86.7361 232.954 86.9102 232.562C87.0842 232.169 87.1761 231.746 87.18 231.317C87.18 229.469 85.926 228.17 83.087 228.17C82.4181 228.171 81.75 228.215 81.087 228.303L82.011 221.438H88.854L88.852 223.063Z" fill="#3E3E3D"/>
<path d="M101.128 228.432C101.128 233.295 99.302 235.979 96.155 235.979C93.361 235.979 91.446 233.36 91.403 228.63C91.403 223.811 93.493 221.193 96.397 221.193C99.39 221.193 101.128 223.877 101.128 228.432ZM93.361 228.652C93.361 232.37 94.505 234.483 96.261 234.483C98.22 234.483 99.166 232.173 99.166 228.52C99.166 225 98.286 222.689 96.261 222.689C94.589 222.689 93.361 224.757 93.361 228.652Z" fill="#3E3E3D"/>
<path d="M426.365 421.152V417.235H419.72V415.981L426.101 406.85H428.191V415.739H430.191V417.239H428.191V421.156L426.365 421.152ZM426.365 415.739V410.965C426.365 410.217 426.387 409.469 426.431 408.72H426.365C425.926 409.556 425.573 410.173 425.178 410.833L421.678 415.695V415.739H426.365Z" fill="#3E3E3D"/>
<path d="M433.933 418.225C434.141 418.223 434.347 418.263 434.539 418.342C434.731 418.421 434.905 418.538 435.051 418.686C435.196 418.834 435.311 419.01 435.387 419.203C435.464 419.396 435.5 419.603 435.495 419.81C435.493 420.122 435.398 420.425 435.223 420.683C435.049 420.941 434.801 421.141 434.513 421.258C434.224 421.375 433.908 421.404 433.603 421.341C433.298 421.278 433.018 421.126 432.8 420.904C432.581 420.682 432.433 420.401 432.375 420.095C432.317 419.789 432.35 419.473 432.471 419.186C432.593 418.899 432.796 418.655 433.056 418.484C433.317 418.313 433.622 418.223 433.933 418.225Z" fill="#3E3E3D"/>
<path d="M446.738 408.478H441.281L440.731 412.153C441.118 412.103 441.507 412.08 441.897 412.086C442.976 412.05 444.043 412.317 444.978 412.857C445.62 413.221 446.15 413.753 446.511 414.397C446.872 415.041 447.049 415.771 447.024 416.509C447.024 419.303 444.801 421.394 441.699 421.394C440.454 421.42 439.224 421.116 438.134 420.514L438.619 419.04C439.563 419.558 440.622 419.83 441.699 419.832C442.127 419.863 442.556 419.807 442.962 419.666C443.367 419.525 443.738 419.302 444.054 419.011C444.369 418.721 444.622 418.369 444.796 417.977C444.97 417.585 445.062 417.161 445.066 416.732C445.066 414.884 443.811 413.585 440.973 413.585C440.304 413.586 439.636 413.63 438.973 413.717L439.898 406.853H446.741L446.738 408.478Z" fill="#3E3E3D"/>
<path d="M455.47 421.152V417.235H448.825V415.981L455.206 406.85H457.296V415.739H459.296V417.239H457.296V421.156L455.47 421.152ZM455.47 415.739V410.965C455.47 410.217 455.492 409.469 455.536 408.72H455.47C455.031 409.556 454.678 410.173 454.283 410.833L450.783 415.695V415.739H455.47Z" fill="#3E3E3D"/>
<path d="M61.011 350.788V346.871H54.361V345.617L60.742 336.486H62.832V345.375H64.832V346.875H62.832V350.788H61.011ZM61.011 345.375V340.601C61.011 339.853 61.033 339.105 61.077 338.356H61.011C60.571 339.192 60.219 339.809 59.823 340.469L56.323 345.331V345.375H61.011Z" fill="#3E3E3D"/>
<path d="M68.573 347.859C68.7807 347.857 68.9867 347.896 69.1787 347.976C69.3707 348.055 69.5448 348.172 69.6906 348.32C69.8364 348.468 69.9509 348.643 70.0272 348.837C70.1036 349.03 70.1402 349.236 70.135 349.444C70.1326 349.755 70.038 350.058 69.8633 350.316C69.6885 350.573 69.4414 350.773 69.1531 350.89C68.8648 351.007 68.5484 351.035 68.2437 350.972C67.9391 350.909 67.66 350.758 67.4416 350.536C67.2233 350.314 67.0755 350.033 67.0171 349.728C66.9586 349.422 66.992 349.106 67.1131 348.82C67.2342 348.533 67.4375 348.289 67.6973 348.118C67.9572 347.947 68.2619 347.857 68.573 347.859Z" fill="#3E3E3D"/>
<path d="M75.944 338.288H75.9L73.411 339.631L73.037 338.156L76.161 336.484H77.811V350.784H75.941L75.944 338.288Z" fill="#3E3E3D"/>
<path d="M92.311 336.488V337.763L86.085 350.788H84.085L90.29 338.136V338.088H83.29V336.488H92.311Z" fill="#3E3E3D"/>
<path d="M223 223.54H222.956L220.47 224.882L220.096 223.408L223.22 221.735H224.87V236.035H223V223.54Z" fill="#3E3E3D"/>
<path d="M230.084 236.037V234.849L231.601 233.374C235.254 229.898 236.926 228.05 236.926 225.893C236.968 225.514 236.923 225.13 236.796 224.771C236.669 224.411 236.462 224.085 236.192 223.816C235.921 223.548 235.593 223.344 235.232 223.219C234.872 223.095 234.488 223.054 234.109 223.099C232.988 223.141 231.915 223.568 231.073 224.309L230.457 222.945C231.59 222.009 233.013 221.495 234.483 221.493C235.052 221.442 235.625 221.513 236.165 221.701C236.704 221.889 237.198 222.19 237.612 222.583C238.026 222.977 238.352 223.454 238.567 223.983C238.783 224.512 238.883 225.081 238.862 225.652C238.862 228.292 236.948 230.426 233.934 233.33L232.811 234.388V234.432H239.211V236.038L230.084 236.037Z" fill="#3E3E3D"/>
<path d="M243.679 233.111C243.887 233.109 244.093 233.149 244.285 233.228C244.477 233.307 244.651 233.424 244.797 233.572C244.942 233.719 245.057 233.895 245.133 234.088C245.21 234.281 245.246 234.488 245.241 234.695C245.239 235.007 245.144 235.31 244.97 235.567C244.795 235.825 244.548 236.025 244.26 236.142C243.972 236.259 243.655 236.288 243.35 236.225C243.046 236.162 242.766 236.01 242.548 235.789C242.33 235.567 242.182 235.286 242.123 234.98C242.065 234.675 242.098 234.359 242.219 234.072C242.34 233.786 242.543 233.541 242.803 233.37C243.063 233.199 243.368 233.109 243.679 233.111Z" fill="#3E3E3D"/>
<path d="M246.411 233.837C247.377 234.391 248.466 234.693 249.579 234.717C252.044 234.717 252.836 233.155 252.814 231.944C252.792 229.944 250.988 229.084 249.114 229.084H248.035V227.632H249.111C250.519 227.632 252.301 226.906 252.301 225.212C252.301 224.067 251.575 223.055 249.793 223.055C248.767 223.085 247.773 223.414 246.932 224.002L246.411 222.593C247.534 221.873 248.84 221.491 250.174 221.493C252.99 221.493 254.266 223.165 254.266 224.903C254.251 225.678 253.986 226.426 253.51 227.037C253.034 227.648 252.373 228.088 251.626 228.292V228.336C252.508 228.459 253.317 228.896 253.903 229.567C254.489 230.238 254.813 231.098 254.816 231.989C254.816 234.277 253.016 236.279 249.601 236.279C248.297 236.296 247.013 235.961 245.883 235.311L246.411 233.837Z" fill="#3E3E3D"/>
<path d="M266.758 228.732C266.758 233.595 264.932 236.279 261.785 236.279C258.991 236.279 257.076 233.66 257.033 228.93C257.033 224.111 259.123 221.493 262.027 221.493C265.02 221.493 266.758 224.177 266.758 228.732ZM258.991 228.952C258.991 232.67 260.135 234.783 261.891 234.783C263.85 234.783 264.791 232.473 264.791 228.82C264.791 225.299 263.911 222.989 261.891 222.989C260.219 222.989 258.991 225.057 258.991 228.952Z" fill="#3E3E3D"/>
<path d="M222.762 393.713V392.525L224.28 391.051C227.932 387.574 229.605 385.726 229.605 383.569C229.647 383.19 229.602 382.806 229.475 382.447C229.348 382.087 229.141 381.761 228.871 381.493C228.6 381.224 228.272 381.02 227.911 380.896C227.551 380.772 227.167 380.73 226.788 380.775C225.667 380.817 224.595 381.245 223.752 381.985L223.136 380.621C224.269 379.685 225.692 379.171 227.162 379.169C227.731 379.118 228.304 379.189 228.844 379.377C229.383 379.565 229.876 379.866 230.291 380.259C230.705 380.653 231.031 381.13 231.246 381.659C231.462 382.188 231.562 382.756 231.541 383.327C231.541 385.968 229.627 388.103 226.613 391.007L225.491 392.063V392.107H231.891V393.713H222.762Z" fill="#3E3E3D"/>
<path d="M236.358 390.788C236.566 390.786 236.771 390.826 236.963 390.905C237.155 390.984 237.329 391.101 237.475 391.249C237.621 391.397 237.735 391.573 237.811 391.766C237.888 391.959 237.924 392.166 237.919 392.373C237.917 392.684 237.822 392.988 237.647 393.245C237.472 393.502 237.225 393.702 236.937 393.819C236.649 393.936 236.332 393.965 236.027 393.902C235.723 393.838 235.444 393.687 235.225 393.465C235.007 393.243 234.859 392.962 234.801 392.656C234.743 392.351 234.776 392.035 234.897 391.748C235.019 391.462 235.222 391.217 235.482 391.047C235.742 390.876 236.047 390.786 236.358 390.788Z" fill="#3E3E3D"/>
<path d="M249.163 381.039H243.711L243.161 384.714C243.548 384.664 243.937 384.641 244.327 384.647C245.406 384.611 246.473 384.878 247.408 385.418C248.05 385.782 248.58 386.314 248.941 386.958C249.302 387.602 249.479 388.333 249.454 389.07C249.454 391.864 247.232 393.955 244.129 393.955C242.884 393.981 241.655 393.677 240.565 393.075L241.049 391.601C241.993 392.119 243.052 392.391 244.129 392.393C244.557 392.425 244.986 392.368 245.391 392.227C245.797 392.086 246.168 391.863 246.484 391.572C246.799 391.282 247.052 390.93 247.226 390.538C247.4 390.146 247.492 389.722 247.496 389.293C247.496 387.445 246.242 386.146 243.403 386.146C242.734 386.147 242.066 386.191 241.403 386.278L242.327 379.414H249.17L249.163 381.039Z" fill="#3E3E3D"/>
<path d="M260.074 380.775C259.588 380.763 259.101 380.799 258.622 380.884C257.345 381.046 256.16 381.634 255.258 382.552C254.356 383.47 253.789 384.666 253.649 385.945H253.693C254.1 385.413 254.627 384.984 255.231 384.693C255.836 384.403 256.5 384.259 257.17 384.273C259.7 384.273 261.482 386.122 261.482 388.894C261.518 389.544 261.422 390.195 261.199 390.806C260.975 391.418 260.63 391.977 260.183 392.451C259.736 392.925 259.198 393.302 258.6 393.561C258.003 393.819 257.359 393.953 256.708 393.955C253.671 393.955 251.669 391.578 251.669 387.855C251.624 386.674 251.815 385.495 252.23 384.388C252.646 383.281 253.278 382.268 254.089 381.408C255.338 380.216 256.948 379.473 258.666 379.295C259.132 379.223 259.603 379.186 260.074 379.185V380.775ZM259.524 389.026C259.524 386.979 258.358 385.748 256.576 385.748C255.993 385.756 255.423 385.925 254.929 386.235C254.436 386.545 254.037 386.985 253.776 387.507C253.643 387.766 253.574 388.052 253.576 388.343C253.598 390.698 254.698 392.459 256.744 392.459C258.394 392.459 259.516 391.072 259.516 389.026" fill="#3E3E3D"/>
<path d="M302.795 23.5682V22.3802L304.314 20.9052C307.966 17.4292 309.638 15.5812 309.638 13.4242C309.68 13.0451 309.635 12.6615 309.508 12.3019C309.381 11.9423 309.174 11.6161 308.904 11.3475C308.633 11.0789 308.305 10.8749 307.944 10.7507C307.584 10.6265 307.2 10.5853 306.821 10.6302C305.7 10.672 304.627 11.0994 303.785 11.8402L303.169 10.4762C304.302 9.53978 305.725 9.02646 307.195 9.02424C307.764 8.97345 308.337 9.04438 308.877 9.23231C309.416 9.42025 309.909 9.72088 310.324 10.1142C310.738 10.5076 311.064 10.9846 311.279 11.5136C311.495 12.0426 311.595 12.6114 311.574 13.1822C311.574 15.8232 309.66 17.9572 306.646 20.8612L305.524 21.9182V21.9622H311.924V23.5682H302.795Z" fill="#3E3E3D"/>
<path d="M316.392 20.6422C316.6 20.6398 316.806 20.6794 316.998 20.7584C317.19 20.8375 317.364 20.9544 317.51 21.1023C317.655 21.2501 317.77 21.4259 317.846 21.619C317.923 21.8121 317.959 22.0186 317.954 22.2262C317.952 22.5376 317.858 22.8414 317.683 23.0991C317.508 23.3569 317.261 23.5571 316.973 23.6743C316.684 23.7916 316.367 23.8206 316.062 23.7578C315.757 23.6949 315.478 23.543 315.259 23.3213C315.041 23.0996 314.893 22.818 314.834 22.5122C314.776 22.2063 314.809 21.89 314.93 21.6032C315.052 21.3164 315.255 21.072 315.515 20.9009C315.776 20.7299 316.081 20.6398 316.392 20.6422Z" fill="#3E3E3D"/>
<path d="M320.659 23.5682V22.3802L322.178 20.9052C325.83 17.4292 327.502 15.5812 327.502 13.4242C327.544 13.0451 327.499 12.6615 327.372 12.3019C327.245 11.9423 327.038 11.6161 326.768 11.3475C326.497 11.0789 326.169 10.8749 325.808 10.7507C325.448 10.6265 325.064 10.5853 324.685 10.6302C323.564 10.672 322.491 11.0994 321.649 11.8402L321.033 10.4762C322.166 9.53978 323.589 9.02646 325.059 9.02424C325.628 8.97345 326.201 9.04438 326.741 9.23231C327.28 9.42025 327.773 9.72088 328.188 10.1142C328.602 10.5076 328.928 10.9846 329.143 11.5136C329.359 12.0426 329.459 12.6114 329.438 13.1822C329.438 15.8232 327.524 17.9572 324.51 20.8612L323.388 21.9182V21.9622H329.788V23.5682H320.659Z" fill="#3E3E3D"/>
<path d="M341.473 16.2634C341.473 21.1264 339.646 23.8104 336.5 23.8104C333.705 23.8104 331.791 21.1914 331.747 16.4614C331.747 11.6424 333.838 9.02441 336.742 9.02441C339.734 9.02441 341.473 11.7084 341.473 16.2634ZM333.705 16.4834C333.705 20.2014 334.85 22.3144 336.605 22.3144C338.563 22.3144 339.505 20.0044 339.505 16.3514C339.505 12.8314 338.624 10.5204 336.605 10.5204C334.932 10.5204 333.705 12.5884 333.705 16.4834Z" fill="#3E3E3D"/>
<path d="M311.711 36.654C311.711 41.517 309.884 44.201 306.738 44.201C303.938 44.201 302.029 41.582 301.985 36.852C301.985 32.033 304.076 29.415 306.985 29.415C309.977 29.415 311.716 32.099 311.716 36.654M303.948 36.874C303.948 40.592 305.093 42.705 306.848 42.705C308.806 42.705 309.748 40.395 309.748 36.742C309.748 33.221 308.867 30.911 306.848 30.911C305.175 30.911 303.948 32.979 303.948 36.874Z" fill="#3E3E3D"/>
<path d="M317.102 41.0333C317.31 41.031 317.516 41.0705 317.708 41.1495C317.9 41.2286 318.074 41.3455 318.22 41.4934C318.365 41.6412 318.48 41.817 318.556 42.0101C318.633 42.2032 318.669 42.4097 318.664 42.6173C318.662 42.9287 318.568 43.2325 318.393 43.4903C318.218 43.748 317.971 43.9482 317.683 44.0654C317.394 44.1827 317.077 44.2117 316.772 44.1489C316.467 44.086 316.188 43.9342 315.969 43.7124C315.751 43.4907 315.603 43.2091 315.544 42.9033C315.486 42.5975 315.519 42.2811 315.64 41.9943C315.762 41.7075 315.965 41.4631 316.225 41.292C316.485 41.121 316.791 41.0309 317.102 41.0333Z" fill="#3E3E3D"/>
<path d="M329.311 31.0221C328.824 31.0094 328.338 31.0462 327.859 31.1321C326.582 31.2938 325.397 31.881 324.494 32.7991C323.592 33.7171 323.025 34.9124 322.886 36.1921H322.93C323.338 35.659 323.865 35.2296 324.47 34.9391C325.075 34.6485 325.74 34.505 326.411 34.5201C328.941 34.5201 330.723 36.3681 330.723 39.1411C330.759 39.7911 330.663 40.4417 330.44 41.0532C330.216 41.6648 329.871 42.2244 329.424 42.698C328.977 43.1715 328.439 43.5491 327.841 43.8077C327.244 44.0663 326.6 44.2005 325.949 44.2021C322.911 44.2021 320.91 41.8251 320.91 38.1021C320.865 36.9208 321.056 35.7423 321.471 34.6356C321.887 33.5288 322.519 32.516 323.33 31.6561C324.579 30.464 326.189 29.7208 327.907 29.5431C328.373 29.4715 328.844 29.4351 329.315 29.4341L329.311 31.0221ZM328.761 39.2731C328.761 37.2271 327.595 35.9941 325.813 35.9941C325.23 36.0022 324.66 36.1707 324.166 36.4812C323.672 36.7916 323.273 37.232 323.013 37.7541C322.88 38.0128 322.811 38.3 322.813 38.5911C322.835 40.9451 323.935 42.7051 325.982 42.7051C327.632 42.7051 328.754 41.3191 328.754 39.2731" fill="#3E3E3D"/>
<path d="M340.598 31.0221C340.112 31.0094 339.625 31.0462 339.146 31.1321C337.869 31.2938 336.684 31.881 335.781 32.7991C334.879 33.7171 334.313 34.9124 334.173 36.1921H334.217C334.624 35.6595 335.151 35.2305 335.755 34.94C336.36 34.6495 337.024 34.5056 337.694 34.5201C340.224 34.5201 342.006 36.3681 342.006 39.1411C342.042 39.7911 341.946 40.4417 341.723 41.0532C341.499 41.6648 341.154 42.2244 340.707 42.698C340.26 43.1715 339.722 43.5491 339.124 43.8077C338.527 44.0663 337.883 44.2005 337.232 44.2021C334.194 44.2021 332.193 41.8251 332.193 38.1021C332.148 36.9208 332.339 35.7424 332.754 34.6357C333.169 33.529 333.801 32.516 334.612 31.6561C335.862 30.4643 337.472 29.7212 339.19 29.5431C339.656 29.4715 340.127 29.4351 340.598 29.4341V31.0221ZM340.048 39.2731C340.048 37.2271 338.882 35.9941 337.1 35.9941C336.518 36.0031 335.949 36.1721 335.456 36.4825C334.963 36.7928 334.565 37.2327 334.305 37.7541C334.172 38.0128 334.103 38.3 334.105 38.5911C334.127 40.9451 335.227 42.7051 337.274 42.7051C338.924 42.7051 340.046 41.3191 340.046 39.2731" fill="#3E3E3D"/>
<path d="M0.502014 212.66V119.928" stroke="#272817" stroke-width="0.5" stroke-linecap="round" stroke-linejoin="round"/>
<path d="M26.794 212.66V119.928" stroke="#272817" stroke-width="0.5" stroke-linecap="round" stroke-linejoin="round"/>
<path d="M13.921 212.66V119.928H16.976V212.66" stroke="#272817" stroke-width="0.5" stroke-linecap="round" stroke-linejoin="round"/>
<path d="M16.976 163.457H13.921V168.585H16.976V163.457Z" stroke="#272817" stroke-width="0.5" stroke-linecap="round" stroke-linejoin="round"/>
<path d="M16.976 207.532H13.921V212.66H16.976V207.532Z" stroke="#272817" stroke-width="0.5" stroke-linecap="round" stroke-linejoin="round"/>
<path d="M16.976 119.928H13.921V125.056H16.976V119.928Z" stroke="#272817" stroke-width="0.5" stroke-linecap="round" stroke-linejoin="round"/>
<path d="M0.502014 558.057V465.217" stroke="#272817" stroke-width="0.5" stroke-linecap="round" stroke-linejoin="round"/>
<path d="M26.794 558.057V465.217" stroke="#272817" stroke-width="0.5" stroke-linecap="round" stroke-linejoin="round"/>
<path d="M13.921 558.056V465.216H16.976V558.056" stroke="#272817" stroke-width="0.5" stroke-linecap="round" stroke-linejoin="round"/>
<path d="M16.976 508.854H13.921V513.982H16.976V508.854Z" stroke="#272817" stroke-width="0.5" stroke-linecap="round" stroke-linejoin="round"/>
<path d="M16.976 465.217H13.921V470.453H16.976V465.217Z" stroke="#272817" stroke-width="0.5" stroke-linecap="round" stroke-linejoin="round"/>
<path d="M0.502014 365.284V306.482" stroke="#272817" stroke-width="0.5" stroke-linecap="round" stroke-linejoin="round"/>
<path d="M26.794 365.284V306.482" stroke="#272817" stroke-width="0.5" stroke-linecap="round" stroke-linejoin="round"/>
<path d="M13.921 365.288V306.488H16.976V365.288" stroke="#272817" stroke-width="0.5" stroke-linecap="round" stroke-linejoin="round"/>
<path d="M16.976 360.048H13.921V365.284H16.976V360.048Z" stroke="#272817" stroke-width="0.5" stroke-linecap="round" stroke-linejoin="round"/>
<path d="M16.976 306.482H13.921V311.609H16.976V306.482Z" stroke="#272817" stroke-width="0.5" stroke-linecap="round" stroke-linejoin="round"/>
<path d="M60.286 46.7251H153.563" stroke="#272817" stroke-width="0.5" stroke-linecap="round" stroke-linejoin="round"/>
<path d="M60.286 73.0171H153.563" stroke="#272817" stroke-width="0.5" stroke-linecap="round" stroke-linejoin="round"/>
<path d="M60.286 60.144H153.563V63.199H60.286" stroke="#272817" stroke-width="0.5" stroke-linecap="round" stroke-linejoin="round"/>
<path d="M399.901 46.7251H493.178" stroke="#272817" stroke-width="0.5" stroke-linecap="round" stroke-linejoin="round"/>
<path d="M399.901 73.0171H493.178" stroke="#272817" stroke-width="0.5" stroke-linecap="round" stroke-linejoin="round"/>
<path d="M399.901 60.144H493.178V63.199H399.901" stroke="#272817" stroke-width="0.5" stroke-linecap="round" stroke-linejoin="round"/>
<path d="M109.489 60.144H104.361V63.199H109.489V60.144Z" stroke="#272817" stroke-width="0.5" stroke-linecap="round" stroke-linejoin="round"/>
<path d="M65.413 60.144H60.286V63.199H65.413V60.144Z" stroke="#272817" stroke-width="0.5" stroke-linecap="round" stroke-linejoin="round"/>
<path d="M153.563 60.144H148.435V63.199H153.563V60.144Z" stroke="#272817" stroke-width="0.5" stroke-linecap="round" stroke-linejoin="round"/>
<path d="M326.698 60.144H321.57V63.199H326.698V60.144Z" stroke="#272817" stroke-width="0.5" stroke-linecap="round" stroke-linejoin="round"/>
<path d="M449.103 60.144H443.975V63.199H449.103V60.144Z" stroke="#272817" stroke-width="0.5" stroke-linecap="round" stroke-linejoin="round"/>
<path d="M405.029 60.144H399.901V63.199H405.029V60.144Z" stroke="#272817" stroke-width="0.5" stroke-linecap="round" stroke-linejoin="round"/>
<path d="M493.177 60.144H488.05V63.199H493.177V60.144Z" stroke="#272817" stroke-width="0.5" stroke-linecap="round" stroke-linejoin="round"/>
<path d="M326.698 60.144H321.57V63.199H326.698V60.144Z" stroke="#272817" stroke-width="0.5" stroke-linecap="round" stroke-linejoin="round"/>
<path d="M167.964 46.726V0.250977H352.99V46.726" stroke="#272817" stroke-width="0.5" stroke-linecap="round" stroke-linejoin="round"/>
<path d="M173.091 46.7263V5.48828H347.862V46.7263" stroke="#272817" stroke-width="0.5" stroke-linecap="round" stroke-linejoin="round"/>
<path d="M274.659 60.144H326.697V63.199H274.659" stroke="#272817" stroke-width="0.5" stroke-linecap="round" stroke-linejoin="round"/>
<path d="M279.786 60.144H274.659V63.199H279.786V60.144Z" stroke="#272817" stroke-width="0.5" stroke-linecap="round" stroke-linejoin="round"/>
<path d="M274.659 73.0171V46.7251H326.697" stroke="#272817" stroke-width="0.5" stroke-linecap="round" stroke-linejoin="round"/>
<path d="M0.5 614.208V558.528H26.78V587.928H219.5V467.328H183.38V425.808H181.46V421.968H183.38V340.008H224.18V344.208H187.58V399.888H209.66V441.048H272.06V344.208H265.82V343.848H263.9V340.008H301.94V344.208H276.74L276.14 441.048H306.02V462.168H308.779V467.328H245.779V614.208H0.5ZM308.78 467.328L310.341 465.768L346.58 502.128L345.02 503.568L308.78 467.328ZM362.78 467.328V441.048H363.74V428.808H367.579L366.499 427.608L393.139 400.968L394.219 402.048L367.579 428.808V430.728H367.939V441.048H527.66V363.288H367.939V388.968H363.739V325.128H367.939V359.088H527.66V73.008H493.1V46.728H553.94V467.328H362.78ZM16.94 465.288H0.5V365.328H26.78V399.888H121.58V371.448H125.661V421.968H130.821V426.168H26.78V465.288H16.94ZM153.62 451.368L180.26 424.607L181.46 425.808L154.7 452.448L153.62 451.368ZM236.06 369.408L262.821 342.768L263.901 343.848L237.14 370.488L236.06 369.408ZM95.18 358.368L121.94 331.728V329.688H121.58V278.208H26.78V306.528H0.5V213.288H26.78V274.008H136.58V278.208H125.66V331.728H121.94L123.02 332.808L96.38 359.568L95.18 358.368ZM271.58 278.208H269.54V274.368L268.46 275.568L241.7 248.808L242.9 247.728L269.54 274.368H271.58V274.008L363.26 273.528L363.74 73.008H326.66V46.728H399.86V73.008H367.94V278.208H271.58ZM188.54 278.208H186.62V274.368L185.42 275.568L158.78 248.808L159.86 247.728L186.62 274.368H188.54V274.008H194.781V73.008H153.5V46.728H233.42V73.008H198.86V274.008H224.66V278.208H188.54ZM16.94 119.928H0.5V46.728H60.26V73.008H26.78V119.928H16.94Z" fill="#272817"/>
</svg>
