<svg width="360" height="160" viewBox="0 0 360 160" fill="none" xmlns="http://www.w3.org/2000/svg">
<g clip-path="url(#clip0_1523_129)">
<mask id="mask0_1523_129" style="mask-type:luminance" maskUnits="userSpaceOnUse" x="0" y="0" width="360" height="160">
<path d="M0 0H360V160H0V0Z" fill="white"/>
</mask>
<g mask="url(#mask0_1523_129)">
<path d="M4.418 4.37598V90.792H36.751V70.539H60.785V66.146H88.457V4.37598H4.418Z" fill="#C9B08A"/>
<path d="M25.706 159.7H39.106V155.3H25.706V159.7ZM320.932 159.7H334.332V155.3H320.932V159.7ZM151.215 133.547V155.3H143.174V159.7H156.574V155.3H151.916V133.547H151.215ZM44.559 130.123H45.259V124.5H61.084V155.3H54.756V159.7H69.388V155.3H65.477V136.185H61.787V124.5H69.122V123.8L44.559 123.792V130.123ZM91.359 123.79H76.991V124.49H91.361V155.3H85.034V159.7H98.434V155.3H92.063V122.96H91.363L91.359 123.79ZM327.3 130.379H326.07V131.038H355.6V155.3H349.98V159.7H360V123H355.6V130.386H328V121.463H327.3V130.379ZM34.364 117.82V123.791H4.438V118.345H0V159.7H10.063V155.3H4.438V124.5H35.024V117.82H34.364ZM269.692 115.663V116.103H265.56V116.939H269.692V155.3H261.649V159.7H275.049V155.3H270.4V115.663H269.692ZM210.892 111.181V155.3H203.555V159.7H216.955V155.3H211.6V111.84H212.347V111.182L210.892 111.181ZM66.444 90.833V95.233H73.52V113.6H67.9V114.259H75.943V113.6H74.224V95.23H90.131V113.6H82.969V114.259H91.361V115.095H92.061V114.259H92.461V113.6H90.835V95.23H105.028V113.6H99.491V114.259H106.128V113.6H105.728V95.23H118.6V113.6H113.15V114.259H118.6V155.3H114.08V159.7H127.528V155.3H123V125.2H151.211V125.68H151.911V124.5H143.08V108.721H141.848V109.421H142.376V124.5H123V109.425H134.867V108.725H123V95.23H126.385V90.83L66.444 90.833ZM233.744 90.833V95.233H237.084V111.182H220.254V111.843H237.085V155.3H232.6V159.7H246V155.3H241.518V116.938H257.7V116.1H257.263V108.716H256.563V116.1H241.533V95.23H256.563V101.73H257.263V95.23H258.139V90.83L233.744 90.833ZM267.625 90.833V95.233H273.691V106.66H268.241V107.36H269.692V107.797H270.392V107.36H274.392V95.23H296.363V155.3H290.738V159.7H305.238V155.3H300.758V131.04H318.2V130.379H316.486V123.439H315.826V130.379H300.755V110.65H315.83V116.45H316.488V109.95H300.761V95.23H307.355V90.83L267.625 90.833ZM355.605 89.433V98.353H337.545V103.978H328.007V103.541H327.307V113.6H328.007V104.679H338.207V99.05H355.607V107.357H360V89.428L355.605 89.433ZM164.09 84.771H195.908V90.833H164.09V84.771ZM196.084 55.283H160.8V68.2H164.1V58.576H178.383V81.476H164.091V79.89H160.791V90.833H140.933V87.187H137.633V90.833H135.875V95.233H156.044V100.858H156.744V95.23H177.844V155.3H172.219V159.7H187.863V155.3H182.238V111.84H202.238V109.862H201.538V111.182H182.241V95.23H201.533V102.875H202.233V95.23H224.208V90.83H222.408V87.187H219.108V90.833H199.2V79.89H195.9V81.473H181.67V58.573H195.908V68.2H199.2V55.283H196.084ZM2.769 53.438H0V70.223H4.438V63.675H21.885V62.975H21.052V54.49H20.352V59.235H4.438V53.435L2.769 53.438ZM326.382 49.659V50.359H329.588V66.181H318.735V50.359H319.349V49.659H318.074V66.181H316.847V70.574H317.988V90.833H316.847V95.233H327.3V95.673H328V94.573H322.375V70.573H355.6V73.784H360V59.235H355.6V66.182H330.247V50.359H335.873V49.659H326.382ZM44.559 49.917H45.614V66.177H35.114V59.235H31.42V49.919H37.572V49.219H30.718V70.574H36.784V90.833H4.438V85.91H0V102.7H4.438V95.23H34.364V109.949H35.024V109.509H41V108.809H35.024V95.23H54.054V108.807H48.031V109.507H54.756V95.23H56.909V90.83H41.176V70.574H51.284V66.181H46.271L46.36 49.919H50.625V49.219H44.559V49.917ZM355.6 43.593H360V27.947H355.6V43.593ZM0 27.948V43.593H4.438V38.847H20.347V47.506H21.047V38.847H22.847V38.147H4.438V27.947L0 27.948ZM241 36.076H241.7V25.706H241V36.076ZM0 0V12.259H4.438V4.393H10.063V0H0ZM25.706 0V4.393H32.606V38.145H31.6V38.845H37.621V38.145H33.31V4.393H39.11V0H25.706ZM54.756 0V4.393H60.994L60.908 38.056L45.529 38.144V38.844H61.7V4.393H67.06V0H54.756ZM82.7 0V4.393H88.5V52.426H61.7V46.714H61V57.434H61.7V53.134H88.5V66.181H61.7V64.424H61V66.181H60.824V70.574H98.524V66.181H92.9V49.745H98.526V49.045H92.9V4.393H106.216V0H82.7ZM121.9 0V4.393H136.493V49.043H110.213V48.78H110.125V43.593H110.213V43.418H109.513V55.371H110.213V49.745H119.882V56.207H120.582V49.745H136.489V66.181H120.589V61.654H119.889V66.181H110.219V62.356H109.519V66.181H108.07V70.574H137.644V75.1H140.944V43.593H144.283V40.3H140.944V22.982H144.8V22.324H140.933V4.393H147.656V0H121.9ZM158.817 0V4.393H164.793V22.324H154.334V22.982H164.792L164.837 40.298H153.807V43.598H164.792V44.473H169.192V4.393H172.224V0H158.817ZM187.777 0V4.393H190.807V44.471H195.247V43.593H206.229V40.3H195.249V22.982H205.707V22.324H195.248V4.393H201.227V0H187.777ZM212.34 0V4.393H219.108V22.324H215.2V22.982H219.113V40.3H215.726V43.6H219.113V75.1H222.408V70.574H230.274V66.181H223.506V48.865H229.131V48.165H223.506V4.393H238.14V0H212.34ZM253.78 0V4.393H267.1V49.568H241.7V43.944H241V52.16H241.7V50.27H267.1V66.181H241.7V59.151H241V66.182H239.768V70.574H307.357V66.181H301.64V50.359H307.265V49.659H300.938V66.181H288.149V50.359H293.949V49.659H288.149V48.6H287.449V66.181H271.538V41H287.447V41.618H288.147V41H288.72V40.3H271.54V4.393H277.34V0H253.78ZM292.98 0V4.393H299.221V40.3H295.751V41H304.235V40.3H299.883V4.393H305.243V0H292.98ZM320.929 0V4.393H327.215V40.3H312.1V41H327.917V4.393H334.334V0H320.929ZM349.98 0V4.393H355.6V12.259H360V0H349.98Z" fill="#E3D5C2"/>
</g>
</g>
<defs>
<clipPath id="clip0_1523_129">
<rect width="360" height="160" fill="white"/>
</clipPath>
</defs>
</svg>
