<svg data-name="Сгруппировать 160" xmlns="http://www.w3.org/2000/svg" width="122.208" height="125.336" viewBox="0 0 122.208 125.336">
    <defs>
        <clipPath id="r6jmz0ijba">
            <path data-name="Прямоугольник 261" style="fill:#8b6439" d="M0 0h122.208v125.336H0z"/>
        </clipPath>
    </defs>
    <g data-name="Сгруппировать 159" style="clip-path:url(#r6jmz0ijba)">
        <path data-name="Контур 124" d="M3.741 16.192a.11.11 0 0 0-.11-.11h-.69a.112.112 0 0 0-.043.009.106.106 0 0 0-.032.021.073.073 0 0 0 0 .007.1.1 0 0 0-.019.029.109.109 0 0 0-.008.037v.006H0V36.8h5.838V16.2zM.221 36.574V16.412h2.61v.919a.07.07 0 0 0 0 .007l.011 8.423a.109.109 0 0 0-.012.049v1.14a.108.108 0 0 0 .015.05l.012 9.574zm3.3-.01h-.443v-.919h.442zm0-1.139h-.444l-.011-8.365h.454zm0-8.585h-.456v-.919h.455zm0-1.139h-.457l-.011-8.258h.467zm0-8.479h-.468v-.808h.467zm2.1-.808v20.16h-1.88V16.412zM0 112.935h2.857a.109.109 0 0 0 .054.092v.014a.055.055 0 0 0 .055.055h.664a.055.055 0 0 0 .055-.055v-.013a.109.109 0 0 0 .055-.093h2.1v-20.6H0zm3.741-9.725V92.552h1.876v20.162H3.741zm-.688-9.51h.467v8.258h-.456zm.024 18.144-.011-8.526h.454v8.526zm.443.11v.757h-.442v-.757zm-.455-8.854v-.918h.455v.918zm.468 9.886h-.469a.108.108 0 0 0 .014-.051h.442a.108.108 0 0 0 .014.051M3.52 92.563v.919h-.467v-.919zm-3.3-.01h2.61v1.039a.07.07 0 0 0 0 .007l.011 8.475-.012 1.135a.109.109 0 0 0 .014.052l.012 9.454H.221zM108.788 2.888V0h-20.6v2.885a.11.11 0 0 0-.11.11v.689a.11.11 0 0 0 .11.11v2.044h20.6V3.792a.109.109 0 0 0 .1-.108V3a.109.109 0 0 0-.1-.107m-20.383.218h.808v.468h-.808zm20.162 2.511H88.405V3.8h20.162zM89.434 3.106H97.8v.468h-8.366zm8.585 0h.919v.468h-.918zm1.139 0h8.364v.468h-8.363zm9.408.468h-.823v-.468h.823zm0-.689H88.405V.221h20.162zm-74.773 0V0H13.19v2.886a.11.11 0 0 0-.1.109v.689a.11.11 0 0 0 .1.109v2.045h20.6V3.793a.109.109 0 0 0 .1-.109V3a.109.109 0 0 0-.1-.108m-20.383.219h.814v.468h-.814zm20.166 2.506H13.411V3.8h20.162zM14.446 3.106h8.364v.468h-8.364zm8.585 0h.919v.468h-.919zm1.139 0h8.364v.468H24.17zm9.4.468h-.817v-.468h.817zm0-.689H13.411V.221h20.162zm38.455 0V0h-20.6v2.887a.11.11 0 0 0-.1.109v.689a.11.11 0 0 0 .1.109v2.044h20.6V3.794a.11.11 0 0 0 .1-.109V3a.11.11 0 0 0-.1-.109m-20.383.219h.815v.468h-.815zm20.166 2.507H51.646V3.8h20.162zM52.682 3.106h8.364v.468h-8.364zm8.585 0h.919v.468h-.919zm1.139 0h8.364v.468h-8.363zm9.4.468h-.815v-.468h.815zm0-.689h-20.16V.221h20.162zM3.63 57.285h-.689a.112.112 0 0 0-.043.009.109.109 0 0 0-.059.059.1.1 0 0 0-.007.034v.008H0v12.984h2.857a.1.1 0 0 0 .006.025.1.1 0 0 0 0 .017.107.107 0 0 0 .015.022.1.1 0 0 0 .009.013.116.116 0 0 0 .023.015l.012.008a.11.11 0 0 0 .043.009h.665a.11.11 0 0 0 .11-.11h2.1V57.4h-2.1a.11.11 0 0 0-.11-.11m-.778 12.868H.221V57.616h2.61v.919a.1.1 0 0 0 0 .012l.022 10.628a.109.109 0 0 0-.024.068zm.668 0h-.442v-.808h.442zm0-1.029h-.444l-.022-10.484h.466zm0-10.705h-.466v-.808h.466zm2.1 11.734H3.741V57.616h1.876z" style="fill:#8b6439"/>
        <path data-name="Контур 125" d="M3.63 16.291H5.8V5.93h7.4V.127H0v16.164h3.63zm0 41.2H5.8v-6.25h20.936v11.368h.079v.45h.821V51.241h2.411v-.927H5.8V36.906H0v20.589h3.63zm17.542 11.716 5.882-5.907-.238-.238-5.909 5.882zM42.9 12.766v37.548h-1.378v.079H41.1v.848h8.4v-.927h-5.7V5.93h7.631V.127H33.785v5.8H42.9zm16.508 37.627-5.882-5.882-.265.238 5.909 5.909zm-24.457-5.644 5.882 5.909.265-.265-5.909-5.882zm24.908 6.492h21.277V5.93h7.048V.127H72.021v5.8h8.188L80.1 50.208l-20.244.106v.079h-.45v.848zM86.7 78.348l-5.882 5.882.238.265 5.882-5.909zM108.773.127v5.8h7.627V69.1H81.136v-7.5h-.927v14.1h.927v-5.672H116.4V87.2H81.136v-2.28h-.079v-.42h-.848v2.7H80V93h42.211V.127zM68.073 93l8 8 .344-.318-8-8.029zM3.63 92.551H5.8v-8.638h22.977v-.927h-1.14V71.83h-.9v6.28H5.8v-7.632H0v22.073h3.63zm30.181-3.074.238.238 5.909-5.882-.265-.265zm18.2-18.1.238.238 5.909-5.882-.238-.238zm15.452 20.485V87.2h-6.6L61 65.815h5.565v-.927h-8.4v.848h.424v.079h1.378V87.2H46.186v-9.09H41.31V65.815h8.082v-.927h-9.009v18.1h-.424v.848h.424V93h7.976v26.63H5.8v-6.49H0v12.295h54.161V93h13.912v-1.138z" transform="translate(0 -.099)" style="fill:#8b6439"/>
    </g>
</svg>
